G75*
G70*
%OFA0B0*%
%FSLAX24Y24*%
%IPPOS*%
%LPD*%
%AMOC8*
5,1,8,0,0,1.08239X$1,22.5*
%
%ADD10C,0.0128*%
%ADD11R,0.0400X0.0150*%
%ADD12C,0.0102*%
%ADD13C,0.0020*%
%ADD14R,0.0118X0.0315*%
%ADD15R,0.0945X0.0866*%
%ADD16R,0.0512X0.0335*%
%ADD17R,0.0394X0.0394*%
%ADD18C,0.0184*%
%ADD19C,0.0325*%
%ADD20C,0.0266*%
%ADD21C,0.0095*%
%ADD22R,0.0315X0.0315*%
%ADD23R,0.1000X0.1051*%
%ADD24R,0.0315X0.0500*%
%ADD25C,0.0059*%
%ADD26C,0.0551*%
%ADD27C,0.0004*%
%ADD28C,0.0006*%
%ADD29C,0.0008*%
%ADD30C,0.0022*%
%ADD31C,0.0394*%
%ADD32C,0.0079*%
%ADD33C,0.0258*%
%ADD34C,0.0297*%
%ADD35C,0.0100*%
%ADD36C,0.0400*%
%ADD37C,0.0118*%
%ADD38C,0.0160*%
%ADD39C,0.0120*%
%ADD40C,0.0337*%
%ADD41C,0.0070*%
%ADD42C,0.0376*%
%ADD43C,0.0197*%
%ADD44C,0.0050*%
%ADD45C,0.0416*%
%ADD46C,0.0098*%
%ADD47C,0.0276*%
D10*
X012231Y008822D02*
X012421Y008822D01*
X012421Y008584D01*
X012231Y008584D01*
X012231Y008822D01*
X012231Y008711D02*
X012421Y008711D01*
X012869Y008584D02*
X013059Y008584D01*
X012869Y008584D02*
X012869Y008822D01*
X013059Y008822D01*
X013059Y008584D01*
X013059Y008711D02*
X012869Y008711D01*
X011699Y009116D02*
X011699Y009306D01*
X011937Y009306D01*
X011937Y009116D01*
X011699Y009116D01*
X011699Y009243D02*
X011937Y009243D01*
X011937Y009754D02*
X011937Y009944D01*
X011937Y009754D02*
X011699Y009754D01*
X011699Y009944D01*
X011937Y009944D01*
X011937Y009881D02*
X011699Y009881D01*
X013156Y009700D02*
X013156Y009510D01*
X013156Y009700D02*
X013394Y009700D01*
X013394Y009510D01*
X013156Y009510D01*
X013156Y009637D02*
X013394Y009637D01*
X013667Y009700D02*
X013667Y009510D01*
X013667Y009700D02*
X013905Y009700D01*
X013905Y009510D01*
X013667Y009510D01*
X013667Y009637D02*
X013905Y009637D01*
X013905Y010147D02*
X013905Y010337D01*
X013905Y010147D02*
X013667Y010147D01*
X013667Y010337D01*
X013905Y010337D01*
X013905Y010274D02*
X013667Y010274D01*
X013394Y010337D02*
X013394Y010147D01*
X013156Y010147D01*
X013156Y010337D01*
X013394Y010337D01*
X013394Y010274D02*
X013156Y010274D01*
D11*
X019604Y007207D03*
X019604Y006957D03*
X019604Y006707D03*
X019604Y006457D03*
X019604Y006207D03*
X019604Y005957D03*
X019604Y005707D03*
X019604Y005457D03*
X019604Y005207D03*
X019604Y004957D03*
X020204Y005207D03*
X020204Y005457D03*
X020204Y005707D03*
X020204Y005957D03*
X020204Y006207D03*
X020204Y006457D03*
X020204Y006707D03*
X020204Y006957D03*
D12*
X017455Y008081D02*
X017350Y008186D01*
X017453Y008289D01*
X017558Y008184D01*
X017455Y008081D01*
X017556Y008182D02*
X017354Y008182D01*
X017447Y008283D02*
X017459Y008283D01*
X017310Y008432D02*
X017205Y008537D01*
X017310Y008432D02*
X017207Y008329D01*
X017102Y008434D01*
X017205Y008537D01*
X017106Y008430D02*
X017308Y008430D01*
X017211Y008531D02*
X017199Y008531D01*
X013924Y006779D02*
X013819Y006884D01*
X013924Y006779D02*
X013821Y006676D01*
X013716Y006781D01*
X013819Y006884D01*
X013720Y006777D02*
X013922Y006777D01*
X013825Y006878D02*
X013813Y006878D01*
X013964Y006533D02*
X014069Y006428D01*
X013964Y006533D02*
X014067Y006636D01*
X014172Y006531D01*
X014069Y006428D01*
X014170Y006529D02*
X013968Y006529D01*
X014061Y006630D02*
X014073Y006630D01*
X013649Y006218D02*
X013754Y006113D01*
X013649Y006218D02*
X013752Y006321D01*
X013857Y006216D01*
X013754Y006113D01*
X013855Y006214D02*
X013653Y006214D01*
X013746Y006315D02*
X013758Y006315D01*
X013609Y006464D02*
X013504Y006569D01*
X013609Y006464D02*
X013506Y006361D01*
X013401Y006466D01*
X013504Y006569D01*
X013405Y006462D02*
X013607Y006462D01*
X013510Y006563D02*
X013498Y006563D01*
X011556Y007764D02*
X011406Y007764D01*
X011406Y007910D01*
X011556Y007910D01*
X011556Y007764D01*
X011556Y007865D02*
X011406Y007865D01*
X011206Y007910D02*
X011056Y007910D01*
X011206Y007910D02*
X011206Y007764D01*
X011056Y007764D01*
X011056Y007910D01*
X011056Y007865D02*
X011206Y007865D01*
X010769Y007764D02*
X010619Y007764D01*
X010619Y007910D01*
X010769Y007910D01*
X010769Y007764D01*
X010769Y007865D02*
X010619Y007865D01*
X010419Y007910D02*
X010269Y007910D01*
X010419Y007910D02*
X010419Y007764D01*
X010269Y007764D01*
X010269Y007910D01*
X010269Y007865D02*
X010419Y007865D01*
X009981Y007764D02*
X009831Y007764D01*
X009831Y007910D01*
X009981Y007910D01*
X009981Y007764D01*
X009981Y007865D02*
X009831Y007865D01*
X009631Y007910D02*
X009481Y007910D01*
X009631Y007910D02*
X009631Y007764D01*
X009481Y007764D01*
X009481Y007910D01*
X009481Y007865D02*
X009631Y007865D01*
X008635Y007803D02*
X008635Y007953D01*
X008781Y007953D01*
X008781Y007803D01*
X008635Y007803D01*
X008635Y007904D02*
X008781Y007904D01*
X008781Y008154D02*
X008781Y008304D01*
X008781Y008154D02*
X008635Y008154D01*
X008635Y008304D01*
X008781Y008304D01*
X008781Y008255D02*
X008635Y008255D01*
X011970Y005174D02*
X011970Y005024D01*
X011824Y005024D01*
X011824Y005174D01*
X011970Y005174D01*
X011970Y005125D02*
X011824Y005125D01*
X012363Y005174D02*
X012363Y005024D01*
X012217Y005024D01*
X012217Y005174D01*
X012363Y005174D01*
X012363Y005125D02*
X012217Y005125D01*
X012217Y004823D02*
X012217Y004673D01*
X012217Y004823D02*
X012363Y004823D01*
X012363Y004673D01*
X012217Y004673D01*
X012217Y004774D02*
X012363Y004774D01*
X011824Y004823D02*
X011824Y004673D01*
X011824Y004823D02*
X011970Y004823D01*
X011970Y004673D01*
X011824Y004673D01*
X011824Y004774D02*
X011970Y004774D01*
X011891Y003756D02*
X011891Y003606D01*
X011745Y003606D01*
X011745Y003756D01*
X011891Y003756D01*
X011891Y003707D02*
X011745Y003707D01*
X011745Y003406D02*
X011745Y003256D01*
X011745Y003406D02*
X011891Y003406D01*
X011891Y003256D01*
X011745Y003256D01*
X011745Y003357D02*
X011891Y003357D01*
X009973Y003327D02*
X009973Y003177D01*
X009973Y003327D02*
X010119Y003327D01*
X010119Y003177D01*
X009973Y003177D01*
X009973Y003278D02*
X010119Y003278D01*
X010119Y003528D02*
X010119Y003678D01*
X010119Y003528D02*
X009973Y003528D01*
X009973Y003678D01*
X010119Y003678D01*
X010119Y003629D02*
X009973Y003629D01*
X009686Y003678D02*
X009686Y003528D01*
X009540Y003528D01*
X009540Y003678D01*
X009686Y003678D01*
X009686Y003629D02*
X009540Y003629D01*
X009540Y003327D02*
X009540Y003177D01*
X009540Y003327D02*
X009686Y003327D01*
X009686Y003177D01*
X009540Y003177D01*
X009540Y003278D02*
X009686Y003278D01*
X008013Y003709D02*
X007863Y003709D01*
X007863Y003855D01*
X008013Y003855D01*
X008013Y003709D01*
X008013Y003810D02*
X007863Y003810D01*
X007663Y003855D02*
X007513Y003855D01*
X007663Y003855D02*
X007663Y003709D01*
X007513Y003709D01*
X007513Y003855D01*
X007513Y003810D02*
X007663Y003810D01*
X004076Y003236D02*
X003926Y003236D01*
X003926Y003382D01*
X004076Y003382D01*
X004076Y003236D01*
X004076Y003337D02*
X003926Y003337D01*
X003726Y003382D02*
X003576Y003382D01*
X003726Y003382D02*
X003726Y003236D01*
X003576Y003236D01*
X003576Y003382D01*
X003576Y003337D02*
X003726Y003337D01*
D13*
X003344Y006558D02*
X003344Y006852D01*
X003520Y006852D01*
X003520Y006558D01*
X003344Y006558D01*
X003344Y006577D02*
X003520Y006577D01*
X003520Y006596D02*
X003344Y006596D01*
X003344Y006615D02*
X003520Y006615D01*
X003520Y006634D02*
X003344Y006634D01*
X003344Y006653D02*
X003520Y006653D01*
X003520Y006672D02*
X003344Y006672D01*
X003344Y006691D02*
X003520Y006691D01*
X003520Y006710D02*
X003344Y006710D01*
X003344Y006729D02*
X003520Y006729D01*
X003520Y006748D02*
X003344Y006748D01*
X003344Y006767D02*
X003520Y006767D01*
X003520Y006786D02*
X003344Y006786D01*
X003344Y006805D02*
X003520Y006805D01*
X003520Y006824D02*
X003344Y006824D01*
X003344Y006843D02*
X003520Y006843D01*
X002950Y006852D02*
X002950Y006558D01*
X002950Y006852D02*
X003126Y006852D01*
X003126Y006558D01*
X002950Y006558D01*
X002950Y006577D02*
X003126Y006577D01*
X003126Y006596D02*
X002950Y006596D01*
X002950Y006615D02*
X003126Y006615D01*
X003126Y006634D02*
X002950Y006634D01*
X002950Y006653D02*
X003126Y006653D01*
X003126Y006672D02*
X002950Y006672D01*
X002950Y006691D02*
X003126Y006691D01*
X003126Y006710D02*
X002950Y006710D01*
X002950Y006729D02*
X003126Y006729D01*
X003126Y006748D02*
X002950Y006748D01*
X002950Y006767D02*
X003126Y006767D01*
X003126Y006786D02*
X002950Y006786D01*
X002950Y006805D02*
X003126Y006805D01*
X003126Y006824D02*
X002950Y006824D01*
X002950Y006843D02*
X003126Y006843D01*
X002950Y007247D02*
X002950Y007541D01*
X003126Y007541D01*
X003126Y007247D01*
X002950Y007247D01*
X002950Y007266D02*
X003126Y007266D01*
X003126Y007285D02*
X002950Y007285D01*
X002950Y007304D02*
X003126Y007304D01*
X003126Y007323D02*
X002950Y007323D01*
X002950Y007342D02*
X003126Y007342D01*
X003126Y007361D02*
X002950Y007361D01*
X002950Y007380D02*
X003126Y007380D01*
X003126Y007399D02*
X002950Y007399D01*
X002950Y007418D02*
X003126Y007418D01*
X003126Y007437D02*
X002950Y007437D01*
X002950Y007456D02*
X003126Y007456D01*
X003126Y007475D02*
X002950Y007475D01*
X002950Y007494D02*
X003126Y007494D01*
X003126Y007513D02*
X002950Y007513D01*
X002950Y007532D02*
X003126Y007532D01*
X003344Y007541D02*
X003344Y007247D01*
X003344Y007541D02*
X003520Y007541D01*
X003520Y007247D01*
X003344Y007247D01*
X003344Y007266D02*
X003520Y007266D01*
X003520Y007285D02*
X003344Y007285D01*
X003344Y007304D02*
X003520Y007304D01*
X003520Y007323D02*
X003344Y007323D01*
X003344Y007342D02*
X003520Y007342D01*
X003520Y007361D02*
X003344Y007361D01*
X003344Y007380D02*
X003520Y007380D01*
X003520Y007399D02*
X003344Y007399D01*
X003344Y007418D02*
X003520Y007418D01*
X003520Y007437D02*
X003344Y007437D01*
X003344Y007456D02*
X003520Y007456D01*
X003520Y007475D02*
X003344Y007475D01*
X003344Y007494D02*
X003520Y007494D01*
X003520Y007513D02*
X003344Y007513D01*
X003344Y007532D02*
X003520Y007532D01*
X014326Y006417D02*
X014561Y006182D01*
X014326Y006417D02*
X014381Y006472D01*
X014616Y006237D01*
X014561Y006182D01*
X014580Y006201D02*
X014542Y006201D01*
X014523Y006220D02*
X014599Y006220D01*
X014614Y006239D02*
X014504Y006239D01*
X014485Y006258D02*
X014595Y006258D01*
X014576Y006277D02*
X014466Y006277D01*
X014447Y006296D02*
X014557Y006296D01*
X014538Y006315D02*
X014428Y006315D01*
X014409Y006334D02*
X014519Y006334D01*
X014500Y006353D02*
X014390Y006353D01*
X014371Y006372D02*
X014481Y006372D01*
X014462Y006391D02*
X014352Y006391D01*
X014333Y006410D02*
X014443Y006410D01*
X014424Y006429D02*
X014338Y006429D01*
X014357Y006448D02*
X014405Y006448D01*
X014386Y006467D02*
X014376Y006467D01*
X014465Y006556D02*
X014700Y006321D01*
X014465Y006556D02*
X014520Y006611D01*
X014755Y006376D01*
X014700Y006321D01*
X014719Y006340D02*
X014681Y006340D01*
X014662Y006359D02*
X014738Y006359D01*
X014753Y006378D02*
X014643Y006378D01*
X014624Y006397D02*
X014734Y006397D01*
X014715Y006416D02*
X014605Y006416D01*
X014586Y006435D02*
X014696Y006435D01*
X014677Y006454D02*
X014567Y006454D01*
X014548Y006473D02*
X014658Y006473D01*
X014639Y006492D02*
X014529Y006492D01*
X014510Y006511D02*
X014620Y006511D01*
X014601Y006530D02*
X014491Y006530D01*
X014472Y006549D02*
X014582Y006549D01*
X014563Y006568D02*
X014477Y006568D01*
X014496Y006587D02*
X014544Y006587D01*
X014525Y006606D02*
X014515Y006606D01*
X014604Y006696D02*
X014839Y006461D01*
X014604Y006696D02*
X014659Y006751D01*
X014894Y006516D01*
X014839Y006461D01*
X014858Y006480D02*
X014820Y006480D01*
X014801Y006499D02*
X014877Y006499D01*
X014892Y006518D02*
X014782Y006518D01*
X014763Y006537D02*
X014873Y006537D01*
X014854Y006556D02*
X014744Y006556D01*
X014725Y006575D02*
X014835Y006575D01*
X014816Y006594D02*
X014706Y006594D01*
X014687Y006613D02*
X014797Y006613D01*
X014778Y006632D02*
X014668Y006632D01*
X014649Y006651D02*
X014759Y006651D01*
X014740Y006670D02*
X014630Y006670D01*
X014611Y006689D02*
X014721Y006689D01*
X014702Y006708D02*
X014616Y006708D01*
X014635Y006727D02*
X014683Y006727D01*
X014664Y006746D02*
X014654Y006746D01*
X014743Y006835D02*
X014978Y006600D01*
X014743Y006835D02*
X014798Y006890D01*
X015033Y006655D01*
X014978Y006600D01*
X014997Y006619D02*
X014959Y006619D01*
X014940Y006638D02*
X015016Y006638D01*
X015031Y006657D02*
X014921Y006657D01*
X014902Y006676D02*
X015012Y006676D01*
X014993Y006695D02*
X014883Y006695D01*
X014864Y006714D02*
X014974Y006714D01*
X014955Y006733D02*
X014845Y006733D01*
X014826Y006752D02*
X014936Y006752D01*
X014917Y006771D02*
X014807Y006771D01*
X014788Y006790D02*
X014898Y006790D01*
X014879Y006809D02*
X014769Y006809D01*
X014750Y006828D02*
X014860Y006828D01*
X014841Y006847D02*
X014755Y006847D01*
X014774Y006866D02*
X014822Y006866D01*
X014803Y006885D02*
X014793Y006885D01*
X014882Y006974D02*
X015117Y006739D01*
X014882Y006974D02*
X014937Y007029D01*
X015172Y006794D01*
X015117Y006739D01*
X015136Y006758D02*
X015098Y006758D01*
X015079Y006777D02*
X015155Y006777D01*
X015170Y006796D02*
X015060Y006796D01*
X015041Y006815D02*
X015151Y006815D01*
X015132Y006834D02*
X015022Y006834D01*
X015003Y006853D02*
X015113Y006853D01*
X015094Y006872D02*
X014984Y006872D01*
X014965Y006891D02*
X015075Y006891D01*
X015056Y006910D02*
X014946Y006910D01*
X014927Y006929D02*
X015037Y006929D01*
X015018Y006948D02*
X014908Y006948D01*
X014889Y006967D02*
X014999Y006967D01*
X014980Y006986D02*
X014894Y006986D01*
X014913Y007005D02*
X014961Y007005D01*
X014942Y007024D02*
X014932Y007024D01*
X015022Y007113D02*
X015257Y006878D01*
X015022Y007113D02*
X015077Y007168D01*
X015312Y006933D01*
X015257Y006878D01*
X015276Y006897D02*
X015238Y006897D01*
X015219Y006916D02*
X015295Y006916D01*
X015310Y006935D02*
X015200Y006935D01*
X015181Y006954D02*
X015291Y006954D01*
X015272Y006973D02*
X015162Y006973D01*
X015143Y006992D02*
X015253Y006992D01*
X015234Y007011D02*
X015124Y007011D01*
X015105Y007030D02*
X015215Y007030D01*
X015196Y007049D02*
X015086Y007049D01*
X015067Y007068D02*
X015177Y007068D01*
X015158Y007087D02*
X015048Y007087D01*
X015029Y007106D02*
X015139Y007106D01*
X015120Y007125D02*
X015034Y007125D01*
X015053Y007144D02*
X015101Y007144D01*
X015082Y007163D02*
X015072Y007163D01*
X015161Y007252D02*
X015396Y007017D01*
X015161Y007252D02*
X015216Y007307D01*
X015451Y007072D01*
X015396Y007017D01*
X015415Y007036D02*
X015377Y007036D01*
X015358Y007055D02*
X015434Y007055D01*
X015449Y007074D02*
X015339Y007074D01*
X015320Y007093D02*
X015430Y007093D01*
X015411Y007112D02*
X015301Y007112D01*
X015282Y007131D02*
X015392Y007131D01*
X015373Y007150D02*
X015263Y007150D01*
X015244Y007169D02*
X015354Y007169D01*
X015335Y007188D02*
X015225Y007188D01*
X015206Y007207D02*
X015316Y007207D01*
X015297Y007226D02*
X015187Y007226D01*
X015168Y007245D02*
X015278Y007245D01*
X015259Y007264D02*
X015173Y007264D01*
X015192Y007283D02*
X015240Y007283D01*
X015221Y007302D02*
X015211Y007302D01*
X015300Y007392D02*
X015535Y007157D01*
X015300Y007392D02*
X015355Y007447D01*
X015590Y007212D01*
X015535Y007157D01*
X015554Y007176D02*
X015516Y007176D01*
X015497Y007195D02*
X015573Y007195D01*
X015588Y007214D02*
X015478Y007214D01*
X015459Y007233D02*
X015569Y007233D01*
X015550Y007252D02*
X015440Y007252D01*
X015421Y007271D02*
X015531Y007271D01*
X015512Y007290D02*
X015402Y007290D01*
X015383Y007309D02*
X015493Y007309D01*
X015474Y007328D02*
X015364Y007328D01*
X015345Y007347D02*
X015455Y007347D01*
X015436Y007366D02*
X015326Y007366D01*
X015307Y007385D02*
X015417Y007385D01*
X015398Y007404D02*
X015312Y007404D01*
X015331Y007423D02*
X015379Y007423D01*
X015360Y007442D02*
X015350Y007442D01*
X015439Y007531D02*
X015674Y007296D01*
X015439Y007531D02*
X015494Y007586D01*
X015729Y007351D01*
X015674Y007296D01*
X015693Y007315D02*
X015655Y007315D01*
X015636Y007334D02*
X015712Y007334D01*
X015727Y007353D02*
X015617Y007353D01*
X015598Y007372D02*
X015708Y007372D01*
X015689Y007391D02*
X015579Y007391D01*
X015560Y007410D02*
X015670Y007410D01*
X015651Y007429D02*
X015541Y007429D01*
X015522Y007448D02*
X015632Y007448D01*
X015613Y007467D02*
X015503Y007467D01*
X015484Y007486D02*
X015594Y007486D01*
X015575Y007505D02*
X015465Y007505D01*
X015446Y007524D02*
X015556Y007524D01*
X015537Y007543D02*
X015451Y007543D01*
X015470Y007562D02*
X015518Y007562D01*
X015499Y007581D02*
X015489Y007581D01*
X015578Y007670D02*
X015813Y007435D01*
X015578Y007670D02*
X015633Y007725D01*
X015868Y007490D01*
X015813Y007435D01*
X015832Y007454D02*
X015794Y007454D01*
X015775Y007473D02*
X015851Y007473D01*
X015866Y007492D02*
X015756Y007492D01*
X015737Y007511D02*
X015847Y007511D01*
X015828Y007530D02*
X015718Y007530D01*
X015699Y007549D02*
X015809Y007549D01*
X015790Y007568D02*
X015680Y007568D01*
X015661Y007587D02*
X015771Y007587D01*
X015752Y007606D02*
X015642Y007606D01*
X015623Y007625D02*
X015733Y007625D01*
X015714Y007644D02*
X015604Y007644D01*
X015585Y007663D02*
X015695Y007663D01*
X015676Y007682D02*
X015590Y007682D01*
X015609Y007701D02*
X015657Y007701D01*
X015638Y007720D02*
X015628Y007720D01*
X015718Y007809D02*
X015953Y007574D01*
X015718Y007809D02*
X015773Y007864D01*
X016008Y007629D01*
X015953Y007574D01*
X015972Y007593D02*
X015934Y007593D01*
X015915Y007612D02*
X015991Y007612D01*
X016006Y007631D02*
X015896Y007631D01*
X015877Y007650D02*
X015987Y007650D01*
X015968Y007669D02*
X015858Y007669D01*
X015839Y007688D02*
X015949Y007688D01*
X015930Y007707D02*
X015820Y007707D01*
X015801Y007726D02*
X015911Y007726D01*
X015892Y007745D02*
X015782Y007745D01*
X015763Y007764D02*
X015873Y007764D01*
X015854Y007783D02*
X015744Y007783D01*
X015725Y007802D02*
X015835Y007802D01*
X015816Y007821D02*
X015730Y007821D01*
X015749Y007840D02*
X015797Y007840D01*
X015778Y007859D02*
X015768Y007859D01*
X015857Y007948D02*
X016092Y007713D01*
X015857Y007948D02*
X015912Y008003D01*
X016147Y007768D01*
X016092Y007713D01*
X016111Y007732D02*
X016073Y007732D01*
X016054Y007751D02*
X016130Y007751D01*
X016145Y007770D02*
X016035Y007770D01*
X016016Y007789D02*
X016126Y007789D01*
X016107Y007808D02*
X015997Y007808D01*
X015978Y007827D02*
X016088Y007827D01*
X016069Y007846D02*
X015959Y007846D01*
X015940Y007865D02*
X016050Y007865D01*
X016031Y007884D02*
X015921Y007884D01*
X015902Y007903D02*
X016012Y007903D01*
X015993Y007922D02*
X015883Y007922D01*
X015864Y007941D02*
X015974Y007941D01*
X015955Y007960D02*
X015869Y007960D01*
X015888Y007979D02*
X015936Y007979D01*
X015917Y007998D02*
X015907Y007998D01*
X015996Y008088D02*
X016231Y007853D01*
X015996Y008088D02*
X016051Y008143D01*
X016286Y007908D01*
X016231Y007853D01*
X016250Y007872D02*
X016212Y007872D01*
X016193Y007891D02*
X016269Y007891D01*
X016284Y007910D02*
X016174Y007910D01*
X016155Y007929D02*
X016265Y007929D01*
X016246Y007948D02*
X016136Y007948D01*
X016117Y007967D02*
X016227Y007967D01*
X016208Y007986D02*
X016098Y007986D01*
X016079Y008005D02*
X016189Y008005D01*
X016170Y008024D02*
X016060Y008024D01*
X016041Y008043D02*
X016151Y008043D01*
X016132Y008062D02*
X016022Y008062D01*
X016003Y008081D02*
X016113Y008081D01*
X016094Y008100D02*
X016008Y008100D01*
X016027Y008119D02*
X016075Y008119D01*
X016056Y008138D02*
X016046Y008138D01*
X016135Y008227D02*
X016370Y007992D01*
X016135Y008227D02*
X016190Y008282D01*
X016425Y008047D01*
X016370Y007992D01*
X016389Y008011D02*
X016351Y008011D01*
X016332Y008030D02*
X016408Y008030D01*
X016423Y008049D02*
X016313Y008049D01*
X016294Y008068D02*
X016404Y008068D01*
X016385Y008087D02*
X016275Y008087D01*
X016256Y008106D02*
X016366Y008106D01*
X016347Y008125D02*
X016237Y008125D01*
X016218Y008144D02*
X016328Y008144D01*
X016309Y008163D02*
X016199Y008163D01*
X016180Y008182D02*
X016290Y008182D01*
X016271Y008201D02*
X016161Y008201D01*
X016142Y008220D02*
X016252Y008220D01*
X016233Y008239D02*
X016147Y008239D01*
X016166Y008258D02*
X016214Y008258D01*
X016195Y008277D02*
X016185Y008277D01*
X016581Y008047D02*
X016816Y008282D01*
X016871Y008227D01*
X016636Y007992D01*
X016581Y008047D01*
X016617Y008011D02*
X016655Y008011D01*
X016674Y008030D02*
X016598Y008030D01*
X016583Y008049D02*
X016693Y008049D01*
X016712Y008068D02*
X016602Y008068D01*
X016621Y008087D02*
X016731Y008087D01*
X016750Y008106D02*
X016640Y008106D01*
X016659Y008125D02*
X016769Y008125D01*
X016788Y008144D02*
X016678Y008144D01*
X016697Y008163D02*
X016807Y008163D01*
X016826Y008182D02*
X016716Y008182D01*
X016735Y008201D02*
X016845Y008201D01*
X016864Y008220D02*
X016754Y008220D01*
X016773Y008239D02*
X016859Y008239D01*
X016840Y008258D02*
X016792Y008258D01*
X016811Y008277D02*
X016821Y008277D01*
X016955Y008143D02*
X016720Y007908D01*
X016955Y008143D02*
X017010Y008088D01*
X016775Y007853D01*
X016720Y007908D01*
X016756Y007872D02*
X016794Y007872D01*
X016813Y007891D02*
X016737Y007891D01*
X016722Y007910D02*
X016832Y007910D01*
X016851Y007929D02*
X016741Y007929D01*
X016760Y007948D02*
X016870Y007948D01*
X016889Y007967D02*
X016779Y007967D01*
X016798Y007986D02*
X016908Y007986D01*
X016927Y008005D02*
X016817Y008005D01*
X016836Y008024D02*
X016946Y008024D01*
X016965Y008043D02*
X016855Y008043D01*
X016874Y008062D02*
X016984Y008062D01*
X017003Y008081D02*
X016893Y008081D01*
X016912Y008100D02*
X016998Y008100D01*
X016979Y008119D02*
X016931Y008119D01*
X016950Y008138D02*
X016960Y008138D01*
X017094Y008003D02*
X016859Y007768D01*
X017094Y008003D02*
X017149Y007948D01*
X016914Y007713D01*
X016859Y007768D01*
X016895Y007732D02*
X016933Y007732D01*
X016952Y007751D02*
X016876Y007751D01*
X016861Y007770D02*
X016971Y007770D01*
X016990Y007789D02*
X016880Y007789D01*
X016899Y007808D02*
X017009Y007808D01*
X017028Y007827D02*
X016918Y007827D01*
X016937Y007846D02*
X017047Y007846D01*
X017066Y007865D02*
X016956Y007865D01*
X016975Y007884D02*
X017085Y007884D01*
X017104Y007903D02*
X016994Y007903D01*
X017013Y007922D02*
X017123Y007922D01*
X017142Y007941D02*
X017032Y007941D01*
X017051Y007960D02*
X017137Y007960D01*
X017118Y007979D02*
X017070Y007979D01*
X017089Y007998D02*
X017099Y007998D01*
X017233Y007864D02*
X016998Y007629D01*
X017233Y007864D02*
X017288Y007809D01*
X017053Y007574D01*
X016998Y007629D01*
X017034Y007593D02*
X017072Y007593D01*
X017091Y007612D02*
X017015Y007612D01*
X017000Y007631D02*
X017110Y007631D01*
X017129Y007650D02*
X017019Y007650D01*
X017038Y007669D02*
X017148Y007669D01*
X017167Y007688D02*
X017057Y007688D01*
X017076Y007707D02*
X017186Y007707D01*
X017205Y007726D02*
X017095Y007726D01*
X017114Y007745D02*
X017224Y007745D01*
X017243Y007764D02*
X017133Y007764D01*
X017152Y007783D02*
X017262Y007783D01*
X017281Y007802D02*
X017171Y007802D01*
X017190Y007821D02*
X017276Y007821D01*
X017257Y007840D02*
X017209Y007840D01*
X017228Y007859D02*
X017238Y007859D01*
X017372Y007725D02*
X017137Y007490D01*
X017372Y007725D02*
X017427Y007670D01*
X017192Y007435D01*
X017137Y007490D01*
X017173Y007454D02*
X017211Y007454D01*
X017230Y007473D02*
X017154Y007473D01*
X017139Y007492D02*
X017249Y007492D01*
X017268Y007511D02*
X017158Y007511D01*
X017177Y007530D02*
X017287Y007530D01*
X017306Y007549D02*
X017196Y007549D01*
X017215Y007568D02*
X017325Y007568D01*
X017344Y007587D02*
X017234Y007587D01*
X017253Y007606D02*
X017363Y007606D01*
X017382Y007625D02*
X017272Y007625D01*
X017291Y007644D02*
X017401Y007644D01*
X017420Y007663D02*
X017310Y007663D01*
X017329Y007682D02*
X017415Y007682D01*
X017396Y007701D02*
X017348Y007701D01*
X017367Y007720D02*
X017377Y007720D01*
X017512Y007586D02*
X017277Y007351D01*
X017512Y007586D02*
X017567Y007531D01*
X017332Y007296D01*
X017277Y007351D01*
X017313Y007315D02*
X017351Y007315D01*
X017370Y007334D02*
X017294Y007334D01*
X017279Y007353D02*
X017389Y007353D01*
X017408Y007372D02*
X017298Y007372D01*
X017317Y007391D02*
X017427Y007391D01*
X017446Y007410D02*
X017336Y007410D01*
X017355Y007429D02*
X017465Y007429D01*
X017484Y007448D02*
X017374Y007448D01*
X017393Y007467D02*
X017503Y007467D01*
X017522Y007486D02*
X017412Y007486D01*
X017431Y007505D02*
X017541Y007505D01*
X017560Y007524D02*
X017450Y007524D01*
X017469Y007543D02*
X017555Y007543D01*
X017536Y007562D02*
X017488Y007562D01*
X017507Y007581D02*
X017517Y007581D01*
X017651Y007447D02*
X017416Y007212D01*
X017651Y007447D02*
X017706Y007392D01*
X017471Y007157D01*
X017416Y007212D01*
X017452Y007176D02*
X017490Y007176D01*
X017509Y007195D02*
X017433Y007195D01*
X017418Y007214D02*
X017528Y007214D01*
X017547Y007233D02*
X017437Y007233D01*
X017456Y007252D02*
X017566Y007252D01*
X017585Y007271D02*
X017475Y007271D01*
X017494Y007290D02*
X017604Y007290D01*
X017623Y007309D02*
X017513Y007309D01*
X017532Y007328D02*
X017642Y007328D01*
X017661Y007347D02*
X017551Y007347D01*
X017570Y007366D02*
X017680Y007366D01*
X017699Y007385D02*
X017589Y007385D01*
X017608Y007404D02*
X017694Y007404D01*
X017675Y007423D02*
X017627Y007423D01*
X017646Y007442D02*
X017656Y007442D01*
X017790Y007307D02*
X017555Y007072D01*
X017790Y007307D02*
X017845Y007252D01*
X017610Y007017D01*
X017555Y007072D01*
X017591Y007036D02*
X017629Y007036D01*
X017648Y007055D02*
X017572Y007055D01*
X017557Y007074D02*
X017667Y007074D01*
X017686Y007093D02*
X017576Y007093D01*
X017595Y007112D02*
X017705Y007112D01*
X017724Y007131D02*
X017614Y007131D01*
X017633Y007150D02*
X017743Y007150D01*
X017762Y007169D02*
X017652Y007169D01*
X017671Y007188D02*
X017781Y007188D01*
X017800Y007207D02*
X017690Y007207D01*
X017709Y007226D02*
X017819Y007226D01*
X017838Y007245D02*
X017728Y007245D01*
X017747Y007264D02*
X017833Y007264D01*
X017814Y007283D02*
X017766Y007283D01*
X017785Y007302D02*
X017795Y007302D01*
X017929Y007168D02*
X017694Y006933D01*
X017929Y007168D02*
X017984Y007113D01*
X017749Y006878D01*
X017694Y006933D01*
X017730Y006897D02*
X017768Y006897D01*
X017787Y006916D02*
X017711Y006916D01*
X017696Y006935D02*
X017806Y006935D01*
X017825Y006954D02*
X017715Y006954D01*
X017734Y006973D02*
X017844Y006973D01*
X017863Y006992D02*
X017753Y006992D01*
X017772Y007011D02*
X017882Y007011D01*
X017901Y007030D02*
X017791Y007030D01*
X017810Y007049D02*
X017920Y007049D01*
X017939Y007068D02*
X017829Y007068D01*
X017848Y007087D02*
X017958Y007087D01*
X017977Y007106D02*
X017867Y007106D01*
X017886Y007125D02*
X017972Y007125D01*
X017953Y007144D02*
X017905Y007144D01*
X017924Y007163D02*
X017934Y007163D01*
X018068Y007029D02*
X017833Y006794D01*
X018068Y007029D02*
X018123Y006974D01*
X017888Y006739D01*
X017833Y006794D01*
X017869Y006758D02*
X017907Y006758D01*
X017926Y006777D02*
X017850Y006777D01*
X017835Y006796D02*
X017945Y006796D01*
X017964Y006815D02*
X017854Y006815D01*
X017873Y006834D02*
X017983Y006834D01*
X018002Y006853D02*
X017892Y006853D01*
X017911Y006872D02*
X018021Y006872D01*
X018040Y006891D02*
X017930Y006891D01*
X017949Y006910D02*
X018059Y006910D01*
X018078Y006929D02*
X017968Y006929D01*
X017987Y006948D02*
X018097Y006948D01*
X018116Y006967D02*
X018006Y006967D01*
X018025Y006986D02*
X018111Y006986D01*
X018092Y007005D02*
X018044Y007005D01*
X018063Y007024D02*
X018073Y007024D01*
X018208Y006890D02*
X017973Y006655D01*
X018208Y006890D02*
X018263Y006835D01*
X018028Y006600D01*
X017973Y006655D01*
X018009Y006619D02*
X018047Y006619D01*
X018066Y006638D02*
X017990Y006638D01*
X017975Y006657D02*
X018085Y006657D01*
X018104Y006676D02*
X017994Y006676D01*
X018013Y006695D02*
X018123Y006695D01*
X018142Y006714D02*
X018032Y006714D01*
X018051Y006733D02*
X018161Y006733D01*
X018180Y006752D02*
X018070Y006752D01*
X018089Y006771D02*
X018199Y006771D01*
X018218Y006790D02*
X018108Y006790D01*
X018127Y006809D02*
X018237Y006809D01*
X018256Y006828D02*
X018146Y006828D01*
X018165Y006847D02*
X018251Y006847D01*
X018232Y006866D02*
X018184Y006866D01*
X018203Y006885D02*
X018213Y006885D01*
X018347Y006751D02*
X018112Y006516D01*
X018347Y006751D02*
X018402Y006696D01*
X018167Y006461D01*
X018112Y006516D01*
X018148Y006480D02*
X018186Y006480D01*
X018205Y006499D02*
X018129Y006499D01*
X018114Y006518D02*
X018224Y006518D01*
X018243Y006537D02*
X018133Y006537D01*
X018152Y006556D02*
X018262Y006556D01*
X018281Y006575D02*
X018171Y006575D01*
X018190Y006594D02*
X018300Y006594D01*
X018319Y006613D02*
X018209Y006613D01*
X018228Y006632D02*
X018338Y006632D01*
X018357Y006651D02*
X018247Y006651D01*
X018266Y006670D02*
X018376Y006670D01*
X018395Y006689D02*
X018285Y006689D01*
X018304Y006708D02*
X018390Y006708D01*
X018371Y006727D02*
X018323Y006727D01*
X018342Y006746D02*
X018352Y006746D01*
X018486Y006611D02*
X018251Y006376D01*
X018486Y006611D02*
X018541Y006556D01*
X018306Y006321D01*
X018251Y006376D01*
X018287Y006340D02*
X018325Y006340D01*
X018344Y006359D02*
X018268Y006359D01*
X018253Y006378D02*
X018363Y006378D01*
X018382Y006397D02*
X018272Y006397D01*
X018291Y006416D02*
X018401Y006416D01*
X018420Y006435D02*
X018310Y006435D01*
X018329Y006454D02*
X018439Y006454D01*
X018458Y006473D02*
X018348Y006473D01*
X018367Y006492D02*
X018477Y006492D01*
X018496Y006511D02*
X018386Y006511D01*
X018405Y006530D02*
X018515Y006530D01*
X018534Y006549D02*
X018424Y006549D01*
X018443Y006568D02*
X018529Y006568D01*
X018510Y006587D02*
X018462Y006587D01*
X018481Y006606D02*
X018491Y006606D01*
X018625Y006472D02*
X018390Y006237D01*
X018625Y006472D02*
X018680Y006417D01*
X018445Y006182D01*
X018390Y006237D01*
X018426Y006201D02*
X018464Y006201D01*
X018483Y006220D02*
X018407Y006220D01*
X018392Y006239D02*
X018502Y006239D01*
X018521Y006258D02*
X018411Y006258D01*
X018430Y006277D02*
X018540Y006277D01*
X018559Y006296D02*
X018449Y006296D01*
X018468Y006315D02*
X018578Y006315D01*
X018597Y006334D02*
X018487Y006334D01*
X018506Y006353D02*
X018616Y006353D01*
X018635Y006372D02*
X018525Y006372D01*
X018544Y006391D02*
X018654Y006391D01*
X018673Y006410D02*
X018563Y006410D01*
X018582Y006429D02*
X018668Y006429D01*
X018649Y006448D02*
X018601Y006448D01*
X018620Y006467D02*
X018630Y006467D01*
X018445Y006027D02*
X018680Y005792D01*
X018625Y005737D01*
X018390Y005972D01*
X018445Y006027D01*
X018606Y005756D02*
X018644Y005756D01*
X018663Y005775D02*
X018587Y005775D01*
X018568Y005794D02*
X018678Y005794D01*
X018659Y005813D02*
X018549Y005813D01*
X018530Y005832D02*
X018640Y005832D01*
X018621Y005851D02*
X018511Y005851D01*
X018492Y005870D02*
X018602Y005870D01*
X018583Y005889D02*
X018473Y005889D01*
X018454Y005908D02*
X018564Y005908D01*
X018545Y005927D02*
X018435Y005927D01*
X018416Y005946D02*
X018526Y005946D01*
X018507Y005965D02*
X018397Y005965D01*
X018402Y005984D02*
X018488Y005984D01*
X018469Y006003D02*
X018421Y006003D01*
X018440Y006022D02*
X018450Y006022D01*
X018306Y005888D02*
X018541Y005653D01*
X018486Y005598D01*
X018251Y005833D01*
X018306Y005888D01*
X018467Y005617D02*
X018505Y005617D01*
X018524Y005636D02*
X018448Y005636D01*
X018429Y005655D02*
X018539Y005655D01*
X018520Y005674D02*
X018410Y005674D01*
X018391Y005693D02*
X018501Y005693D01*
X018482Y005712D02*
X018372Y005712D01*
X018353Y005731D02*
X018463Y005731D01*
X018444Y005750D02*
X018334Y005750D01*
X018315Y005769D02*
X018425Y005769D01*
X018406Y005788D02*
X018296Y005788D01*
X018277Y005807D02*
X018387Y005807D01*
X018368Y005826D02*
X018258Y005826D01*
X018263Y005845D02*
X018349Y005845D01*
X018330Y005864D02*
X018282Y005864D01*
X018301Y005883D02*
X018311Y005883D01*
X018167Y005748D02*
X018402Y005513D01*
X018347Y005458D01*
X018112Y005693D01*
X018167Y005748D01*
X018328Y005477D02*
X018366Y005477D01*
X018385Y005496D02*
X018309Y005496D01*
X018290Y005515D02*
X018400Y005515D01*
X018381Y005534D02*
X018271Y005534D01*
X018252Y005553D02*
X018362Y005553D01*
X018343Y005572D02*
X018233Y005572D01*
X018214Y005591D02*
X018324Y005591D01*
X018305Y005610D02*
X018195Y005610D01*
X018176Y005629D02*
X018286Y005629D01*
X018267Y005648D02*
X018157Y005648D01*
X018138Y005667D02*
X018248Y005667D01*
X018229Y005686D02*
X018119Y005686D01*
X018124Y005705D02*
X018210Y005705D01*
X018191Y005724D02*
X018143Y005724D01*
X018162Y005743D02*
X018172Y005743D01*
X018028Y005609D02*
X018263Y005374D01*
X018208Y005319D01*
X017973Y005554D01*
X018028Y005609D01*
X018189Y005338D02*
X018227Y005338D01*
X018246Y005357D02*
X018170Y005357D01*
X018151Y005376D02*
X018261Y005376D01*
X018242Y005395D02*
X018132Y005395D01*
X018113Y005414D02*
X018223Y005414D01*
X018204Y005433D02*
X018094Y005433D01*
X018075Y005452D02*
X018185Y005452D01*
X018166Y005471D02*
X018056Y005471D01*
X018037Y005490D02*
X018147Y005490D01*
X018128Y005509D02*
X018018Y005509D01*
X017999Y005528D02*
X018109Y005528D01*
X018090Y005547D02*
X017980Y005547D01*
X017985Y005566D02*
X018071Y005566D01*
X018052Y005585D02*
X018004Y005585D01*
X018023Y005604D02*
X018033Y005604D01*
X017888Y005470D02*
X018123Y005235D01*
X018068Y005180D01*
X017833Y005415D01*
X017888Y005470D01*
X018049Y005199D02*
X018087Y005199D01*
X018106Y005218D02*
X018030Y005218D01*
X018011Y005237D02*
X018121Y005237D01*
X018102Y005256D02*
X017992Y005256D01*
X017973Y005275D02*
X018083Y005275D01*
X018064Y005294D02*
X017954Y005294D01*
X017935Y005313D02*
X018045Y005313D01*
X018026Y005332D02*
X017916Y005332D01*
X017897Y005351D02*
X018007Y005351D01*
X017988Y005370D02*
X017878Y005370D01*
X017859Y005389D02*
X017969Y005389D01*
X017950Y005408D02*
X017840Y005408D01*
X017845Y005427D02*
X017931Y005427D01*
X017912Y005446D02*
X017864Y005446D01*
X017883Y005465D02*
X017893Y005465D01*
X017749Y005331D02*
X017984Y005096D01*
X017929Y005041D01*
X017694Y005276D01*
X017749Y005331D01*
X017910Y005060D02*
X017948Y005060D01*
X017967Y005079D02*
X017891Y005079D01*
X017872Y005098D02*
X017982Y005098D01*
X017963Y005117D02*
X017853Y005117D01*
X017834Y005136D02*
X017944Y005136D01*
X017925Y005155D02*
X017815Y005155D01*
X017796Y005174D02*
X017906Y005174D01*
X017887Y005193D02*
X017777Y005193D01*
X017758Y005212D02*
X017868Y005212D01*
X017849Y005231D02*
X017739Y005231D01*
X017720Y005250D02*
X017830Y005250D01*
X017811Y005269D02*
X017701Y005269D01*
X017706Y005288D02*
X017792Y005288D01*
X017773Y005307D02*
X017725Y005307D01*
X017744Y005326D02*
X017754Y005326D01*
X017610Y005192D02*
X017845Y004957D01*
X017790Y004902D01*
X017555Y005137D01*
X017610Y005192D01*
X017771Y004921D02*
X017809Y004921D01*
X017828Y004940D02*
X017752Y004940D01*
X017733Y004959D02*
X017843Y004959D01*
X017824Y004978D02*
X017714Y004978D01*
X017695Y004997D02*
X017805Y004997D01*
X017786Y005016D02*
X017676Y005016D01*
X017657Y005035D02*
X017767Y005035D01*
X017748Y005054D02*
X017638Y005054D01*
X017619Y005073D02*
X017729Y005073D01*
X017710Y005092D02*
X017600Y005092D01*
X017581Y005111D02*
X017691Y005111D01*
X017672Y005130D02*
X017562Y005130D01*
X017567Y005149D02*
X017653Y005149D01*
X017634Y005168D02*
X017586Y005168D01*
X017605Y005187D02*
X017615Y005187D01*
X017471Y005052D02*
X017706Y004817D01*
X017651Y004762D01*
X017416Y004997D01*
X017471Y005052D01*
X017632Y004781D02*
X017670Y004781D01*
X017689Y004800D02*
X017613Y004800D01*
X017594Y004819D02*
X017704Y004819D01*
X017685Y004838D02*
X017575Y004838D01*
X017556Y004857D02*
X017666Y004857D01*
X017647Y004876D02*
X017537Y004876D01*
X017518Y004895D02*
X017628Y004895D01*
X017609Y004914D02*
X017499Y004914D01*
X017480Y004933D02*
X017590Y004933D01*
X017571Y004952D02*
X017461Y004952D01*
X017442Y004971D02*
X017552Y004971D01*
X017533Y004990D02*
X017423Y004990D01*
X017428Y005009D02*
X017514Y005009D01*
X017495Y005028D02*
X017447Y005028D01*
X017466Y005047D02*
X017476Y005047D01*
X017332Y004913D02*
X017567Y004678D01*
X017512Y004623D01*
X017277Y004858D01*
X017332Y004913D01*
X017493Y004642D02*
X017531Y004642D01*
X017550Y004661D02*
X017474Y004661D01*
X017455Y004680D02*
X017565Y004680D01*
X017546Y004699D02*
X017436Y004699D01*
X017417Y004718D02*
X017527Y004718D01*
X017508Y004737D02*
X017398Y004737D01*
X017379Y004756D02*
X017489Y004756D01*
X017470Y004775D02*
X017360Y004775D01*
X017341Y004794D02*
X017451Y004794D01*
X017432Y004813D02*
X017322Y004813D01*
X017303Y004832D02*
X017413Y004832D01*
X017394Y004851D02*
X017284Y004851D01*
X017289Y004870D02*
X017375Y004870D01*
X017356Y004889D02*
X017308Y004889D01*
X017327Y004908D02*
X017337Y004908D01*
X017192Y004774D02*
X017427Y004539D01*
X017372Y004484D01*
X017137Y004719D01*
X017192Y004774D01*
X017353Y004503D02*
X017391Y004503D01*
X017410Y004522D02*
X017334Y004522D01*
X017315Y004541D02*
X017425Y004541D01*
X017406Y004560D02*
X017296Y004560D01*
X017277Y004579D02*
X017387Y004579D01*
X017368Y004598D02*
X017258Y004598D01*
X017239Y004617D02*
X017349Y004617D01*
X017330Y004636D02*
X017220Y004636D01*
X017201Y004655D02*
X017311Y004655D01*
X017292Y004674D02*
X017182Y004674D01*
X017163Y004693D02*
X017273Y004693D01*
X017254Y004712D02*
X017144Y004712D01*
X017149Y004731D02*
X017235Y004731D01*
X017216Y004750D02*
X017168Y004750D01*
X017187Y004769D02*
X017197Y004769D01*
X017053Y004635D02*
X017288Y004400D01*
X017233Y004345D01*
X016998Y004580D01*
X017053Y004635D01*
X017214Y004364D02*
X017252Y004364D01*
X017271Y004383D02*
X017195Y004383D01*
X017176Y004402D02*
X017286Y004402D01*
X017267Y004421D02*
X017157Y004421D01*
X017138Y004440D02*
X017248Y004440D01*
X017229Y004459D02*
X017119Y004459D01*
X017100Y004478D02*
X017210Y004478D01*
X017191Y004497D02*
X017081Y004497D01*
X017062Y004516D02*
X017172Y004516D01*
X017153Y004535D02*
X017043Y004535D01*
X017024Y004554D02*
X017134Y004554D01*
X017115Y004573D02*
X017005Y004573D01*
X017010Y004592D02*
X017096Y004592D01*
X017077Y004611D02*
X017029Y004611D01*
X017048Y004630D02*
X017058Y004630D01*
X016914Y004496D02*
X017149Y004261D01*
X017094Y004206D01*
X016859Y004441D01*
X016914Y004496D01*
X017075Y004225D02*
X017113Y004225D01*
X017132Y004244D02*
X017056Y004244D01*
X017037Y004263D02*
X017147Y004263D01*
X017128Y004282D02*
X017018Y004282D01*
X016999Y004301D02*
X017109Y004301D01*
X017090Y004320D02*
X016980Y004320D01*
X016961Y004339D02*
X017071Y004339D01*
X017052Y004358D02*
X016942Y004358D01*
X016923Y004377D02*
X017033Y004377D01*
X017014Y004396D02*
X016904Y004396D01*
X016885Y004415D02*
X016995Y004415D01*
X016976Y004434D02*
X016866Y004434D01*
X016871Y004453D02*
X016957Y004453D01*
X016938Y004472D02*
X016890Y004472D01*
X016909Y004491D02*
X016919Y004491D01*
X016775Y004357D02*
X017010Y004122D01*
X016955Y004067D01*
X016720Y004302D01*
X016775Y004357D01*
X016936Y004086D02*
X016974Y004086D01*
X016993Y004105D02*
X016917Y004105D01*
X016898Y004124D02*
X017008Y004124D01*
X016989Y004143D02*
X016879Y004143D01*
X016860Y004162D02*
X016970Y004162D01*
X016951Y004181D02*
X016841Y004181D01*
X016822Y004200D02*
X016932Y004200D01*
X016913Y004219D02*
X016803Y004219D01*
X016784Y004238D02*
X016894Y004238D01*
X016875Y004257D02*
X016765Y004257D01*
X016746Y004276D02*
X016856Y004276D01*
X016837Y004295D02*
X016727Y004295D01*
X016732Y004314D02*
X016818Y004314D01*
X016799Y004333D02*
X016751Y004333D01*
X016770Y004352D02*
X016780Y004352D01*
X016636Y004217D02*
X016871Y003982D01*
X016816Y003927D01*
X016581Y004162D01*
X016636Y004217D01*
X016797Y003946D02*
X016835Y003946D01*
X016854Y003965D02*
X016778Y003965D01*
X016759Y003984D02*
X016869Y003984D01*
X016850Y004003D02*
X016740Y004003D01*
X016721Y004022D02*
X016831Y004022D01*
X016812Y004041D02*
X016702Y004041D01*
X016683Y004060D02*
X016793Y004060D01*
X016774Y004079D02*
X016664Y004079D01*
X016645Y004098D02*
X016755Y004098D01*
X016736Y004117D02*
X016626Y004117D01*
X016607Y004136D02*
X016717Y004136D01*
X016698Y004155D02*
X016588Y004155D01*
X016593Y004174D02*
X016679Y004174D01*
X016660Y004193D02*
X016612Y004193D01*
X016631Y004212D02*
X016641Y004212D01*
X016425Y004162D02*
X016190Y003927D01*
X016135Y003982D01*
X016370Y004217D01*
X016425Y004162D01*
X016209Y003946D02*
X016171Y003946D01*
X016152Y003965D02*
X016228Y003965D01*
X016247Y003984D02*
X016137Y003984D01*
X016156Y004003D02*
X016266Y004003D01*
X016285Y004022D02*
X016175Y004022D01*
X016194Y004041D02*
X016304Y004041D01*
X016323Y004060D02*
X016213Y004060D01*
X016232Y004079D02*
X016342Y004079D01*
X016361Y004098D02*
X016251Y004098D01*
X016270Y004117D02*
X016380Y004117D01*
X016399Y004136D02*
X016289Y004136D01*
X016308Y004155D02*
X016418Y004155D01*
X016413Y004174D02*
X016327Y004174D01*
X016346Y004193D02*
X016394Y004193D01*
X016375Y004212D02*
X016365Y004212D01*
X016286Y004302D02*
X016051Y004067D01*
X015996Y004122D01*
X016231Y004357D01*
X016286Y004302D01*
X016070Y004086D02*
X016032Y004086D01*
X016013Y004105D02*
X016089Y004105D01*
X016108Y004124D02*
X015998Y004124D01*
X016017Y004143D02*
X016127Y004143D01*
X016146Y004162D02*
X016036Y004162D01*
X016055Y004181D02*
X016165Y004181D01*
X016184Y004200D02*
X016074Y004200D01*
X016093Y004219D02*
X016203Y004219D01*
X016222Y004238D02*
X016112Y004238D01*
X016131Y004257D02*
X016241Y004257D01*
X016260Y004276D02*
X016150Y004276D01*
X016169Y004295D02*
X016279Y004295D01*
X016274Y004314D02*
X016188Y004314D01*
X016207Y004333D02*
X016255Y004333D01*
X016236Y004352D02*
X016226Y004352D01*
X016147Y004441D02*
X015912Y004206D01*
X015857Y004261D01*
X016092Y004496D01*
X016147Y004441D01*
X015931Y004225D02*
X015893Y004225D01*
X015874Y004244D02*
X015950Y004244D01*
X015969Y004263D02*
X015859Y004263D01*
X015878Y004282D02*
X015988Y004282D01*
X016007Y004301D02*
X015897Y004301D01*
X015916Y004320D02*
X016026Y004320D01*
X016045Y004339D02*
X015935Y004339D01*
X015954Y004358D02*
X016064Y004358D01*
X016083Y004377D02*
X015973Y004377D01*
X015992Y004396D02*
X016102Y004396D01*
X016121Y004415D02*
X016011Y004415D01*
X016030Y004434D02*
X016140Y004434D01*
X016135Y004453D02*
X016049Y004453D01*
X016068Y004472D02*
X016116Y004472D01*
X016097Y004491D02*
X016087Y004491D01*
X016008Y004580D02*
X015773Y004345D01*
X015718Y004400D01*
X015953Y004635D01*
X016008Y004580D01*
X015792Y004364D02*
X015754Y004364D01*
X015735Y004383D02*
X015811Y004383D01*
X015830Y004402D02*
X015720Y004402D01*
X015739Y004421D02*
X015849Y004421D01*
X015868Y004440D02*
X015758Y004440D01*
X015777Y004459D02*
X015887Y004459D01*
X015906Y004478D02*
X015796Y004478D01*
X015815Y004497D02*
X015925Y004497D01*
X015944Y004516D02*
X015834Y004516D01*
X015853Y004535D02*
X015963Y004535D01*
X015982Y004554D02*
X015872Y004554D01*
X015891Y004573D02*
X016001Y004573D01*
X015996Y004592D02*
X015910Y004592D01*
X015929Y004611D02*
X015977Y004611D01*
X015958Y004630D02*
X015948Y004630D01*
X015868Y004719D02*
X015633Y004484D01*
X015578Y004539D01*
X015813Y004774D01*
X015868Y004719D01*
X015652Y004503D02*
X015614Y004503D01*
X015595Y004522D02*
X015671Y004522D01*
X015690Y004541D02*
X015580Y004541D01*
X015599Y004560D02*
X015709Y004560D01*
X015728Y004579D02*
X015618Y004579D01*
X015637Y004598D02*
X015747Y004598D01*
X015766Y004617D02*
X015656Y004617D01*
X015675Y004636D02*
X015785Y004636D01*
X015804Y004655D02*
X015694Y004655D01*
X015713Y004674D02*
X015823Y004674D01*
X015842Y004693D02*
X015732Y004693D01*
X015751Y004712D02*
X015861Y004712D01*
X015856Y004731D02*
X015770Y004731D01*
X015789Y004750D02*
X015837Y004750D01*
X015818Y004769D02*
X015808Y004769D01*
X015729Y004858D02*
X015494Y004623D01*
X015439Y004678D01*
X015674Y004913D01*
X015729Y004858D01*
X015513Y004642D02*
X015475Y004642D01*
X015456Y004661D02*
X015532Y004661D01*
X015551Y004680D02*
X015441Y004680D01*
X015460Y004699D02*
X015570Y004699D01*
X015589Y004718D02*
X015479Y004718D01*
X015498Y004737D02*
X015608Y004737D01*
X015627Y004756D02*
X015517Y004756D01*
X015536Y004775D02*
X015646Y004775D01*
X015665Y004794D02*
X015555Y004794D01*
X015574Y004813D02*
X015684Y004813D01*
X015703Y004832D02*
X015593Y004832D01*
X015612Y004851D02*
X015722Y004851D01*
X015717Y004870D02*
X015631Y004870D01*
X015650Y004889D02*
X015698Y004889D01*
X015679Y004908D02*
X015669Y004908D01*
X015590Y004997D02*
X015355Y004762D01*
X015300Y004817D01*
X015535Y005052D01*
X015590Y004997D01*
X015374Y004781D02*
X015336Y004781D01*
X015317Y004800D02*
X015393Y004800D01*
X015412Y004819D02*
X015302Y004819D01*
X015321Y004838D02*
X015431Y004838D01*
X015450Y004857D02*
X015340Y004857D01*
X015359Y004876D02*
X015469Y004876D01*
X015488Y004895D02*
X015378Y004895D01*
X015397Y004914D02*
X015507Y004914D01*
X015526Y004933D02*
X015416Y004933D01*
X015435Y004952D02*
X015545Y004952D01*
X015564Y004971D02*
X015454Y004971D01*
X015473Y004990D02*
X015583Y004990D01*
X015578Y005009D02*
X015492Y005009D01*
X015511Y005028D02*
X015559Y005028D01*
X015540Y005047D02*
X015530Y005047D01*
X015451Y005137D02*
X015216Y004902D01*
X015161Y004957D01*
X015396Y005192D01*
X015451Y005137D01*
X015235Y004921D02*
X015197Y004921D01*
X015178Y004940D02*
X015254Y004940D01*
X015273Y004959D02*
X015163Y004959D01*
X015182Y004978D02*
X015292Y004978D01*
X015311Y004997D02*
X015201Y004997D01*
X015220Y005016D02*
X015330Y005016D01*
X015349Y005035D02*
X015239Y005035D01*
X015258Y005054D02*
X015368Y005054D01*
X015387Y005073D02*
X015277Y005073D01*
X015296Y005092D02*
X015406Y005092D01*
X015425Y005111D02*
X015315Y005111D01*
X015334Y005130D02*
X015444Y005130D01*
X015439Y005149D02*
X015353Y005149D01*
X015372Y005168D02*
X015420Y005168D01*
X015401Y005187D02*
X015391Y005187D01*
X015312Y005276D02*
X015077Y005041D01*
X015022Y005096D01*
X015257Y005331D01*
X015312Y005276D01*
X015096Y005060D02*
X015058Y005060D01*
X015039Y005079D02*
X015115Y005079D01*
X015134Y005098D02*
X015024Y005098D01*
X015043Y005117D02*
X015153Y005117D01*
X015172Y005136D02*
X015062Y005136D01*
X015081Y005155D02*
X015191Y005155D01*
X015210Y005174D02*
X015100Y005174D01*
X015119Y005193D02*
X015229Y005193D01*
X015248Y005212D02*
X015138Y005212D01*
X015157Y005231D02*
X015267Y005231D01*
X015286Y005250D02*
X015176Y005250D01*
X015195Y005269D02*
X015305Y005269D01*
X015300Y005288D02*
X015214Y005288D01*
X015233Y005307D02*
X015281Y005307D01*
X015262Y005326D02*
X015252Y005326D01*
X015172Y005415D02*
X014937Y005180D01*
X014882Y005235D01*
X015117Y005470D01*
X015172Y005415D01*
X014956Y005199D02*
X014918Y005199D01*
X014899Y005218D02*
X014975Y005218D01*
X014994Y005237D02*
X014884Y005237D01*
X014903Y005256D02*
X015013Y005256D01*
X015032Y005275D02*
X014922Y005275D01*
X014941Y005294D02*
X015051Y005294D01*
X015070Y005313D02*
X014960Y005313D01*
X014979Y005332D02*
X015089Y005332D01*
X015108Y005351D02*
X014998Y005351D01*
X015017Y005370D02*
X015127Y005370D01*
X015146Y005389D02*
X015036Y005389D01*
X015055Y005408D02*
X015165Y005408D01*
X015160Y005427D02*
X015074Y005427D01*
X015093Y005446D02*
X015141Y005446D01*
X015122Y005465D02*
X015112Y005465D01*
X015033Y005554D02*
X014798Y005319D01*
X014743Y005374D01*
X014978Y005609D01*
X015033Y005554D01*
X014817Y005338D02*
X014779Y005338D01*
X014760Y005357D02*
X014836Y005357D01*
X014855Y005376D02*
X014745Y005376D01*
X014764Y005395D02*
X014874Y005395D01*
X014893Y005414D02*
X014783Y005414D01*
X014802Y005433D02*
X014912Y005433D01*
X014931Y005452D02*
X014821Y005452D01*
X014840Y005471D02*
X014950Y005471D01*
X014969Y005490D02*
X014859Y005490D01*
X014878Y005509D02*
X014988Y005509D01*
X015007Y005528D02*
X014897Y005528D01*
X014916Y005547D02*
X015026Y005547D01*
X015021Y005566D02*
X014935Y005566D01*
X014954Y005585D02*
X015002Y005585D01*
X014983Y005604D02*
X014973Y005604D01*
X014894Y005693D02*
X014659Y005458D01*
X014604Y005513D01*
X014839Y005748D01*
X014894Y005693D01*
X014678Y005477D02*
X014640Y005477D01*
X014621Y005496D02*
X014697Y005496D01*
X014716Y005515D02*
X014606Y005515D01*
X014625Y005534D02*
X014735Y005534D01*
X014754Y005553D02*
X014644Y005553D01*
X014663Y005572D02*
X014773Y005572D01*
X014792Y005591D02*
X014682Y005591D01*
X014701Y005610D02*
X014811Y005610D01*
X014830Y005629D02*
X014720Y005629D01*
X014739Y005648D02*
X014849Y005648D01*
X014868Y005667D02*
X014758Y005667D01*
X014777Y005686D02*
X014887Y005686D01*
X014882Y005705D02*
X014796Y005705D01*
X014815Y005724D02*
X014863Y005724D01*
X014844Y005743D02*
X014834Y005743D01*
X014755Y005833D02*
X014520Y005598D01*
X014465Y005653D01*
X014700Y005888D01*
X014755Y005833D01*
X014539Y005617D02*
X014501Y005617D01*
X014482Y005636D02*
X014558Y005636D01*
X014577Y005655D02*
X014467Y005655D01*
X014486Y005674D02*
X014596Y005674D01*
X014615Y005693D02*
X014505Y005693D01*
X014524Y005712D02*
X014634Y005712D01*
X014653Y005731D02*
X014543Y005731D01*
X014562Y005750D02*
X014672Y005750D01*
X014691Y005769D02*
X014581Y005769D01*
X014600Y005788D02*
X014710Y005788D01*
X014729Y005807D02*
X014619Y005807D01*
X014638Y005826D02*
X014748Y005826D01*
X014743Y005845D02*
X014657Y005845D01*
X014676Y005864D02*
X014724Y005864D01*
X014705Y005883D02*
X014695Y005883D01*
X014616Y005972D02*
X014381Y005737D01*
X014326Y005792D01*
X014561Y006027D01*
X014616Y005972D01*
X014400Y005756D02*
X014362Y005756D01*
X014343Y005775D02*
X014419Y005775D01*
X014438Y005794D02*
X014328Y005794D01*
X014347Y005813D02*
X014457Y005813D01*
X014476Y005832D02*
X014366Y005832D01*
X014385Y005851D02*
X014495Y005851D01*
X014514Y005870D02*
X014404Y005870D01*
X014423Y005889D02*
X014533Y005889D01*
X014552Y005908D02*
X014442Y005908D01*
X014461Y005927D02*
X014571Y005927D01*
X014590Y005946D02*
X014480Y005946D01*
X014499Y005965D02*
X014609Y005965D01*
X014604Y005984D02*
X014518Y005984D01*
X014537Y006003D02*
X014585Y006003D01*
X014566Y006022D02*
X014556Y006022D01*
D14*
X010302Y002699D03*
X010105Y002699D03*
X009908Y002699D03*
X009712Y002699D03*
X009515Y002699D03*
X009318Y002699D03*
X004830Y002699D03*
X004633Y002699D03*
X004436Y002699D03*
X004239Y002699D03*
X004042Y002699D03*
X003845Y002699D03*
D15*
X002881Y002109D03*
X005794Y002109D03*
X008353Y002109D03*
X011267Y002109D03*
D16*
X003097Y001508D03*
X005578Y001508D03*
X008570Y001508D03*
X011050Y001508D03*
D17*
X006306Y003506D03*
X005676Y003506D03*
X005676Y005081D03*
X006306Y005081D03*
D18*
X006223Y005803D02*
X006511Y005803D01*
X006223Y005803D02*
X006223Y006091D01*
X006511Y006091D01*
X006511Y005803D01*
X006511Y005986D02*
X006223Y005986D01*
X005759Y006091D02*
X005471Y006091D01*
X005759Y006091D02*
X005759Y005803D01*
X005471Y005803D01*
X005471Y006091D01*
X005471Y005986D02*
X005759Y005986D01*
D19*
X005991Y007089D02*
X006316Y007089D01*
D20*
X006257Y007443D02*
X005991Y007443D01*
D21*
X004468Y007333D02*
X004330Y007333D01*
X004330Y007475D01*
X004468Y007475D01*
X004468Y007333D01*
X004468Y007427D02*
X004330Y007427D01*
X004109Y007475D02*
X003971Y007475D01*
X004109Y007475D02*
X004109Y007333D01*
X003971Y007333D01*
X003971Y007475D01*
X003971Y007427D02*
X004109Y007427D01*
X004109Y007002D02*
X003971Y007002D01*
X004109Y007002D02*
X004109Y006860D01*
X003971Y006860D01*
X003971Y007002D01*
X003971Y006954D02*
X004109Y006954D01*
X004330Y006860D02*
X004468Y006860D01*
X004330Y006860D02*
X004330Y007002D01*
X004468Y007002D01*
X004468Y006860D01*
X004468Y006954D02*
X004330Y006954D01*
X004330Y006388D02*
X004468Y006388D01*
X004330Y006388D02*
X004330Y006530D01*
X004468Y006530D01*
X004468Y006388D01*
X004468Y006482D02*
X004330Y006482D01*
X004109Y006530D02*
X003971Y006530D01*
X004109Y006530D02*
X004109Y006388D01*
X003971Y006388D01*
X003971Y006530D01*
X003971Y006482D02*
X004109Y006482D01*
X006885Y006018D02*
X007023Y006018D01*
X007023Y005876D01*
X006885Y005876D01*
X006885Y006018D01*
X006885Y005970D02*
X007023Y005970D01*
X007243Y005876D02*
X007381Y005876D01*
X007243Y005876D02*
X007243Y006018D01*
X007381Y006018D01*
X007381Y005876D01*
X007381Y005970D02*
X007243Y005970D01*
X006889Y003833D02*
X006889Y003695D01*
X006747Y003695D01*
X006747Y003833D01*
X006889Y003833D01*
X006889Y003789D02*
X006747Y003789D01*
X006747Y003475D02*
X006747Y003337D01*
X006747Y003475D02*
X006889Y003475D01*
X006889Y003337D01*
X006747Y003337D01*
X006747Y003431D02*
X006889Y003431D01*
X003287Y003238D02*
X003149Y003238D01*
X003149Y003380D01*
X003287Y003380D01*
X003287Y003238D01*
X003287Y003332D02*
X003149Y003332D01*
X002928Y003380D02*
X002790Y003380D01*
X002928Y003380D02*
X002928Y003238D01*
X002790Y003238D01*
X002790Y003380D01*
X002790Y003332D02*
X002928Y003332D01*
D22*
X002940Y004294D03*
X003531Y004294D03*
D23*
X006542Y009057D03*
D24*
X005637Y009057D03*
D25*
X013422Y008535D02*
X013758Y008535D01*
X013422Y008535D02*
X013422Y008871D01*
X013758Y008871D01*
X013758Y008535D01*
X013758Y008593D02*
X013422Y008593D01*
X013422Y008651D02*
X013758Y008651D01*
X013758Y008709D02*
X013422Y008709D01*
X013422Y008767D02*
X013758Y008767D01*
X013758Y008825D02*
X013422Y008825D01*
X014209Y009559D02*
X014545Y009559D01*
X014209Y009559D02*
X014209Y009895D01*
X014545Y009895D01*
X014545Y009559D01*
X014545Y009617D02*
X014209Y009617D01*
X014209Y009675D02*
X014545Y009675D01*
X014545Y009733D02*
X014209Y009733D01*
X014209Y009791D02*
X014545Y009791D01*
X014545Y009849D02*
X014209Y009849D01*
D26*
X002975Y010496D03*
X002897Y010496D03*
X002751Y010496D03*
X002621Y010496D03*
X002550Y010496D03*
X002550Y007933D03*
X002621Y007933D03*
X002751Y007933D03*
X002897Y007933D03*
X002975Y007933D03*
D27*
X012466Y009339D02*
X012466Y009405D01*
X012466Y009339D02*
X012332Y009339D01*
X012332Y009405D01*
X012466Y009405D01*
X012466Y009342D02*
X012332Y009342D01*
X012332Y009345D02*
X012466Y009345D01*
X012466Y009348D02*
X012332Y009348D01*
X012332Y009351D02*
X012466Y009351D01*
X012466Y009354D02*
X012332Y009354D01*
X012332Y009357D02*
X012466Y009357D01*
X012466Y009360D02*
X012332Y009360D01*
X012332Y009363D02*
X012466Y009363D01*
X012466Y009366D02*
X012332Y009366D01*
X012332Y009369D02*
X012466Y009369D01*
X012466Y009372D02*
X012332Y009372D01*
X012332Y009375D02*
X012466Y009375D01*
X012466Y009378D02*
X012332Y009378D01*
X012332Y009381D02*
X012466Y009381D01*
X012466Y009384D02*
X012332Y009384D01*
X012332Y009387D02*
X012466Y009387D01*
X012466Y009390D02*
X012332Y009390D01*
X012332Y009393D02*
X012466Y009393D01*
X012466Y009396D02*
X012332Y009396D01*
X012332Y009399D02*
X012466Y009399D01*
X012466Y009402D02*
X012332Y009402D01*
X012332Y009405D02*
X012466Y009405D01*
X012466Y009497D02*
X012466Y009563D01*
X012466Y009497D02*
X012332Y009497D01*
X012332Y009563D01*
X012466Y009563D01*
X012466Y009500D02*
X012332Y009500D01*
X012332Y009503D02*
X012466Y009503D01*
X012466Y009506D02*
X012332Y009506D01*
X012332Y009509D02*
X012466Y009509D01*
X012466Y009512D02*
X012332Y009512D01*
X012332Y009515D02*
X012466Y009515D01*
X012466Y009518D02*
X012332Y009518D01*
X012332Y009521D02*
X012466Y009521D01*
X012466Y009524D02*
X012332Y009524D01*
X012332Y009527D02*
X012466Y009527D01*
X012466Y009530D02*
X012332Y009530D01*
X012332Y009533D02*
X012466Y009533D01*
X012466Y009536D02*
X012332Y009536D01*
X012332Y009539D02*
X012466Y009539D01*
X012466Y009542D02*
X012332Y009542D01*
X012332Y009545D02*
X012466Y009545D01*
X012466Y009548D02*
X012332Y009548D01*
X012332Y009551D02*
X012466Y009551D01*
X012466Y009554D02*
X012332Y009554D01*
X012332Y009557D02*
X012466Y009557D01*
X012466Y009560D02*
X012332Y009560D01*
X012332Y009563D02*
X012466Y009563D01*
X012466Y009654D02*
X012466Y009720D01*
X012466Y009654D02*
X012332Y009654D01*
X012332Y009720D01*
X012466Y009720D01*
X012466Y009657D02*
X012332Y009657D01*
X012332Y009660D02*
X012466Y009660D01*
X012466Y009663D02*
X012332Y009663D01*
X012332Y009666D02*
X012466Y009666D01*
X012466Y009669D02*
X012332Y009669D01*
X012332Y009672D02*
X012466Y009672D01*
X012466Y009675D02*
X012332Y009675D01*
X012332Y009678D02*
X012466Y009678D01*
X012466Y009681D02*
X012332Y009681D01*
X012332Y009684D02*
X012466Y009684D01*
X012466Y009687D02*
X012332Y009687D01*
X012332Y009690D02*
X012466Y009690D01*
X012466Y009693D02*
X012332Y009693D01*
X012332Y009696D02*
X012466Y009696D01*
X012466Y009699D02*
X012332Y009699D01*
X012332Y009702D02*
X012466Y009702D01*
X012466Y009705D02*
X012332Y009705D01*
X012332Y009708D02*
X012466Y009708D01*
X012466Y009711D02*
X012332Y009711D01*
X012332Y009714D02*
X012466Y009714D01*
X012466Y009717D02*
X012332Y009717D01*
X012332Y009720D02*
X012466Y009720D01*
X012879Y009720D02*
X012879Y009654D01*
X012745Y009654D01*
X012745Y009720D01*
X012879Y009720D01*
X012879Y009657D02*
X012745Y009657D01*
X012745Y009660D02*
X012879Y009660D01*
X012879Y009663D02*
X012745Y009663D01*
X012745Y009666D02*
X012879Y009666D01*
X012879Y009669D02*
X012745Y009669D01*
X012745Y009672D02*
X012879Y009672D01*
X012879Y009675D02*
X012745Y009675D01*
X012745Y009678D02*
X012879Y009678D01*
X012879Y009681D02*
X012745Y009681D01*
X012745Y009684D02*
X012879Y009684D01*
X012879Y009687D02*
X012745Y009687D01*
X012745Y009690D02*
X012879Y009690D01*
X012879Y009693D02*
X012745Y009693D01*
X012745Y009696D02*
X012879Y009696D01*
X012879Y009699D02*
X012745Y009699D01*
X012745Y009702D02*
X012879Y009702D01*
X012879Y009705D02*
X012745Y009705D01*
X012745Y009708D02*
X012879Y009708D01*
X012879Y009711D02*
X012745Y009711D01*
X012745Y009714D02*
X012879Y009714D01*
X012879Y009717D02*
X012745Y009717D01*
X012745Y009720D02*
X012879Y009720D01*
X012879Y009563D02*
X012879Y009497D01*
X012745Y009497D01*
X012745Y009563D01*
X012879Y009563D01*
X012879Y009500D02*
X012745Y009500D01*
X012745Y009503D02*
X012879Y009503D01*
X012879Y009506D02*
X012745Y009506D01*
X012745Y009509D02*
X012879Y009509D01*
X012879Y009512D02*
X012745Y009512D01*
X012745Y009515D02*
X012879Y009515D01*
X012879Y009518D02*
X012745Y009518D01*
X012745Y009521D02*
X012879Y009521D01*
X012879Y009524D02*
X012745Y009524D01*
X012745Y009527D02*
X012879Y009527D01*
X012879Y009530D02*
X012745Y009530D01*
X012745Y009533D02*
X012879Y009533D01*
X012879Y009536D02*
X012745Y009536D01*
X012745Y009539D02*
X012879Y009539D01*
X012879Y009542D02*
X012745Y009542D01*
X012745Y009545D02*
X012879Y009545D01*
X012879Y009548D02*
X012745Y009548D01*
X012745Y009551D02*
X012879Y009551D01*
X012879Y009554D02*
X012745Y009554D01*
X012745Y009557D02*
X012879Y009557D01*
X012879Y009560D02*
X012745Y009560D01*
X012745Y009563D02*
X012879Y009563D01*
X012879Y009405D02*
X012879Y009339D01*
X012745Y009339D01*
X012745Y009405D01*
X012879Y009405D01*
X012879Y009342D02*
X012745Y009342D01*
X012745Y009345D02*
X012879Y009345D01*
X012879Y009348D02*
X012745Y009348D01*
X012745Y009351D02*
X012879Y009351D01*
X012879Y009354D02*
X012745Y009354D01*
X012745Y009357D02*
X012879Y009357D01*
X012879Y009360D02*
X012745Y009360D01*
X012745Y009363D02*
X012879Y009363D01*
X012879Y009366D02*
X012745Y009366D01*
X012745Y009369D02*
X012879Y009369D01*
X012879Y009372D02*
X012745Y009372D01*
X012745Y009375D02*
X012879Y009375D01*
X012879Y009378D02*
X012745Y009378D01*
X012745Y009381D02*
X012879Y009381D01*
X012879Y009384D02*
X012745Y009384D01*
X012745Y009387D02*
X012879Y009387D01*
X012879Y009390D02*
X012745Y009390D01*
X012745Y009393D02*
X012879Y009393D01*
X012879Y009396D02*
X012745Y009396D01*
X012745Y009399D02*
X012879Y009399D01*
X012879Y009402D02*
X012745Y009402D01*
X012745Y009405D02*
X012879Y009405D01*
D28*
X012661Y009712D02*
X012549Y009712D01*
X012661Y009712D02*
X012661Y009348D01*
X012549Y009348D01*
X012549Y009712D01*
X012549Y009353D02*
X012661Y009353D01*
X012661Y009358D02*
X012549Y009358D01*
X012549Y009363D02*
X012661Y009363D01*
X012661Y009368D02*
X012549Y009368D01*
X012549Y009373D02*
X012661Y009373D01*
X012661Y009378D02*
X012549Y009378D01*
X012549Y009383D02*
X012661Y009383D01*
X012661Y009388D02*
X012549Y009388D01*
X012549Y009393D02*
X012661Y009393D01*
X012661Y009398D02*
X012549Y009398D01*
X012549Y009403D02*
X012661Y009403D01*
X012661Y009408D02*
X012549Y009408D01*
X012549Y009413D02*
X012661Y009413D01*
X012661Y009418D02*
X012549Y009418D01*
X012549Y009423D02*
X012661Y009423D01*
X012661Y009428D02*
X012549Y009428D01*
X012549Y009433D02*
X012661Y009433D01*
X012661Y009438D02*
X012549Y009438D01*
X012549Y009443D02*
X012661Y009443D01*
X012661Y009448D02*
X012549Y009448D01*
X012549Y009453D02*
X012661Y009453D01*
X012661Y009458D02*
X012549Y009458D01*
X012549Y009463D02*
X012661Y009463D01*
X012661Y009468D02*
X012549Y009468D01*
X012549Y009473D02*
X012661Y009473D01*
X012661Y009478D02*
X012549Y009478D01*
X012549Y009483D02*
X012661Y009483D01*
X012661Y009488D02*
X012549Y009488D01*
X012549Y009493D02*
X012661Y009493D01*
X012661Y009498D02*
X012549Y009498D01*
X012549Y009503D02*
X012661Y009503D01*
X012661Y009508D02*
X012549Y009508D01*
X012549Y009513D02*
X012661Y009513D01*
X012661Y009518D02*
X012549Y009518D01*
X012549Y009523D02*
X012661Y009523D01*
X012661Y009528D02*
X012549Y009528D01*
X012549Y009533D02*
X012661Y009533D01*
X012661Y009538D02*
X012549Y009538D01*
X012549Y009543D02*
X012661Y009543D01*
X012661Y009548D02*
X012549Y009548D01*
X012549Y009553D02*
X012661Y009553D01*
X012661Y009558D02*
X012549Y009558D01*
X012549Y009563D02*
X012661Y009563D01*
X012661Y009568D02*
X012549Y009568D01*
X012549Y009573D02*
X012661Y009573D01*
X012661Y009578D02*
X012549Y009578D01*
X012549Y009583D02*
X012661Y009583D01*
X012661Y009588D02*
X012549Y009588D01*
X012549Y009593D02*
X012661Y009593D01*
X012661Y009598D02*
X012549Y009598D01*
X012549Y009603D02*
X012661Y009603D01*
X012661Y009608D02*
X012549Y009608D01*
X012549Y009613D02*
X012661Y009613D01*
X012661Y009618D02*
X012549Y009618D01*
X012549Y009623D02*
X012661Y009623D01*
X012661Y009628D02*
X012549Y009628D01*
X012549Y009633D02*
X012661Y009633D01*
X012661Y009638D02*
X012549Y009638D01*
X012549Y009643D02*
X012661Y009643D01*
X012661Y009648D02*
X012549Y009648D01*
X012549Y009653D02*
X012661Y009653D01*
X012661Y009658D02*
X012549Y009658D01*
X012549Y009663D02*
X012661Y009663D01*
X012661Y009668D02*
X012549Y009668D01*
X012549Y009673D02*
X012661Y009673D01*
X012661Y009678D02*
X012549Y009678D01*
X012549Y009683D02*
X012661Y009683D01*
X012661Y009688D02*
X012549Y009688D01*
X012549Y009693D02*
X012661Y009693D01*
X012661Y009698D02*
X012549Y009698D01*
X012549Y009703D02*
X012661Y009703D01*
X012661Y009708D02*
X012549Y009708D01*
D29*
X011105Y007243D02*
X011035Y007243D01*
X011105Y007243D02*
X011105Y006975D01*
X011035Y006975D01*
X011035Y007243D01*
X011035Y006982D02*
X011105Y006982D01*
X011105Y006989D02*
X011035Y006989D01*
X011035Y006996D02*
X011105Y006996D01*
X011105Y007003D02*
X011035Y007003D01*
X011035Y007010D02*
X011105Y007010D01*
X011105Y007017D02*
X011035Y007017D01*
X011035Y007024D02*
X011105Y007024D01*
X011105Y007031D02*
X011035Y007031D01*
X011035Y007038D02*
X011105Y007038D01*
X011105Y007045D02*
X011035Y007045D01*
X011035Y007052D02*
X011105Y007052D01*
X011105Y007059D02*
X011035Y007059D01*
X011035Y007066D02*
X011105Y007066D01*
X011105Y007073D02*
X011035Y007073D01*
X011035Y007080D02*
X011105Y007080D01*
X011105Y007087D02*
X011035Y007087D01*
X011035Y007094D02*
X011105Y007094D01*
X011105Y007101D02*
X011035Y007101D01*
X011035Y007108D02*
X011105Y007108D01*
X011105Y007115D02*
X011035Y007115D01*
X011035Y007122D02*
X011105Y007122D01*
X011105Y007129D02*
X011035Y007129D01*
X011035Y007136D02*
X011105Y007136D01*
X011105Y007143D02*
X011035Y007143D01*
X011035Y007150D02*
X011105Y007150D01*
X011105Y007157D02*
X011035Y007157D01*
X011035Y007164D02*
X011105Y007164D01*
X011105Y007171D02*
X011035Y007171D01*
X011035Y007178D02*
X011105Y007178D01*
X011105Y007185D02*
X011035Y007185D01*
X011035Y007192D02*
X011105Y007192D01*
X011105Y007199D02*
X011035Y007199D01*
X011035Y007206D02*
X011105Y007206D01*
X011105Y007213D02*
X011035Y007213D01*
X011035Y007220D02*
X011105Y007220D01*
X011105Y007227D02*
X011035Y007227D01*
X011035Y007234D02*
X011105Y007234D01*
X011105Y007241D02*
X011035Y007241D01*
X010947Y007243D02*
X010877Y007243D01*
X010947Y007243D02*
X010947Y006975D01*
X010877Y006975D01*
X010877Y007243D01*
X010877Y006982D02*
X010947Y006982D01*
X010947Y006989D02*
X010877Y006989D01*
X010877Y006996D02*
X010947Y006996D01*
X010947Y007003D02*
X010877Y007003D01*
X010877Y007010D02*
X010947Y007010D01*
X010947Y007017D02*
X010877Y007017D01*
X010877Y007024D02*
X010947Y007024D01*
X010947Y007031D02*
X010877Y007031D01*
X010877Y007038D02*
X010947Y007038D01*
X010947Y007045D02*
X010877Y007045D01*
X010877Y007052D02*
X010947Y007052D01*
X010947Y007059D02*
X010877Y007059D01*
X010877Y007066D02*
X010947Y007066D01*
X010947Y007073D02*
X010877Y007073D01*
X010877Y007080D02*
X010947Y007080D01*
X010947Y007087D02*
X010877Y007087D01*
X010877Y007094D02*
X010947Y007094D01*
X010947Y007101D02*
X010877Y007101D01*
X010877Y007108D02*
X010947Y007108D01*
X010947Y007115D02*
X010877Y007115D01*
X010877Y007122D02*
X010947Y007122D01*
X010947Y007129D02*
X010877Y007129D01*
X010877Y007136D02*
X010947Y007136D01*
X010947Y007143D02*
X010877Y007143D01*
X010877Y007150D02*
X010947Y007150D01*
X010947Y007157D02*
X010877Y007157D01*
X010877Y007164D02*
X010947Y007164D01*
X010947Y007171D02*
X010877Y007171D01*
X010877Y007178D02*
X010947Y007178D01*
X010947Y007185D02*
X010877Y007185D01*
X010877Y007192D02*
X010947Y007192D01*
X010947Y007199D02*
X010877Y007199D01*
X010877Y007206D02*
X010947Y007206D01*
X010947Y007213D02*
X010877Y007213D01*
X010877Y007220D02*
X010947Y007220D01*
X010947Y007227D02*
X010877Y007227D01*
X010877Y007234D02*
X010947Y007234D01*
X010947Y007241D02*
X010877Y007241D01*
X010790Y007243D02*
X010720Y007243D01*
X010790Y007243D02*
X010790Y006975D01*
X010720Y006975D01*
X010720Y007243D01*
X010720Y006982D02*
X010790Y006982D01*
X010790Y006989D02*
X010720Y006989D01*
X010720Y006996D02*
X010790Y006996D01*
X010790Y007003D02*
X010720Y007003D01*
X010720Y007010D02*
X010790Y007010D01*
X010790Y007017D02*
X010720Y007017D01*
X010720Y007024D02*
X010790Y007024D01*
X010790Y007031D02*
X010720Y007031D01*
X010720Y007038D02*
X010790Y007038D01*
X010790Y007045D02*
X010720Y007045D01*
X010720Y007052D02*
X010790Y007052D01*
X010790Y007059D02*
X010720Y007059D01*
X010720Y007066D02*
X010790Y007066D01*
X010790Y007073D02*
X010720Y007073D01*
X010720Y007080D02*
X010790Y007080D01*
X010790Y007087D02*
X010720Y007087D01*
X010720Y007094D02*
X010790Y007094D01*
X010790Y007101D02*
X010720Y007101D01*
X010720Y007108D02*
X010790Y007108D01*
X010790Y007115D02*
X010720Y007115D01*
X010720Y007122D02*
X010790Y007122D01*
X010790Y007129D02*
X010720Y007129D01*
X010720Y007136D02*
X010790Y007136D01*
X010790Y007143D02*
X010720Y007143D01*
X010720Y007150D02*
X010790Y007150D01*
X010790Y007157D02*
X010720Y007157D01*
X010720Y007164D02*
X010790Y007164D01*
X010790Y007171D02*
X010720Y007171D01*
X010720Y007178D02*
X010790Y007178D01*
X010790Y007185D02*
X010720Y007185D01*
X010720Y007192D02*
X010790Y007192D01*
X010790Y007199D02*
X010720Y007199D01*
X010720Y007206D02*
X010790Y007206D01*
X010790Y007213D02*
X010720Y007213D01*
X010720Y007220D02*
X010790Y007220D01*
X010790Y007227D02*
X010720Y007227D01*
X010720Y007234D02*
X010790Y007234D01*
X010790Y007241D02*
X010720Y007241D01*
X010632Y007243D02*
X010562Y007243D01*
X010632Y007243D02*
X010632Y006975D01*
X010562Y006975D01*
X010562Y007243D01*
X010562Y006982D02*
X010632Y006982D01*
X010632Y006989D02*
X010562Y006989D01*
X010562Y006996D02*
X010632Y006996D01*
X010632Y007003D02*
X010562Y007003D01*
X010562Y007010D02*
X010632Y007010D01*
X010632Y007017D02*
X010562Y007017D01*
X010562Y007024D02*
X010632Y007024D01*
X010632Y007031D02*
X010562Y007031D01*
X010562Y007038D02*
X010632Y007038D01*
X010632Y007045D02*
X010562Y007045D01*
X010562Y007052D02*
X010632Y007052D01*
X010632Y007059D02*
X010562Y007059D01*
X010562Y007066D02*
X010632Y007066D01*
X010632Y007073D02*
X010562Y007073D01*
X010562Y007080D02*
X010632Y007080D01*
X010632Y007087D02*
X010562Y007087D01*
X010562Y007094D02*
X010632Y007094D01*
X010632Y007101D02*
X010562Y007101D01*
X010562Y007108D02*
X010632Y007108D01*
X010632Y007115D02*
X010562Y007115D01*
X010562Y007122D02*
X010632Y007122D01*
X010632Y007129D02*
X010562Y007129D01*
X010562Y007136D02*
X010632Y007136D01*
X010632Y007143D02*
X010562Y007143D01*
X010562Y007150D02*
X010632Y007150D01*
X010632Y007157D02*
X010562Y007157D01*
X010562Y007164D02*
X010632Y007164D01*
X010632Y007171D02*
X010562Y007171D01*
X010562Y007178D02*
X010632Y007178D01*
X010632Y007185D02*
X010562Y007185D01*
X010562Y007192D02*
X010632Y007192D01*
X010632Y007199D02*
X010562Y007199D01*
X010562Y007206D02*
X010632Y007206D01*
X010632Y007213D02*
X010562Y007213D01*
X010562Y007220D02*
X010632Y007220D01*
X010632Y007227D02*
X010562Y007227D01*
X010562Y007234D02*
X010632Y007234D01*
X010632Y007241D02*
X010562Y007241D01*
X010475Y007243D02*
X010405Y007243D01*
X010475Y007243D02*
X010475Y006975D01*
X010405Y006975D01*
X010405Y007243D01*
X010405Y006982D02*
X010475Y006982D01*
X010475Y006989D02*
X010405Y006989D01*
X010405Y006996D02*
X010475Y006996D01*
X010475Y007003D02*
X010405Y007003D01*
X010405Y007010D02*
X010475Y007010D01*
X010475Y007017D02*
X010405Y007017D01*
X010405Y007024D02*
X010475Y007024D01*
X010475Y007031D02*
X010405Y007031D01*
X010405Y007038D02*
X010475Y007038D01*
X010475Y007045D02*
X010405Y007045D01*
X010405Y007052D02*
X010475Y007052D01*
X010475Y007059D02*
X010405Y007059D01*
X010405Y007066D02*
X010475Y007066D01*
X010475Y007073D02*
X010405Y007073D01*
X010405Y007080D02*
X010475Y007080D01*
X010475Y007087D02*
X010405Y007087D01*
X010405Y007094D02*
X010475Y007094D01*
X010475Y007101D02*
X010405Y007101D01*
X010405Y007108D02*
X010475Y007108D01*
X010475Y007115D02*
X010405Y007115D01*
X010405Y007122D02*
X010475Y007122D01*
X010475Y007129D02*
X010405Y007129D01*
X010405Y007136D02*
X010475Y007136D01*
X010475Y007143D02*
X010405Y007143D01*
X010405Y007150D02*
X010475Y007150D01*
X010475Y007157D02*
X010405Y007157D01*
X010405Y007164D02*
X010475Y007164D01*
X010475Y007171D02*
X010405Y007171D01*
X010405Y007178D02*
X010475Y007178D01*
X010475Y007185D02*
X010405Y007185D01*
X010405Y007192D02*
X010475Y007192D01*
X010475Y007199D02*
X010405Y007199D01*
X010405Y007206D02*
X010475Y007206D01*
X010475Y007213D02*
X010405Y007213D01*
X010405Y007220D02*
X010475Y007220D01*
X010475Y007227D02*
X010405Y007227D01*
X010405Y007234D02*
X010475Y007234D01*
X010475Y007241D02*
X010405Y007241D01*
X010317Y007243D02*
X010247Y007243D01*
X010317Y007243D02*
X010317Y006975D01*
X010247Y006975D01*
X010247Y007243D01*
X010247Y006982D02*
X010317Y006982D01*
X010317Y006989D02*
X010247Y006989D01*
X010247Y006996D02*
X010317Y006996D01*
X010317Y007003D02*
X010247Y007003D01*
X010247Y007010D02*
X010317Y007010D01*
X010317Y007017D02*
X010247Y007017D01*
X010247Y007024D02*
X010317Y007024D01*
X010317Y007031D02*
X010247Y007031D01*
X010247Y007038D02*
X010317Y007038D01*
X010317Y007045D02*
X010247Y007045D01*
X010247Y007052D02*
X010317Y007052D01*
X010317Y007059D02*
X010247Y007059D01*
X010247Y007066D02*
X010317Y007066D01*
X010317Y007073D02*
X010247Y007073D01*
X010247Y007080D02*
X010317Y007080D01*
X010317Y007087D02*
X010247Y007087D01*
X010247Y007094D02*
X010317Y007094D01*
X010317Y007101D02*
X010247Y007101D01*
X010247Y007108D02*
X010317Y007108D01*
X010317Y007115D02*
X010247Y007115D01*
X010247Y007122D02*
X010317Y007122D01*
X010317Y007129D02*
X010247Y007129D01*
X010247Y007136D02*
X010317Y007136D01*
X010317Y007143D02*
X010247Y007143D01*
X010247Y007150D02*
X010317Y007150D01*
X010317Y007157D02*
X010247Y007157D01*
X010247Y007164D02*
X010317Y007164D01*
X010317Y007171D02*
X010247Y007171D01*
X010247Y007178D02*
X010317Y007178D01*
X010317Y007185D02*
X010247Y007185D01*
X010247Y007192D02*
X010317Y007192D01*
X010317Y007199D02*
X010247Y007199D01*
X010247Y007206D02*
X010317Y007206D01*
X010317Y007213D02*
X010247Y007213D01*
X010247Y007220D02*
X010317Y007220D01*
X010317Y007227D02*
X010247Y007227D01*
X010247Y007234D02*
X010317Y007234D01*
X010317Y007241D02*
X010247Y007241D01*
X010160Y007243D02*
X010090Y007243D01*
X010160Y007243D02*
X010160Y006975D01*
X010090Y006975D01*
X010090Y007243D01*
X010090Y006982D02*
X010160Y006982D01*
X010160Y006989D02*
X010090Y006989D01*
X010090Y006996D02*
X010160Y006996D01*
X010160Y007003D02*
X010090Y007003D01*
X010090Y007010D02*
X010160Y007010D01*
X010160Y007017D02*
X010090Y007017D01*
X010090Y007024D02*
X010160Y007024D01*
X010160Y007031D02*
X010090Y007031D01*
X010090Y007038D02*
X010160Y007038D01*
X010160Y007045D02*
X010090Y007045D01*
X010090Y007052D02*
X010160Y007052D01*
X010160Y007059D02*
X010090Y007059D01*
X010090Y007066D02*
X010160Y007066D01*
X010160Y007073D02*
X010090Y007073D01*
X010090Y007080D02*
X010160Y007080D01*
X010160Y007087D02*
X010090Y007087D01*
X010090Y007094D02*
X010160Y007094D01*
X010160Y007101D02*
X010090Y007101D01*
X010090Y007108D02*
X010160Y007108D01*
X010160Y007115D02*
X010090Y007115D01*
X010090Y007122D02*
X010160Y007122D01*
X010160Y007129D02*
X010090Y007129D01*
X010090Y007136D02*
X010160Y007136D01*
X010160Y007143D02*
X010090Y007143D01*
X010090Y007150D02*
X010160Y007150D01*
X010160Y007157D02*
X010090Y007157D01*
X010090Y007164D02*
X010160Y007164D01*
X010160Y007171D02*
X010090Y007171D01*
X010090Y007178D02*
X010160Y007178D01*
X010160Y007185D02*
X010090Y007185D01*
X010090Y007192D02*
X010160Y007192D01*
X010160Y007199D02*
X010090Y007199D01*
X010090Y007206D02*
X010160Y007206D01*
X010160Y007213D02*
X010090Y007213D01*
X010090Y007220D02*
X010160Y007220D01*
X010160Y007227D02*
X010090Y007227D01*
X010090Y007234D02*
X010160Y007234D01*
X010160Y007241D02*
X010090Y007241D01*
X010003Y007243D02*
X009933Y007243D01*
X010003Y007243D02*
X010003Y006975D01*
X009933Y006975D01*
X009933Y007243D01*
X009933Y006982D02*
X010003Y006982D01*
X010003Y006989D02*
X009933Y006989D01*
X009933Y006996D02*
X010003Y006996D01*
X010003Y007003D02*
X009933Y007003D01*
X009933Y007010D02*
X010003Y007010D01*
X010003Y007017D02*
X009933Y007017D01*
X009933Y007024D02*
X010003Y007024D01*
X010003Y007031D02*
X009933Y007031D01*
X009933Y007038D02*
X010003Y007038D01*
X010003Y007045D02*
X009933Y007045D01*
X009933Y007052D02*
X010003Y007052D01*
X010003Y007059D02*
X009933Y007059D01*
X009933Y007066D02*
X010003Y007066D01*
X010003Y007073D02*
X009933Y007073D01*
X009933Y007080D02*
X010003Y007080D01*
X010003Y007087D02*
X009933Y007087D01*
X009933Y007094D02*
X010003Y007094D01*
X010003Y007101D02*
X009933Y007101D01*
X009933Y007108D02*
X010003Y007108D01*
X010003Y007115D02*
X009933Y007115D01*
X009933Y007122D02*
X010003Y007122D01*
X010003Y007129D02*
X009933Y007129D01*
X009933Y007136D02*
X010003Y007136D01*
X010003Y007143D02*
X009933Y007143D01*
X009933Y007150D02*
X010003Y007150D01*
X010003Y007157D02*
X009933Y007157D01*
X009933Y007164D02*
X010003Y007164D01*
X010003Y007171D02*
X009933Y007171D01*
X009933Y007178D02*
X010003Y007178D01*
X010003Y007185D02*
X009933Y007185D01*
X009933Y007192D02*
X010003Y007192D01*
X010003Y007199D02*
X009933Y007199D01*
X009933Y007206D02*
X010003Y007206D01*
X010003Y007213D02*
X009933Y007213D01*
X009933Y007220D02*
X010003Y007220D01*
X010003Y007227D02*
X009933Y007227D01*
X009933Y007234D02*
X010003Y007234D01*
X010003Y007241D02*
X009933Y007241D01*
X009845Y007243D02*
X009775Y007243D01*
X009845Y007243D02*
X009845Y006975D01*
X009775Y006975D01*
X009775Y007243D01*
X009775Y006982D02*
X009845Y006982D01*
X009845Y006989D02*
X009775Y006989D01*
X009775Y006996D02*
X009845Y006996D01*
X009845Y007003D02*
X009775Y007003D01*
X009775Y007010D02*
X009845Y007010D01*
X009845Y007017D02*
X009775Y007017D01*
X009775Y007024D02*
X009845Y007024D01*
X009845Y007031D02*
X009775Y007031D01*
X009775Y007038D02*
X009845Y007038D01*
X009845Y007045D02*
X009775Y007045D01*
X009775Y007052D02*
X009845Y007052D01*
X009845Y007059D02*
X009775Y007059D01*
X009775Y007066D02*
X009845Y007066D01*
X009845Y007073D02*
X009775Y007073D01*
X009775Y007080D02*
X009845Y007080D01*
X009845Y007087D02*
X009775Y007087D01*
X009775Y007094D02*
X009845Y007094D01*
X009845Y007101D02*
X009775Y007101D01*
X009775Y007108D02*
X009845Y007108D01*
X009845Y007115D02*
X009775Y007115D01*
X009775Y007122D02*
X009845Y007122D01*
X009845Y007129D02*
X009775Y007129D01*
X009775Y007136D02*
X009845Y007136D01*
X009845Y007143D02*
X009775Y007143D01*
X009775Y007150D02*
X009845Y007150D01*
X009845Y007157D02*
X009775Y007157D01*
X009775Y007164D02*
X009845Y007164D01*
X009845Y007171D02*
X009775Y007171D01*
X009775Y007178D02*
X009845Y007178D01*
X009845Y007185D02*
X009775Y007185D01*
X009775Y007192D02*
X009845Y007192D01*
X009845Y007199D02*
X009775Y007199D01*
X009775Y007206D02*
X009845Y007206D01*
X009845Y007213D02*
X009775Y007213D01*
X009775Y007220D02*
X009845Y007220D01*
X009845Y007227D02*
X009775Y007227D01*
X009775Y007234D02*
X009845Y007234D01*
X009845Y007241D02*
X009775Y007241D01*
X009688Y007243D02*
X009618Y007243D01*
X009688Y007243D02*
X009688Y006975D01*
X009618Y006975D01*
X009618Y007243D01*
X009618Y006982D02*
X009688Y006982D01*
X009688Y006989D02*
X009618Y006989D01*
X009618Y006996D02*
X009688Y006996D01*
X009688Y007003D02*
X009618Y007003D01*
X009618Y007010D02*
X009688Y007010D01*
X009688Y007017D02*
X009618Y007017D01*
X009618Y007024D02*
X009688Y007024D01*
X009688Y007031D02*
X009618Y007031D01*
X009618Y007038D02*
X009688Y007038D01*
X009688Y007045D02*
X009618Y007045D01*
X009618Y007052D02*
X009688Y007052D01*
X009688Y007059D02*
X009618Y007059D01*
X009618Y007066D02*
X009688Y007066D01*
X009688Y007073D02*
X009618Y007073D01*
X009618Y007080D02*
X009688Y007080D01*
X009688Y007087D02*
X009618Y007087D01*
X009618Y007094D02*
X009688Y007094D01*
X009688Y007101D02*
X009618Y007101D01*
X009618Y007108D02*
X009688Y007108D01*
X009688Y007115D02*
X009618Y007115D01*
X009618Y007122D02*
X009688Y007122D01*
X009688Y007129D02*
X009618Y007129D01*
X009618Y007136D02*
X009688Y007136D01*
X009688Y007143D02*
X009618Y007143D01*
X009618Y007150D02*
X009688Y007150D01*
X009688Y007157D02*
X009618Y007157D01*
X009618Y007164D02*
X009688Y007164D01*
X009688Y007171D02*
X009618Y007171D01*
X009618Y007178D02*
X009688Y007178D01*
X009688Y007185D02*
X009618Y007185D01*
X009618Y007192D02*
X009688Y007192D01*
X009688Y007199D02*
X009618Y007199D01*
X009618Y007206D02*
X009688Y007206D01*
X009688Y007213D02*
X009618Y007213D01*
X009618Y007220D02*
X009688Y007220D01*
X009688Y007227D02*
X009618Y007227D01*
X009618Y007234D02*
X009688Y007234D01*
X009688Y007241D02*
X009618Y007241D01*
X009530Y007243D02*
X009460Y007243D01*
X009530Y007243D02*
X009530Y006975D01*
X009460Y006975D01*
X009460Y007243D01*
X009460Y006982D02*
X009530Y006982D01*
X009530Y006989D02*
X009460Y006989D01*
X009460Y006996D02*
X009530Y006996D01*
X009530Y007003D02*
X009460Y007003D01*
X009460Y007010D02*
X009530Y007010D01*
X009530Y007017D02*
X009460Y007017D01*
X009460Y007024D02*
X009530Y007024D01*
X009530Y007031D02*
X009460Y007031D01*
X009460Y007038D02*
X009530Y007038D01*
X009530Y007045D02*
X009460Y007045D01*
X009460Y007052D02*
X009530Y007052D01*
X009530Y007059D02*
X009460Y007059D01*
X009460Y007066D02*
X009530Y007066D01*
X009530Y007073D02*
X009460Y007073D01*
X009460Y007080D02*
X009530Y007080D01*
X009530Y007087D02*
X009460Y007087D01*
X009460Y007094D02*
X009530Y007094D01*
X009530Y007101D02*
X009460Y007101D01*
X009460Y007108D02*
X009530Y007108D01*
X009530Y007115D02*
X009460Y007115D01*
X009460Y007122D02*
X009530Y007122D01*
X009530Y007129D02*
X009460Y007129D01*
X009460Y007136D02*
X009530Y007136D01*
X009530Y007143D02*
X009460Y007143D01*
X009460Y007150D02*
X009530Y007150D01*
X009530Y007157D02*
X009460Y007157D01*
X009460Y007164D02*
X009530Y007164D01*
X009530Y007171D02*
X009460Y007171D01*
X009460Y007178D02*
X009530Y007178D01*
X009530Y007185D02*
X009460Y007185D01*
X009460Y007192D02*
X009530Y007192D01*
X009530Y007199D02*
X009460Y007199D01*
X009460Y007206D02*
X009530Y007206D01*
X009530Y007213D02*
X009460Y007213D01*
X009460Y007220D02*
X009530Y007220D01*
X009530Y007227D02*
X009460Y007227D01*
X009460Y007234D02*
X009530Y007234D01*
X009530Y007241D02*
X009460Y007241D01*
X009373Y007243D02*
X009303Y007243D01*
X009373Y007243D02*
X009373Y006975D01*
X009303Y006975D01*
X009303Y007243D01*
X009303Y006982D02*
X009373Y006982D01*
X009373Y006989D02*
X009303Y006989D01*
X009303Y006996D02*
X009373Y006996D01*
X009373Y007003D02*
X009303Y007003D01*
X009303Y007010D02*
X009373Y007010D01*
X009373Y007017D02*
X009303Y007017D01*
X009303Y007024D02*
X009373Y007024D01*
X009373Y007031D02*
X009303Y007031D01*
X009303Y007038D02*
X009373Y007038D01*
X009373Y007045D02*
X009303Y007045D01*
X009303Y007052D02*
X009373Y007052D01*
X009373Y007059D02*
X009303Y007059D01*
X009303Y007066D02*
X009373Y007066D01*
X009373Y007073D02*
X009303Y007073D01*
X009303Y007080D02*
X009373Y007080D01*
X009373Y007087D02*
X009303Y007087D01*
X009303Y007094D02*
X009373Y007094D01*
X009373Y007101D02*
X009303Y007101D01*
X009303Y007108D02*
X009373Y007108D01*
X009373Y007115D02*
X009303Y007115D01*
X009303Y007122D02*
X009373Y007122D01*
X009373Y007129D02*
X009303Y007129D01*
X009303Y007136D02*
X009373Y007136D01*
X009373Y007143D02*
X009303Y007143D01*
X009303Y007150D02*
X009373Y007150D01*
X009373Y007157D02*
X009303Y007157D01*
X009303Y007164D02*
X009373Y007164D01*
X009373Y007171D02*
X009303Y007171D01*
X009303Y007178D02*
X009373Y007178D01*
X009373Y007185D02*
X009303Y007185D01*
X009303Y007192D02*
X009373Y007192D01*
X009373Y007199D02*
X009303Y007199D01*
X009303Y007206D02*
X009373Y007206D01*
X009373Y007213D02*
X009303Y007213D01*
X009303Y007220D02*
X009373Y007220D01*
X009373Y007227D02*
X009303Y007227D01*
X009303Y007234D02*
X009373Y007234D01*
X009373Y007241D02*
X009303Y007241D01*
X009215Y007243D02*
X009145Y007243D01*
X009215Y007243D02*
X009215Y006975D01*
X009145Y006975D01*
X009145Y007243D01*
X009145Y006982D02*
X009215Y006982D01*
X009215Y006989D02*
X009145Y006989D01*
X009145Y006996D02*
X009215Y006996D01*
X009215Y007003D02*
X009145Y007003D01*
X009145Y007010D02*
X009215Y007010D01*
X009215Y007017D02*
X009145Y007017D01*
X009145Y007024D02*
X009215Y007024D01*
X009215Y007031D02*
X009145Y007031D01*
X009145Y007038D02*
X009215Y007038D01*
X009215Y007045D02*
X009145Y007045D01*
X009145Y007052D02*
X009215Y007052D01*
X009215Y007059D02*
X009145Y007059D01*
X009145Y007066D02*
X009215Y007066D01*
X009215Y007073D02*
X009145Y007073D01*
X009145Y007080D02*
X009215Y007080D01*
X009215Y007087D02*
X009145Y007087D01*
X009145Y007094D02*
X009215Y007094D01*
X009215Y007101D02*
X009145Y007101D01*
X009145Y007108D02*
X009215Y007108D01*
X009215Y007115D02*
X009145Y007115D01*
X009145Y007122D02*
X009215Y007122D01*
X009215Y007129D02*
X009145Y007129D01*
X009145Y007136D02*
X009215Y007136D01*
X009215Y007143D02*
X009145Y007143D01*
X009145Y007150D02*
X009215Y007150D01*
X009215Y007157D02*
X009145Y007157D01*
X009145Y007164D02*
X009215Y007164D01*
X009215Y007171D02*
X009145Y007171D01*
X009145Y007178D02*
X009215Y007178D01*
X009215Y007185D02*
X009145Y007185D01*
X009145Y007192D02*
X009215Y007192D01*
X009215Y007199D02*
X009145Y007199D01*
X009145Y007206D02*
X009215Y007206D01*
X009215Y007213D02*
X009145Y007213D01*
X009145Y007220D02*
X009215Y007220D01*
X009215Y007227D02*
X009145Y007227D01*
X009145Y007234D02*
X009215Y007234D01*
X009215Y007241D02*
X009145Y007241D01*
X009058Y007243D02*
X008988Y007243D01*
X009058Y007243D02*
X009058Y006975D01*
X008988Y006975D01*
X008988Y007243D01*
X008988Y006982D02*
X009058Y006982D01*
X009058Y006989D02*
X008988Y006989D01*
X008988Y006996D02*
X009058Y006996D01*
X009058Y007003D02*
X008988Y007003D01*
X008988Y007010D02*
X009058Y007010D01*
X009058Y007017D02*
X008988Y007017D01*
X008988Y007024D02*
X009058Y007024D01*
X009058Y007031D02*
X008988Y007031D01*
X008988Y007038D02*
X009058Y007038D01*
X009058Y007045D02*
X008988Y007045D01*
X008988Y007052D02*
X009058Y007052D01*
X009058Y007059D02*
X008988Y007059D01*
X008988Y007066D02*
X009058Y007066D01*
X009058Y007073D02*
X008988Y007073D01*
X008988Y007080D02*
X009058Y007080D01*
X009058Y007087D02*
X008988Y007087D01*
X008988Y007094D02*
X009058Y007094D01*
X009058Y007101D02*
X008988Y007101D01*
X008988Y007108D02*
X009058Y007108D01*
X009058Y007115D02*
X008988Y007115D01*
X008988Y007122D02*
X009058Y007122D01*
X009058Y007129D02*
X008988Y007129D01*
X008988Y007136D02*
X009058Y007136D01*
X009058Y007143D02*
X008988Y007143D01*
X008988Y007150D02*
X009058Y007150D01*
X009058Y007157D02*
X008988Y007157D01*
X008988Y007164D02*
X009058Y007164D01*
X009058Y007171D02*
X008988Y007171D01*
X008988Y007178D02*
X009058Y007178D01*
X009058Y007185D02*
X008988Y007185D01*
X008988Y007192D02*
X009058Y007192D01*
X009058Y007199D02*
X008988Y007199D01*
X008988Y007206D02*
X009058Y007206D01*
X009058Y007213D02*
X008988Y007213D01*
X008988Y007220D02*
X009058Y007220D01*
X009058Y007227D02*
X008988Y007227D01*
X008988Y007234D02*
X009058Y007234D01*
X009058Y007241D02*
X008988Y007241D01*
X008900Y007243D02*
X008830Y007243D01*
X008900Y007243D02*
X008900Y006975D01*
X008830Y006975D01*
X008830Y007243D01*
X008830Y006982D02*
X008900Y006982D01*
X008900Y006989D02*
X008830Y006989D01*
X008830Y006996D02*
X008900Y006996D01*
X008900Y007003D02*
X008830Y007003D01*
X008830Y007010D02*
X008900Y007010D01*
X008900Y007017D02*
X008830Y007017D01*
X008830Y007024D02*
X008900Y007024D01*
X008900Y007031D02*
X008830Y007031D01*
X008830Y007038D02*
X008900Y007038D01*
X008900Y007045D02*
X008830Y007045D01*
X008830Y007052D02*
X008900Y007052D01*
X008900Y007059D02*
X008830Y007059D01*
X008830Y007066D02*
X008900Y007066D01*
X008900Y007073D02*
X008830Y007073D01*
X008830Y007080D02*
X008900Y007080D01*
X008900Y007087D02*
X008830Y007087D01*
X008830Y007094D02*
X008900Y007094D01*
X008900Y007101D02*
X008830Y007101D01*
X008830Y007108D02*
X008900Y007108D01*
X008900Y007115D02*
X008830Y007115D01*
X008830Y007122D02*
X008900Y007122D01*
X008900Y007129D02*
X008830Y007129D01*
X008830Y007136D02*
X008900Y007136D01*
X008900Y007143D02*
X008830Y007143D01*
X008830Y007150D02*
X008900Y007150D01*
X008900Y007157D02*
X008830Y007157D01*
X008830Y007164D02*
X008900Y007164D01*
X008900Y007171D02*
X008830Y007171D01*
X008830Y007178D02*
X008900Y007178D01*
X008900Y007185D02*
X008830Y007185D01*
X008830Y007192D02*
X008900Y007192D01*
X008900Y007199D02*
X008830Y007199D01*
X008830Y007206D02*
X008900Y007206D01*
X008900Y007213D02*
X008830Y007213D01*
X008830Y007220D02*
X008900Y007220D01*
X008900Y007227D02*
X008830Y007227D01*
X008830Y007234D02*
X008900Y007234D01*
X008900Y007241D02*
X008830Y007241D01*
X008743Y007243D02*
X008673Y007243D01*
X008743Y007243D02*
X008743Y006975D01*
X008673Y006975D01*
X008673Y007243D01*
X008673Y006982D02*
X008743Y006982D01*
X008743Y006989D02*
X008673Y006989D01*
X008673Y006996D02*
X008743Y006996D01*
X008743Y007003D02*
X008673Y007003D01*
X008673Y007010D02*
X008743Y007010D01*
X008743Y007017D02*
X008673Y007017D01*
X008673Y007024D02*
X008743Y007024D01*
X008743Y007031D02*
X008673Y007031D01*
X008673Y007038D02*
X008743Y007038D01*
X008743Y007045D02*
X008673Y007045D01*
X008673Y007052D02*
X008743Y007052D01*
X008743Y007059D02*
X008673Y007059D01*
X008673Y007066D02*
X008743Y007066D01*
X008743Y007073D02*
X008673Y007073D01*
X008673Y007080D02*
X008743Y007080D01*
X008743Y007087D02*
X008673Y007087D01*
X008673Y007094D02*
X008743Y007094D01*
X008743Y007101D02*
X008673Y007101D01*
X008673Y007108D02*
X008743Y007108D01*
X008743Y007115D02*
X008673Y007115D01*
X008673Y007122D02*
X008743Y007122D01*
X008743Y007129D02*
X008673Y007129D01*
X008673Y007136D02*
X008743Y007136D01*
X008743Y007143D02*
X008673Y007143D01*
X008673Y007150D02*
X008743Y007150D01*
X008743Y007157D02*
X008673Y007157D01*
X008673Y007164D02*
X008743Y007164D01*
X008743Y007171D02*
X008673Y007171D01*
X008673Y007178D02*
X008743Y007178D01*
X008743Y007185D02*
X008673Y007185D01*
X008673Y007192D02*
X008743Y007192D01*
X008743Y007199D02*
X008673Y007199D01*
X008673Y007206D02*
X008743Y007206D01*
X008743Y007213D02*
X008673Y007213D01*
X008673Y007220D02*
X008743Y007220D01*
X008743Y007227D02*
X008673Y007227D01*
X008673Y007234D02*
X008743Y007234D01*
X008743Y007241D02*
X008673Y007241D01*
X008585Y007243D02*
X008515Y007243D01*
X008585Y007243D02*
X008585Y006975D01*
X008515Y006975D01*
X008515Y007243D01*
X008515Y006982D02*
X008585Y006982D01*
X008585Y006989D02*
X008515Y006989D01*
X008515Y006996D02*
X008585Y006996D01*
X008585Y007003D02*
X008515Y007003D01*
X008515Y007010D02*
X008585Y007010D01*
X008585Y007017D02*
X008515Y007017D01*
X008515Y007024D02*
X008585Y007024D01*
X008585Y007031D02*
X008515Y007031D01*
X008515Y007038D02*
X008585Y007038D01*
X008585Y007045D02*
X008515Y007045D01*
X008515Y007052D02*
X008585Y007052D01*
X008585Y007059D02*
X008515Y007059D01*
X008515Y007066D02*
X008585Y007066D01*
X008585Y007073D02*
X008515Y007073D01*
X008515Y007080D02*
X008585Y007080D01*
X008585Y007087D02*
X008515Y007087D01*
X008515Y007094D02*
X008585Y007094D01*
X008585Y007101D02*
X008515Y007101D01*
X008515Y007108D02*
X008585Y007108D01*
X008585Y007115D02*
X008515Y007115D01*
X008515Y007122D02*
X008585Y007122D01*
X008585Y007129D02*
X008515Y007129D01*
X008515Y007136D02*
X008585Y007136D01*
X008585Y007143D02*
X008515Y007143D01*
X008515Y007150D02*
X008585Y007150D01*
X008585Y007157D02*
X008515Y007157D01*
X008515Y007164D02*
X008585Y007164D01*
X008585Y007171D02*
X008515Y007171D01*
X008515Y007178D02*
X008585Y007178D01*
X008585Y007185D02*
X008515Y007185D01*
X008515Y007192D02*
X008585Y007192D01*
X008585Y007199D02*
X008515Y007199D01*
X008515Y007206D02*
X008585Y007206D01*
X008585Y007213D02*
X008515Y007213D01*
X008515Y007220D02*
X008585Y007220D01*
X008585Y007227D02*
X008515Y007227D01*
X008515Y007234D02*
X008585Y007234D01*
X008585Y007241D02*
X008515Y007241D01*
X008389Y006778D02*
X008121Y006778D01*
X008121Y006848D01*
X008389Y006848D01*
X008389Y006778D01*
X008389Y006785D02*
X008121Y006785D01*
X008121Y006792D02*
X008389Y006792D01*
X008389Y006799D02*
X008121Y006799D01*
X008121Y006806D02*
X008389Y006806D01*
X008389Y006813D02*
X008121Y006813D01*
X008121Y006820D02*
X008389Y006820D01*
X008389Y006827D02*
X008121Y006827D01*
X008121Y006834D02*
X008389Y006834D01*
X008389Y006841D02*
X008121Y006841D01*
X008121Y006848D02*
X008389Y006848D01*
X008389Y006621D02*
X008121Y006621D01*
X008121Y006691D01*
X008389Y006691D01*
X008389Y006621D01*
X008389Y006628D02*
X008121Y006628D01*
X008121Y006635D02*
X008389Y006635D01*
X008389Y006642D02*
X008121Y006642D01*
X008121Y006649D02*
X008389Y006649D01*
X008389Y006656D02*
X008121Y006656D01*
X008121Y006663D02*
X008389Y006663D01*
X008389Y006670D02*
X008121Y006670D01*
X008121Y006677D02*
X008389Y006677D01*
X008389Y006684D02*
X008121Y006684D01*
X008121Y006691D02*
X008389Y006691D01*
X008389Y006463D02*
X008121Y006463D01*
X008121Y006533D01*
X008389Y006533D01*
X008389Y006463D01*
X008389Y006470D02*
X008121Y006470D01*
X008121Y006477D02*
X008389Y006477D01*
X008389Y006484D02*
X008121Y006484D01*
X008121Y006491D02*
X008389Y006491D01*
X008389Y006498D02*
X008121Y006498D01*
X008121Y006505D02*
X008389Y006505D01*
X008389Y006512D02*
X008121Y006512D01*
X008121Y006519D02*
X008389Y006519D01*
X008389Y006526D02*
X008121Y006526D01*
X008121Y006533D02*
X008389Y006533D01*
X008389Y006306D02*
X008121Y006306D01*
X008121Y006376D01*
X008389Y006376D01*
X008389Y006306D01*
X008389Y006313D02*
X008121Y006313D01*
X008121Y006320D02*
X008389Y006320D01*
X008389Y006327D02*
X008121Y006327D01*
X008121Y006334D02*
X008389Y006334D01*
X008389Y006341D02*
X008121Y006341D01*
X008121Y006348D02*
X008389Y006348D01*
X008389Y006355D02*
X008121Y006355D01*
X008121Y006362D02*
X008389Y006362D01*
X008389Y006369D02*
X008121Y006369D01*
X008121Y006376D02*
X008389Y006376D01*
X008389Y006148D02*
X008121Y006148D01*
X008121Y006218D01*
X008389Y006218D01*
X008389Y006148D01*
X008389Y006155D02*
X008121Y006155D01*
X008121Y006162D02*
X008389Y006162D01*
X008389Y006169D02*
X008121Y006169D01*
X008121Y006176D02*
X008389Y006176D01*
X008389Y006183D02*
X008121Y006183D01*
X008121Y006190D02*
X008389Y006190D01*
X008389Y006197D02*
X008121Y006197D01*
X008121Y006204D02*
X008389Y006204D01*
X008389Y006211D02*
X008121Y006211D01*
X008121Y006218D02*
X008389Y006218D01*
X008389Y005991D02*
X008121Y005991D01*
X008121Y006061D01*
X008389Y006061D01*
X008389Y005991D01*
X008389Y005998D02*
X008121Y005998D01*
X008121Y006005D02*
X008389Y006005D01*
X008389Y006012D02*
X008121Y006012D01*
X008121Y006019D02*
X008389Y006019D01*
X008389Y006026D02*
X008121Y006026D01*
X008121Y006033D02*
X008389Y006033D01*
X008389Y006040D02*
X008121Y006040D01*
X008121Y006047D02*
X008389Y006047D01*
X008389Y006054D02*
X008121Y006054D01*
X008121Y006061D02*
X008389Y006061D01*
X008389Y005833D02*
X008121Y005833D01*
X008121Y005903D01*
X008389Y005903D01*
X008389Y005833D01*
X008389Y005840D02*
X008121Y005840D01*
X008121Y005847D02*
X008389Y005847D01*
X008389Y005854D02*
X008121Y005854D01*
X008121Y005861D02*
X008389Y005861D01*
X008389Y005868D02*
X008121Y005868D01*
X008121Y005875D02*
X008389Y005875D01*
X008389Y005882D02*
X008121Y005882D01*
X008121Y005889D02*
X008389Y005889D01*
X008389Y005896D02*
X008121Y005896D01*
X008121Y005903D02*
X008389Y005903D01*
X008389Y005676D02*
X008121Y005676D01*
X008121Y005746D01*
X008389Y005746D01*
X008389Y005676D01*
X008389Y005683D02*
X008121Y005683D01*
X008121Y005690D02*
X008389Y005690D01*
X008389Y005697D02*
X008121Y005697D01*
X008121Y005704D02*
X008389Y005704D01*
X008389Y005711D02*
X008121Y005711D01*
X008121Y005718D02*
X008389Y005718D01*
X008389Y005725D02*
X008121Y005725D01*
X008121Y005732D02*
X008389Y005732D01*
X008389Y005739D02*
X008121Y005739D01*
X008121Y005746D02*
X008389Y005746D01*
X008389Y005518D02*
X008121Y005518D01*
X008121Y005588D01*
X008389Y005588D01*
X008389Y005518D01*
X008389Y005525D02*
X008121Y005525D01*
X008121Y005532D02*
X008389Y005532D01*
X008389Y005539D02*
X008121Y005539D01*
X008121Y005546D02*
X008389Y005546D01*
X008389Y005553D02*
X008121Y005553D01*
X008121Y005560D02*
X008389Y005560D01*
X008389Y005567D02*
X008121Y005567D01*
X008121Y005574D02*
X008389Y005574D01*
X008389Y005581D02*
X008121Y005581D01*
X008121Y005588D02*
X008389Y005588D01*
X008389Y005361D02*
X008121Y005361D01*
X008121Y005431D01*
X008389Y005431D01*
X008389Y005361D01*
X008389Y005368D02*
X008121Y005368D01*
X008121Y005375D02*
X008389Y005375D01*
X008389Y005382D02*
X008121Y005382D01*
X008121Y005389D02*
X008389Y005389D01*
X008389Y005396D02*
X008121Y005396D01*
X008121Y005403D02*
X008389Y005403D01*
X008389Y005410D02*
X008121Y005410D01*
X008121Y005417D02*
X008389Y005417D01*
X008389Y005424D02*
X008121Y005424D01*
X008121Y005431D02*
X008389Y005431D01*
X008389Y005203D02*
X008121Y005203D01*
X008121Y005273D01*
X008389Y005273D01*
X008389Y005203D01*
X008389Y005210D02*
X008121Y005210D01*
X008121Y005217D02*
X008389Y005217D01*
X008389Y005224D02*
X008121Y005224D01*
X008121Y005231D02*
X008389Y005231D01*
X008389Y005238D02*
X008121Y005238D01*
X008121Y005245D02*
X008389Y005245D01*
X008389Y005252D02*
X008121Y005252D01*
X008121Y005259D02*
X008389Y005259D01*
X008389Y005266D02*
X008121Y005266D01*
X008121Y005273D02*
X008389Y005273D01*
X008389Y005046D02*
X008121Y005046D01*
X008121Y005116D01*
X008389Y005116D01*
X008389Y005046D01*
X008389Y005053D02*
X008121Y005053D01*
X008121Y005060D02*
X008389Y005060D01*
X008389Y005067D02*
X008121Y005067D01*
X008121Y005074D02*
X008389Y005074D01*
X008389Y005081D02*
X008121Y005081D01*
X008121Y005088D02*
X008389Y005088D01*
X008389Y005095D02*
X008121Y005095D01*
X008121Y005102D02*
X008389Y005102D01*
X008389Y005109D02*
X008121Y005109D01*
X008121Y005116D02*
X008389Y005116D01*
X008389Y004888D02*
X008121Y004888D01*
X008121Y004958D01*
X008389Y004958D01*
X008389Y004888D01*
X008389Y004895D02*
X008121Y004895D01*
X008121Y004902D02*
X008389Y004902D01*
X008389Y004909D02*
X008121Y004909D01*
X008121Y004916D02*
X008389Y004916D01*
X008389Y004923D02*
X008121Y004923D01*
X008121Y004930D02*
X008389Y004930D01*
X008389Y004937D02*
X008121Y004937D01*
X008121Y004944D02*
X008389Y004944D01*
X008389Y004951D02*
X008121Y004951D01*
X008121Y004958D02*
X008389Y004958D01*
X008389Y004731D02*
X008121Y004731D01*
X008121Y004801D01*
X008389Y004801D01*
X008389Y004731D01*
X008389Y004738D02*
X008121Y004738D01*
X008121Y004745D02*
X008389Y004745D01*
X008389Y004752D02*
X008121Y004752D01*
X008121Y004759D02*
X008389Y004759D01*
X008389Y004766D02*
X008121Y004766D01*
X008121Y004773D02*
X008389Y004773D01*
X008389Y004780D02*
X008121Y004780D01*
X008121Y004787D02*
X008389Y004787D01*
X008389Y004794D02*
X008121Y004794D01*
X008121Y004801D02*
X008389Y004801D01*
X008389Y004574D02*
X008121Y004574D01*
X008121Y004644D01*
X008389Y004644D01*
X008389Y004574D01*
X008389Y004581D02*
X008121Y004581D01*
X008121Y004588D02*
X008389Y004588D01*
X008389Y004595D02*
X008121Y004595D01*
X008121Y004602D02*
X008389Y004602D01*
X008389Y004609D02*
X008121Y004609D01*
X008121Y004616D02*
X008389Y004616D01*
X008389Y004623D02*
X008121Y004623D01*
X008121Y004630D02*
X008389Y004630D01*
X008389Y004637D02*
X008121Y004637D01*
X008121Y004644D02*
X008389Y004644D01*
X008389Y004416D02*
X008121Y004416D01*
X008121Y004486D01*
X008389Y004486D01*
X008389Y004416D01*
X008389Y004423D02*
X008121Y004423D01*
X008121Y004430D02*
X008389Y004430D01*
X008389Y004437D02*
X008121Y004437D01*
X008121Y004444D02*
X008389Y004444D01*
X008389Y004451D02*
X008121Y004451D01*
X008121Y004458D02*
X008389Y004458D01*
X008389Y004465D02*
X008121Y004465D01*
X008121Y004472D02*
X008389Y004472D01*
X008389Y004479D02*
X008121Y004479D01*
X008121Y004486D02*
X008389Y004486D01*
X008389Y004259D02*
X008121Y004259D01*
X008121Y004329D01*
X008389Y004329D01*
X008389Y004259D01*
X008389Y004266D02*
X008121Y004266D01*
X008121Y004273D02*
X008389Y004273D01*
X008389Y004280D02*
X008121Y004280D01*
X008121Y004287D02*
X008389Y004287D01*
X008389Y004294D02*
X008121Y004294D01*
X008121Y004301D02*
X008389Y004301D01*
X008389Y004308D02*
X008121Y004308D01*
X008121Y004315D02*
X008389Y004315D01*
X008389Y004322D02*
X008121Y004322D01*
X008121Y004329D02*
X008389Y004329D01*
X008515Y003864D02*
X008585Y003864D01*
X008515Y003864D02*
X008515Y004132D01*
X008585Y004132D01*
X008585Y003864D01*
X008585Y003871D02*
X008515Y003871D01*
X008515Y003878D02*
X008585Y003878D01*
X008585Y003885D02*
X008515Y003885D01*
X008515Y003892D02*
X008585Y003892D01*
X008585Y003899D02*
X008515Y003899D01*
X008515Y003906D02*
X008585Y003906D01*
X008585Y003913D02*
X008515Y003913D01*
X008515Y003920D02*
X008585Y003920D01*
X008585Y003927D02*
X008515Y003927D01*
X008515Y003934D02*
X008585Y003934D01*
X008585Y003941D02*
X008515Y003941D01*
X008515Y003948D02*
X008585Y003948D01*
X008585Y003955D02*
X008515Y003955D01*
X008515Y003962D02*
X008585Y003962D01*
X008585Y003969D02*
X008515Y003969D01*
X008515Y003976D02*
X008585Y003976D01*
X008585Y003983D02*
X008515Y003983D01*
X008515Y003990D02*
X008585Y003990D01*
X008585Y003997D02*
X008515Y003997D01*
X008515Y004004D02*
X008585Y004004D01*
X008585Y004011D02*
X008515Y004011D01*
X008515Y004018D02*
X008585Y004018D01*
X008585Y004025D02*
X008515Y004025D01*
X008515Y004032D02*
X008585Y004032D01*
X008585Y004039D02*
X008515Y004039D01*
X008515Y004046D02*
X008585Y004046D01*
X008585Y004053D02*
X008515Y004053D01*
X008515Y004060D02*
X008585Y004060D01*
X008585Y004067D02*
X008515Y004067D01*
X008515Y004074D02*
X008585Y004074D01*
X008585Y004081D02*
X008515Y004081D01*
X008515Y004088D02*
X008585Y004088D01*
X008585Y004095D02*
X008515Y004095D01*
X008515Y004102D02*
X008585Y004102D01*
X008585Y004109D02*
X008515Y004109D01*
X008515Y004116D02*
X008585Y004116D01*
X008585Y004123D02*
X008515Y004123D01*
X008515Y004130D02*
X008585Y004130D01*
X008673Y003864D02*
X008743Y003864D01*
X008673Y003864D02*
X008673Y004132D01*
X008743Y004132D01*
X008743Y003864D01*
X008743Y003871D02*
X008673Y003871D01*
X008673Y003878D02*
X008743Y003878D01*
X008743Y003885D02*
X008673Y003885D01*
X008673Y003892D02*
X008743Y003892D01*
X008743Y003899D02*
X008673Y003899D01*
X008673Y003906D02*
X008743Y003906D01*
X008743Y003913D02*
X008673Y003913D01*
X008673Y003920D02*
X008743Y003920D01*
X008743Y003927D02*
X008673Y003927D01*
X008673Y003934D02*
X008743Y003934D01*
X008743Y003941D02*
X008673Y003941D01*
X008673Y003948D02*
X008743Y003948D01*
X008743Y003955D02*
X008673Y003955D01*
X008673Y003962D02*
X008743Y003962D01*
X008743Y003969D02*
X008673Y003969D01*
X008673Y003976D02*
X008743Y003976D01*
X008743Y003983D02*
X008673Y003983D01*
X008673Y003990D02*
X008743Y003990D01*
X008743Y003997D02*
X008673Y003997D01*
X008673Y004004D02*
X008743Y004004D01*
X008743Y004011D02*
X008673Y004011D01*
X008673Y004018D02*
X008743Y004018D01*
X008743Y004025D02*
X008673Y004025D01*
X008673Y004032D02*
X008743Y004032D01*
X008743Y004039D02*
X008673Y004039D01*
X008673Y004046D02*
X008743Y004046D01*
X008743Y004053D02*
X008673Y004053D01*
X008673Y004060D02*
X008743Y004060D01*
X008743Y004067D02*
X008673Y004067D01*
X008673Y004074D02*
X008743Y004074D01*
X008743Y004081D02*
X008673Y004081D01*
X008673Y004088D02*
X008743Y004088D01*
X008743Y004095D02*
X008673Y004095D01*
X008673Y004102D02*
X008743Y004102D01*
X008743Y004109D02*
X008673Y004109D01*
X008673Y004116D02*
X008743Y004116D01*
X008743Y004123D02*
X008673Y004123D01*
X008673Y004130D02*
X008743Y004130D01*
X008830Y003864D02*
X008900Y003864D01*
X008830Y003864D02*
X008830Y004132D01*
X008900Y004132D01*
X008900Y003864D01*
X008900Y003871D02*
X008830Y003871D01*
X008830Y003878D02*
X008900Y003878D01*
X008900Y003885D02*
X008830Y003885D01*
X008830Y003892D02*
X008900Y003892D01*
X008900Y003899D02*
X008830Y003899D01*
X008830Y003906D02*
X008900Y003906D01*
X008900Y003913D02*
X008830Y003913D01*
X008830Y003920D02*
X008900Y003920D01*
X008900Y003927D02*
X008830Y003927D01*
X008830Y003934D02*
X008900Y003934D01*
X008900Y003941D02*
X008830Y003941D01*
X008830Y003948D02*
X008900Y003948D01*
X008900Y003955D02*
X008830Y003955D01*
X008830Y003962D02*
X008900Y003962D01*
X008900Y003969D02*
X008830Y003969D01*
X008830Y003976D02*
X008900Y003976D01*
X008900Y003983D02*
X008830Y003983D01*
X008830Y003990D02*
X008900Y003990D01*
X008900Y003997D02*
X008830Y003997D01*
X008830Y004004D02*
X008900Y004004D01*
X008900Y004011D02*
X008830Y004011D01*
X008830Y004018D02*
X008900Y004018D01*
X008900Y004025D02*
X008830Y004025D01*
X008830Y004032D02*
X008900Y004032D01*
X008900Y004039D02*
X008830Y004039D01*
X008830Y004046D02*
X008900Y004046D01*
X008900Y004053D02*
X008830Y004053D01*
X008830Y004060D02*
X008900Y004060D01*
X008900Y004067D02*
X008830Y004067D01*
X008830Y004074D02*
X008900Y004074D01*
X008900Y004081D02*
X008830Y004081D01*
X008830Y004088D02*
X008900Y004088D01*
X008900Y004095D02*
X008830Y004095D01*
X008830Y004102D02*
X008900Y004102D01*
X008900Y004109D02*
X008830Y004109D01*
X008830Y004116D02*
X008900Y004116D01*
X008900Y004123D02*
X008830Y004123D01*
X008830Y004130D02*
X008900Y004130D01*
X008988Y003864D02*
X009058Y003864D01*
X008988Y003864D02*
X008988Y004132D01*
X009058Y004132D01*
X009058Y003864D01*
X009058Y003871D02*
X008988Y003871D01*
X008988Y003878D02*
X009058Y003878D01*
X009058Y003885D02*
X008988Y003885D01*
X008988Y003892D02*
X009058Y003892D01*
X009058Y003899D02*
X008988Y003899D01*
X008988Y003906D02*
X009058Y003906D01*
X009058Y003913D02*
X008988Y003913D01*
X008988Y003920D02*
X009058Y003920D01*
X009058Y003927D02*
X008988Y003927D01*
X008988Y003934D02*
X009058Y003934D01*
X009058Y003941D02*
X008988Y003941D01*
X008988Y003948D02*
X009058Y003948D01*
X009058Y003955D02*
X008988Y003955D01*
X008988Y003962D02*
X009058Y003962D01*
X009058Y003969D02*
X008988Y003969D01*
X008988Y003976D02*
X009058Y003976D01*
X009058Y003983D02*
X008988Y003983D01*
X008988Y003990D02*
X009058Y003990D01*
X009058Y003997D02*
X008988Y003997D01*
X008988Y004004D02*
X009058Y004004D01*
X009058Y004011D02*
X008988Y004011D01*
X008988Y004018D02*
X009058Y004018D01*
X009058Y004025D02*
X008988Y004025D01*
X008988Y004032D02*
X009058Y004032D01*
X009058Y004039D02*
X008988Y004039D01*
X008988Y004046D02*
X009058Y004046D01*
X009058Y004053D02*
X008988Y004053D01*
X008988Y004060D02*
X009058Y004060D01*
X009058Y004067D02*
X008988Y004067D01*
X008988Y004074D02*
X009058Y004074D01*
X009058Y004081D02*
X008988Y004081D01*
X008988Y004088D02*
X009058Y004088D01*
X009058Y004095D02*
X008988Y004095D01*
X008988Y004102D02*
X009058Y004102D01*
X009058Y004109D02*
X008988Y004109D01*
X008988Y004116D02*
X009058Y004116D01*
X009058Y004123D02*
X008988Y004123D01*
X008988Y004130D02*
X009058Y004130D01*
X009145Y003864D02*
X009215Y003864D01*
X009145Y003864D02*
X009145Y004132D01*
X009215Y004132D01*
X009215Y003864D01*
X009215Y003871D02*
X009145Y003871D01*
X009145Y003878D02*
X009215Y003878D01*
X009215Y003885D02*
X009145Y003885D01*
X009145Y003892D02*
X009215Y003892D01*
X009215Y003899D02*
X009145Y003899D01*
X009145Y003906D02*
X009215Y003906D01*
X009215Y003913D02*
X009145Y003913D01*
X009145Y003920D02*
X009215Y003920D01*
X009215Y003927D02*
X009145Y003927D01*
X009145Y003934D02*
X009215Y003934D01*
X009215Y003941D02*
X009145Y003941D01*
X009145Y003948D02*
X009215Y003948D01*
X009215Y003955D02*
X009145Y003955D01*
X009145Y003962D02*
X009215Y003962D01*
X009215Y003969D02*
X009145Y003969D01*
X009145Y003976D02*
X009215Y003976D01*
X009215Y003983D02*
X009145Y003983D01*
X009145Y003990D02*
X009215Y003990D01*
X009215Y003997D02*
X009145Y003997D01*
X009145Y004004D02*
X009215Y004004D01*
X009215Y004011D02*
X009145Y004011D01*
X009145Y004018D02*
X009215Y004018D01*
X009215Y004025D02*
X009145Y004025D01*
X009145Y004032D02*
X009215Y004032D01*
X009215Y004039D02*
X009145Y004039D01*
X009145Y004046D02*
X009215Y004046D01*
X009215Y004053D02*
X009145Y004053D01*
X009145Y004060D02*
X009215Y004060D01*
X009215Y004067D02*
X009145Y004067D01*
X009145Y004074D02*
X009215Y004074D01*
X009215Y004081D02*
X009145Y004081D01*
X009145Y004088D02*
X009215Y004088D01*
X009215Y004095D02*
X009145Y004095D01*
X009145Y004102D02*
X009215Y004102D01*
X009215Y004109D02*
X009145Y004109D01*
X009145Y004116D02*
X009215Y004116D01*
X009215Y004123D02*
X009145Y004123D01*
X009145Y004130D02*
X009215Y004130D01*
X009303Y003864D02*
X009373Y003864D01*
X009303Y003864D02*
X009303Y004132D01*
X009373Y004132D01*
X009373Y003864D01*
X009373Y003871D02*
X009303Y003871D01*
X009303Y003878D02*
X009373Y003878D01*
X009373Y003885D02*
X009303Y003885D01*
X009303Y003892D02*
X009373Y003892D01*
X009373Y003899D02*
X009303Y003899D01*
X009303Y003906D02*
X009373Y003906D01*
X009373Y003913D02*
X009303Y003913D01*
X009303Y003920D02*
X009373Y003920D01*
X009373Y003927D02*
X009303Y003927D01*
X009303Y003934D02*
X009373Y003934D01*
X009373Y003941D02*
X009303Y003941D01*
X009303Y003948D02*
X009373Y003948D01*
X009373Y003955D02*
X009303Y003955D01*
X009303Y003962D02*
X009373Y003962D01*
X009373Y003969D02*
X009303Y003969D01*
X009303Y003976D02*
X009373Y003976D01*
X009373Y003983D02*
X009303Y003983D01*
X009303Y003990D02*
X009373Y003990D01*
X009373Y003997D02*
X009303Y003997D01*
X009303Y004004D02*
X009373Y004004D01*
X009373Y004011D02*
X009303Y004011D01*
X009303Y004018D02*
X009373Y004018D01*
X009373Y004025D02*
X009303Y004025D01*
X009303Y004032D02*
X009373Y004032D01*
X009373Y004039D02*
X009303Y004039D01*
X009303Y004046D02*
X009373Y004046D01*
X009373Y004053D02*
X009303Y004053D01*
X009303Y004060D02*
X009373Y004060D01*
X009373Y004067D02*
X009303Y004067D01*
X009303Y004074D02*
X009373Y004074D01*
X009373Y004081D02*
X009303Y004081D01*
X009303Y004088D02*
X009373Y004088D01*
X009373Y004095D02*
X009303Y004095D01*
X009303Y004102D02*
X009373Y004102D01*
X009373Y004109D02*
X009303Y004109D01*
X009303Y004116D02*
X009373Y004116D01*
X009373Y004123D02*
X009303Y004123D01*
X009303Y004130D02*
X009373Y004130D01*
X009460Y003864D02*
X009530Y003864D01*
X009460Y003864D02*
X009460Y004132D01*
X009530Y004132D01*
X009530Y003864D01*
X009530Y003871D02*
X009460Y003871D01*
X009460Y003878D02*
X009530Y003878D01*
X009530Y003885D02*
X009460Y003885D01*
X009460Y003892D02*
X009530Y003892D01*
X009530Y003899D02*
X009460Y003899D01*
X009460Y003906D02*
X009530Y003906D01*
X009530Y003913D02*
X009460Y003913D01*
X009460Y003920D02*
X009530Y003920D01*
X009530Y003927D02*
X009460Y003927D01*
X009460Y003934D02*
X009530Y003934D01*
X009530Y003941D02*
X009460Y003941D01*
X009460Y003948D02*
X009530Y003948D01*
X009530Y003955D02*
X009460Y003955D01*
X009460Y003962D02*
X009530Y003962D01*
X009530Y003969D02*
X009460Y003969D01*
X009460Y003976D02*
X009530Y003976D01*
X009530Y003983D02*
X009460Y003983D01*
X009460Y003990D02*
X009530Y003990D01*
X009530Y003997D02*
X009460Y003997D01*
X009460Y004004D02*
X009530Y004004D01*
X009530Y004011D02*
X009460Y004011D01*
X009460Y004018D02*
X009530Y004018D01*
X009530Y004025D02*
X009460Y004025D01*
X009460Y004032D02*
X009530Y004032D01*
X009530Y004039D02*
X009460Y004039D01*
X009460Y004046D02*
X009530Y004046D01*
X009530Y004053D02*
X009460Y004053D01*
X009460Y004060D02*
X009530Y004060D01*
X009530Y004067D02*
X009460Y004067D01*
X009460Y004074D02*
X009530Y004074D01*
X009530Y004081D02*
X009460Y004081D01*
X009460Y004088D02*
X009530Y004088D01*
X009530Y004095D02*
X009460Y004095D01*
X009460Y004102D02*
X009530Y004102D01*
X009530Y004109D02*
X009460Y004109D01*
X009460Y004116D02*
X009530Y004116D01*
X009530Y004123D02*
X009460Y004123D01*
X009460Y004130D02*
X009530Y004130D01*
X009618Y003864D02*
X009688Y003864D01*
X009618Y003864D02*
X009618Y004132D01*
X009688Y004132D01*
X009688Y003864D01*
X009688Y003871D02*
X009618Y003871D01*
X009618Y003878D02*
X009688Y003878D01*
X009688Y003885D02*
X009618Y003885D01*
X009618Y003892D02*
X009688Y003892D01*
X009688Y003899D02*
X009618Y003899D01*
X009618Y003906D02*
X009688Y003906D01*
X009688Y003913D02*
X009618Y003913D01*
X009618Y003920D02*
X009688Y003920D01*
X009688Y003927D02*
X009618Y003927D01*
X009618Y003934D02*
X009688Y003934D01*
X009688Y003941D02*
X009618Y003941D01*
X009618Y003948D02*
X009688Y003948D01*
X009688Y003955D02*
X009618Y003955D01*
X009618Y003962D02*
X009688Y003962D01*
X009688Y003969D02*
X009618Y003969D01*
X009618Y003976D02*
X009688Y003976D01*
X009688Y003983D02*
X009618Y003983D01*
X009618Y003990D02*
X009688Y003990D01*
X009688Y003997D02*
X009618Y003997D01*
X009618Y004004D02*
X009688Y004004D01*
X009688Y004011D02*
X009618Y004011D01*
X009618Y004018D02*
X009688Y004018D01*
X009688Y004025D02*
X009618Y004025D01*
X009618Y004032D02*
X009688Y004032D01*
X009688Y004039D02*
X009618Y004039D01*
X009618Y004046D02*
X009688Y004046D01*
X009688Y004053D02*
X009618Y004053D01*
X009618Y004060D02*
X009688Y004060D01*
X009688Y004067D02*
X009618Y004067D01*
X009618Y004074D02*
X009688Y004074D01*
X009688Y004081D02*
X009618Y004081D01*
X009618Y004088D02*
X009688Y004088D01*
X009688Y004095D02*
X009618Y004095D01*
X009618Y004102D02*
X009688Y004102D01*
X009688Y004109D02*
X009618Y004109D01*
X009618Y004116D02*
X009688Y004116D01*
X009688Y004123D02*
X009618Y004123D01*
X009618Y004130D02*
X009688Y004130D01*
X009775Y003864D02*
X009845Y003864D01*
X009775Y003864D02*
X009775Y004132D01*
X009845Y004132D01*
X009845Y003864D01*
X009845Y003871D02*
X009775Y003871D01*
X009775Y003878D02*
X009845Y003878D01*
X009845Y003885D02*
X009775Y003885D01*
X009775Y003892D02*
X009845Y003892D01*
X009845Y003899D02*
X009775Y003899D01*
X009775Y003906D02*
X009845Y003906D01*
X009845Y003913D02*
X009775Y003913D01*
X009775Y003920D02*
X009845Y003920D01*
X009845Y003927D02*
X009775Y003927D01*
X009775Y003934D02*
X009845Y003934D01*
X009845Y003941D02*
X009775Y003941D01*
X009775Y003948D02*
X009845Y003948D01*
X009845Y003955D02*
X009775Y003955D01*
X009775Y003962D02*
X009845Y003962D01*
X009845Y003969D02*
X009775Y003969D01*
X009775Y003976D02*
X009845Y003976D01*
X009845Y003983D02*
X009775Y003983D01*
X009775Y003990D02*
X009845Y003990D01*
X009845Y003997D02*
X009775Y003997D01*
X009775Y004004D02*
X009845Y004004D01*
X009845Y004011D02*
X009775Y004011D01*
X009775Y004018D02*
X009845Y004018D01*
X009845Y004025D02*
X009775Y004025D01*
X009775Y004032D02*
X009845Y004032D01*
X009845Y004039D02*
X009775Y004039D01*
X009775Y004046D02*
X009845Y004046D01*
X009845Y004053D02*
X009775Y004053D01*
X009775Y004060D02*
X009845Y004060D01*
X009845Y004067D02*
X009775Y004067D01*
X009775Y004074D02*
X009845Y004074D01*
X009845Y004081D02*
X009775Y004081D01*
X009775Y004088D02*
X009845Y004088D01*
X009845Y004095D02*
X009775Y004095D01*
X009775Y004102D02*
X009845Y004102D01*
X009845Y004109D02*
X009775Y004109D01*
X009775Y004116D02*
X009845Y004116D01*
X009845Y004123D02*
X009775Y004123D01*
X009775Y004130D02*
X009845Y004130D01*
X009933Y003864D02*
X010003Y003864D01*
X009933Y003864D02*
X009933Y004132D01*
X010003Y004132D01*
X010003Y003864D01*
X010003Y003871D02*
X009933Y003871D01*
X009933Y003878D02*
X010003Y003878D01*
X010003Y003885D02*
X009933Y003885D01*
X009933Y003892D02*
X010003Y003892D01*
X010003Y003899D02*
X009933Y003899D01*
X009933Y003906D02*
X010003Y003906D01*
X010003Y003913D02*
X009933Y003913D01*
X009933Y003920D02*
X010003Y003920D01*
X010003Y003927D02*
X009933Y003927D01*
X009933Y003934D02*
X010003Y003934D01*
X010003Y003941D02*
X009933Y003941D01*
X009933Y003948D02*
X010003Y003948D01*
X010003Y003955D02*
X009933Y003955D01*
X009933Y003962D02*
X010003Y003962D01*
X010003Y003969D02*
X009933Y003969D01*
X009933Y003976D02*
X010003Y003976D01*
X010003Y003983D02*
X009933Y003983D01*
X009933Y003990D02*
X010003Y003990D01*
X010003Y003997D02*
X009933Y003997D01*
X009933Y004004D02*
X010003Y004004D01*
X010003Y004011D02*
X009933Y004011D01*
X009933Y004018D02*
X010003Y004018D01*
X010003Y004025D02*
X009933Y004025D01*
X009933Y004032D02*
X010003Y004032D01*
X010003Y004039D02*
X009933Y004039D01*
X009933Y004046D02*
X010003Y004046D01*
X010003Y004053D02*
X009933Y004053D01*
X009933Y004060D02*
X010003Y004060D01*
X010003Y004067D02*
X009933Y004067D01*
X009933Y004074D02*
X010003Y004074D01*
X010003Y004081D02*
X009933Y004081D01*
X009933Y004088D02*
X010003Y004088D01*
X010003Y004095D02*
X009933Y004095D01*
X009933Y004102D02*
X010003Y004102D01*
X010003Y004109D02*
X009933Y004109D01*
X009933Y004116D02*
X010003Y004116D01*
X010003Y004123D02*
X009933Y004123D01*
X009933Y004130D02*
X010003Y004130D01*
X010090Y003864D02*
X010160Y003864D01*
X010090Y003864D02*
X010090Y004132D01*
X010160Y004132D01*
X010160Y003864D01*
X010160Y003871D02*
X010090Y003871D01*
X010090Y003878D02*
X010160Y003878D01*
X010160Y003885D02*
X010090Y003885D01*
X010090Y003892D02*
X010160Y003892D01*
X010160Y003899D02*
X010090Y003899D01*
X010090Y003906D02*
X010160Y003906D01*
X010160Y003913D02*
X010090Y003913D01*
X010090Y003920D02*
X010160Y003920D01*
X010160Y003927D02*
X010090Y003927D01*
X010090Y003934D02*
X010160Y003934D01*
X010160Y003941D02*
X010090Y003941D01*
X010090Y003948D02*
X010160Y003948D01*
X010160Y003955D02*
X010090Y003955D01*
X010090Y003962D02*
X010160Y003962D01*
X010160Y003969D02*
X010090Y003969D01*
X010090Y003976D02*
X010160Y003976D01*
X010160Y003983D02*
X010090Y003983D01*
X010090Y003990D02*
X010160Y003990D01*
X010160Y003997D02*
X010090Y003997D01*
X010090Y004004D02*
X010160Y004004D01*
X010160Y004011D02*
X010090Y004011D01*
X010090Y004018D02*
X010160Y004018D01*
X010160Y004025D02*
X010090Y004025D01*
X010090Y004032D02*
X010160Y004032D01*
X010160Y004039D02*
X010090Y004039D01*
X010090Y004046D02*
X010160Y004046D01*
X010160Y004053D02*
X010090Y004053D01*
X010090Y004060D02*
X010160Y004060D01*
X010160Y004067D02*
X010090Y004067D01*
X010090Y004074D02*
X010160Y004074D01*
X010160Y004081D02*
X010090Y004081D01*
X010090Y004088D02*
X010160Y004088D01*
X010160Y004095D02*
X010090Y004095D01*
X010090Y004102D02*
X010160Y004102D01*
X010160Y004109D02*
X010090Y004109D01*
X010090Y004116D02*
X010160Y004116D01*
X010160Y004123D02*
X010090Y004123D01*
X010090Y004130D02*
X010160Y004130D01*
X010247Y003864D02*
X010317Y003864D01*
X010247Y003864D02*
X010247Y004132D01*
X010317Y004132D01*
X010317Y003864D01*
X010317Y003871D02*
X010247Y003871D01*
X010247Y003878D02*
X010317Y003878D01*
X010317Y003885D02*
X010247Y003885D01*
X010247Y003892D02*
X010317Y003892D01*
X010317Y003899D02*
X010247Y003899D01*
X010247Y003906D02*
X010317Y003906D01*
X010317Y003913D02*
X010247Y003913D01*
X010247Y003920D02*
X010317Y003920D01*
X010317Y003927D02*
X010247Y003927D01*
X010247Y003934D02*
X010317Y003934D01*
X010317Y003941D02*
X010247Y003941D01*
X010247Y003948D02*
X010317Y003948D01*
X010317Y003955D02*
X010247Y003955D01*
X010247Y003962D02*
X010317Y003962D01*
X010317Y003969D02*
X010247Y003969D01*
X010247Y003976D02*
X010317Y003976D01*
X010317Y003983D02*
X010247Y003983D01*
X010247Y003990D02*
X010317Y003990D01*
X010317Y003997D02*
X010247Y003997D01*
X010247Y004004D02*
X010317Y004004D01*
X010317Y004011D02*
X010247Y004011D01*
X010247Y004018D02*
X010317Y004018D01*
X010317Y004025D02*
X010247Y004025D01*
X010247Y004032D02*
X010317Y004032D01*
X010317Y004039D02*
X010247Y004039D01*
X010247Y004046D02*
X010317Y004046D01*
X010317Y004053D02*
X010247Y004053D01*
X010247Y004060D02*
X010317Y004060D01*
X010317Y004067D02*
X010247Y004067D01*
X010247Y004074D02*
X010317Y004074D01*
X010317Y004081D02*
X010247Y004081D01*
X010247Y004088D02*
X010317Y004088D01*
X010317Y004095D02*
X010247Y004095D01*
X010247Y004102D02*
X010317Y004102D01*
X010317Y004109D02*
X010247Y004109D01*
X010247Y004116D02*
X010317Y004116D01*
X010317Y004123D02*
X010247Y004123D01*
X010247Y004130D02*
X010317Y004130D01*
X010405Y003864D02*
X010475Y003864D01*
X010405Y003864D02*
X010405Y004132D01*
X010475Y004132D01*
X010475Y003864D01*
X010475Y003871D02*
X010405Y003871D01*
X010405Y003878D02*
X010475Y003878D01*
X010475Y003885D02*
X010405Y003885D01*
X010405Y003892D02*
X010475Y003892D01*
X010475Y003899D02*
X010405Y003899D01*
X010405Y003906D02*
X010475Y003906D01*
X010475Y003913D02*
X010405Y003913D01*
X010405Y003920D02*
X010475Y003920D01*
X010475Y003927D02*
X010405Y003927D01*
X010405Y003934D02*
X010475Y003934D01*
X010475Y003941D02*
X010405Y003941D01*
X010405Y003948D02*
X010475Y003948D01*
X010475Y003955D02*
X010405Y003955D01*
X010405Y003962D02*
X010475Y003962D01*
X010475Y003969D02*
X010405Y003969D01*
X010405Y003976D02*
X010475Y003976D01*
X010475Y003983D02*
X010405Y003983D01*
X010405Y003990D02*
X010475Y003990D01*
X010475Y003997D02*
X010405Y003997D01*
X010405Y004004D02*
X010475Y004004D01*
X010475Y004011D02*
X010405Y004011D01*
X010405Y004018D02*
X010475Y004018D01*
X010475Y004025D02*
X010405Y004025D01*
X010405Y004032D02*
X010475Y004032D01*
X010475Y004039D02*
X010405Y004039D01*
X010405Y004046D02*
X010475Y004046D01*
X010475Y004053D02*
X010405Y004053D01*
X010405Y004060D02*
X010475Y004060D01*
X010475Y004067D02*
X010405Y004067D01*
X010405Y004074D02*
X010475Y004074D01*
X010475Y004081D02*
X010405Y004081D01*
X010405Y004088D02*
X010475Y004088D01*
X010475Y004095D02*
X010405Y004095D01*
X010405Y004102D02*
X010475Y004102D01*
X010475Y004109D02*
X010405Y004109D01*
X010405Y004116D02*
X010475Y004116D01*
X010475Y004123D02*
X010405Y004123D01*
X010405Y004130D02*
X010475Y004130D01*
X010562Y003864D02*
X010632Y003864D01*
X010562Y003864D02*
X010562Y004132D01*
X010632Y004132D01*
X010632Y003864D01*
X010632Y003871D02*
X010562Y003871D01*
X010562Y003878D02*
X010632Y003878D01*
X010632Y003885D02*
X010562Y003885D01*
X010562Y003892D02*
X010632Y003892D01*
X010632Y003899D02*
X010562Y003899D01*
X010562Y003906D02*
X010632Y003906D01*
X010632Y003913D02*
X010562Y003913D01*
X010562Y003920D02*
X010632Y003920D01*
X010632Y003927D02*
X010562Y003927D01*
X010562Y003934D02*
X010632Y003934D01*
X010632Y003941D02*
X010562Y003941D01*
X010562Y003948D02*
X010632Y003948D01*
X010632Y003955D02*
X010562Y003955D01*
X010562Y003962D02*
X010632Y003962D01*
X010632Y003969D02*
X010562Y003969D01*
X010562Y003976D02*
X010632Y003976D01*
X010632Y003983D02*
X010562Y003983D01*
X010562Y003990D02*
X010632Y003990D01*
X010632Y003997D02*
X010562Y003997D01*
X010562Y004004D02*
X010632Y004004D01*
X010632Y004011D02*
X010562Y004011D01*
X010562Y004018D02*
X010632Y004018D01*
X010632Y004025D02*
X010562Y004025D01*
X010562Y004032D02*
X010632Y004032D01*
X010632Y004039D02*
X010562Y004039D01*
X010562Y004046D02*
X010632Y004046D01*
X010632Y004053D02*
X010562Y004053D01*
X010562Y004060D02*
X010632Y004060D01*
X010632Y004067D02*
X010562Y004067D01*
X010562Y004074D02*
X010632Y004074D01*
X010632Y004081D02*
X010562Y004081D01*
X010562Y004088D02*
X010632Y004088D01*
X010632Y004095D02*
X010562Y004095D01*
X010562Y004102D02*
X010632Y004102D01*
X010632Y004109D02*
X010562Y004109D01*
X010562Y004116D02*
X010632Y004116D01*
X010632Y004123D02*
X010562Y004123D01*
X010562Y004130D02*
X010632Y004130D01*
X010720Y003864D02*
X010790Y003864D01*
X010720Y003864D02*
X010720Y004132D01*
X010790Y004132D01*
X010790Y003864D01*
X010790Y003871D02*
X010720Y003871D01*
X010720Y003878D02*
X010790Y003878D01*
X010790Y003885D02*
X010720Y003885D01*
X010720Y003892D02*
X010790Y003892D01*
X010790Y003899D02*
X010720Y003899D01*
X010720Y003906D02*
X010790Y003906D01*
X010790Y003913D02*
X010720Y003913D01*
X010720Y003920D02*
X010790Y003920D01*
X010790Y003927D02*
X010720Y003927D01*
X010720Y003934D02*
X010790Y003934D01*
X010790Y003941D02*
X010720Y003941D01*
X010720Y003948D02*
X010790Y003948D01*
X010790Y003955D02*
X010720Y003955D01*
X010720Y003962D02*
X010790Y003962D01*
X010790Y003969D02*
X010720Y003969D01*
X010720Y003976D02*
X010790Y003976D01*
X010790Y003983D02*
X010720Y003983D01*
X010720Y003990D02*
X010790Y003990D01*
X010790Y003997D02*
X010720Y003997D01*
X010720Y004004D02*
X010790Y004004D01*
X010790Y004011D02*
X010720Y004011D01*
X010720Y004018D02*
X010790Y004018D01*
X010790Y004025D02*
X010720Y004025D01*
X010720Y004032D02*
X010790Y004032D01*
X010790Y004039D02*
X010720Y004039D01*
X010720Y004046D02*
X010790Y004046D01*
X010790Y004053D02*
X010720Y004053D01*
X010720Y004060D02*
X010790Y004060D01*
X010790Y004067D02*
X010720Y004067D01*
X010720Y004074D02*
X010790Y004074D01*
X010790Y004081D02*
X010720Y004081D01*
X010720Y004088D02*
X010790Y004088D01*
X010790Y004095D02*
X010720Y004095D01*
X010720Y004102D02*
X010790Y004102D01*
X010790Y004109D02*
X010720Y004109D01*
X010720Y004116D02*
X010790Y004116D01*
X010790Y004123D02*
X010720Y004123D01*
X010720Y004130D02*
X010790Y004130D01*
X010877Y003864D02*
X010947Y003864D01*
X010877Y003864D02*
X010877Y004132D01*
X010947Y004132D01*
X010947Y003864D01*
X010947Y003871D02*
X010877Y003871D01*
X010877Y003878D02*
X010947Y003878D01*
X010947Y003885D02*
X010877Y003885D01*
X010877Y003892D02*
X010947Y003892D01*
X010947Y003899D02*
X010877Y003899D01*
X010877Y003906D02*
X010947Y003906D01*
X010947Y003913D02*
X010877Y003913D01*
X010877Y003920D02*
X010947Y003920D01*
X010947Y003927D02*
X010877Y003927D01*
X010877Y003934D02*
X010947Y003934D01*
X010947Y003941D02*
X010877Y003941D01*
X010877Y003948D02*
X010947Y003948D01*
X010947Y003955D02*
X010877Y003955D01*
X010877Y003962D02*
X010947Y003962D01*
X010947Y003969D02*
X010877Y003969D01*
X010877Y003976D02*
X010947Y003976D01*
X010947Y003983D02*
X010877Y003983D01*
X010877Y003990D02*
X010947Y003990D01*
X010947Y003997D02*
X010877Y003997D01*
X010877Y004004D02*
X010947Y004004D01*
X010947Y004011D02*
X010877Y004011D01*
X010877Y004018D02*
X010947Y004018D01*
X010947Y004025D02*
X010877Y004025D01*
X010877Y004032D02*
X010947Y004032D01*
X010947Y004039D02*
X010877Y004039D01*
X010877Y004046D02*
X010947Y004046D01*
X010947Y004053D02*
X010877Y004053D01*
X010877Y004060D02*
X010947Y004060D01*
X010947Y004067D02*
X010877Y004067D01*
X010877Y004074D02*
X010947Y004074D01*
X010947Y004081D02*
X010877Y004081D01*
X010877Y004088D02*
X010947Y004088D01*
X010947Y004095D02*
X010877Y004095D01*
X010877Y004102D02*
X010947Y004102D01*
X010947Y004109D02*
X010877Y004109D01*
X010877Y004116D02*
X010947Y004116D01*
X010947Y004123D02*
X010877Y004123D01*
X010877Y004130D02*
X010947Y004130D01*
X011035Y003864D02*
X011105Y003864D01*
X011035Y003864D02*
X011035Y004132D01*
X011105Y004132D01*
X011105Y003864D01*
X011105Y003871D02*
X011035Y003871D01*
X011035Y003878D02*
X011105Y003878D01*
X011105Y003885D02*
X011035Y003885D01*
X011035Y003892D02*
X011105Y003892D01*
X011105Y003899D02*
X011035Y003899D01*
X011035Y003906D02*
X011105Y003906D01*
X011105Y003913D02*
X011035Y003913D01*
X011035Y003920D02*
X011105Y003920D01*
X011105Y003927D02*
X011035Y003927D01*
X011035Y003934D02*
X011105Y003934D01*
X011105Y003941D02*
X011035Y003941D01*
X011035Y003948D02*
X011105Y003948D01*
X011105Y003955D02*
X011035Y003955D01*
X011035Y003962D02*
X011105Y003962D01*
X011105Y003969D02*
X011035Y003969D01*
X011035Y003976D02*
X011105Y003976D01*
X011105Y003983D02*
X011035Y003983D01*
X011035Y003990D02*
X011105Y003990D01*
X011105Y003997D02*
X011035Y003997D01*
X011035Y004004D02*
X011105Y004004D01*
X011105Y004011D02*
X011035Y004011D01*
X011035Y004018D02*
X011105Y004018D01*
X011105Y004025D02*
X011035Y004025D01*
X011035Y004032D02*
X011105Y004032D01*
X011105Y004039D02*
X011035Y004039D01*
X011035Y004046D02*
X011105Y004046D01*
X011105Y004053D02*
X011035Y004053D01*
X011035Y004060D02*
X011105Y004060D01*
X011105Y004067D02*
X011035Y004067D01*
X011035Y004074D02*
X011105Y004074D01*
X011105Y004081D02*
X011035Y004081D01*
X011035Y004088D02*
X011105Y004088D01*
X011105Y004095D02*
X011035Y004095D01*
X011035Y004102D02*
X011105Y004102D01*
X011105Y004109D02*
X011035Y004109D01*
X011035Y004116D02*
X011105Y004116D01*
X011105Y004123D02*
X011035Y004123D01*
X011035Y004130D02*
X011105Y004130D01*
X011231Y004329D02*
X011499Y004329D01*
X011499Y004259D01*
X011231Y004259D01*
X011231Y004329D01*
X011231Y004266D02*
X011499Y004266D01*
X011499Y004273D02*
X011231Y004273D01*
X011231Y004280D02*
X011499Y004280D01*
X011499Y004287D02*
X011231Y004287D01*
X011231Y004294D02*
X011499Y004294D01*
X011499Y004301D02*
X011231Y004301D01*
X011231Y004308D02*
X011499Y004308D01*
X011499Y004315D02*
X011231Y004315D01*
X011231Y004322D02*
X011499Y004322D01*
X011499Y004329D02*
X011231Y004329D01*
X011231Y004486D02*
X011499Y004486D01*
X011499Y004416D01*
X011231Y004416D01*
X011231Y004486D01*
X011231Y004423D02*
X011499Y004423D01*
X011499Y004430D02*
X011231Y004430D01*
X011231Y004437D02*
X011499Y004437D01*
X011499Y004444D02*
X011231Y004444D01*
X011231Y004451D02*
X011499Y004451D01*
X011499Y004458D02*
X011231Y004458D01*
X011231Y004465D02*
X011499Y004465D01*
X011499Y004472D02*
X011231Y004472D01*
X011231Y004479D02*
X011499Y004479D01*
X011499Y004486D02*
X011231Y004486D01*
X011231Y004644D02*
X011499Y004644D01*
X011499Y004574D01*
X011231Y004574D01*
X011231Y004644D01*
X011231Y004581D02*
X011499Y004581D01*
X011499Y004588D02*
X011231Y004588D01*
X011231Y004595D02*
X011499Y004595D01*
X011499Y004602D02*
X011231Y004602D01*
X011231Y004609D02*
X011499Y004609D01*
X011499Y004616D02*
X011231Y004616D01*
X011231Y004623D02*
X011499Y004623D01*
X011499Y004630D02*
X011231Y004630D01*
X011231Y004637D02*
X011499Y004637D01*
X011499Y004644D02*
X011231Y004644D01*
X011231Y004801D02*
X011499Y004801D01*
X011499Y004731D01*
X011231Y004731D01*
X011231Y004801D01*
X011231Y004738D02*
X011499Y004738D01*
X011499Y004745D02*
X011231Y004745D01*
X011231Y004752D02*
X011499Y004752D01*
X011499Y004759D02*
X011231Y004759D01*
X011231Y004766D02*
X011499Y004766D01*
X011499Y004773D02*
X011231Y004773D01*
X011231Y004780D02*
X011499Y004780D01*
X011499Y004787D02*
X011231Y004787D01*
X011231Y004794D02*
X011499Y004794D01*
X011499Y004801D02*
X011231Y004801D01*
X011231Y004958D02*
X011499Y004958D01*
X011499Y004888D01*
X011231Y004888D01*
X011231Y004958D01*
X011231Y004895D02*
X011499Y004895D01*
X011499Y004902D02*
X011231Y004902D01*
X011231Y004909D02*
X011499Y004909D01*
X011499Y004916D02*
X011231Y004916D01*
X011231Y004923D02*
X011499Y004923D01*
X011499Y004930D02*
X011231Y004930D01*
X011231Y004937D02*
X011499Y004937D01*
X011499Y004944D02*
X011231Y004944D01*
X011231Y004951D02*
X011499Y004951D01*
X011499Y004958D02*
X011231Y004958D01*
X011231Y005116D02*
X011499Y005116D01*
X011499Y005046D01*
X011231Y005046D01*
X011231Y005116D01*
X011231Y005053D02*
X011499Y005053D01*
X011499Y005060D02*
X011231Y005060D01*
X011231Y005067D02*
X011499Y005067D01*
X011499Y005074D02*
X011231Y005074D01*
X011231Y005081D02*
X011499Y005081D01*
X011499Y005088D02*
X011231Y005088D01*
X011231Y005095D02*
X011499Y005095D01*
X011499Y005102D02*
X011231Y005102D01*
X011231Y005109D02*
X011499Y005109D01*
X011499Y005116D02*
X011231Y005116D01*
X011231Y005273D02*
X011499Y005273D01*
X011499Y005203D01*
X011231Y005203D01*
X011231Y005273D01*
X011231Y005210D02*
X011499Y005210D01*
X011499Y005217D02*
X011231Y005217D01*
X011231Y005224D02*
X011499Y005224D01*
X011499Y005231D02*
X011231Y005231D01*
X011231Y005238D02*
X011499Y005238D01*
X011499Y005245D02*
X011231Y005245D01*
X011231Y005252D02*
X011499Y005252D01*
X011499Y005259D02*
X011231Y005259D01*
X011231Y005266D02*
X011499Y005266D01*
X011499Y005273D02*
X011231Y005273D01*
X011231Y005431D02*
X011499Y005431D01*
X011499Y005361D01*
X011231Y005361D01*
X011231Y005431D01*
X011231Y005368D02*
X011499Y005368D01*
X011499Y005375D02*
X011231Y005375D01*
X011231Y005382D02*
X011499Y005382D01*
X011499Y005389D02*
X011231Y005389D01*
X011231Y005396D02*
X011499Y005396D01*
X011499Y005403D02*
X011231Y005403D01*
X011231Y005410D02*
X011499Y005410D01*
X011499Y005417D02*
X011231Y005417D01*
X011231Y005424D02*
X011499Y005424D01*
X011499Y005431D02*
X011231Y005431D01*
X011231Y005588D02*
X011499Y005588D01*
X011499Y005518D01*
X011231Y005518D01*
X011231Y005588D01*
X011231Y005525D02*
X011499Y005525D01*
X011499Y005532D02*
X011231Y005532D01*
X011231Y005539D02*
X011499Y005539D01*
X011499Y005546D02*
X011231Y005546D01*
X011231Y005553D02*
X011499Y005553D01*
X011499Y005560D02*
X011231Y005560D01*
X011231Y005567D02*
X011499Y005567D01*
X011499Y005574D02*
X011231Y005574D01*
X011231Y005581D02*
X011499Y005581D01*
X011499Y005588D02*
X011231Y005588D01*
X011231Y005746D02*
X011499Y005746D01*
X011499Y005676D01*
X011231Y005676D01*
X011231Y005746D01*
X011231Y005683D02*
X011499Y005683D01*
X011499Y005690D02*
X011231Y005690D01*
X011231Y005697D02*
X011499Y005697D01*
X011499Y005704D02*
X011231Y005704D01*
X011231Y005711D02*
X011499Y005711D01*
X011499Y005718D02*
X011231Y005718D01*
X011231Y005725D02*
X011499Y005725D01*
X011499Y005732D02*
X011231Y005732D01*
X011231Y005739D02*
X011499Y005739D01*
X011499Y005746D02*
X011231Y005746D01*
X011231Y005903D02*
X011499Y005903D01*
X011499Y005833D01*
X011231Y005833D01*
X011231Y005903D01*
X011231Y005840D02*
X011499Y005840D01*
X011499Y005847D02*
X011231Y005847D01*
X011231Y005854D02*
X011499Y005854D01*
X011499Y005861D02*
X011231Y005861D01*
X011231Y005868D02*
X011499Y005868D01*
X011499Y005875D02*
X011231Y005875D01*
X011231Y005882D02*
X011499Y005882D01*
X011499Y005889D02*
X011231Y005889D01*
X011231Y005896D02*
X011499Y005896D01*
X011499Y005903D02*
X011231Y005903D01*
X011231Y006061D02*
X011499Y006061D01*
X011499Y005991D01*
X011231Y005991D01*
X011231Y006061D01*
X011231Y005998D02*
X011499Y005998D01*
X011499Y006005D02*
X011231Y006005D01*
X011231Y006012D02*
X011499Y006012D01*
X011499Y006019D02*
X011231Y006019D01*
X011231Y006026D02*
X011499Y006026D01*
X011499Y006033D02*
X011231Y006033D01*
X011231Y006040D02*
X011499Y006040D01*
X011499Y006047D02*
X011231Y006047D01*
X011231Y006054D02*
X011499Y006054D01*
X011499Y006061D02*
X011231Y006061D01*
X011231Y006218D02*
X011499Y006218D01*
X011499Y006148D01*
X011231Y006148D01*
X011231Y006218D01*
X011231Y006155D02*
X011499Y006155D01*
X011499Y006162D02*
X011231Y006162D01*
X011231Y006169D02*
X011499Y006169D01*
X011499Y006176D02*
X011231Y006176D01*
X011231Y006183D02*
X011499Y006183D01*
X011499Y006190D02*
X011231Y006190D01*
X011231Y006197D02*
X011499Y006197D01*
X011499Y006204D02*
X011231Y006204D01*
X011231Y006211D02*
X011499Y006211D01*
X011499Y006218D02*
X011231Y006218D01*
X011231Y006376D02*
X011499Y006376D01*
X011499Y006306D01*
X011231Y006306D01*
X011231Y006376D01*
X011231Y006313D02*
X011499Y006313D01*
X011499Y006320D02*
X011231Y006320D01*
X011231Y006327D02*
X011499Y006327D01*
X011499Y006334D02*
X011231Y006334D01*
X011231Y006341D02*
X011499Y006341D01*
X011499Y006348D02*
X011231Y006348D01*
X011231Y006355D02*
X011499Y006355D01*
X011499Y006362D02*
X011231Y006362D01*
X011231Y006369D02*
X011499Y006369D01*
X011499Y006376D02*
X011231Y006376D01*
X011231Y006533D02*
X011499Y006533D01*
X011499Y006463D01*
X011231Y006463D01*
X011231Y006533D01*
X011231Y006470D02*
X011499Y006470D01*
X011499Y006477D02*
X011231Y006477D01*
X011231Y006484D02*
X011499Y006484D01*
X011499Y006491D02*
X011231Y006491D01*
X011231Y006498D02*
X011499Y006498D01*
X011499Y006505D02*
X011231Y006505D01*
X011231Y006512D02*
X011499Y006512D01*
X011499Y006519D02*
X011231Y006519D01*
X011231Y006526D02*
X011499Y006526D01*
X011499Y006533D02*
X011231Y006533D01*
X011231Y006691D02*
X011499Y006691D01*
X011499Y006621D01*
X011231Y006621D01*
X011231Y006691D01*
X011231Y006628D02*
X011499Y006628D01*
X011499Y006635D02*
X011231Y006635D01*
X011231Y006642D02*
X011499Y006642D01*
X011499Y006649D02*
X011231Y006649D01*
X011231Y006656D02*
X011499Y006656D01*
X011499Y006663D02*
X011231Y006663D01*
X011231Y006670D02*
X011499Y006670D01*
X011499Y006677D02*
X011231Y006677D01*
X011231Y006684D02*
X011499Y006684D01*
X011499Y006691D02*
X011231Y006691D01*
X011231Y006848D02*
X011499Y006848D01*
X011499Y006778D01*
X011231Y006778D01*
X011231Y006848D01*
X011231Y006785D02*
X011499Y006785D01*
X011499Y006792D02*
X011231Y006792D01*
X011231Y006799D02*
X011499Y006799D01*
X011499Y006806D02*
X011231Y006806D01*
X011231Y006813D02*
X011499Y006813D01*
X011499Y006820D02*
X011231Y006820D01*
X011231Y006827D02*
X011499Y006827D01*
X011499Y006834D02*
X011231Y006834D01*
X011231Y006841D02*
X011499Y006841D01*
X011499Y006848D02*
X011231Y006848D01*
D30*
X010921Y004442D02*
X008699Y004442D01*
X008699Y006664D01*
X010921Y006664D01*
X010921Y004442D01*
X010921Y004463D02*
X008699Y004463D01*
X008699Y004484D02*
X010921Y004484D01*
X010921Y004505D02*
X008699Y004505D01*
X008699Y004526D02*
X010921Y004526D01*
X010921Y004547D02*
X008699Y004547D01*
X008699Y004568D02*
X010921Y004568D01*
X010921Y004589D02*
X008699Y004589D01*
X008699Y004610D02*
X010921Y004610D01*
X010921Y004631D02*
X008699Y004631D01*
X008699Y004652D02*
X010921Y004652D01*
X010921Y004673D02*
X008699Y004673D01*
X008699Y004694D02*
X010921Y004694D01*
X010921Y004715D02*
X008699Y004715D01*
X008699Y004736D02*
X010921Y004736D01*
X010921Y004757D02*
X008699Y004757D01*
X008699Y004778D02*
X010921Y004778D01*
X010921Y004799D02*
X008699Y004799D01*
X008699Y004820D02*
X010921Y004820D01*
X010921Y004841D02*
X008699Y004841D01*
X008699Y004862D02*
X010921Y004862D01*
X010921Y004883D02*
X008699Y004883D01*
X008699Y004904D02*
X010921Y004904D01*
X010921Y004925D02*
X008699Y004925D01*
X008699Y004946D02*
X010921Y004946D01*
X010921Y004967D02*
X008699Y004967D01*
X008699Y004988D02*
X010921Y004988D01*
X010921Y005009D02*
X008699Y005009D01*
X008699Y005030D02*
X010921Y005030D01*
X010921Y005051D02*
X008699Y005051D01*
X008699Y005072D02*
X010921Y005072D01*
X010921Y005093D02*
X008699Y005093D01*
X008699Y005114D02*
X010921Y005114D01*
X010921Y005135D02*
X008699Y005135D01*
X008699Y005156D02*
X010921Y005156D01*
X010921Y005177D02*
X008699Y005177D01*
X008699Y005198D02*
X010921Y005198D01*
X010921Y005219D02*
X008699Y005219D01*
X008699Y005240D02*
X010921Y005240D01*
X010921Y005261D02*
X008699Y005261D01*
X008699Y005282D02*
X010921Y005282D01*
X010921Y005303D02*
X008699Y005303D01*
X008699Y005324D02*
X010921Y005324D01*
X010921Y005345D02*
X008699Y005345D01*
X008699Y005366D02*
X010921Y005366D01*
X010921Y005387D02*
X008699Y005387D01*
X008699Y005408D02*
X010921Y005408D01*
X010921Y005429D02*
X008699Y005429D01*
X008699Y005450D02*
X010921Y005450D01*
X010921Y005471D02*
X008699Y005471D01*
X008699Y005492D02*
X010921Y005492D01*
X010921Y005513D02*
X008699Y005513D01*
X008699Y005534D02*
X010921Y005534D01*
X010921Y005555D02*
X008699Y005555D01*
X008699Y005576D02*
X010921Y005576D01*
X010921Y005597D02*
X008699Y005597D01*
X008699Y005618D02*
X010921Y005618D01*
X010921Y005639D02*
X008699Y005639D01*
X008699Y005660D02*
X010921Y005660D01*
X010921Y005681D02*
X008699Y005681D01*
X008699Y005702D02*
X010921Y005702D01*
X010921Y005723D02*
X008699Y005723D01*
X008699Y005744D02*
X010921Y005744D01*
X010921Y005765D02*
X008699Y005765D01*
X008699Y005786D02*
X010921Y005786D01*
X010921Y005807D02*
X008699Y005807D01*
X008699Y005828D02*
X010921Y005828D01*
X010921Y005849D02*
X008699Y005849D01*
X008699Y005870D02*
X010921Y005870D01*
X010921Y005891D02*
X008699Y005891D01*
X008699Y005912D02*
X010921Y005912D01*
X010921Y005933D02*
X008699Y005933D01*
X008699Y005954D02*
X010921Y005954D01*
X010921Y005975D02*
X008699Y005975D01*
X008699Y005996D02*
X010921Y005996D01*
X010921Y006017D02*
X008699Y006017D01*
X008699Y006038D02*
X010921Y006038D01*
X010921Y006059D02*
X008699Y006059D01*
X008699Y006080D02*
X010921Y006080D01*
X010921Y006101D02*
X008699Y006101D01*
X008699Y006122D02*
X010921Y006122D01*
X010921Y006143D02*
X008699Y006143D01*
X008699Y006164D02*
X010921Y006164D01*
X010921Y006185D02*
X008699Y006185D01*
X008699Y006206D02*
X010921Y006206D01*
X010921Y006227D02*
X008699Y006227D01*
X008699Y006248D02*
X010921Y006248D01*
X010921Y006269D02*
X008699Y006269D01*
X008699Y006290D02*
X010921Y006290D01*
X010921Y006311D02*
X008699Y006311D01*
X008699Y006332D02*
X010921Y006332D01*
X010921Y006353D02*
X008699Y006353D01*
X008699Y006374D02*
X010921Y006374D01*
X010921Y006395D02*
X008699Y006395D01*
X008699Y006416D02*
X010921Y006416D01*
X010921Y006437D02*
X008699Y006437D01*
X008699Y006458D02*
X010921Y006458D01*
X010921Y006479D02*
X008699Y006479D01*
X008699Y006500D02*
X010921Y006500D01*
X010921Y006521D02*
X008699Y006521D01*
X008699Y006542D02*
X010921Y006542D01*
X010921Y006563D02*
X008699Y006563D01*
X008699Y006584D02*
X010921Y006584D01*
X010921Y006605D02*
X008699Y006605D01*
X008699Y006626D02*
X010921Y006626D01*
X010921Y006647D02*
X008699Y006647D01*
D31*
X015391Y006105D02*
X016503Y007217D01*
X017615Y006105D01*
X016503Y004993D01*
X015391Y006105D01*
X016110Y005386D02*
X016896Y005386D01*
X017289Y005779D02*
X015717Y005779D01*
X015458Y006172D02*
X017548Y006172D01*
X017155Y006565D02*
X015851Y006565D01*
X016244Y006958D02*
X016762Y006958D01*
D32*
X017422Y007441D02*
X017581Y007601D01*
X019023Y007601D01*
X019456Y007207D01*
X019604Y007207D01*
X019604Y006957D02*
X019194Y006957D01*
X018747Y007364D01*
X017902Y007364D01*
X017700Y007162D01*
X017978Y006884D02*
X018183Y007089D01*
X018590Y007089D01*
X018971Y006707D01*
X019604Y006707D01*
X019604Y006457D02*
X018867Y006457D01*
X018550Y006774D01*
X018425Y006774D01*
X018257Y006606D01*
X018535Y006327D02*
X018656Y006207D01*
X019604Y006207D01*
X019604Y005957D02*
X019229Y005957D01*
X018826Y005553D01*
X018585Y005553D01*
X018396Y005743D01*
X018118Y005464D02*
X018304Y005278D01*
X018826Y005278D01*
X019255Y005707D01*
X019604Y005707D01*
X019604Y005457D02*
X019359Y005457D01*
X018944Y005042D01*
X017984Y005042D01*
X017839Y005186D01*
X017561Y004907D02*
X017742Y004727D01*
X018905Y004727D01*
X019385Y005207D01*
X019604Y005207D01*
X019604Y004957D02*
X019489Y004957D01*
X018983Y004490D01*
X017421Y004490D01*
X017282Y004629D01*
X017004Y004351D02*
X017140Y004215D01*
X019456Y004215D01*
X020086Y004845D01*
X020086Y005120D01*
X020094Y005207D01*
X020204Y005207D01*
X020418Y005457D02*
X020519Y005357D01*
X020519Y004884D01*
X019613Y003979D01*
X017094Y003979D01*
X017054Y003939D01*
X016859Y003939D01*
X016726Y004072D01*
X016819Y003979D01*
X020204Y005457D02*
X020418Y005457D01*
X020204Y005707D02*
X020204Y005711D01*
X020204Y005947D01*
X020204Y005957D01*
X020204Y006207D01*
X020204Y006457D01*
X015723Y007580D02*
X015270Y008034D01*
X013471Y008034D01*
X012251Y006813D01*
X011365Y006813D01*
X011365Y006656D02*
X012330Y006656D01*
X013550Y007876D01*
X014870Y007876D01*
X015445Y007302D01*
X015167Y007023D02*
X014471Y007719D01*
X013629Y007719D01*
X012408Y006498D01*
X011365Y006498D01*
X011365Y006341D02*
X012487Y006341D01*
X013668Y007483D01*
X014151Y007483D01*
X014888Y006745D01*
X012763Y006183D02*
X011365Y006183D01*
X011365Y006026D02*
X012605Y006026D01*
X012290Y005790D02*
X012212Y005868D01*
X011365Y005868D01*
X011365Y005711D02*
X012015Y005711D01*
X012290Y005435D01*
X012290Y005099D01*
X011897Y005099D02*
X011599Y005396D01*
X011365Y005396D01*
X011365Y005553D02*
X011779Y005553D01*
X011857Y005475D01*
X010794Y005553D02*
X010794Y005868D01*
X010676Y005868D01*
X010125Y006341D02*
X010125Y007109D01*
X010125Y007835D01*
X009968Y007325D02*
X009556Y007736D01*
X009556Y007837D01*
X008708Y007878D02*
X008708Y007109D01*
X008550Y007109D02*
X007586Y007109D01*
X006660Y008034D01*
X005401Y008034D01*
X004810Y007404D01*
X004399Y007404D01*
X004040Y007404D02*
X004031Y007394D01*
X003432Y007394D01*
X003353Y007049D02*
X003038Y007404D01*
X003038Y007394D01*
X003353Y007049D02*
X003883Y007049D01*
X004040Y006931D01*
X004399Y006931D02*
X004731Y006931D01*
X005597Y007876D01*
X006542Y007876D01*
X007605Y006813D01*
X008255Y006813D01*
X008255Y006656D02*
X007487Y006656D01*
X006424Y007719D01*
X005755Y007719D01*
X004653Y006459D01*
X004399Y006459D01*
X004040Y006459D02*
X003718Y006459D01*
X003432Y006705D01*
X003038Y006705D02*
X003038Y006301D01*
X005676Y005081D02*
X005676Y003506D01*
X005674Y003526D01*
X005669Y003546D01*
X005660Y003565D01*
X005648Y003582D01*
X005634Y003596D01*
X005617Y003608D01*
X005598Y003617D01*
X005578Y003622D01*
X005558Y003624D01*
X004692Y003624D01*
X004239Y003171D01*
X004239Y002699D01*
X004042Y002699D02*
X004042Y002463D01*
X004259Y002246D01*
X003845Y002246D02*
X003845Y002699D01*
X003511Y003016D02*
X003218Y003309D01*
X002859Y003309D02*
X002859Y004213D01*
X002940Y004294D01*
X003531Y004294D02*
X003983Y004294D01*
X004001Y003309D02*
X004003Y003231D01*
X004436Y003014D02*
X004771Y003349D01*
X004889Y003152D02*
X005086Y003152D01*
X004889Y003152D02*
X004633Y002896D01*
X004633Y002699D01*
X004830Y002699D02*
X005086Y002719D01*
X004436Y002699D02*
X004436Y003014D01*
X003511Y003016D02*
X003511Y002128D01*
X003708Y001931D01*
X004968Y001931D01*
X007290Y001892D02*
X007645Y001892D01*
X007645Y002601D01*
X008708Y003585D01*
X008708Y003998D01*
X008865Y003998D02*
X008865Y003191D01*
X009298Y002778D01*
X009318Y002699D01*
X009515Y002699D02*
X009515Y002935D01*
X009023Y003427D01*
X009023Y003998D01*
X009495Y003998D02*
X009495Y003799D01*
X009613Y003603D01*
X009316Y003603D01*
X009298Y003624D01*
X009653Y003998D02*
X009653Y004923D01*
X009810Y005553D01*
X008865Y005868D02*
X008786Y005868D01*
X008786Y005711D01*
X008786Y005553D01*
X008255Y005553D01*
X007999Y005553D01*
X007999Y005711D02*
X008255Y005711D01*
X008786Y005711D01*
X008786Y005868D02*
X008255Y005868D01*
X008235Y005868D02*
X007999Y005868D01*
X007999Y006183D02*
X008255Y006183D01*
X008826Y006183D01*
X008255Y006498D02*
X007566Y006498D01*
X007290Y006223D01*
X007290Y005886D01*
X007312Y005947D01*
X008255Y005396D02*
X005991Y005396D01*
X005676Y005081D01*
X007015Y005160D02*
X007094Y005238D01*
X008255Y005238D01*
X008255Y005081D02*
X007290Y005081D01*
X007015Y004805D01*
X007251Y004609D02*
X007015Y004451D01*
X007251Y004609D02*
X007605Y004609D01*
X007842Y004766D01*
X008255Y004766D01*
X008255Y004609D02*
X007920Y004609D01*
X007723Y004412D01*
X007842Y004175D02*
X007448Y004175D01*
X007842Y004175D02*
X008078Y004451D01*
X008255Y004451D01*
X008255Y004294D02*
X008255Y004016D01*
X007938Y003782D01*
X008233Y003784D01*
X008275Y003742D01*
X008550Y003664D02*
X008550Y003998D01*
X008550Y003664D02*
X007290Y002483D01*
X007290Y001892D01*
X009259Y002207D02*
X009259Y002246D01*
X009338Y002404D01*
X009613Y002404D01*
X009731Y002522D01*
X009731Y002640D01*
X009712Y002660D01*
X009712Y002699D01*
X009908Y002699D02*
X009908Y002620D01*
X009908Y002699D02*
X009908Y002384D01*
X009633Y002109D01*
X010302Y002699D02*
X010893Y002699D01*
X011188Y002994D01*
X011188Y003782D01*
X011070Y003900D01*
X011070Y003998D01*
X010912Y003998D02*
X010912Y003821D01*
X011031Y003703D01*
X011031Y003152D01*
X010912Y003034D01*
X010204Y003034D01*
X010046Y003252D02*
X009908Y003292D01*
X010046Y003603D02*
X009849Y003782D01*
X009810Y003821D01*
X009810Y003998D01*
X009810Y004215D01*
X009849Y004254D02*
X010991Y004254D01*
X011070Y004333D01*
X011070Y006774D01*
X011031Y006813D01*
X010322Y006813D01*
X010282Y006853D01*
X010282Y007109D01*
X010282Y007345D01*
X010381Y007443D01*
X010597Y007443D01*
X010694Y007559D01*
X010694Y007837D01*
X011070Y007502D02*
X011070Y007109D01*
X009968Y007109D02*
X009968Y007325D01*
X007408Y007797D02*
X006975Y008231D01*
X005322Y008231D01*
X005007Y007916D01*
X004534Y007916D01*
X007605Y004923D02*
X008255Y004923D01*
X007605Y004923D02*
X007527Y004845D01*
X007588Y003782D02*
X007566Y003760D01*
X007192Y003762D01*
X007938Y003782D02*
X007999Y003721D01*
X008021Y003721D01*
X010282Y003624D02*
X010479Y003427D01*
X010637Y003427D01*
X010755Y003270D01*
X010755Y003624D02*
X010716Y003664D01*
X010519Y003664D01*
X010440Y003742D01*
X010440Y003998D01*
X010282Y003998D02*
X010282Y003624D01*
X011365Y004294D02*
X011542Y004294D01*
X011739Y004077D01*
X011818Y003959D01*
X011818Y003681D01*
X011818Y003331D02*
X011818Y002994D01*
X017172Y001774D02*
X017172Y001656D01*
X012964Y008703D02*
X012812Y008933D01*
X012812Y009372D01*
X012812Y009530D02*
X013200Y009530D01*
X013275Y009605D01*
X012812Y009687D02*
X012605Y009687D01*
X012605Y009530D01*
X012399Y009530D02*
X012399Y009372D01*
X011979Y009372D01*
X012399Y009530D02*
X012399Y009687D01*
D33*
X009062Y008231D03*
X009062Y007876D03*
X010597Y007443D03*
X011070Y007502D03*
X011503Y007404D03*
X014062Y007049D03*
X014338Y006813D03*
X015617Y006912D03*
X016503Y007719D03*
X017271Y007030D03*
X017704Y007935D03*
X019712Y007502D03*
X020125Y007404D03*
X020440Y007286D03*
X018078Y006105D03*
X019554Y004668D03*
X018156Y003427D03*
X018708Y003034D03*
X019456Y002797D03*
X018786Y001656D03*
X019456Y001420D03*
X018432Y001144D03*
X017763Y001183D03*
X017172Y001656D03*
X016306Y002089D03*
X016109Y002483D03*
X015361Y002797D03*
X014849Y002837D03*
X013353Y002837D03*
X012842Y002837D03*
X011818Y002994D03*
X010755Y003270D03*
X010755Y003624D03*
X009298Y003624D03*
X008275Y003742D03*
X007448Y004175D03*
X007723Y004412D03*
X007015Y004451D03*
X007015Y004805D03*
X007527Y004845D03*
X007015Y005160D03*
X005125Y005868D03*
X003038Y006301D03*
X007192Y003762D03*
X005086Y003152D03*
X004771Y003349D03*
X005086Y002719D03*
X004653Y001695D03*
X006503Y001734D03*
X007290Y001892D03*
X007645Y001892D03*
X009259Y002207D03*
X009633Y002109D03*
X010440Y001734D03*
X010440Y001341D03*
X012330Y001459D03*
X012851Y001764D03*
X013353Y001734D03*
X014851Y001733D03*
X015361Y001734D03*
X017330Y003073D03*
X016542Y004530D03*
X015086Y004648D03*
X014653Y004727D03*
X014259Y005475D03*
X013629Y005750D03*
X012605Y005553D03*
X012290Y005435D03*
X011857Y005475D03*
X012290Y005790D03*
X012094Y004412D03*
D34*
X011739Y004077D03*
X007763Y005829D03*
X009180Y007483D03*
X008314Y007797D03*
X007408Y007797D03*
X005440Y008506D03*
X004534Y007916D03*
X009554Y008231D03*
X010007Y008231D03*
X010007Y008742D03*
X010873Y008231D03*
X012369Y008231D03*
X013531Y009195D03*
X013511Y010671D03*
X007566Y010790D03*
X003983Y004294D03*
X003845Y002246D03*
X004259Y002246D03*
X004968Y001931D03*
D35*
X004042Y002699D02*
X004042Y003191D01*
X004003Y003231D01*
X003845Y003036D02*
X003651Y003309D01*
X003845Y003036D02*
X003845Y002699D01*
X006818Y003764D02*
X006820Y003762D01*
X007192Y003762D01*
X005615Y005868D02*
X005125Y005868D01*
X005615Y005868D02*
X005615Y005947D01*
X008708Y007878D02*
X008824Y007876D01*
X009062Y007876D01*
X009062Y008231D02*
X008708Y008229D01*
X010007Y008231D02*
X010125Y008112D01*
X010125Y007835D01*
X011131Y007837D02*
X011149Y007819D01*
X011481Y007837D02*
X011503Y007815D01*
X011503Y007404D01*
X013753Y006217D02*
X014282Y006138D01*
X014471Y006327D01*
X014749Y006606D02*
X014581Y006774D01*
X014338Y006813D01*
X014749Y006606D02*
X014928Y006427D01*
X014928Y005790D01*
X014749Y005611D01*
X014749Y005603D01*
X014610Y005743D02*
X014471Y005882D01*
X014610Y005743D02*
X014342Y005475D01*
X014259Y005475D01*
X014888Y005464D02*
X015440Y006016D01*
X015440Y006026D01*
X015834Y006695D01*
X015755Y006026D01*
X015755Y005774D01*
X015167Y005186D01*
X015306Y005047D01*
X015445Y004907D01*
X015584Y004768D01*
X015723Y004629D01*
X015863Y004490D01*
X016002Y004351D01*
X016141Y004212D01*
X016280Y004072D01*
X016547Y004530D02*
X016865Y004212D01*
X017143Y004490D02*
X016582Y005051D01*
X016582Y005120D01*
X016818Y005357D01*
X016818Y005372D01*
X016818Y005396D01*
X017054Y005632D01*
X017054Y005693D01*
X017054Y005829D01*
X017160Y005934D01*
X017369Y005934D01*
X017369Y006262D01*
X017393Y006286D01*
X017393Y006577D01*
X016897Y006577D01*
X016897Y006637D01*
X016985Y006725D01*
X016985Y006804D01*
X016779Y007010D01*
X016779Y007076D01*
X016762Y007076D01*
X016631Y007207D01*
X016621Y007207D01*
X016487Y007341D01*
X016227Y007082D01*
X016227Y006892D01*
X016503Y006616D01*
X016503Y006105D01*
X017054Y005693D02*
X017700Y005047D01*
X017978Y005325D02*
X017369Y005934D01*
X017684Y006065D02*
X017723Y006105D01*
X018078Y006105D01*
X018312Y006105D01*
X018535Y005882D01*
X018257Y005603D02*
X017795Y006065D01*
X017684Y006065D01*
X017635Y006262D02*
X017369Y006262D01*
X017635Y006262D02*
X018118Y006745D01*
X018396Y006466D02*
X018078Y006148D01*
X018078Y006105D01*
X017393Y006577D02*
X017839Y007023D01*
X017561Y007302D02*
X016985Y006725D01*
X016779Y007076D02*
X017282Y007580D01*
X017143Y007719D02*
X016631Y007207D01*
X016487Y007341D02*
X017004Y007858D01*
X016865Y007998D02*
X016726Y008137D01*
X016503Y007914D01*
X016503Y007719D01*
X016459Y007679D01*
X016141Y007998D01*
X016280Y008137D01*
X016002Y007858D02*
X016227Y007633D01*
X016227Y007082D01*
X015834Y006695D02*
X015617Y006912D01*
X016503Y007719D02*
X016542Y007679D01*
X016726Y008137D02*
X017022Y008433D01*
X017206Y008433D01*
X017454Y008185D02*
X017704Y007935D01*
X017454Y008185D02*
X017454Y008185D01*
X017561Y007302D02*
X017289Y007030D01*
X017271Y007030D01*
X020125Y007404D02*
X020204Y007246D01*
X020204Y006957D01*
X020412Y006707D02*
X020519Y006813D01*
X020519Y007246D01*
X020440Y007286D01*
X020412Y006707D02*
X020204Y006707D01*
X017422Y004768D02*
X016818Y005372D01*
X016542Y005120D02*
X016503Y005160D01*
X016542Y005120D02*
X016542Y004530D01*
X016547Y004530D01*
X015584Y004768D02*
X015584Y004768D01*
X015306Y005047D02*
X015306Y005047D01*
X014653Y004727D02*
X015637Y003742D01*
X018905Y003742D01*
X019456Y003191D01*
X019456Y002797D01*
X018758Y001669D02*
X018156Y002468D01*
X018156Y003427D01*
X016109Y002483D02*
X014889Y003703D01*
X012605Y006026D01*
X012763Y006183D02*
X017172Y001774D01*
X018758Y001669D02*
X018773Y001669D01*
X018786Y001656D01*
X019456Y001420D02*
X019456Y001380D01*
X013590Y008703D02*
X012964Y008703D01*
X012920Y008703D01*
X012605Y008983D02*
X012326Y008703D01*
X012369Y008668D01*
X011818Y009211D02*
X011979Y009372D01*
X011818Y009849D02*
X011857Y009888D01*
X013786Y009605D02*
X014342Y009605D01*
X014377Y009727D01*
D36*
X011897Y007168D03*
X005755Y009687D03*
D37*
X009554Y008231D02*
X009556Y008229D01*
X009556Y007837D01*
X009906Y007837D02*
X010125Y007835D01*
X010344Y007837D01*
X013275Y009605D02*
X013531Y009605D01*
X013531Y009195D01*
X013531Y009605D02*
X013786Y009605D01*
X013786Y010242D02*
X013786Y010396D01*
X013511Y010671D01*
X013275Y010435D01*
X013275Y010242D01*
X005991Y007089D02*
X005991Y006244D01*
X006367Y005947D01*
X006954Y005947D01*
X007763Y005829D02*
X007999Y005829D01*
X012094Y004748D02*
X012094Y004412D01*
D38*
X012094Y004748D02*
X011897Y004748D01*
X012094Y004748D02*
X012290Y004748D01*
X011897Y007168D02*
X012960Y008309D01*
X012960Y008699D01*
X012964Y008703D01*
X012369Y008668D02*
X012369Y008231D01*
X006542Y009254D02*
X006109Y009687D01*
X005755Y009687D01*
D39*
X011070Y007740D02*
X011070Y007502D01*
X011070Y007740D02*
X011072Y007755D01*
X011076Y007770D01*
X011083Y007784D01*
X011093Y007796D01*
X011105Y007806D01*
X011119Y007813D01*
X011134Y007817D01*
X011149Y007819D01*
X013505Y006465D02*
X013820Y006780D01*
X013820Y006807D01*
X014062Y007049D01*
X014338Y006813D02*
X014068Y006543D01*
X014068Y006532D01*
X009908Y003292D02*
X009908Y002699D01*
X010046Y003252D02*
X009613Y003252D01*
X006818Y003406D02*
X006406Y003406D01*
X006306Y003506D01*
X006306Y005081D01*
D40*
X010912Y009687D03*
D41*
X009849Y004254D02*
X009810Y004215D01*
X010204Y003034D02*
X010105Y002935D01*
X010105Y002699D01*
D42*
X011857Y010435D03*
D43*
X011857Y009888D01*
X011818Y009211D02*
X006586Y009211D01*
X006575Y009212D01*
X006565Y009217D01*
X006556Y009224D01*
X006549Y009233D01*
X006544Y009243D01*
X006543Y009254D01*
X006542Y009254D02*
X006542Y009057D01*
D44*
X019712Y007502D02*
X019908Y007305D01*
X019908Y006459D01*
X020202Y006459D01*
X020204Y006457D01*
X020192Y006695D02*
X020204Y006707D01*
X019908Y006459D02*
X019908Y006183D01*
X020180Y006183D01*
X020204Y006207D01*
X019908Y006183D02*
X019908Y004845D01*
X019751Y004687D01*
X019574Y004687D01*
X019928Y005711D02*
X020204Y005711D01*
X020204Y005947D02*
X019928Y005947D01*
D45*
X004810Y009057D03*
X004810Y009727D03*
D46*
X007999Y006183D02*
X007999Y005868D01*
X007999Y005829D01*
X007999Y005711D01*
X007999Y005553D01*
X012605Y008983D02*
X012605Y009530D01*
D47*
X005637Y009057D02*
X004810Y009057D01*
M02*
