G75*
G70*
%OFA0B0*%
%FSLAX24Y24*%
%IPPOS*%
%LPD*%
%AMOC8*
5,1,8,0,0,1.08239X$1,22.5*
%
%ADD10R,0.0150X0.0380*%
%ADD11R,0.0380X0.0150*%
%ADD12R,0.0850X0.0850*%
%ADD13C,0.0006*%
%ADD14C,0.0128*%
%ADD15R,0.0250X0.0500*%
%ADD16C,0.0161*%
%ADD17C,0.0102*%
%ADD18C,0.0087*%
%ADD19R,0.0260X0.0531*%
%ADD20C,0.0325*%
%ADD21C,0.0266*%
%ADD22C,0.0063*%
%ADD23C,0.0118*%
%ADD24R,0.0500X0.0250*%
%ADD25C,0.0095*%
%ADD26C,0.0059*%
%ADD27C,0.0016*%
%ADD28C,0.0055*%
%ADD29C,0.0075*%
%ADD30C,0.0551*%
%ADD31C,0.0258*%
%ADD32C,0.0297*%
%ADD33C,0.0400*%
%ADD34C,0.0079*%
%ADD35C,0.0100*%
%ADD36C,0.0160*%
%ADD37C,0.0120*%
%ADD38C,0.0337*%
%ADD39C,0.0070*%
%ADD40C,0.0376*%
%ADD41C,0.0416*%
%ADD42C,0.0157*%
D10*
X017658Y001605D03*
X017908Y001605D03*
X018168Y001605D03*
X018418Y001605D03*
X018418Y003045D03*
X018168Y003045D03*
X017908Y003045D03*
X017658Y003045D03*
D11*
X017318Y002705D03*
X017318Y002455D03*
X017318Y002195D03*
X017318Y001945D03*
X018758Y001945D03*
X018758Y002195D03*
X018758Y002455D03*
X018758Y002705D03*
D12*
X018038Y002325D03*
D13*
X011984Y009169D02*
X011984Y009281D01*
X011984Y009169D02*
X011400Y009169D01*
X011400Y009281D01*
X011984Y009281D01*
X011984Y009174D02*
X011400Y009174D01*
X011400Y009179D02*
X011984Y009179D01*
X011984Y009184D02*
X011400Y009184D01*
X011400Y009189D02*
X011984Y009189D01*
X011984Y009194D02*
X011400Y009194D01*
X011400Y009199D02*
X011984Y009199D01*
X011984Y009204D02*
X011400Y009204D01*
X011400Y009209D02*
X011984Y009209D01*
X011984Y009214D02*
X011400Y009214D01*
X011400Y009219D02*
X011984Y009219D01*
X011984Y009224D02*
X011400Y009224D01*
X011400Y009229D02*
X011984Y009229D01*
X011984Y009234D02*
X011400Y009234D01*
X011400Y009239D02*
X011984Y009239D01*
X011984Y009244D02*
X011400Y009244D01*
X011400Y009249D02*
X011984Y009249D01*
X011984Y009254D02*
X011400Y009254D01*
X011400Y009259D02*
X011984Y009259D01*
X011984Y009264D02*
X011400Y009264D01*
X011400Y009269D02*
X011984Y009269D01*
X011984Y009274D02*
X011400Y009274D01*
X011400Y009279D02*
X011984Y009279D01*
X011984Y009425D02*
X011984Y009537D01*
X011984Y009425D02*
X011400Y009425D01*
X011400Y009537D01*
X011984Y009537D01*
X011984Y009430D02*
X011400Y009430D01*
X011400Y009435D02*
X011984Y009435D01*
X011984Y009440D02*
X011400Y009440D01*
X011400Y009445D02*
X011984Y009445D01*
X011984Y009450D02*
X011400Y009450D01*
X011400Y009455D02*
X011984Y009455D01*
X011984Y009460D02*
X011400Y009460D01*
X011400Y009465D02*
X011984Y009465D01*
X011984Y009470D02*
X011400Y009470D01*
X011400Y009475D02*
X011984Y009475D01*
X011984Y009480D02*
X011400Y009480D01*
X011400Y009485D02*
X011984Y009485D01*
X011984Y009490D02*
X011400Y009490D01*
X011400Y009495D02*
X011984Y009495D01*
X011984Y009500D02*
X011400Y009500D01*
X011400Y009505D02*
X011984Y009505D01*
X011984Y009510D02*
X011400Y009510D01*
X011400Y009515D02*
X011984Y009515D01*
X011984Y009520D02*
X011400Y009520D01*
X011400Y009525D02*
X011984Y009525D01*
X011984Y009530D02*
X011400Y009530D01*
X011400Y009535D02*
X011984Y009535D01*
X011984Y009680D02*
X011984Y009792D01*
X011984Y009680D02*
X011400Y009680D01*
X011400Y009792D01*
X011984Y009792D01*
X011984Y009685D02*
X011400Y009685D01*
X011400Y009690D02*
X011984Y009690D01*
X011984Y009695D02*
X011400Y009695D01*
X011400Y009700D02*
X011984Y009700D01*
X011984Y009705D02*
X011400Y009705D01*
X011400Y009710D02*
X011984Y009710D01*
X011984Y009715D02*
X011400Y009715D01*
X011400Y009720D02*
X011984Y009720D01*
X011984Y009725D02*
X011400Y009725D01*
X011400Y009730D02*
X011984Y009730D01*
X011984Y009735D02*
X011400Y009735D01*
X011400Y009740D02*
X011984Y009740D01*
X011984Y009745D02*
X011400Y009745D01*
X011400Y009750D02*
X011984Y009750D01*
X011984Y009755D02*
X011400Y009755D01*
X011400Y009760D02*
X011984Y009760D01*
X011984Y009765D02*
X011400Y009765D01*
X011400Y009770D02*
X011984Y009770D01*
X011984Y009775D02*
X011400Y009775D01*
X011400Y009780D02*
X011984Y009780D01*
X011984Y009785D02*
X011400Y009785D01*
X011400Y009790D02*
X011984Y009790D01*
X011984Y009936D02*
X011984Y010048D01*
X011984Y009936D02*
X011400Y009936D01*
X011400Y010048D01*
X011984Y010048D01*
X011984Y009941D02*
X011400Y009941D01*
X011400Y009946D02*
X011984Y009946D01*
X011984Y009951D02*
X011400Y009951D01*
X011400Y009956D02*
X011984Y009956D01*
X011984Y009961D02*
X011400Y009961D01*
X011400Y009966D02*
X011984Y009966D01*
X011984Y009971D02*
X011400Y009971D01*
X011400Y009976D02*
X011984Y009976D01*
X011984Y009981D02*
X011400Y009981D01*
X011400Y009986D02*
X011984Y009986D01*
X011984Y009991D02*
X011400Y009991D01*
X011400Y009996D02*
X011984Y009996D01*
X011984Y010001D02*
X011400Y010001D01*
X011400Y010006D02*
X011984Y010006D01*
X011984Y010011D02*
X011400Y010011D01*
X011400Y010016D02*
X011984Y010016D01*
X011984Y010021D02*
X011400Y010021D01*
X011400Y010026D02*
X011984Y010026D01*
X011984Y010031D02*
X011400Y010031D01*
X011400Y010036D02*
X011984Y010036D01*
X011984Y010041D02*
X011400Y010041D01*
X011400Y010046D02*
X011984Y010046D01*
X010425Y010048D02*
X010425Y009936D01*
X009841Y009936D01*
X009841Y010048D01*
X010425Y010048D01*
X010425Y009941D02*
X009841Y009941D01*
X009841Y009946D02*
X010425Y009946D01*
X010425Y009951D02*
X009841Y009951D01*
X009841Y009956D02*
X010425Y009956D01*
X010425Y009961D02*
X009841Y009961D01*
X009841Y009966D02*
X010425Y009966D01*
X010425Y009971D02*
X009841Y009971D01*
X009841Y009976D02*
X010425Y009976D01*
X010425Y009981D02*
X009841Y009981D01*
X009841Y009986D02*
X010425Y009986D01*
X010425Y009991D02*
X009841Y009991D01*
X009841Y009996D02*
X010425Y009996D01*
X010425Y010001D02*
X009841Y010001D01*
X009841Y010006D02*
X010425Y010006D01*
X010425Y010011D02*
X009841Y010011D01*
X009841Y010016D02*
X010425Y010016D01*
X010425Y010021D02*
X009841Y010021D01*
X009841Y010026D02*
X010425Y010026D01*
X010425Y010031D02*
X009841Y010031D01*
X009841Y010036D02*
X010425Y010036D01*
X010425Y010041D02*
X009841Y010041D01*
X009841Y010046D02*
X010425Y010046D01*
X010425Y009792D02*
X010425Y009680D01*
X009841Y009680D01*
X009841Y009792D01*
X010425Y009792D01*
X010425Y009685D02*
X009841Y009685D01*
X009841Y009690D02*
X010425Y009690D01*
X010425Y009695D02*
X009841Y009695D01*
X009841Y009700D02*
X010425Y009700D01*
X010425Y009705D02*
X009841Y009705D01*
X009841Y009710D02*
X010425Y009710D01*
X010425Y009715D02*
X009841Y009715D01*
X009841Y009720D02*
X010425Y009720D01*
X010425Y009725D02*
X009841Y009725D01*
X009841Y009730D02*
X010425Y009730D01*
X010425Y009735D02*
X009841Y009735D01*
X009841Y009740D02*
X010425Y009740D01*
X010425Y009745D02*
X009841Y009745D01*
X009841Y009750D02*
X010425Y009750D01*
X010425Y009755D02*
X009841Y009755D01*
X009841Y009760D02*
X010425Y009760D01*
X010425Y009765D02*
X009841Y009765D01*
X009841Y009770D02*
X010425Y009770D01*
X010425Y009775D02*
X009841Y009775D01*
X009841Y009780D02*
X010425Y009780D01*
X010425Y009785D02*
X009841Y009785D01*
X009841Y009790D02*
X010425Y009790D01*
X010425Y009537D02*
X010425Y009425D01*
X009841Y009425D01*
X009841Y009537D01*
X010425Y009537D01*
X010425Y009430D02*
X009841Y009430D01*
X009841Y009435D02*
X010425Y009435D01*
X010425Y009440D02*
X009841Y009440D01*
X009841Y009445D02*
X010425Y009445D01*
X010425Y009450D02*
X009841Y009450D01*
X009841Y009455D02*
X010425Y009455D01*
X010425Y009460D02*
X009841Y009460D01*
X009841Y009465D02*
X010425Y009465D01*
X010425Y009470D02*
X009841Y009470D01*
X009841Y009475D02*
X010425Y009475D01*
X010425Y009480D02*
X009841Y009480D01*
X009841Y009485D02*
X010425Y009485D01*
X010425Y009490D02*
X009841Y009490D01*
X009841Y009495D02*
X010425Y009495D01*
X010425Y009500D02*
X009841Y009500D01*
X009841Y009505D02*
X010425Y009505D01*
X010425Y009510D02*
X009841Y009510D01*
X009841Y009515D02*
X010425Y009515D01*
X010425Y009520D02*
X009841Y009520D01*
X009841Y009525D02*
X010425Y009525D01*
X010425Y009530D02*
X009841Y009530D01*
X009841Y009535D02*
X010425Y009535D01*
X010425Y009281D02*
X010425Y009169D01*
X009841Y009169D01*
X009841Y009281D01*
X010425Y009281D01*
X010425Y009174D02*
X009841Y009174D01*
X009841Y009179D02*
X010425Y009179D01*
X010425Y009184D02*
X009841Y009184D01*
X009841Y009189D02*
X010425Y009189D01*
X010425Y009194D02*
X009841Y009194D01*
X009841Y009199D02*
X010425Y009199D01*
X010425Y009204D02*
X009841Y009204D01*
X009841Y009209D02*
X010425Y009209D01*
X010425Y009214D02*
X009841Y009214D01*
X009841Y009219D02*
X010425Y009219D01*
X010425Y009224D02*
X009841Y009224D01*
X009841Y009229D02*
X010425Y009229D01*
X010425Y009234D02*
X009841Y009234D01*
X009841Y009239D02*
X010425Y009239D01*
X010425Y009244D02*
X009841Y009244D01*
X009841Y009249D02*
X010425Y009249D01*
X010425Y009254D02*
X009841Y009254D01*
X009841Y009259D02*
X010425Y009259D01*
X010425Y009264D02*
X009841Y009264D01*
X009841Y009269D02*
X010425Y009269D01*
X010425Y009274D02*
X009841Y009274D01*
X009841Y009279D02*
X010425Y009279D01*
D14*
X007665Y010238D02*
X007475Y010238D01*
X007475Y010476D01*
X007665Y010476D01*
X007665Y010238D01*
X007665Y010365D02*
X007475Y010365D01*
X007027Y010476D02*
X006837Y010476D01*
X007027Y010476D02*
X007027Y010238D01*
X006837Y010238D01*
X006837Y010476D01*
X006837Y010365D02*
X007027Y010365D01*
X006602Y008505D02*
X006412Y008505D01*
X006412Y008743D01*
X006602Y008743D01*
X006602Y008505D01*
X006602Y008632D02*
X006412Y008632D01*
X005964Y008743D02*
X005774Y008743D01*
X005964Y008743D02*
X005964Y008505D01*
X005774Y008505D01*
X005774Y008743D01*
X005774Y008632D02*
X005964Y008632D01*
X005964Y008192D02*
X005774Y008192D01*
X005964Y008192D02*
X005964Y007954D01*
X005774Y007954D01*
X005774Y008192D01*
X005774Y008081D02*
X005964Y008081D01*
X006412Y007954D02*
X006602Y007954D01*
X006412Y007954D02*
X006412Y008192D01*
X006602Y008192D01*
X006602Y007954D01*
X006602Y008081D02*
X006412Y008081D01*
X007034Y007247D02*
X007224Y007247D01*
X007224Y007009D01*
X007034Y007009D01*
X007034Y007247D01*
X007034Y007136D02*
X007224Y007136D01*
X007672Y007009D02*
X007862Y007009D01*
X007672Y007009D02*
X007672Y007247D01*
X007862Y007247D01*
X007862Y007009D01*
X007862Y007136D02*
X007672Y007136D01*
X016858Y002857D02*
X016858Y002667D01*
X016620Y002667D01*
X016620Y002857D01*
X016858Y002857D01*
X016858Y002794D02*
X016620Y002794D01*
X016620Y002219D02*
X016620Y002029D01*
X016620Y002219D02*
X016858Y002219D01*
X016858Y002029D01*
X016620Y002029D01*
X016620Y002156D02*
X016858Y002156D01*
X019575Y002352D02*
X019575Y002542D01*
X019575Y002352D02*
X019337Y002352D01*
X019337Y002542D01*
X019575Y002542D01*
X019575Y002479D02*
X019337Y002479D01*
X019337Y001904D02*
X019337Y001714D01*
X019337Y001904D02*
X019575Y001904D01*
X019575Y001714D01*
X019337Y001714D01*
X019337Y001841D02*
X019575Y001841D01*
D15*
X011995Y001459D03*
X011641Y001459D03*
X006090Y010357D03*
X005735Y010357D03*
D16*
X008805Y010168D02*
X008805Y009916D01*
X008453Y009916D01*
X008453Y010168D01*
X008805Y010168D01*
X008805Y010076D02*
X008453Y010076D01*
X009553Y010168D02*
X009553Y009916D01*
X009201Y009916D01*
X009201Y010168D01*
X009553Y010168D01*
X009553Y010076D02*
X009201Y010076D01*
X010353Y010808D02*
X010605Y010808D01*
X010605Y010456D01*
X010353Y010456D01*
X010353Y010808D01*
X010353Y010616D02*
X010605Y010616D01*
X010605Y010776D02*
X010353Y010776D01*
X011219Y010456D02*
X011471Y010456D01*
X011219Y010456D02*
X011219Y010808D01*
X011471Y010808D01*
X011471Y010456D01*
X011471Y010616D02*
X011219Y010616D01*
X011219Y010776D02*
X011471Y010776D01*
X012584Y010128D02*
X012584Y009876D01*
X012232Y009876D01*
X012232Y010128D01*
X012584Y010128D01*
X012584Y010036D02*
X012232Y010036D01*
X012232Y009262D02*
X012232Y009010D01*
X012232Y009262D02*
X012584Y009262D01*
X012584Y009010D01*
X012232Y009010D01*
X012232Y009170D02*
X012584Y009170D01*
X011471Y008409D02*
X011219Y008409D01*
X011219Y008761D01*
X011471Y008761D01*
X011471Y008409D01*
X011471Y008569D02*
X011219Y008569D01*
X011219Y008729D02*
X011471Y008729D01*
X010605Y008761D02*
X010353Y008761D01*
X010605Y008761D02*
X010605Y008409D01*
X010353Y008409D01*
X010353Y008761D01*
X010353Y008569D02*
X010605Y008569D01*
X010605Y008729D02*
X010353Y008729D01*
X009201Y009049D02*
X009201Y009301D01*
X009553Y009301D01*
X009553Y009049D01*
X009201Y009049D01*
X009201Y009209D02*
X009553Y009209D01*
X008453Y009301D02*
X008453Y009049D01*
X008453Y009301D02*
X008805Y009301D01*
X008805Y009049D01*
X008453Y009049D01*
X008453Y009209D02*
X008805Y009209D01*
X010353Y008092D02*
X010605Y008092D01*
X010605Y007740D01*
X010353Y007740D01*
X010353Y008092D01*
X010353Y007900D02*
X010605Y007900D01*
X010605Y008060D02*
X010353Y008060D01*
X011219Y007740D02*
X011471Y007740D01*
X011219Y007740D02*
X011219Y008092D01*
X011471Y008092D01*
X011471Y007740D01*
X011471Y007900D02*
X011219Y007900D01*
X011219Y008060D02*
X011471Y008060D01*
X007968Y007621D02*
X007716Y007621D01*
X007716Y007973D01*
X007968Y007973D01*
X007968Y007621D01*
X007968Y007781D02*
X007716Y007781D01*
X007716Y007941D02*
X007968Y007941D01*
X007101Y007973D02*
X006849Y007973D01*
X007101Y007973D02*
X007101Y007621D01*
X006849Y007621D01*
X006849Y007973D01*
X006849Y007781D02*
X007101Y007781D01*
X007101Y007941D02*
X006849Y007941D01*
X019553Y004223D02*
X019553Y003971D01*
X019201Y003971D01*
X019201Y004223D01*
X019553Y004223D01*
X019553Y004131D02*
X019201Y004131D01*
X020380Y004026D02*
X020380Y003774D01*
X020028Y003774D01*
X020028Y004026D01*
X020380Y004026D01*
X020380Y003934D02*
X020028Y003934D01*
X019201Y003357D02*
X019201Y003105D01*
X019201Y003357D02*
X019553Y003357D01*
X019553Y003105D01*
X019201Y003105D01*
X019201Y003265D02*
X019553Y003265D01*
X020028Y003160D02*
X020028Y002908D01*
X020028Y003160D02*
X020380Y003160D01*
X020380Y002908D01*
X020028Y002908D01*
X020028Y003068D02*
X020380Y003068D01*
D17*
X007659Y008669D02*
X007509Y008669D01*
X007509Y008815D01*
X007659Y008815D01*
X007659Y008669D01*
X007659Y008770D02*
X007509Y008770D01*
X007308Y008815D02*
X007158Y008815D01*
X007308Y008815D02*
X007308Y008669D01*
X007158Y008669D01*
X007158Y008815D01*
X007158Y008770D02*
X007308Y008770D01*
X006548Y009437D02*
X006548Y009587D01*
X006694Y009587D01*
X006694Y009437D01*
X006548Y009437D01*
X006548Y009538D02*
X006694Y009538D01*
X006694Y009787D02*
X006694Y009937D01*
X006694Y009787D02*
X006548Y009787D01*
X006548Y009937D01*
X006694Y009937D01*
X006694Y009888D02*
X006548Y009888D01*
D18*
X007094Y009648D03*
X007251Y009648D03*
X007408Y009648D03*
X007408Y009490D03*
X007094Y009490D03*
X007094Y009333D03*
X007251Y009333D03*
X007408Y009333D03*
D19*
X012601Y006311D03*
X013101Y006311D03*
X013601Y006311D03*
X014101Y006311D03*
X014601Y006311D03*
X015101Y006311D03*
X015601Y006311D03*
X015601Y004166D03*
X015101Y004166D03*
X014601Y004166D03*
X014101Y004166D03*
X013601Y004166D03*
X013101Y004166D03*
X012601Y004166D03*
X012837Y003358D03*
X013337Y003358D03*
X013837Y003358D03*
X014337Y003358D03*
X014837Y003358D03*
X015337Y003358D03*
X015837Y003358D03*
X015837Y001213D03*
X015337Y001213D03*
X014837Y001213D03*
X014337Y001213D03*
X013837Y001213D03*
X013337Y001213D03*
X012837Y001213D03*
D20*
X006316Y007089D02*
X005991Y007089D01*
D21*
X005991Y007443D02*
X006257Y007443D01*
D22*
X006219Y006723D02*
X006471Y006723D01*
X006471Y006273D01*
X006219Y006273D01*
X006219Y006723D01*
X006219Y006335D02*
X006471Y006335D01*
X006471Y006397D02*
X006219Y006397D01*
X006219Y006459D02*
X006471Y006459D01*
X006471Y006521D02*
X006219Y006521D01*
X006219Y006583D02*
X006471Y006583D01*
X006471Y006645D02*
X006219Y006645D01*
X006219Y006707D02*
X006471Y006707D01*
X006692Y006723D02*
X006944Y006723D01*
X006944Y006273D01*
X006692Y006273D01*
X006692Y006723D01*
X006692Y006335D02*
X006944Y006335D01*
X006944Y006397D02*
X006692Y006397D01*
X006692Y006459D02*
X006944Y006459D01*
X006944Y006521D02*
X006692Y006521D01*
X006692Y006583D02*
X006944Y006583D01*
X006944Y006645D02*
X006692Y006645D01*
X006692Y006707D02*
X006944Y006707D01*
X007164Y006723D02*
X007416Y006723D01*
X007416Y006273D01*
X007164Y006273D01*
X007164Y006723D01*
X007164Y006335D02*
X007416Y006335D01*
X007416Y006397D02*
X007164Y006397D01*
X007164Y006459D02*
X007416Y006459D01*
X007416Y006521D02*
X007164Y006521D01*
X007164Y006583D02*
X007416Y006583D01*
X007416Y006645D02*
X007164Y006645D01*
X007164Y006707D02*
X007416Y006707D01*
X007637Y006723D02*
X007889Y006723D01*
X007889Y006273D01*
X007637Y006273D01*
X007637Y006723D01*
X007637Y006335D02*
X007889Y006335D01*
X007889Y006397D02*
X007637Y006397D01*
X007637Y006459D02*
X007889Y006459D01*
X007889Y006521D02*
X007637Y006521D01*
X007637Y006583D02*
X007889Y006583D01*
X007889Y006645D02*
X007637Y006645D01*
X007637Y006707D02*
X007889Y006707D01*
X008109Y006723D02*
X008361Y006723D01*
X008361Y006273D01*
X008109Y006273D01*
X008109Y006723D01*
X008109Y006335D02*
X008361Y006335D01*
X008361Y006397D02*
X008109Y006397D01*
X008109Y006459D02*
X008361Y006459D01*
X008361Y006521D02*
X008109Y006521D01*
X008109Y006583D02*
X008361Y006583D01*
X008361Y006645D02*
X008109Y006645D01*
X008109Y006707D02*
X008361Y006707D01*
X008582Y006723D02*
X008834Y006723D01*
X008834Y006273D01*
X008582Y006273D01*
X008582Y006723D01*
X008582Y006335D02*
X008834Y006335D01*
X008834Y006397D02*
X008582Y006397D01*
X008582Y006459D02*
X008834Y006459D01*
X008834Y006521D02*
X008582Y006521D01*
X008582Y006583D02*
X008834Y006583D01*
X008834Y006645D02*
X008582Y006645D01*
X008582Y006707D02*
X008834Y006707D01*
X009054Y006723D02*
X009306Y006723D01*
X009306Y006273D01*
X009054Y006273D01*
X009054Y006723D01*
X009054Y006335D02*
X009306Y006335D01*
X009306Y006397D02*
X009054Y006397D01*
X009054Y006459D02*
X009306Y006459D01*
X009306Y006521D02*
X009054Y006521D01*
X009054Y006583D02*
X009306Y006583D01*
X009306Y006645D02*
X009054Y006645D01*
X009054Y006707D02*
X009306Y006707D01*
X010507Y005601D02*
X010507Y005349D01*
X010057Y005349D01*
X010057Y005601D01*
X010507Y005601D01*
X010507Y005411D02*
X010057Y005411D01*
X010057Y005473D02*
X010507Y005473D01*
X010507Y005535D02*
X010057Y005535D01*
X010057Y005597D02*
X010507Y005597D01*
X010507Y005207D02*
X010507Y004955D01*
X010057Y004955D01*
X010057Y005207D01*
X010507Y005207D01*
X010507Y005017D02*
X010057Y005017D01*
X010057Y005079D02*
X010507Y005079D01*
X010507Y005141D02*
X010057Y005141D01*
X010057Y005203D02*
X010507Y005203D01*
X010507Y004695D02*
X010507Y004443D01*
X010057Y004443D01*
X010057Y004695D01*
X010507Y004695D01*
X010507Y004505D02*
X010057Y004505D01*
X010057Y004567D02*
X010507Y004567D01*
X010507Y004629D02*
X010057Y004629D01*
X010057Y004691D02*
X010507Y004691D01*
X010507Y004223D02*
X010507Y003971D01*
X010057Y003971D01*
X010057Y004223D01*
X010507Y004223D01*
X010507Y004033D02*
X010057Y004033D01*
X010057Y004095D02*
X010507Y004095D01*
X010507Y004157D02*
X010057Y004157D01*
X010057Y004219D02*
X010507Y004219D01*
X010507Y003750D02*
X010507Y003498D01*
X010057Y003498D01*
X010057Y003750D01*
X010507Y003750D01*
X010507Y003560D02*
X010057Y003560D01*
X010057Y003622D02*
X010507Y003622D01*
X010507Y003684D02*
X010057Y003684D01*
X010057Y003746D02*
X010507Y003746D01*
X010507Y003278D02*
X010507Y003026D01*
X010057Y003026D01*
X010057Y003278D01*
X010507Y003278D01*
X010507Y003088D02*
X010057Y003088D01*
X010057Y003150D02*
X010507Y003150D01*
X010507Y003212D02*
X010057Y003212D01*
X010057Y003274D02*
X010507Y003274D01*
X010507Y002766D02*
X010507Y002514D01*
X010057Y002514D01*
X010057Y002766D01*
X010507Y002766D01*
X010507Y002576D02*
X010057Y002576D01*
X010057Y002638D02*
X010507Y002638D01*
X010507Y002700D02*
X010057Y002700D01*
X010057Y002762D02*
X010507Y002762D01*
X010507Y002372D02*
X010507Y002120D01*
X010057Y002120D01*
X010057Y002372D01*
X010507Y002372D01*
X010507Y002182D02*
X010057Y002182D01*
X010057Y002244D02*
X010507Y002244D01*
X010507Y002306D02*
X010057Y002306D01*
X010057Y002368D02*
X010507Y002368D01*
X009306Y001448D02*
X009054Y001448D01*
X009306Y001448D02*
X009306Y000998D01*
X009054Y000998D01*
X009054Y001448D01*
X009054Y001060D02*
X009306Y001060D01*
X009306Y001122D02*
X009054Y001122D01*
X009054Y001184D02*
X009306Y001184D01*
X009306Y001246D02*
X009054Y001246D01*
X009054Y001308D02*
X009306Y001308D01*
X009306Y001370D02*
X009054Y001370D01*
X009054Y001432D02*
X009306Y001432D01*
X008834Y001448D02*
X008582Y001448D01*
X008834Y001448D02*
X008834Y000998D01*
X008582Y000998D01*
X008582Y001448D01*
X008582Y001060D02*
X008834Y001060D01*
X008834Y001122D02*
X008582Y001122D01*
X008582Y001184D02*
X008834Y001184D01*
X008834Y001246D02*
X008582Y001246D01*
X008582Y001308D02*
X008834Y001308D01*
X008834Y001370D02*
X008582Y001370D01*
X008582Y001432D02*
X008834Y001432D01*
X008361Y001448D02*
X008109Y001448D01*
X008361Y001448D02*
X008361Y000998D01*
X008109Y000998D01*
X008109Y001448D01*
X008109Y001060D02*
X008361Y001060D01*
X008361Y001122D02*
X008109Y001122D01*
X008109Y001184D02*
X008361Y001184D01*
X008361Y001246D02*
X008109Y001246D01*
X008109Y001308D02*
X008361Y001308D01*
X008361Y001370D02*
X008109Y001370D01*
X008109Y001432D02*
X008361Y001432D01*
X007889Y001448D02*
X007637Y001448D01*
X007889Y001448D02*
X007889Y000998D01*
X007637Y000998D01*
X007637Y001448D01*
X007637Y001060D02*
X007889Y001060D01*
X007889Y001122D02*
X007637Y001122D01*
X007637Y001184D02*
X007889Y001184D01*
X007889Y001246D02*
X007637Y001246D01*
X007637Y001308D02*
X007889Y001308D01*
X007889Y001370D02*
X007637Y001370D01*
X007637Y001432D02*
X007889Y001432D01*
X007416Y001448D02*
X007164Y001448D01*
X007416Y001448D02*
X007416Y000998D01*
X007164Y000998D01*
X007164Y001448D01*
X007164Y001060D02*
X007416Y001060D01*
X007416Y001122D02*
X007164Y001122D01*
X007164Y001184D02*
X007416Y001184D01*
X007416Y001246D02*
X007164Y001246D01*
X007164Y001308D02*
X007416Y001308D01*
X007416Y001370D02*
X007164Y001370D01*
X007164Y001432D02*
X007416Y001432D01*
X006944Y001448D02*
X006692Y001448D01*
X006944Y001448D02*
X006944Y000998D01*
X006692Y000998D01*
X006692Y001448D01*
X006692Y001060D02*
X006944Y001060D01*
X006944Y001122D02*
X006692Y001122D01*
X006692Y001184D02*
X006944Y001184D01*
X006944Y001246D02*
X006692Y001246D01*
X006692Y001308D02*
X006944Y001308D01*
X006944Y001370D02*
X006692Y001370D01*
X006692Y001432D02*
X006944Y001432D01*
X006471Y001448D02*
X006219Y001448D01*
X006471Y001448D02*
X006471Y000998D01*
X006219Y000998D01*
X006219Y001448D01*
X006219Y001060D02*
X006471Y001060D01*
X006471Y001122D02*
X006219Y001122D01*
X006219Y001184D02*
X006471Y001184D01*
X006471Y001246D02*
X006219Y001246D01*
X006219Y001308D02*
X006471Y001308D01*
X006471Y001370D02*
X006219Y001370D01*
X006219Y001432D02*
X006471Y001432D01*
X005999Y001448D02*
X005747Y001448D01*
X005999Y001448D02*
X005999Y000998D01*
X005747Y000998D01*
X005747Y001448D01*
X005747Y001060D02*
X005999Y001060D01*
X005999Y001122D02*
X005747Y001122D01*
X005747Y001184D02*
X005999Y001184D01*
X005999Y001246D02*
X005747Y001246D01*
X005747Y001308D02*
X005999Y001308D01*
X005999Y001370D02*
X005747Y001370D01*
X005747Y001432D02*
X005999Y001432D01*
X005527Y001448D02*
X005275Y001448D01*
X005527Y001448D02*
X005527Y000998D01*
X005275Y000998D01*
X005275Y001448D01*
X005275Y001060D02*
X005527Y001060D01*
X005527Y001122D02*
X005275Y001122D01*
X005275Y001184D02*
X005527Y001184D01*
X005527Y001246D02*
X005275Y001246D01*
X005275Y001308D02*
X005527Y001308D01*
X005527Y001370D02*
X005275Y001370D01*
X005275Y001432D02*
X005527Y001432D01*
X005054Y001448D02*
X004802Y001448D01*
X005054Y001448D02*
X005054Y000998D01*
X004802Y000998D01*
X004802Y001448D01*
X004802Y001060D02*
X005054Y001060D01*
X005054Y001122D02*
X004802Y001122D01*
X004802Y001184D02*
X005054Y001184D01*
X005054Y001246D02*
X004802Y001246D01*
X004802Y001308D02*
X005054Y001308D01*
X005054Y001370D02*
X004802Y001370D01*
X004802Y001432D02*
X005054Y001432D01*
X004582Y001448D02*
X004330Y001448D01*
X004582Y001448D02*
X004582Y000998D01*
X004330Y000998D01*
X004330Y001448D01*
X004330Y001060D02*
X004582Y001060D01*
X004582Y001122D02*
X004330Y001122D01*
X004330Y001184D02*
X004582Y001184D01*
X004582Y001246D02*
X004330Y001246D01*
X004330Y001308D02*
X004582Y001308D01*
X004582Y001370D02*
X004330Y001370D01*
X004330Y001432D02*
X004582Y001432D01*
X004109Y001448D02*
X003857Y001448D01*
X004109Y001448D02*
X004109Y000998D01*
X003857Y000998D01*
X003857Y001448D01*
X003857Y001060D02*
X004109Y001060D01*
X004109Y001122D02*
X003857Y001122D01*
X003857Y001184D02*
X004109Y001184D01*
X004109Y001246D02*
X003857Y001246D01*
X003857Y001308D02*
X004109Y001308D01*
X004109Y001370D02*
X003857Y001370D01*
X003857Y001432D02*
X004109Y001432D01*
X004109Y006723D02*
X003857Y006723D01*
X004109Y006723D02*
X004109Y006273D01*
X003857Y006273D01*
X003857Y006723D01*
X003857Y006335D02*
X004109Y006335D01*
X004109Y006397D02*
X003857Y006397D01*
X003857Y006459D02*
X004109Y006459D01*
X004109Y006521D02*
X003857Y006521D01*
X003857Y006583D02*
X004109Y006583D01*
X004109Y006645D02*
X003857Y006645D01*
X003857Y006707D02*
X004109Y006707D01*
X004330Y006723D02*
X004582Y006723D01*
X004582Y006273D01*
X004330Y006273D01*
X004330Y006723D01*
X004330Y006335D02*
X004582Y006335D01*
X004582Y006397D02*
X004330Y006397D01*
X004330Y006459D02*
X004582Y006459D01*
X004582Y006521D02*
X004330Y006521D01*
X004330Y006583D02*
X004582Y006583D01*
X004582Y006645D02*
X004330Y006645D01*
X004330Y006707D02*
X004582Y006707D01*
X004802Y006723D02*
X005054Y006723D01*
X005054Y006273D01*
X004802Y006273D01*
X004802Y006723D01*
X004802Y006335D02*
X005054Y006335D01*
X005054Y006397D02*
X004802Y006397D01*
X004802Y006459D02*
X005054Y006459D01*
X005054Y006521D02*
X004802Y006521D01*
X004802Y006583D02*
X005054Y006583D01*
X005054Y006645D02*
X004802Y006645D01*
X004802Y006707D02*
X005054Y006707D01*
X005275Y006723D02*
X005527Y006723D01*
X005527Y006273D01*
X005275Y006273D01*
X005275Y006723D01*
X005275Y006335D02*
X005527Y006335D01*
X005527Y006397D02*
X005275Y006397D01*
X005275Y006459D02*
X005527Y006459D01*
X005527Y006521D02*
X005275Y006521D01*
X005275Y006583D02*
X005527Y006583D01*
X005527Y006645D02*
X005275Y006645D01*
X005275Y006707D02*
X005527Y006707D01*
X005747Y006723D02*
X005999Y006723D01*
X005999Y006273D01*
X005747Y006273D01*
X005747Y006723D01*
X005747Y006335D02*
X005999Y006335D01*
X005999Y006397D02*
X005747Y006397D01*
X005747Y006459D02*
X005999Y006459D01*
X005999Y006521D02*
X005747Y006521D01*
X005747Y006583D02*
X005999Y006583D01*
X005999Y006645D02*
X005747Y006645D01*
X005747Y006707D02*
X005999Y006707D01*
D23*
X002665Y001814D02*
X002389Y001814D01*
X002665Y001814D02*
X002665Y001026D01*
X002389Y001026D01*
X002389Y001814D01*
X002389Y001143D02*
X002665Y001143D01*
X002665Y001260D02*
X002389Y001260D01*
X002389Y001377D02*
X002665Y001377D01*
X002665Y001494D02*
X002389Y001494D01*
X002389Y001611D02*
X002665Y001611D01*
X002665Y001728D02*
X002389Y001728D01*
X009180Y005829D02*
X009810Y005081D01*
X010282Y005081D01*
X010145Y006695D02*
X009869Y006695D01*
X010145Y006695D02*
X010145Y005907D01*
X009869Y005907D01*
X009869Y006695D01*
X009869Y006024D02*
X010145Y006024D01*
X010145Y006141D02*
X009869Y006141D01*
X009869Y006258D02*
X010145Y006258D01*
X010145Y006375D02*
X009869Y006375D01*
X009869Y006492D02*
X010145Y006492D01*
X010145Y006609D02*
X009869Y006609D01*
X012601Y006311D02*
X012605Y005543D01*
X010007Y008742D02*
X010007Y009059D01*
X010133Y009225D01*
X010133Y009481D02*
X009761Y009481D01*
X009377Y009175D01*
X009721Y009736D02*
X009377Y010042D01*
X010133Y009992D02*
X010479Y010299D01*
X010479Y010632D01*
X011345Y010632D02*
X011345Y010299D01*
X011692Y009992D01*
X010912Y009687D02*
X010824Y009736D01*
X010133Y009736D01*
X002665Y006695D02*
X002389Y006695D01*
X002665Y006695D02*
X002665Y005907D01*
X002389Y005907D01*
X002389Y006695D01*
X002389Y006024D02*
X002665Y006024D01*
X002665Y006141D02*
X002389Y006141D01*
X002389Y006258D02*
X002665Y006258D01*
X002665Y006375D02*
X002389Y006375D01*
X002389Y006492D02*
X002665Y006492D01*
X002665Y006609D02*
X002389Y006609D01*
X009869Y001814D02*
X010145Y001814D01*
X010145Y001026D01*
X009869Y001026D01*
X009869Y001814D01*
X009869Y001143D02*
X010145Y001143D01*
X010145Y001260D02*
X009869Y001260D01*
X009869Y001377D02*
X010145Y001377D01*
X010145Y001494D02*
X009869Y001494D01*
X009869Y001611D02*
X010145Y001611D01*
X010145Y001728D02*
X009869Y001728D01*
D24*
X008511Y007069D03*
X008511Y007423D03*
X008393Y008329D03*
X008393Y008683D03*
D25*
X010865Y001707D02*
X010865Y001569D01*
X010723Y001569D01*
X010723Y001707D01*
X010865Y001707D01*
X010865Y001663D02*
X010723Y001663D01*
X011259Y001707D02*
X011259Y001569D01*
X011117Y001569D01*
X011117Y001707D01*
X011259Y001707D01*
X011259Y001663D02*
X011117Y001663D01*
X011117Y001349D02*
X011117Y001211D01*
X011117Y001349D02*
X011259Y001349D01*
X011259Y001211D01*
X011117Y001211D01*
X011117Y001305D02*
X011259Y001305D01*
X010723Y001349D02*
X010723Y001211D01*
X010723Y001349D02*
X010865Y001349D01*
X010865Y001211D01*
X010723Y001211D01*
X010723Y001305D02*
X010865Y001305D01*
D26*
X012792Y008280D02*
X013128Y008280D01*
X013128Y007944D01*
X012792Y007944D01*
X012792Y008280D01*
X012792Y008002D02*
X013128Y008002D01*
X013128Y008060D02*
X012792Y008060D01*
X012792Y008118D02*
X013128Y008118D01*
X013128Y008176D02*
X012792Y008176D01*
X012792Y008234D02*
X013128Y008234D01*
X010057Y010503D02*
X010057Y010839D01*
X010057Y010503D02*
X009721Y010503D01*
X009721Y010839D01*
X010057Y010839D01*
X010057Y010561D02*
X009721Y010561D01*
X009721Y010619D02*
X010057Y010619D01*
X010057Y010677D02*
X009721Y010677D01*
X009721Y010735D02*
X010057Y010735D01*
X010057Y010793D02*
X009721Y010793D01*
D27*
X004073Y009797D02*
X004073Y009657D01*
X003559Y009657D01*
X003559Y009797D01*
X004073Y009797D01*
X004073Y009672D02*
X003559Y009672D01*
X003559Y009687D02*
X004073Y009687D01*
X004073Y009702D02*
X003559Y009702D01*
X003559Y009717D02*
X004073Y009717D01*
X004073Y009732D02*
X003559Y009732D01*
X003559Y009747D02*
X004073Y009747D01*
X004073Y009762D02*
X003559Y009762D01*
X003559Y009777D02*
X004073Y009777D01*
X004073Y009792D02*
X003559Y009792D01*
X004073Y009541D02*
X004073Y009401D01*
X003559Y009401D01*
X003559Y009541D01*
X004073Y009541D01*
X004073Y009416D02*
X003559Y009416D01*
X003559Y009431D02*
X004073Y009431D01*
X004073Y009446D02*
X003559Y009446D01*
X003559Y009461D02*
X004073Y009461D01*
X004073Y009476D02*
X003559Y009476D01*
X003559Y009491D02*
X004073Y009491D01*
X004073Y009506D02*
X003559Y009506D01*
X003559Y009521D02*
X004073Y009521D01*
X004073Y009536D02*
X003559Y009536D01*
X004073Y009285D02*
X004073Y009145D01*
X003559Y009145D01*
X003559Y009285D01*
X004073Y009285D01*
X004073Y009160D02*
X003559Y009160D01*
X003559Y009175D02*
X004073Y009175D01*
X004073Y009190D02*
X003559Y009190D01*
X003559Y009205D02*
X004073Y009205D01*
X004073Y009220D02*
X003559Y009220D01*
X003559Y009235D02*
X004073Y009235D01*
X004073Y009250D02*
X003559Y009250D01*
X003559Y009265D02*
X004073Y009265D01*
X004073Y009280D02*
X003559Y009280D01*
X004073Y009029D02*
X004073Y008889D01*
X003559Y008889D01*
X003559Y009029D01*
X004073Y009029D01*
X004073Y008904D02*
X003559Y008904D01*
X003559Y008919D02*
X004073Y008919D01*
X004073Y008934D02*
X003559Y008934D01*
X003559Y008949D02*
X004073Y008949D01*
X004073Y008964D02*
X003559Y008964D01*
X003559Y008979D02*
X004073Y008979D01*
X004073Y008994D02*
X003559Y008994D01*
X003559Y009009D02*
X004073Y009009D01*
X004073Y009024D02*
X003559Y009024D01*
X004073Y008773D02*
X004073Y008633D01*
X003559Y008633D01*
X003559Y008773D01*
X004073Y008773D01*
X004073Y008648D02*
X003559Y008648D01*
X003559Y008663D02*
X004073Y008663D01*
X004073Y008678D02*
X003559Y008678D01*
X003559Y008693D02*
X004073Y008693D01*
X004073Y008708D02*
X003559Y008708D01*
X003559Y008723D02*
X004073Y008723D01*
X004073Y008738D02*
X003559Y008738D01*
X003559Y008753D02*
X004073Y008753D01*
X004073Y008768D02*
X003559Y008768D01*
D28*
X003479Y007667D02*
X003975Y007667D01*
X003479Y007667D02*
X003479Y008243D01*
X003975Y008243D01*
X003975Y007667D01*
X003975Y007721D02*
X003479Y007721D01*
X003479Y007775D02*
X003975Y007775D01*
X003975Y007829D02*
X003479Y007829D01*
X003479Y007883D02*
X003975Y007883D01*
X003975Y007937D02*
X003479Y007937D01*
X003479Y007991D02*
X003975Y007991D01*
X003975Y008045D02*
X003479Y008045D01*
X003479Y008099D02*
X003975Y008099D01*
X003975Y008153D02*
X003479Y008153D01*
X003479Y008207D02*
X003975Y008207D01*
X003975Y010187D02*
X003479Y010187D01*
X003479Y010763D01*
X003975Y010763D01*
X003975Y010187D01*
X003975Y010241D02*
X003479Y010241D01*
X003479Y010295D02*
X003975Y010295D01*
X003975Y010349D02*
X003479Y010349D01*
X003479Y010403D02*
X003975Y010403D01*
X003975Y010457D02*
X003479Y010457D01*
X003479Y010511D02*
X003975Y010511D01*
X003975Y010565D02*
X003479Y010565D01*
X003479Y010619D02*
X003975Y010619D01*
X003975Y010673D02*
X003479Y010673D01*
X003479Y010727D02*
X003975Y010727D01*
D29*
X003100Y009350D02*
X002426Y009350D01*
X002426Y010024D01*
X003100Y010024D01*
X003100Y009350D01*
X003100Y009424D02*
X002426Y009424D01*
X002426Y009498D02*
X003100Y009498D01*
X003100Y009572D02*
X002426Y009572D01*
X002426Y009646D02*
X003100Y009646D01*
X003100Y009720D02*
X002426Y009720D01*
X002426Y009794D02*
X003100Y009794D01*
X003100Y009868D02*
X002426Y009868D01*
X002426Y009942D02*
X003100Y009942D01*
X003100Y010016D02*
X002426Y010016D01*
X002426Y008405D02*
X003100Y008405D01*
X002426Y008405D02*
X002426Y009079D01*
X003100Y009079D01*
X003100Y008405D01*
X003100Y008479D02*
X002426Y008479D01*
X002426Y008553D02*
X003100Y008553D01*
X003100Y008627D02*
X002426Y008627D01*
X002426Y008701D02*
X003100Y008701D01*
X003100Y008775D02*
X002426Y008775D01*
X002426Y008849D02*
X003100Y008849D01*
X003100Y008923D02*
X002426Y008923D01*
X002426Y008997D02*
X003100Y008997D01*
X003100Y009071D02*
X002426Y009071D01*
D30*
X002550Y007933D03*
X002621Y007933D03*
X002751Y007933D03*
X002897Y007933D03*
X002975Y007933D03*
X002975Y010496D03*
X002897Y010496D03*
X002751Y010496D03*
X002621Y010496D03*
X002550Y010496D03*
D31*
X009062Y008231D03*
X009062Y007876D03*
X010597Y007443D03*
X011070Y007502D03*
X011503Y007404D03*
X014062Y007049D03*
X014338Y006813D03*
X015617Y006912D03*
X016503Y007719D03*
X017271Y007030D03*
X017704Y007935D03*
X019712Y007502D03*
X020125Y007404D03*
X020440Y007286D03*
X018078Y006105D03*
X019554Y004668D03*
X018156Y003427D03*
X018708Y003034D03*
X019456Y002797D03*
X018786Y001656D03*
X019456Y001420D03*
X018432Y001144D03*
X017763Y001183D03*
X017172Y001656D03*
X016306Y002089D03*
X016109Y002483D03*
X015361Y002797D03*
X014849Y002837D03*
X013353Y002837D03*
X012842Y002837D03*
X011818Y002994D03*
X010755Y003270D03*
X010755Y003624D03*
X009298Y003624D03*
X008275Y003742D03*
X007448Y004175D03*
X007723Y004412D03*
X007015Y004451D03*
X007015Y004805D03*
X007527Y004845D03*
X007015Y005160D03*
X005125Y005868D03*
X003038Y006301D03*
X007192Y003762D03*
X005086Y003152D03*
X004771Y003349D03*
X005086Y002719D03*
X004653Y001695D03*
X006503Y001734D03*
X007290Y001892D03*
X007645Y001892D03*
X009259Y002207D03*
X009633Y002109D03*
X010440Y001734D03*
X010440Y001341D03*
X012330Y001459D03*
X012851Y001764D03*
X013353Y001734D03*
X014851Y001733D03*
X015361Y001734D03*
X017330Y003073D03*
X016542Y004530D03*
X015086Y004648D03*
X014653Y004727D03*
X014259Y005475D03*
X013629Y005750D03*
X012605Y005553D03*
X012290Y005435D03*
X011857Y005475D03*
X012290Y005790D03*
X012094Y004412D03*
D32*
X011739Y004077D03*
X007763Y005829D03*
X009180Y007483D03*
X008314Y007797D03*
X007408Y007797D03*
X005440Y008506D03*
X004534Y007916D03*
X009554Y008231D03*
X010007Y008231D03*
X010007Y008742D03*
X010873Y008231D03*
X012369Y008231D03*
X013531Y009195D03*
X013511Y010671D03*
X007566Y010790D03*
X003983Y004294D03*
X003845Y002246D03*
X004259Y002246D03*
X004968Y001931D03*
D33*
X011897Y007168D03*
X005755Y009687D03*
D34*
X006621Y009512D02*
X006757Y009490D01*
X007094Y009490D01*
X007251Y009333D02*
X007251Y009079D01*
X007233Y008742D01*
X007584Y008742D02*
X007566Y009193D01*
X007408Y009333D01*
X007015Y005160D02*
X006582Y005160D01*
X004771Y003349D01*
X005086Y003152D02*
X006739Y004805D01*
X007015Y004805D01*
X007015Y004451D02*
X006779Y004451D01*
X005086Y002719D01*
X007448Y003152D02*
X007448Y004175D01*
X007723Y004412D02*
X007723Y003231D01*
X009180Y001656D01*
X009180Y001223D01*
X008708Y001223D02*
X008708Y001813D01*
X007448Y003152D01*
X009653Y002561D02*
X009653Y002168D01*
X009633Y002109D01*
X009653Y002561D02*
X009731Y002640D01*
X010282Y002640D01*
X010795Y001638D02*
X010809Y001630D01*
X010824Y001626D01*
X010840Y001625D01*
X010856Y001628D01*
X010871Y001634D01*
X010884Y001644D01*
X010895Y001656D01*
X010794Y001280D02*
X010777Y001262D01*
X008235Y001223D02*
X008117Y001301D01*
X016109Y002483D02*
X016137Y002455D01*
X017318Y002455D01*
X017318Y002705D02*
X017318Y003062D01*
X017330Y003073D01*
X017487Y003349D01*
X017842Y003349D01*
X017908Y003282D01*
X017908Y003045D01*
X018418Y003045D02*
X018430Y003034D01*
X018708Y003034D01*
X018758Y002705D02*
X019284Y003231D01*
X019456Y002797D02*
X019456Y002447D01*
X019346Y002455D01*
X018758Y002455D01*
D35*
X018782Y002479D01*
X018758Y002195D02*
X018825Y002168D01*
X019810Y002168D01*
X020204Y002522D01*
X020204Y003034D01*
X020204Y003900D02*
X020440Y004136D01*
X020440Y007286D01*
X020125Y007404D02*
X020125Y004845D01*
X019377Y004097D01*
X018156Y003427D02*
X017418Y004166D01*
X015601Y004166D01*
X015837Y003358D02*
X015834Y003354D01*
X015834Y002758D01*
X015597Y002522D01*
X014338Y002522D01*
X013865Y002994D01*
X013865Y003358D01*
X013837Y003358D01*
X013353Y003358D02*
X013353Y002837D01*
X012842Y002837D02*
X012842Y003358D01*
X012837Y003358D01*
X013337Y003358D02*
X013353Y003358D01*
X012802Y003762D02*
X010893Y003742D01*
X010755Y003624D01*
X010755Y003270D02*
X012133Y002010D01*
X015086Y002010D01*
X015361Y001734D01*
X015351Y001725D02*
X015351Y001228D01*
X015337Y001213D01*
X015837Y001213D01*
X014837Y001213D02*
X014837Y001718D01*
X014851Y001733D01*
X014837Y001213D02*
X014337Y001213D01*
X013837Y001213D02*
X013812Y001079D01*
X013983Y000829D01*
X018156Y000829D01*
X018432Y001144D01*
X018432Y001591D01*
X018418Y001605D01*
X018168Y001605D02*
X018156Y001593D01*
X018156Y001380D01*
X017960Y001183D01*
X017763Y001183D01*
X017658Y001288D01*
X017658Y001605D01*
X017318Y001945D02*
X017186Y001945D01*
X017172Y001656D01*
X016735Y002049D02*
X016739Y002124D01*
X016704Y002089D01*
X016306Y002089D01*
X016739Y002124D02*
X016810Y002195D01*
X017318Y002195D01*
X017318Y002705D02*
X016875Y002705D01*
X016739Y002762D01*
X015361Y002797D02*
X015337Y002821D01*
X015337Y003358D01*
X014837Y003358D02*
X014837Y003061D01*
X014849Y002837D01*
X013101Y004041D02*
X012802Y003762D01*
X013101Y004041D02*
X013101Y004166D01*
X012601Y004166D02*
X012605Y004343D01*
X012605Y005543D02*
X012605Y005553D01*
X013629Y005750D02*
X013629Y006283D01*
X013601Y006311D01*
X014101Y006311D02*
X014101Y006311D01*
X014101Y006538D01*
X013865Y006774D01*
X012920Y006774D01*
X012601Y006455D01*
X012601Y006311D01*
X014601Y006311D02*
X014613Y006330D01*
X015101Y006311D02*
X015601Y006311D01*
X012408Y009136D02*
X012103Y009481D01*
X011692Y009481D01*
X011692Y009736D02*
X012103Y009736D01*
X012408Y010002D01*
X009889Y010671D02*
X009377Y010160D01*
X009377Y010042D01*
X007645Y010164D02*
X007645Y009687D01*
X007408Y009920D02*
X007251Y009920D01*
X006932Y010357D01*
X007570Y010357D02*
X007645Y010164D01*
X006914Y009648D02*
X006621Y009862D01*
X006897Y009317D02*
X006507Y008624D01*
X005873Y006498D02*
X005873Y006183D01*
X006070Y005986D01*
X006857Y005986D01*
X007527Y005317D01*
X007527Y004845D01*
X007645Y001892D02*
X007999Y001892D01*
X008117Y001774D01*
X008117Y001301D01*
X007763Y001341D02*
X007763Y001223D01*
X007763Y001341D02*
X007290Y001813D01*
X007290Y001892D01*
X006503Y001734D02*
X005991Y001734D01*
X005873Y001616D01*
X005873Y001223D01*
X005755Y001301D01*
X005401Y001223D02*
X005401Y001498D01*
X004968Y001931D01*
X004653Y001695D02*
X004928Y001420D01*
X004928Y001223D01*
X010440Y001341D02*
X010519Y001262D01*
X010777Y001262D01*
X011188Y001280D02*
X011462Y001280D01*
X011641Y001459D01*
X011995Y001459D02*
X012330Y001459D01*
X012837Y001213D02*
X012851Y001213D01*
X012851Y001764D01*
X013353Y001734D02*
X013353Y001213D01*
X013337Y001213D01*
X011188Y001638D02*
X010794Y001638D01*
X010895Y001656D02*
X010519Y001656D01*
X010440Y001734D01*
X018078Y003506D02*
X018093Y003504D01*
X018108Y003500D01*
X018122Y003493D01*
X018134Y003483D01*
X018144Y003471D01*
X018151Y003457D01*
X018155Y003442D01*
X018157Y003427D01*
X018156Y003427D02*
X018156Y003057D01*
X018168Y003045D01*
X018418Y003045D02*
X018418Y003059D01*
X018758Y001945D02*
X018773Y001906D01*
X018786Y001656D01*
X019456Y001809D02*
X019456Y001420D01*
D36*
X019377Y003231D02*
X019284Y003231D01*
X014653Y004193D02*
X014601Y004166D01*
X014101Y004166D01*
X014653Y004193D02*
X014653Y004727D01*
X014601Y004872D01*
X014601Y006311D01*
X014613Y006330D02*
X014613Y007168D01*
X013353Y008546D01*
X012960Y008546D01*
X012960Y008112D01*
X012960Y008546D02*
X011345Y008585D01*
X010873Y008231D02*
X010834Y008250D01*
X010479Y008250D01*
X009180Y007483D02*
X009180Y006459D01*
X008708Y006498D02*
X008708Y006892D01*
X008511Y007069D01*
X007885Y007088D01*
X007842Y007164D02*
X007842Y007797D01*
X007408Y007797D02*
X006975Y007797D01*
X006975Y007242D01*
X007129Y007128D01*
X008314Y007797D02*
X008511Y007601D01*
X008511Y007423D01*
X008393Y008329D02*
X008388Y008349D01*
X006507Y008349D01*
X006507Y008073D01*
X006507Y008349D02*
X006507Y008624D01*
X005869Y008624D02*
X005869Y008073D01*
X005440Y008506D02*
X005558Y008624D01*
X005869Y008624D01*
X004810Y009057D02*
X004456Y008703D01*
X003816Y008703D01*
X003816Y009727D02*
X004810Y009727D01*
X005755Y009687D02*
X005755Y010361D01*
X005735Y010357D01*
X006090Y010357D02*
X006345Y010353D01*
X006932Y010357D01*
X007570Y010357D02*
X007566Y010790D01*
X003983Y006498D02*
X003668Y006301D01*
X003038Y006301D01*
D37*
X007767Y007128D02*
X007842Y007164D01*
X007767Y007128D02*
X007885Y007088D01*
X009180Y006498D02*
X009180Y006459D01*
X009180Y005829D01*
X012601Y005549D02*
X012601Y004166D01*
X013101Y004166D02*
X013101Y006311D01*
X012605Y005553D02*
X012601Y005549D01*
X013101Y004166D02*
X013601Y004166D01*
X015086Y004182D02*
X015101Y004166D01*
X015086Y004182D02*
X015086Y004648D01*
X015101Y004663D01*
X015101Y006311D01*
X011345Y007916D02*
X011345Y008585D01*
X011345Y008839D01*
X011692Y009225D01*
X010479Y008585D02*
X010479Y008250D01*
X010479Y007916D01*
X009377Y009175D02*
X008629Y009175D01*
X009721Y009736D02*
X010133Y009736D01*
X009377Y010042D02*
X008629Y010042D01*
X012842Y002837D02*
X013432Y002246D01*
X015204Y002246D01*
X015361Y002089D01*
X016306Y002089D01*
D38*
X010912Y009687D03*
D39*
X007645Y009687D02*
X007448Y009490D01*
X007408Y009490D01*
X007408Y009648D02*
X007408Y009920D01*
X007251Y009920D02*
X007251Y009648D01*
X007094Y009648D02*
X006914Y009648D01*
X006897Y009317D02*
X007094Y009333D01*
X012891Y003555D02*
X013078Y003742D01*
X014141Y003742D01*
X014338Y003506D01*
X014338Y003482D01*
X014337Y003358D01*
X013865Y003482D02*
X013837Y003358D01*
X013337Y003358D01*
X012891Y003555D02*
X012837Y003358D01*
X012851Y002847D02*
X012842Y002837D01*
X013351Y002839D02*
X013353Y002837D01*
X013351Y001772D02*
X013353Y001734D01*
X015351Y001725D02*
X015361Y001734D01*
X015361Y002797D02*
X015351Y002807D01*
D40*
X011857Y010435D03*
D41*
X004810Y009727D03*
X004810Y009057D03*
D42*
X008393Y008683D02*
X008629Y008905D01*
X008629Y009175D01*
M02*
