G75*
G70*
%OFA0B0*%
%FSLAX24Y24*%
%IPPOS*%
%LPD*%
%AMOC8*
5,1,8,0,0,1.08239X$1,22.5*
%
%ADD10C,0.0140*%
%ADD11R,0.0431X0.0181*%
%ADD12C,0.0115*%
%ADD13C,0.0023*%
%ADD14R,0.0945X0.0866*%
%ADD15R,0.0512X0.0335*%
%ADD16R,0.0138X0.0335*%
%ADD17R,0.0425X0.0425*%
%ADD18C,0.0197*%
%ADD19C,0.0357*%
%ADD20C,0.0297*%
%ADD21C,0.0108*%
%ADD22R,0.0346X0.0346*%
%ADD23R,0.1031X0.1083*%
%ADD24R,0.0346X0.0531*%
%ADD25C,0.0064*%
%ADD26C,0.0583*%
%ADD27C,0.0005*%
%ADD28C,0.0007*%
%ADD29C,0.0011*%
%ADD30C,0.0023*%
%ADD31C,0.0400*%
%ADD32C,0.0026*%
%ADD33C,0.0329*%
D10*
X012221Y008832D02*
X012431Y008832D01*
X012431Y008574D01*
X012221Y008574D01*
X012221Y008832D01*
X012221Y008713D02*
X012431Y008713D01*
X012859Y008574D02*
X013069Y008574D01*
X012859Y008574D02*
X012859Y008832D01*
X013069Y008832D01*
X013069Y008574D01*
X013069Y008713D02*
X012859Y008713D01*
X011689Y009106D02*
X011689Y009316D01*
X011947Y009316D01*
X011947Y009106D01*
X011689Y009106D01*
X011689Y009245D02*
X011947Y009245D01*
X011947Y009744D02*
X011947Y009954D01*
X011947Y009744D02*
X011689Y009744D01*
X011689Y009954D01*
X011947Y009954D01*
X011947Y009883D02*
X011689Y009883D01*
X013146Y009710D02*
X013146Y009500D01*
X013146Y009710D02*
X013404Y009710D01*
X013404Y009500D01*
X013146Y009500D01*
X013146Y009639D02*
X013404Y009639D01*
X013657Y009710D02*
X013657Y009500D01*
X013657Y009710D02*
X013915Y009710D01*
X013915Y009500D01*
X013657Y009500D01*
X013657Y009639D02*
X013915Y009639D01*
X013915Y010137D02*
X013915Y010347D01*
X013915Y010137D02*
X013657Y010137D01*
X013657Y010347D01*
X013915Y010347D01*
X013915Y010276D02*
X013657Y010276D01*
X013404Y010347D02*
X013404Y010137D01*
X013146Y010137D01*
X013146Y010347D01*
X013404Y010347D01*
X013404Y010276D02*
X013146Y010276D01*
D11*
X019604Y007207D03*
X019604Y006957D03*
X019604Y006707D03*
X019604Y006457D03*
X019604Y006207D03*
X019604Y005957D03*
X019604Y005707D03*
X019604Y005457D03*
X019604Y005207D03*
X019604Y004957D03*
X020204Y005207D03*
X020204Y005457D03*
X020204Y005707D03*
X020204Y005957D03*
X020204Y006207D03*
X020204Y006457D03*
X020204Y006707D03*
X020204Y006957D03*
D12*
X017454Y008067D02*
X017336Y008185D01*
X017454Y008303D01*
X017572Y008185D01*
X017454Y008067D01*
X017568Y008181D02*
X017340Y008181D01*
X017446Y008295D02*
X017462Y008295D01*
X017324Y008433D02*
X017206Y008551D01*
X017324Y008433D02*
X017206Y008315D01*
X017088Y008433D01*
X017206Y008551D01*
X017320Y008429D02*
X017092Y008429D01*
X017198Y008543D02*
X017214Y008543D01*
X013938Y006780D02*
X013820Y006898D01*
X013938Y006780D02*
X013820Y006662D01*
X013702Y006780D01*
X013820Y006898D01*
X013934Y006776D02*
X013706Y006776D01*
X013812Y006890D02*
X013828Y006890D01*
X013950Y006532D02*
X014068Y006414D01*
X013950Y006532D02*
X014068Y006650D01*
X014186Y006532D01*
X014068Y006414D01*
X014182Y006528D02*
X013954Y006528D01*
X014060Y006642D02*
X014076Y006642D01*
X013635Y006217D02*
X013753Y006099D01*
X013635Y006217D02*
X013753Y006335D01*
X013871Y006217D01*
X013753Y006099D01*
X013867Y006213D02*
X013639Y006213D01*
X013745Y006327D02*
X013761Y006327D01*
X013623Y006465D02*
X013505Y006583D01*
X013623Y006465D02*
X013505Y006347D01*
X013387Y006465D01*
X013505Y006583D01*
X013619Y006461D02*
X013391Y006461D01*
X013497Y006575D02*
X013513Y006575D01*
X011565Y007754D02*
X011397Y007754D01*
X011397Y007920D01*
X011565Y007920D01*
X011565Y007754D01*
X011565Y007868D02*
X011397Y007868D01*
X011215Y007920D02*
X011047Y007920D01*
X011215Y007920D02*
X011215Y007754D01*
X011047Y007754D01*
X011047Y007920D01*
X011047Y007868D02*
X011215Y007868D01*
X010778Y007754D02*
X010610Y007754D01*
X010610Y007920D01*
X010778Y007920D01*
X010778Y007754D01*
X010778Y007868D02*
X010610Y007868D01*
X010428Y007920D02*
X010260Y007920D01*
X010428Y007920D02*
X010428Y007754D01*
X010260Y007754D01*
X010260Y007920D01*
X010260Y007868D02*
X010428Y007868D01*
X009990Y007754D02*
X009822Y007754D01*
X009822Y007920D01*
X009990Y007920D01*
X009990Y007754D01*
X009990Y007868D02*
X009822Y007868D01*
X009640Y007920D02*
X009472Y007920D01*
X009640Y007920D02*
X009640Y007754D01*
X009472Y007754D01*
X009472Y007920D01*
X009472Y007868D02*
X009640Y007868D01*
X008625Y007794D02*
X008625Y007962D01*
X008791Y007962D01*
X008791Y007794D01*
X008625Y007794D01*
X008625Y007908D02*
X008791Y007908D01*
X008791Y008145D02*
X008791Y008313D01*
X008791Y008145D02*
X008625Y008145D01*
X008625Y008313D01*
X008791Y008313D01*
X008791Y008259D02*
X008625Y008259D01*
X011980Y005183D02*
X011980Y005015D01*
X011814Y005015D01*
X011814Y005183D01*
X011980Y005183D01*
X011980Y005129D02*
X011814Y005129D01*
X012373Y005183D02*
X012373Y005015D01*
X012207Y005015D01*
X012207Y005183D01*
X012373Y005183D01*
X012373Y005129D02*
X012207Y005129D01*
X012207Y004832D02*
X012207Y004664D01*
X012207Y004832D02*
X012373Y004832D01*
X012373Y004664D01*
X012207Y004664D01*
X012207Y004778D02*
X012373Y004778D01*
X011814Y004832D02*
X011814Y004664D01*
X011814Y004832D02*
X011980Y004832D01*
X011980Y004664D01*
X011814Y004664D01*
X011814Y004778D02*
X011980Y004778D01*
X011901Y003765D02*
X011901Y003597D01*
X011735Y003597D01*
X011735Y003765D01*
X011901Y003765D01*
X011901Y003711D02*
X011735Y003711D01*
X011735Y003415D02*
X011735Y003247D01*
X011735Y003415D02*
X011901Y003415D01*
X011901Y003247D01*
X011735Y003247D01*
X011735Y003361D02*
X011901Y003361D01*
X009963Y003336D02*
X009963Y003168D01*
X009963Y003336D02*
X010129Y003336D01*
X010129Y003168D01*
X009963Y003168D01*
X009963Y003282D02*
X010129Y003282D01*
X010129Y003519D02*
X010129Y003687D01*
X010129Y003519D02*
X009963Y003519D01*
X009963Y003687D01*
X010129Y003687D01*
X010129Y003633D02*
X009963Y003633D01*
X009696Y003687D02*
X009696Y003519D01*
X009530Y003519D01*
X009530Y003687D01*
X009696Y003687D01*
X009696Y003633D02*
X009530Y003633D01*
X009530Y003336D02*
X009530Y003168D01*
X009530Y003336D02*
X009696Y003336D01*
X009696Y003168D01*
X009530Y003168D01*
X009530Y003282D02*
X009696Y003282D01*
X008022Y003699D02*
X007854Y003699D01*
X007854Y003865D01*
X008022Y003865D01*
X008022Y003699D01*
X008022Y003813D02*
X007854Y003813D01*
X007672Y003865D02*
X007504Y003865D01*
X007672Y003865D02*
X007672Y003699D01*
X007504Y003699D01*
X007504Y003865D01*
X007504Y003813D02*
X007672Y003813D01*
X004085Y003226D02*
X003917Y003226D01*
X003917Y003392D01*
X004085Y003392D01*
X004085Y003226D01*
X004085Y003340D02*
X003917Y003340D01*
X003735Y003392D02*
X003567Y003392D01*
X003735Y003392D02*
X003735Y003226D01*
X003567Y003226D01*
X003567Y003392D01*
X003567Y003340D02*
X003735Y003340D01*
D13*
X003329Y006543D02*
X003329Y006867D01*
X003535Y006867D01*
X003535Y006543D01*
X003329Y006543D01*
X003329Y006565D02*
X003535Y006565D01*
X003535Y006587D02*
X003329Y006587D01*
X003329Y006609D02*
X003535Y006609D01*
X003535Y006631D02*
X003329Y006631D01*
X003329Y006653D02*
X003535Y006653D01*
X003535Y006675D02*
X003329Y006675D01*
X003329Y006697D02*
X003535Y006697D01*
X003535Y006719D02*
X003329Y006719D01*
X003329Y006741D02*
X003535Y006741D01*
X003535Y006763D02*
X003329Y006763D01*
X003329Y006785D02*
X003535Y006785D01*
X003535Y006807D02*
X003329Y006807D01*
X003329Y006829D02*
X003535Y006829D01*
X003535Y006851D02*
X003329Y006851D01*
X002935Y006867D02*
X002935Y006543D01*
X002935Y006867D02*
X003141Y006867D01*
X003141Y006543D01*
X002935Y006543D01*
X002935Y006565D02*
X003141Y006565D01*
X003141Y006587D02*
X002935Y006587D01*
X002935Y006609D02*
X003141Y006609D01*
X003141Y006631D02*
X002935Y006631D01*
X002935Y006653D02*
X003141Y006653D01*
X003141Y006675D02*
X002935Y006675D01*
X002935Y006697D02*
X003141Y006697D01*
X003141Y006719D02*
X002935Y006719D01*
X002935Y006741D02*
X003141Y006741D01*
X003141Y006763D02*
X002935Y006763D01*
X002935Y006785D02*
X003141Y006785D01*
X003141Y006807D02*
X002935Y006807D01*
X002935Y006829D02*
X003141Y006829D01*
X003141Y006851D02*
X002935Y006851D01*
X002935Y007232D02*
X002935Y007556D01*
X003141Y007556D01*
X003141Y007232D01*
X002935Y007232D01*
X002935Y007254D02*
X003141Y007254D01*
X003141Y007276D02*
X002935Y007276D01*
X002935Y007298D02*
X003141Y007298D01*
X003141Y007320D02*
X002935Y007320D01*
X002935Y007342D02*
X003141Y007342D01*
X003141Y007364D02*
X002935Y007364D01*
X002935Y007386D02*
X003141Y007386D01*
X003141Y007408D02*
X002935Y007408D01*
X002935Y007430D02*
X003141Y007430D01*
X003141Y007452D02*
X002935Y007452D01*
X002935Y007474D02*
X003141Y007474D01*
X003141Y007496D02*
X002935Y007496D01*
X002935Y007518D02*
X003141Y007518D01*
X003141Y007540D02*
X002935Y007540D01*
X003329Y007556D02*
X003329Y007232D01*
X003329Y007556D02*
X003535Y007556D01*
X003535Y007232D01*
X003329Y007232D01*
X003329Y007254D02*
X003535Y007254D01*
X003535Y007276D02*
X003329Y007276D01*
X003329Y007298D02*
X003535Y007298D01*
X003535Y007320D02*
X003329Y007320D01*
X003329Y007342D02*
X003535Y007342D01*
X003535Y007364D02*
X003329Y007364D01*
X003329Y007386D02*
X003535Y007386D01*
X003535Y007408D02*
X003329Y007408D01*
X003329Y007430D02*
X003535Y007430D01*
X003535Y007452D02*
X003329Y007452D01*
X003329Y007474D02*
X003535Y007474D01*
X003535Y007496D02*
X003329Y007496D01*
X003329Y007518D02*
X003535Y007518D01*
X003535Y007540D02*
X003329Y007540D01*
D14*
X002881Y002109D03*
X005794Y002109D03*
X008353Y002109D03*
X011267Y002109D03*
D15*
X003097Y001508D03*
X005578Y001508D03*
X008570Y001508D03*
X011050Y001508D03*
D16*
X010302Y002699D03*
X010105Y002699D03*
X009908Y002699D03*
X009712Y002699D03*
X009515Y002699D03*
X009318Y002699D03*
X004830Y002699D03*
X004633Y002699D03*
X004436Y002699D03*
X004239Y002699D03*
X004042Y002699D03*
X003845Y002699D03*
D17*
X005676Y003506D03*
X006306Y003506D03*
X006306Y005081D03*
X005676Y005081D03*
D18*
X005769Y006101D02*
X005461Y006101D01*
X005769Y006101D02*
X005769Y005793D01*
X005461Y005793D01*
X005461Y006101D01*
X005461Y005989D02*
X005769Y005989D01*
X006213Y005793D02*
X006521Y005793D01*
X006213Y005793D02*
X006213Y006101D01*
X006521Y006101D01*
X006521Y005793D01*
X006521Y005989D02*
X006213Y005989D01*
D19*
X006316Y007089D02*
X005991Y007089D01*
D20*
X005991Y007443D02*
X006257Y007443D01*
D21*
X004477Y007324D02*
X004321Y007324D01*
X004321Y007484D01*
X004477Y007484D01*
X004477Y007324D01*
X004477Y007431D02*
X004321Y007431D01*
X004118Y007484D02*
X003962Y007484D01*
X004118Y007484D02*
X004118Y007324D01*
X003962Y007324D01*
X003962Y007484D01*
X003962Y007431D02*
X004118Y007431D01*
X004118Y007011D02*
X003962Y007011D01*
X004118Y007011D02*
X004118Y006851D01*
X003962Y006851D01*
X003962Y007011D01*
X003962Y006958D02*
X004118Y006958D01*
X004321Y006851D02*
X004477Y006851D01*
X004321Y006851D02*
X004321Y007011D01*
X004477Y007011D01*
X004477Y006851D01*
X004477Y006958D02*
X004321Y006958D01*
X004321Y006379D02*
X004477Y006379D01*
X004321Y006379D02*
X004321Y006539D01*
X004477Y006539D01*
X004477Y006379D01*
X004477Y006486D02*
X004321Y006486D01*
X004118Y006539D02*
X003962Y006539D01*
X004118Y006539D02*
X004118Y006379D01*
X003962Y006379D01*
X003962Y006539D01*
X003962Y006486D02*
X004118Y006486D01*
X006876Y006027D02*
X007032Y006027D01*
X007032Y005867D01*
X006876Y005867D01*
X006876Y006027D01*
X006876Y005974D02*
X007032Y005974D01*
X007234Y005867D02*
X007390Y005867D01*
X007234Y005867D02*
X007234Y006027D01*
X007390Y006027D01*
X007390Y005867D01*
X007390Y005974D02*
X007234Y005974D01*
X006898Y003842D02*
X006898Y003686D01*
X006738Y003686D01*
X006738Y003842D01*
X006898Y003842D01*
X006898Y003793D02*
X006738Y003793D01*
X006738Y003484D02*
X006738Y003328D01*
X006738Y003484D02*
X006898Y003484D01*
X006898Y003328D01*
X006738Y003328D01*
X006738Y003435D02*
X006898Y003435D01*
X003296Y003229D02*
X003140Y003229D01*
X003140Y003389D01*
X003296Y003389D01*
X003296Y003229D01*
X003296Y003336D02*
X003140Y003336D01*
X002937Y003389D02*
X002781Y003389D01*
X002937Y003389D02*
X002937Y003229D01*
X002781Y003229D01*
X002781Y003389D01*
X002781Y003336D02*
X002937Y003336D01*
D22*
X002940Y004294D03*
X003531Y004294D03*
D23*
X006542Y009057D03*
D24*
X005637Y009057D03*
D25*
X013410Y008523D02*
X013770Y008523D01*
X013410Y008523D02*
X013410Y008883D01*
X013770Y008883D01*
X013770Y008523D01*
X013770Y008586D02*
X013410Y008586D01*
X013410Y008649D02*
X013770Y008649D01*
X013770Y008712D02*
X013410Y008712D01*
X013410Y008775D02*
X013770Y008775D01*
X013770Y008838D02*
X013410Y008838D01*
X014197Y009547D02*
X014557Y009547D01*
X014197Y009547D02*
X014197Y009907D01*
X014557Y009907D01*
X014557Y009547D01*
X014557Y009610D02*
X014197Y009610D01*
X014197Y009673D02*
X014557Y009673D01*
X014557Y009736D02*
X014197Y009736D01*
X014197Y009799D02*
X014557Y009799D01*
X014557Y009862D02*
X014197Y009862D01*
D26*
X002975Y010496D03*
X002897Y010496D03*
X002751Y010496D03*
X002621Y010496D03*
X002550Y010496D03*
X002550Y007933D03*
X002621Y007933D03*
X002751Y007933D03*
X002897Y007933D03*
X002975Y007933D03*
D27*
X012481Y009323D02*
X012481Y009421D01*
X012481Y009323D02*
X012317Y009323D01*
X012317Y009421D01*
X012481Y009421D01*
X012481Y009327D02*
X012317Y009327D01*
X012317Y009331D02*
X012481Y009331D01*
X012481Y009335D02*
X012317Y009335D01*
X012317Y009339D02*
X012481Y009339D01*
X012481Y009343D02*
X012317Y009343D01*
X012317Y009347D02*
X012481Y009347D01*
X012481Y009351D02*
X012317Y009351D01*
X012317Y009355D02*
X012481Y009355D01*
X012481Y009359D02*
X012317Y009359D01*
X012317Y009363D02*
X012481Y009363D01*
X012481Y009367D02*
X012317Y009367D01*
X012317Y009371D02*
X012481Y009371D01*
X012481Y009375D02*
X012317Y009375D01*
X012317Y009379D02*
X012481Y009379D01*
X012481Y009383D02*
X012317Y009383D01*
X012317Y009387D02*
X012481Y009387D01*
X012481Y009391D02*
X012317Y009391D01*
X012317Y009395D02*
X012481Y009395D01*
X012481Y009399D02*
X012317Y009399D01*
X012317Y009403D02*
X012481Y009403D01*
X012481Y009407D02*
X012317Y009407D01*
X012317Y009411D02*
X012481Y009411D01*
X012481Y009415D02*
X012317Y009415D01*
X012317Y009419D02*
X012481Y009419D01*
X012481Y009481D02*
X012481Y009579D01*
X012481Y009481D02*
X012317Y009481D01*
X012317Y009579D01*
X012481Y009579D01*
X012481Y009485D02*
X012317Y009485D01*
X012317Y009489D02*
X012481Y009489D01*
X012481Y009493D02*
X012317Y009493D01*
X012317Y009497D02*
X012481Y009497D01*
X012481Y009501D02*
X012317Y009501D01*
X012317Y009505D02*
X012481Y009505D01*
X012481Y009509D02*
X012317Y009509D01*
X012317Y009513D02*
X012481Y009513D01*
X012481Y009517D02*
X012317Y009517D01*
X012317Y009521D02*
X012481Y009521D01*
X012481Y009525D02*
X012317Y009525D01*
X012317Y009529D02*
X012481Y009529D01*
X012481Y009533D02*
X012317Y009533D01*
X012317Y009537D02*
X012481Y009537D01*
X012481Y009541D02*
X012317Y009541D01*
X012317Y009545D02*
X012481Y009545D01*
X012481Y009549D02*
X012317Y009549D01*
X012317Y009553D02*
X012481Y009553D01*
X012481Y009557D02*
X012317Y009557D01*
X012317Y009561D02*
X012481Y009561D01*
X012481Y009565D02*
X012317Y009565D01*
X012317Y009569D02*
X012481Y009569D01*
X012481Y009573D02*
X012317Y009573D01*
X012317Y009577D02*
X012481Y009577D01*
X012481Y009638D02*
X012481Y009736D01*
X012481Y009638D02*
X012317Y009638D01*
X012317Y009736D01*
X012481Y009736D01*
X012481Y009642D02*
X012317Y009642D01*
X012317Y009646D02*
X012481Y009646D01*
X012481Y009650D02*
X012317Y009650D01*
X012317Y009654D02*
X012481Y009654D01*
X012481Y009658D02*
X012317Y009658D01*
X012317Y009662D02*
X012481Y009662D01*
X012481Y009666D02*
X012317Y009666D01*
X012317Y009670D02*
X012481Y009670D01*
X012481Y009674D02*
X012317Y009674D01*
X012317Y009678D02*
X012481Y009678D01*
X012481Y009682D02*
X012317Y009682D01*
X012317Y009686D02*
X012481Y009686D01*
X012481Y009690D02*
X012317Y009690D01*
X012317Y009694D02*
X012481Y009694D01*
X012481Y009698D02*
X012317Y009698D01*
X012317Y009702D02*
X012481Y009702D01*
X012481Y009706D02*
X012317Y009706D01*
X012317Y009710D02*
X012481Y009710D01*
X012481Y009714D02*
X012317Y009714D01*
X012317Y009718D02*
X012481Y009718D01*
X012481Y009722D02*
X012317Y009722D01*
X012317Y009726D02*
X012481Y009726D01*
X012481Y009730D02*
X012317Y009730D01*
X012317Y009734D02*
X012481Y009734D01*
X012894Y009736D02*
X012894Y009638D01*
X012730Y009638D01*
X012730Y009736D01*
X012894Y009736D01*
X012894Y009642D02*
X012730Y009642D01*
X012730Y009646D02*
X012894Y009646D01*
X012894Y009650D02*
X012730Y009650D01*
X012730Y009654D02*
X012894Y009654D01*
X012894Y009658D02*
X012730Y009658D01*
X012730Y009662D02*
X012894Y009662D01*
X012894Y009666D02*
X012730Y009666D01*
X012730Y009670D02*
X012894Y009670D01*
X012894Y009674D02*
X012730Y009674D01*
X012730Y009678D02*
X012894Y009678D01*
X012894Y009682D02*
X012730Y009682D01*
X012730Y009686D02*
X012894Y009686D01*
X012894Y009690D02*
X012730Y009690D01*
X012730Y009694D02*
X012894Y009694D01*
X012894Y009698D02*
X012730Y009698D01*
X012730Y009702D02*
X012894Y009702D01*
X012894Y009706D02*
X012730Y009706D01*
X012730Y009710D02*
X012894Y009710D01*
X012894Y009714D02*
X012730Y009714D01*
X012730Y009718D02*
X012894Y009718D01*
X012894Y009722D02*
X012730Y009722D01*
X012730Y009726D02*
X012894Y009726D01*
X012894Y009730D02*
X012730Y009730D01*
X012730Y009734D02*
X012894Y009734D01*
X012894Y009579D02*
X012894Y009481D01*
X012730Y009481D01*
X012730Y009579D01*
X012894Y009579D01*
X012894Y009485D02*
X012730Y009485D01*
X012730Y009489D02*
X012894Y009489D01*
X012894Y009493D02*
X012730Y009493D01*
X012730Y009497D02*
X012894Y009497D01*
X012894Y009501D02*
X012730Y009501D01*
X012730Y009505D02*
X012894Y009505D01*
X012894Y009509D02*
X012730Y009509D01*
X012730Y009513D02*
X012894Y009513D01*
X012894Y009517D02*
X012730Y009517D01*
X012730Y009521D02*
X012894Y009521D01*
X012894Y009525D02*
X012730Y009525D01*
X012730Y009529D02*
X012894Y009529D01*
X012894Y009533D02*
X012730Y009533D01*
X012730Y009537D02*
X012894Y009537D01*
X012894Y009541D02*
X012730Y009541D01*
X012730Y009545D02*
X012894Y009545D01*
X012894Y009549D02*
X012730Y009549D01*
X012730Y009553D02*
X012894Y009553D01*
X012894Y009557D02*
X012730Y009557D01*
X012730Y009561D02*
X012894Y009561D01*
X012894Y009565D02*
X012730Y009565D01*
X012730Y009569D02*
X012894Y009569D01*
X012894Y009573D02*
X012730Y009573D01*
X012730Y009577D02*
X012894Y009577D01*
X012894Y009421D02*
X012894Y009323D01*
X012730Y009323D01*
X012730Y009421D01*
X012894Y009421D01*
X012894Y009327D02*
X012730Y009327D01*
X012730Y009331D02*
X012894Y009331D01*
X012894Y009335D02*
X012730Y009335D01*
X012730Y009339D02*
X012894Y009339D01*
X012894Y009343D02*
X012730Y009343D01*
X012730Y009347D02*
X012894Y009347D01*
X012894Y009351D02*
X012730Y009351D01*
X012730Y009355D02*
X012894Y009355D01*
X012894Y009359D02*
X012730Y009359D01*
X012730Y009363D02*
X012894Y009363D01*
X012894Y009367D02*
X012730Y009367D01*
X012730Y009371D02*
X012894Y009371D01*
X012894Y009375D02*
X012730Y009375D01*
X012730Y009379D02*
X012894Y009379D01*
X012894Y009383D02*
X012730Y009383D01*
X012730Y009387D02*
X012894Y009387D01*
X012894Y009391D02*
X012730Y009391D01*
X012730Y009395D02*
X012894Y009395D01*
X012894Y009399D02*
X012730Y009399D01*
X012730Y009403D02*
X012894Y009403D01*
X012894Y009407D02*
X012730Y009407D01*
X012730Y009411D02*
X012894Y009411D01*
X012894Y009415D02*
X012730Y009415D01*
X012730Y009419D02*
X012894Y009419D01*
D28*
X012677Y009728D02*
X012533Y009728D01*
X012677Y009728D02*
X012677Y009332D01*
X012533Y009332D01*
X012533Y009728D01*
X012533Y009338D02*
X012677Y009338D01*
X012677Y009344D02*
X012533Y009344D01*
X012533Y009350D02*
X012677Y009350D01*
X012677Y009356D02*
X012533Y009356D01*
X012533Y009362D02*
X012677Y009362D01*
X012677Y009368D02*
X012533Y009368D01*
X012533Y009374D02*
X012677Y009374D01*
X012677Y009380D02*
X012533Y009380D01*
X012533Y009386D02*
X012677Y009386D01*
X012677Y009392D02*
X012533Y009392D01*
X012533Y009398D02*
X012677Y009398D01*
X012677Y009404D02*
X012533Y009404D01*
X012533Y009410D02*
X012677Y009410D01*
X012677Y009416D02*
X012533Y009416D01*
X012533Y009422D02*
X012677Y009422D01*
X012677Y009428D02*
X012533Y009428D01*
X012533Y009434D02*
X012677Y009434D01*
X012677Y009440D02*
X012533Y009440D01*
X012533Y009446D02*
X012677Y009446D01*
X012677Y009452D02*
X012533Y009452D01*
X012533Y009458D02*
X012677Y009458D01*
X012677Y009464D02*
X012533Y009464D01*
X012533Y009470D02*
X012677Y009470D01*
X012677Y009476D02*
X012533Y009476D01*
X012533Y009482D02*
X012677Y009482D01*
X012677Y009488D02*
X012533Y009488D01*
X012533Y009494D02*
X012677Y009494D01*
X012677Y009500D02*
X012533Y009500D01*
X012533Y009506D02*
X012677Y009506D01*
X012677Y009512D02*
X012533Y009512D01*
X012533Y009518D02*
X012677Y009518D01*
X012677Y009524D02*
X012533Y009524D01*
X012533Y009530D02*
X012677Y009530D01*
X012677Y009536D02*
X012533Y009536D01*
X012533Y009542D02*
X012677Y009542D01*
X012677Y009548D02*
X012533Y009548D01*
X012533Y009554D02*
X012677Y009554D01*
X012677Y009560D02*
X012533Y009560D01*
X012533Y009566D02*
X012677Y009566D01*
X012677Y009572D02*
X012533Y009572D01*
X012533Y009578D02*
X012677Y009578D01*
X012677Y009584D02*
X012533Y009584D01*
X012533Y009590D02*
X012677Y009590D01*
X012677Y009596D02*
X012533Y009596D01*
X012533Y009602D02*
X012677Y009602D01*
X012677Y009608D02*
X012533Y009608D01*
X012533Y009614D02*
X012677Y009614D01*
X012677Y009620D02*
X012533Y009620D01*
X012533Y009626D02*
X012677Y009626D01*
X012677Y009632D02*
X012533Y009632D01*
X012533Y009638D02*
X012677Y009638D01*
X012677Y009644D02*
X012533Y009644D01*
X012533Y009650D02*
X012677Y009650D01*
X012677Y009656D02*
X012533Y009656D01*
X012533Y009662D02*
X012677Y009662D01*
X012677Y009668D02*
X012533Y009668D01*
X012533Y009674D02*
X012677Y009674D01*
X012677Y009680D02*
X012533Y009680D01*
X012533Y009686D02*
X012677Y009686D01*
X012677Y009692D02*
X012533Y009692D01*
X012533Y009698D02*
X012677Y009698D01*
X012677Y009704D02*
X012533Y009704D01*
X012533Y009710D02*
X012677Y009710D01*
X012677Y009716D02*
X012533Y009716D01*
X012533Y009722D02*
X012677Y009722D01*
X012677Y009728D02*
X012533Y009728D01*
D29*
X011120Y007257D02*
X011020Y007257D01*
X011120Y007257D02*
X011120Y006961D01*
X011020Y006961D01*
X011020Y007257D01*
X011020Y006971D02*
X011120Y006971D01*
X011120Y006981D02*
X011020Y006981D01*
X011020Y006991D02*
X011120Y006991D01*
X011120Y007001D02*
X011020Y007001D01*
X011020Y007011D02*
X011120Y007011D01*
X011120Y007021D02*
X011020Y007021D01*
X011020Y007031D02*
X011120Y007031D01*
X011120Y007041D02*
X011020Y007041D01*
X011020Y007051D02*
X011120Y007051D01*
X011120Y007061D02*
X011020Y007061D01*
X011020Y007071D02*
X011120Y007071D01*
X011120Y007081D02*
X011020Y007081D01*
X011020Y007091D02*
X011120Y007091D01*
X011120Y007101D02*
X011020Y007101D01*
X011020Y007111D02*
X011120Y007111D01*
X011120Y007121D02*
X011020Y007121D01*
X011020Y007131D02*
X011120Y007131D01*
X011120Y007141D02*
X011020Y007141D01*
X011020Y007151D02*
X011120Y007151D01*
X011120Y007161D02*
X011020Y007161D01*
X011020Y007171D02*
X011120Y007171D01*
X011120Y007181D02*
X011020Y007181D01*
X011020Y007191D02*
X011120Y007191D01*
X011120Y007201D02*
X011020Y007201D01*
X011020Y007211D02*
X011120Y007211D01*
X011120Y007221D02*
X011020Y007221D01*
X011020Y007231D02*
X011120Y007231D01*
X011120Y007241D02*
X011020Y007241D01*
X011020Y007251D02*
X011120Y007251D01*
X010962Y007257D02*
X010862Y007257D01*
X010962Y007257D02*
X010962Y006961D01*
X010862Y006961D01*
X010862Y007257D01*
X010862Y006971D02*
X010962Y006971D01*
X010962Y006981D02*
X010862Y006981D01*
X010862Y006991D02*
X010962Y006991D01*
X010962Y007001D02*
X010862Y007001D01*
X010862Y007011D02*
X010962Y007011D01*
X010962Y007021D02*
X010862Y007021D01*
X010862Y007031D02*
X010962Y007031D01*
X010962Y007041D02*
X010862Y007041D01*
X010862Y007051D02*
X010962Y007051D01*
X010962Y007061D02*
X010862Y007061D01*
X010862Y007071D02*
X010962Y007071D01*
X010962Y007081D02*
X010862Y007081D01*
X010862Y007091D02*
X010962Y007091D01*
X010962Y007101D02*
X010862Y007101D01*
X010862Y007111D02*
X010962Y007111D01*
X010962Y007121D02*
X010862Y007121D01*
X010862Y007131D02*
X010962Y007131D01*
X010962Y007141D02*
X010862Y007141D01*
X010862Y007151D02*
X010962Y007151D01*
X010962Y007161D02*
X010862Y007161D01*
X010862Y007171D02*
X010962Y007171D01*
X010962Y007181D02*
X010862Y007181D01*
X010862Y007191D02*
X010962Y007191D01*
X010962Y007201D02*
X010862Y007201D01*
X010862Y007211D02*
X010962Y007211D01*
X010962Y007221D02*
X010862Y007221D01*
X010862Y007231D02*
X010962Y007231D01*
X010962Y007241D02*
X010862Y007241D01*
X010862Y007251D02*
X010962Y007251D01*
X010805Y007257D02*
X010705Y007257D01*
X010805Y007257D02*
X010805Y006961D01*
X010705Y006961D01*
X010705Y007257D01*
X010705Y006971D02*
X010805Y006971D01*
X010805Y006981D02*
X010705Y006981D01*
X010705Y006991D02*
X010805Y006991D01*
X010805Y007001D02*
X010705Y007001D01*
X010705Y007011D02*
X010805Y007011D01*
X010805Y007021D02*
X010705Y007021D01*
X010705Y007031D02*
X010805Y007031D01*
X010805Y007041D02*
X010705Y007041D01*
X010705Y007051D02*
X010805Y007051D01*
X010805Y007061D02*
X010705Y007061D01*
X010705Y007071D02*
X010805Y007071D01*
X010805Y007081D02*
X010705Y007081D01*
X010705Y007091D02*
X010805Y007091D01*
X010805Y007101D02*
X010705Y007101D01*
X010705Y007111D02*
X010805Y007111D01*
X010805Y007121D02*
X010705Y007121D01*
X010705Y007131D02*
X010805Y007131D01*
X010805Y007141D02*
X010705Y007141D01*
X010705Y007151D02*
X010805Y007151D01*
X010805Y007161D02*
X010705Y007161D01*
X010705Y007171D02*
X010805Y007171D01*
X010805Y007181D02*
X010705Y007181D01*
X010705Y007191D02*
X010805Y007191D01*
X010805Y007201D02*
X010705Y007201D01*
X010705Y007211D02*
X010805Y007211D01*
X010805Y007221D02*
X010705Y007221D01*
X010705Y007231D02*
X010805Y007231D01*
X010805Y007241D02*
X010705Y007241D01*
X010705Y007251D02*
X010805Y007251D01*
X010647Y007257D02*
X010547Y007257D01*
X010647Y007257D02*
X010647Y006961D01*
X010547Y006961D01*
X010547Y007257D01*
X010547Y006971D02*
X010647Y006971D01*
X010647Y006981D02*
X010547Y006981D01*
X010547Y006991D02*
X010647Y006991D01*
X010647Y007001D02*
X010547Y007001D01*
X010547Y007011D02*
X010647Y007011D01*
X010647Y007021D02*
X010547Y007021D01*
X010547Y007031D02*
X010647Y007031D01*
X010647Y007041D02*
X010547Y007041D01*
X010547Y007051D02*
X010647Y007051D01*
X010647Y007061D02*
X010547Y007061D01*
X010547Y007071D02*
X010647Y007071D01*
X010647Y007081D02*
X010547Y007081D01*
X010547Y007091D02*
X010647Y007091D01*
X010647Y007101D02*
X010547Y007101D01*
X010547Y007111D02*
X010647Y007111D01*
X010647Y007121D02*
X010547Y007121D01*
X010547Y007131D02*
X010647Y007131D01*
X010647Y007141D02*
X010547Y007141D01*
X010547Y007151D02*
X010647Y007151D01*
X010647Y007161D02*
X010547Y007161D01*
X010547Y007171D02*
X010647Y007171D01*
X010647Y007181D02*
X010547Y007181D01*
X010547Y007191D02*
X010647Y007191D01*
X010647Y007201D02*
X010547Y007201D01*
X010547Y007211D02*
X010647Y007211D01*
X010647Y007221D02*
X010547Y007221D01*
X010547Y007231D02*
X010647Y007231D01*
X010647Y007241D02*
X010547Y007241D01*
X010547Y007251D02*
X010647Y007251D01*
X010490Y007257D02*
X010390Y007257D01*
X010490Y007257D02*
X010490Y006961D01*
X010390Y006961D01*
X010390Y007257D01*
X010390Y006971D02*
X010490Y006971D01*
X010490Y006981D02*
X010390Y006981D01*
X010390Y006991D02*
X010490Y006991D01*
X010490Y007001D02*
X010390Y007001D01*
X010390Y007011D02*
X010490Y007011D01*
X010490Y007021D02*
X010390Y007021D01*
X010390Y007031D02*
X010490Y007031D01*
X010490Y007041D02*
X010390Y007041D01*
X010390Y007051D02*
X010490Y007051D01*
X010490Y007061D02*
X010390Y007061D01*
X010390Y007071D02*
X010490Y007071D01*
X010490Y007081D02*
X010390Y007081D01*
X010390Y007091D02*
X010490Y007091D01*
X010490Y007101D02*
X010390Y007101D01*
X010390Y007111D02*
X010490Y007111D01*
X010490Y007121D02*
X010390Y007121D01*
X010390Y007131D02*
X010490Y007131D01*
X010490Y007141D02*
X010390Y007141D01*
X010390Y007151D02*
X010490Y007151D01*
X010490Y007161D02*
X010390Y007161D01*
X010390Y007171D02*
X010490Y007171D01*
X010490Y007181D02*
X010390Y007181D01*
X010390Y007191D02*
X010490Y007191D01*
X010490Y007201D02*
X010390Y007201D01*
X010390Y007211D02*
X010490Y007211D01*
X010490Y007221D02*
X010390Y007221D01*
X010390Y007231D02*
X010490Y007231D01*
X010490Y007241D02*
X010390Y007241D01*
X010390Y007251D02*
X010490Y007251D01*
X010332Y007257D02*
X010232Y007257D01*
X010332Y007257D02*
X010332Y006961D01*
X010232Y006961D01*
X010232Y007257D01*
X010232Y006971D02*
X010332Y006971D01*
X010332Y006981D02*
X010232Y006981D01*
X010232Y006991D02*
X010332Y006991D01*
X010332Y007001D02*
X010232Y007001D01*
X010232Y007011D02*
X010332Y007011D01*
X010332Y007021D02*
X010232Y007021D01*
X010232Y007031D02*
X010332Y007031D01*
X010332Y007041D02*
X010232Y007041D01*
X010232Y007051D02*
X010332Y007051D01*
X010332Y007061D02*
X010232Y007061D01*
X010232Y007071D02*
X010332Y007071D01*
X010332Y007081D02*
X010232Y007081D01*
X010232Y007091D02*
X010332Y007091D01*
X010332Y007101D02*
X010232Y007101D01*
X010232Y007111D02*
X010332Y007111D01*
X010332Y007121D02*
X010232Y007121D01*
X010232Y007131D02*
X010332Y007131D01*
X010332Y007141D02*
X010232Y007141D01*
X010232Y007151D02*
X010332Y007151D01*
X010332Y007161D02*
X010232Y007161D01*
X010232Y007171D02*
X010332Y007171D01*
X010332Y007181D02*
X010232Y007181D01*
X010232Y007191D02*
X010332Y007191D01*
X010332Y007201D02*
X010232Y007201D01*
X010232Y007211D02*
X010332Y007211D01*
X010332Y007221D02*
X010232Y007221D01*
X010232Y007231D02*
X010332Y007231D01*
X010332Y007241D02*
X010232Y007241D01*
X010232Y007251D02*
X010332Y007251D01*
X010175Y007257D02*
X010075Y007257D01*
X010175Y007257D02*
X010175Y006961D01*
X010075Y006961D01*
X010075Y007257D01*
X010075Y006971D02*
X010175Y006971D01*
X010175Y006981D02*
X010075Y006981D01*
X010075Y006991D02*
X010175Y006991D01*
X010175Y007001D02*
X010075Y007001D01*
X010075Y007011D02*
X010175Y007011D01*
X010175Y007021D02*
X010075Y007021D01*
X010075Y007031D02*
X010175Y007031D01*
X010175Y007041D02*
X010075Y007041D01*
X010075Y007051D02*
X010175Y007051D01*
X010175Y007061D02*
X010075Y007061D01*
X010075Y007071D02*
X010175Y007071D01*
X010175Y007081D02*
X010075Y007081D01*
X010075Y007091D02*
X010175Y007091D01*
X010175Y007101D02*
X010075Y007101D01*
X010075Y007111D02*
X010175Y007111D01*
X010175Y007121D02*
X010075Y007121D01*
X010075Y007131D02*
X010175Y007131D01*
X010175Y007141D02*
X010075Y007141D01*
X010075Y007151D02*
X010175Y007151D01*
X010175Y007161D02*
X010075Y007161D01*
X010075Y007171D02*
X010175Y007171D01*
X010175Y007181D02*
X010075Y007181D01*
X010075Y007191D02*
X010175Y007191D01*
X010175Y007201D02*
X010075Y007201D01*
X010075Y007211D02*
X010175Y007211D01*
X010175Y007221D02*
X010075Y007221D01*
X010075Y007231D02*
X010175Y007231D01*
X010175Y007241D02*
X010075Y007241D01*
X010075Y007251D02*
X010175Y007251D01*
X010018Y007257D02*
X009918Y007257D01*
X010018Y007257D02*
X010018Y006961D01*
X009918Y006961D01*
X009918Y007257D01*
X009918Y006971D02*
X010018Y006971D01*
X010018Y006981D02*
X009918Y006981D01*
X009918Y006991D02*
X010018Y006991D01*
X010018Y007001D02*
X009918Y007001D01*
X009918Y007011D02*
X010018Y007011D01*
X010018Y007021D02*
X009918Y007021D01*
X009918Y007031D02*
X010018Y007031D01*
X010018Y007041D02*
X009918Y007041D01*
X009918Y007051D02*
X010018Y007051D01*
X010018Y007061D02*
X009918Y007061D01*
X009918Y007071D02*
X010018Y007071D01*
X010018Y007081D02*
X009918Y007081D01*
X009918Y007091D02*
X010018Y007091D01*
X010018Y007101D02*
X009918Y007101D01*
X009918Y007111D02*
X010018Y007111D01*
X010018Y007121D02*
X009918Y007121D01*
X009918Y007131D02*
X010018Y007131D01*
X010018Y007141D02*
X009918Y007141D01*
X009918Y007151D02*
X010018Y007151D01*
X010018Y007161D02*
X009918Y007161D01*
X009918Y007171D02*
X010018Y007171D01*
X010018Y007181D02*
X009918Y007181D01*
X009918Y007191D02*
X010018Y007191D01*
X010018Y007201D02*
X009918Y007201D01*
X009918Y007211D02*
X010018Y007211D01*
X010018Y007221D02*
X009918Y007221D01*
X009918Y007231D02*
X010018Y007231D01*
X010018Y007241D02*
X009918Y007241D01*
X009918Y007251D02*
X010018Y007251D01*
X009860Y007257D02*
X009760Y007257D01*
X009860Y007257D02*
X009860Y006961D01*
X009760Y006961D01*
X009760Y007257D01*
X009760Y006971D02*
X009860Y006971D01*
X009860Y006981D02*
X009760Y006981D01*
X009760Y006991D02*
X009860Y006991D01*
X009860Y007001D02*
X009760Y007001D01*
X009760Y007011D02*
X009860Y007011D01*
X009860Y007021D02*
X009760Y007021D01*
X009760Y007031D02*
X009860Y007031D01*
X009860Y007041D02*
X009760Y007041D01*
X009760Y007051D02*
X009860Y007051D01*
X009860Y007061D02*
X009760Y007061D01*
X009760Y007071D02*
X009860Y007071D01*
X009860Y007081D02*
X009760Y007081D01*
X009760Y007091D02*
X009860Y007091D01*
X009860Y007101D02*
X009760Y007101D01*
X009760Y007111D02*
X009860Y007111D01*
X009860Y007121D02*
X009760Y007121D01*
X009760Y007131D02*
X009860Y007131D01*
X009860Y007141D02*
X009760Y007141D01*
X009760Y007151D02*
X009860Y007151D01*
X009860Y007161D02*
X009760Y007161D01*
X009760Y007171D02*
X009860Y007171D01*
X009860Y007181D02*
X009760Y007181D01*
X009760Y007191D02*
X009860Y007191D01*
X009860Y007201D02*
X009760Y007201D01*
X009760Y007211D02*
X009860Y007211D01*
X009860Y007221D02*
X009760Y007221D01*
X009760Y007231D02*
X009860Y007231D01*
X009860Y007241D02*
X009760Y007241D01*
X009760Y007251D02*
X009860Y007251D01*
X009703Y007257D02*
X009603Y007257D01*
X009703Y007257D02*
X009703Y006961D01*
X009603Y006961D01*
X009603Y007257D01*
X009603Y006971D02*
X009703Y006971D01*
X009703Y006981D02*
X009603Y006981D01*
X009603Y006991D02*
X009703Y006991D01*
X009703Y007001D02*
X009603Y007001D01*
X009603Y007011D02*
X009703Y007011D01*
X009703Y007021D02*
X009603Y007021D01*
X009603Y007031D02*
X009703Y007031D01*
X009703Y007041D02*
X009603Y007041D01*
X009603Y007051D02*
X009703Y007051D01*
X009703Y007061D02*
X009603Y007061D01*
X009603Y007071D02*
X009703Y007071D01*
X009703Y007081D02*
X009603Y007081D01*
X009603Y007091D02*
X009703Y007091D01*
X009703Y007101D02*
X009603Y007101D01*
X009603Y007111D02*
X009703Y007111D01*
X009703Y007121D02*
X009603Y007121D01*
X009603Y007131D02*
X009703Y007131D01*
X009703Y007141D02*
X009603Y007141D01*
X009603Y007151D02*
X009703Y007151D01*
X009703Y007161D02*
X009603Y007161D01*
X009603Y007171D02*
X009703Y007171D01*
X009703Y007181D02*
X009603Y007181D01*
X009603Y007191D02*
X009703Y007191D01*
X009703Y007201D02*
X009603Y007201D01*
X009603Y007211D02*
X009703Y007211D01*
X009703Y007221D02*
X009603Y007221D01*
X009603Y007231D02*
X009703Y007231D01*
X009703Y007241D02*
X009603Y007241D01*
X009603Y007251D02*
X009703Y007251D01*
X009545Y007257D02*
X009445Y007257D01*
X009545Y007257D02*
X009545Y006961D01*
X009445Y006961D01*
X009445Y007257D01*
X009445Y006971D02*
X009545Y006971D01*
X009545Y006981D02*
X009445Y006981D01*
X009445Y006991D02*
X009545Y006991D01*
X009545Y007001D02*
X009445Y007001D01*
X009445Y007011D02*
X009545Y007011D01*
X009545Y007021D02*
X009445Y007021D01*
X009445Y007031D02*
X009545Y007031D01*
X009545Y007041D02*
X009445Y007041D01*
X009445Y007051D02*
X009545Y007051D01*
X009545Y007061D02*
X009445Y007061D01*
X009445Y007071D02*
X009545Y007071D01*
X009545Y007081D02*
X009445Y007081D01*
X009445Y007091D02*
X009545Y007091D01*
X009545Y007101D02*
X009445Y007101D01*
X009445Y007111D02*
X009545Y007111D01*
X009545Y007121D02*
X009445Y007121D01*
X009445Y007131D02*
X009545Y007131D01*
X009545Y007141D02*
X009445Y007141D01*
X009445Y007151D02*
X009545Y007151D01*
X009545Y007161D02*
X009445Y007161D01*
X009445Y007171D02*
X009545Y007171D01*
X009545Y007181D02*
X009445Y007181D01*
X009445Y007191D02*
X009545Y007191D01*
X009545Y007201D02*
X009445Y007201D01*
X009445Y007211D02*
X009545Y007211D01*
X009545Y007221D02*
X009445Y007221D01*
X009445Y007231D02*
X009545Y007231D01*
X009545Y007241D02*
X009445Y007241D01*
X009445Y007251D02*
X009545Y007251D01*
X009388Y007257D02*
X009288Y007257D01*
X009388Y007257D02*
X009388Y006961D01*
X009288Y006961D01*
X009288Y007257D01*
X009288Y006971D02*
X009388Y006971D01*
X009388Y006981D02*
X009288Y006981D01*
X009288Y006991D02*
X009388Y006991D01*
X009388Y007001D02*
X009288Y007001D01*
X009288Y007011D02*
X009388Y007011D01*
X009388Y007021D02*
X009288Y007021D01*
X009288Y007031D02*
X009388Y007031D01*
X009388Y007041D02*
X009288Y007041D01*
X009288Y007051D02*
X009388Y007051D01*
X009388Y007061D02*
X009288Y007061D01*
X009288Y007071D02*
X009388Y007071D01*
X009388Y007081D02*
X009288Y007081D01*
X009288Y007091D02*
X009388Y007091D01*
X009388Y007101D02*
X009288Y007101D01*
X009288Y007111D02*
X009388Y007111D01*
X009388Y007121D02*
X009288Y007121D01*
X009288Y007131D02*
X009388Y007131D01*
X009388Y007141D02*
X009288Y007141D01*
X009288Y007151D02*
X009388Y007151D01*
X009388Y007161D02*
X009288Y007161D01*
X009288Y007171D02*
X009388Y007171D01*
X009388Y007181D02*
X009288Y007181D01*
X009288Y007191D02*
X009388Y007191D01*
X009388Y007201D02*
X009288Y007201D01*
X009288Y007211D02*
X009388Y007211D01*
X009388Y007221D02*
X009288Y007221D01*
X009288Y007231D02*
X009388Y007231D01*
X009388Y007241D02*
X009288Y007241D01*
X009288Y007251D02*
X009388Y007251D01*
X009230Y007257D02*
X009130Y007257D01*
X009230Y007257D02*
X009230Y006961D01*
X009130Y006961D01*
X009130Y007257D01*
X009130Y006971D02*
X009230Y006971D01*
X009230Y006981D02*
X009130Y006981D01*
X009130Y006991D02*
X009230Y006991D01*
X009230Y007001D02*
X009130Y007001D01*
X009130Y007011D02*
X009230Y007011D01*
X009230Y007021D02*
X009130Y007021D01*
X009130Y007031D02*
X009230Y007031D01*
X009230Y007041D02*
X009130Y007041D01*
X009130Y007051D02*
X009230Y007051D01*
X009230Y007061D02*
X009130Y007061D01*
X009130Y007071D02*
X009230Y007071D01*
X009230Y007081D02*
X009130Y007081D01*
X009130Y007091D02*
X009230Y007091D01*
X009230Y007101D02*
X009130Y007101D01*
X009130Y007111D02*
X009230Y007111D01*
X009230Y007121D02*
X009130Y007121D01*
X009130Y007131D02*
X009230Y007131D01*
X009230Y007141D02*
X009130Y007141D01*
X009130Y007151D02*
X009230Y007151D01*
X009230Y007161D02*
X009130Y007161D01*
X009130Y007171D02*
X009230Y007171D01*
X009230Y007181D02*
X009130Y007181D01*
X009130Y007191D02*
X009230Y007191D01*
X009230Y007201D02*
X009130Y007201D01*
X009130Y007211D02*
X009230Y007211D01*
X009230Y007221D02*
X009130Y007221D01*
X009130Y007231D02*
X009230Y007231D01*
X009230Y007241D02*
X009130Y007241D01*
X009130Y007251D02*
X009230Y007251D01*
X009073Y007257D02*
X008973Y007257D01*
X009073Y007257D02*
X009073Y006961D01*
X008973Y006961D01*
X008973Y007257D01*
X008973Y006971D02*
X009073Y006971D01*
X009073Y006981D02*
X008973Y006981D01*
X008973Y006991D02*
X009073Y006991D01*
X009073Y007001D02*
X008973Y007001D01*
X008973Y007011D02*
X009073Y007011D01*
X009073Y007021D02*
X008973Y007021D01*
X008973Y007031D02*
X009073Y007031D01*
X009073Y007041D02*
X008973Y007041D01*
X008973Y007051D02*
X009073Y007051D01*
X009073Y007061D02*
X008973Y007061D01*
X008973Y007071D02*
X009073Y007071D01*
X009073Y007081D02*
X008973Y007081D01*
X008973Y007091D02*
X009073Y007091D01*
X009073Y007101D02*
X008973Y007101D01*
X008973Y007111D02*
X009073Y007111D01*
X009073Y007121D02*
X008973Y007121D01*
X008973Y007131D02*
X009073Y007131D01*
X009073Y007141D02*
X008973Y007141D01*
X008973Y007151D02*
X009073Y007151D01*
X009073Y007161D02*
X008973Y007161D01*
X008973Y007171D02*
X009073Y007171D01*
X009073Y007181D02*
X008973Y007181D01*
X008973Y007191D02*
X009073Y007191D01*
X009073Y007201D02*
X008973Y007201D01*
X008973Y007211D02*
X009073Y007211D01*
X009073Y007221D02*
X008973Y007221D01*
X008973Y007231D02*
X009073Y007231D01*
X009073Y007241D02*
X008973Y007241D01*
X008973Y007251D02*
X009073Y007251D01*
X008915Y007257D02*
X008815Y007257D01*
X008915Y007257D02*
X008915Y006961D01*
X008815Y006961D01*
X008815Y007257D01*
X008815Y006971D02*
X008915Y006971D01*
X008915Y006981D02*
X008815Y006981D01*
X008815Y006991D02*
X008915Y006991D01*
X008915Y007001D02*
X008815Y007001D01*
X008815Y007011D02*
X008915Y007011D01*
X008915Y007021D02*
X008815Y007021D01*
X008815Y007031D02*
X008915Y007031D01*
X008915Y007041D02*
X008815Y007041D01*
X008815Y007051D02*
X008915Y007051D01*
X008915Y007061D02*
X008815Y007061D01*
X008815Y007071D02*
X008915Y007071D01*
X008915Y007081D02*
X008815Y007081D01*
X008815Y007091D02*
X008915Y007091D01*
X008915Y007101D02*
X008815Y007101D01*
X008815Y007111D02*
X008915Y007111D01*
X008915Y007121D02*
X008815Y007121D01*
X008815Y007131D02*
X008915Y007131D01*
X008915Y007141D02*
X008815Y007141D01*
X008815Y007151D02*
X008915Y007151D01*
X008915Y007161D02*
X008815Y007161D01*
X008815Y007171D02*
X008915Y007171D01*
X008915Y007181D02*
X008815Y007181D01*
X008815Y007191D02*
X008915Y007191D01*
X008915Y007201D02*
X008815Y007201D01*
X008815Y007211D02*
X008915Y007211D01*
X008915Y007221D02*
X008815Y007221D01*
X008815Y007231D02*
X008915Y007231D01*
X008915Y007241D02*
X008815Y007241D01*
X008815Y007251D02*
X008915Y007251D01*
X008758Y007257D02*
X008658Y007257D01*
X008758Y007257D02*
X008758Y006961D01*
X008658Y006961D01*
X008658Y007257D01*
X008658Y006971D02*
X008758Y006971D01*
X008758Y006981D02*
X008658Y006981D01*
X008658Y006991D02*
X008758Y006991D01*
X008758Y007001D02*
X008658Y007001D01*
X008658Y007011D02*
X008758Y007011D01*
X008758Y007021D02*
X008658Y007021D01*
X008658Y007031D02*
X008758Y007031D01*
X008758Y007041D02*
X008658Y007041D01*
X008658Y007051D02*
X008758Y007051D01*
X008758Y007061D02*
X008658Y007061D01*
X008658Y007071D02*
X008758Y007071D01*
X008758Y007081D02*
X008658Y007081D01*
X008658Y007091D02*
X008758Y007091D01*
X008758Y007101D02*
X008658Y007101D01*
X008658Y007111D02*
X008758Y007111D01*
X008758Y007121D02*
X008658Y007121D01*
X008658Y007131D02*
X008758Y007131D01*
X008758Y007141D02*
X008658Y007141D01*
X008658Y007151D02*
X008758Y007151D01*
X008758Y007161D02*
X008658Y007161D01*
X008658Y007171D02*
X008758Y007171D01*
X008758Y007181D02*
X008658Y007181D01*
X008658Y007191D02*
X008758Y007191D01*
X008758Y007201D02*
X008658Y007201D01*
X008658Y007211D02*
X008758Y007211D01*
X008758Y007221D02*
X008658Y007221D01*
X008658Y007231D02*
X008758Y007231D01*
X008758Y007241D02*
X008658Y007241D01*
X008658Y007251D02*
X008758Y007251D01*
X008600Y007257D02*
X008500Y007257D01*
X008600Y007257D02*
X008600Y006961D01*
X008500Y006961D01*
X008500Y007257D01*
X008500Y006971D02*
X008600Y006971D01*
X008600Y006981D02*
X008500Y006981D01*
X008500Y006991D02*
X008600Y006991D01*
X008600Y007001D02*
X008500Y007001D01*
X008500Y007011D02*
X008600Y007011D01*
X008600Y007021D02*
X008500Y007021D01*
X008500Y007031D02*
X008600Y007031D01*
X008600Y007041D02*
X008500Y007041D01*
X008500Y007051D02*
X008600Y007051D01*
X008600Y007061D02*
X008500Y007061D01*
X008500Y007071D02*
X008600Y007071D01*
X008600Y007081D02*
X008500Y007081D01*
X008500Y007091D02*
X008600Y007091D01*
X008600Y007101D02*
X008500Y007101D01*
X008500Y007111D02*
X008600Y007111D01*
X008600Y007121D02*
X008500Y007121D01*
X008500Y007131D02*
X008600Y007131D01*
X008600Y007141D02*
X008500Y007141D01*
X008500Y007151D02*
X008600Y007151D01*
X008600Y007161D02*
X008500Y007161D01*
X008500Y007171D02*
X008600Y007171D01*
X008600Y007181D02*
X008500Y007181D01*
X008500Y007191D02*
X008600Y007191D01*
X008600Y007201D02*
X008500Y007201D01*
X008500Y007211D02*
X008600Y007211D01*
X008600Y007221D02*
X008500Y007221D01*
X008500Y007231D02*
X008600Y007231D01*
X008600Y007241D02*
X008500Y007241D01*
X008500Y007251D02*
X008600Y007251D01*
X008403Y006763D02*
X008107Y006763D01*
X008107Y006863D01*
X008403Y006863D01*
X008403Y006763D01*
X008403Y006773D02*
X008107Y006773D01*
X008107Y006783D02*
X008403Y006783D01*
X008403Y006793D02*
X008107Y006793D01*
X008107Y006803D02*
X008403Y006803D01*
X008403Y006813D02*
X008107Y006813D01*
X008107Y006823D02*
X008403Y006823D01*
X008403Y006833D02*
X008107Y006833D01*
X008107Y006843D02*
X008403Y006843D01*
X008403Y006853D02*
X008107Y006853D01*
X008107Y006863D02*
X008403Y006863D01*
X008403Y006606D02*
X008107Y006606D01*
X008107Y006706D01*
X008403Y006706D01*
X008403Y006606D01*
X008403Y006616D02*
X008107Y006616D01*
X008107Y006626D02*
X008403Y006626D01*
X008403Y006636D02*
X008107Y006636D01*
X008107Y006646D02*
X008403Y006646D01*
X008403Y006656D02*
X008107Y006656D01*
X008107Y006666D02*
X008403Y006666D01*
X008403Y006676D02*
X008107Y006676D01*
X008107Y006686D02*
X008403Y006686D01*
X008403Y006696D02*
X008107Y006696D01*
X008107Y006706D02*
X008403Y006706D01*
X008403Y006448D02*
X008107Y006448D01*
X008107Y006548D01*
X008403Y006548D01*
X008403Y006448D01*
X008403Y006458D02*
X008107Y006458D01*
X008107Y006468D02*
X008403Y006468D01*
X008403Y006478D02*
X008107Y006478D01*
X008107Y006488D02*
X008403Y006488D01*
X008403Y006498D02*
X008107Y006498D01*
X008107Y006508D02*
X008403Y006508D01*
X008403Y006518D02*
X008107Y006518D01*
X008107Y006528D02*
X008403Y006528D01*
X008403Y006538D02*
X008107Y006538D01*
X008107Y006548D02*
X008403Y006548D01*
X008403Y006291D02*
X008107Y006291D01*
X008107Y006391D01*
X008403Y006391D01*
X008403Y006291D01*
X008403Y006301D02*
X008107Y006301D01*
X008107Y006311D02*
X008403Y006311D01*
X008403Y006321D02*
X008107Y006321D01*
X008107Y006331D02*
X008403Y006331D01*
X008403Y006341D02*
X008107Y006341D01*
X008107Y006351D02*
X008403Y006351D01*
X008403Y006361D02*
X008107Y006361D01*
X008107Y006371D02*
X008403Y006371D01*
X008403Y006381D02*
X008107Y006381D01*
X008107Y006391D02*
X008403Y006391D01*
X008403Y006133D02*
X008107Y006133D01*
X008107Y006233D01*
X008403Y006233D01*
X008403Y006133D01*
X008403Y006143D02*
X008107Y006143D01*
X008107Y006153D02*
X008403Y006153D01*
X008403Y006163D02*
X008107Y006163D01*
X008107Y006173D02*
X008403Y006173D01*
X008403Y006183D02*
X008107Y006183D01*
X008107Y006193D02*
X008403Y006193D01*
X008403Y006203D02*
X008107Y006203D01*
X008107Y006213D02*
X008403Y006213D01*
X008403Y006223D02*
X008107Y006223D01*
X008107Y006233D02*
X008403Y006233D01*
X008403Y005976D02*
X008107Y005976D01*
X008107Y006076D01*
X008403Y006076D01*
X008403Y005976D01*
X008403Y005986D02*
X008107Y005986D01*
X008107Y005996D02*
X008403Y005996D01*
X008403Y006006D02*
X008107Y006006D01*
X008107Y006016D02*
X008403Y006016D01*
X008403Y006026D02*
X008107Y006026D01*
X008107Y006036D02*
X008403Y006036D01*
X008403Y006046D02*
X008107Y006046D01*
X008107Y006056D02*
X008403Y006056D01*
X008403Y006066D02*
X008107Y006066D01*
X008107Y006076D02*
X008403Y006076D01*
X008403Y005818D02*
X008107Y005818D01*
X008107Y005918D01*
X008403Y005918D01*
X008403Y005818D01*
X008403Y005828D02*
X008107Y005828D01*
X008107Y005838D02*
X008403Y005838D01*
X008403Y005848D02*
X008107Y005848D01*
X008107Y005858D02*
X008403Y005858D01*
X008403Y005868D02*
X008107Y005868D01*
X008107Y005878D02*
X008403Y005878D01*
X008403Y005888D02*
X008107Y005888D01*
X008107Y005898D02*
X008403Y005898D01*
X008403Y005908D02*
X008107Y005908D01*
X008107Y005918D02*
X008403Y005918D01*
X008403Y005661D02*
X008107Y005661D01*
X008107Y005761D01*
X008403Y005761D01*
X008403Y005661D01*
X008403Y005671D02*
X008107Y005671D01*
X008107Y005681D02*
X008403Y005681D01*
X008403Y005691D02*
X008107Y005691D01*
X008107Y005701D02*
X008403Y005701D01*
X008403Y005711D02*
X008107Y005711D01*
X008107Y005721D02*
X008403Y005721D01*
X008403Y005731D02*
X008107Y005731D01*
X008107Y005741D02*
X008403Y005741D01*
X008403Y005751D02*
X008107Y005751D01*
X008107Y005761D02*
X008403Y005761D01*
X008403Y005503D02*
X008107Y005503D01*
X008107Y005603D01*
X008403Y005603D01*
X008403Y005503D01*
X008403Y005513D02*
X008107Y005513D01*
X008107Y005523D02*
X008403Y005523D01*
X008403Y005533D02*
X008107Y005533D01*
X008107Y005543D02*
X008403Y005543D01*
X008403Y005553D02*
X008107Y005553D01*
X008107Y005563D02*
X008403Y005563D01*
X008403Y005573D02*
X008107Y005573D01*
X008107Y005583D02*
X008403Y005583D01*
X008403Y005593D02*
X008107Y005593D01*
X008107Y005603D02*
X008403Y005603D01*
X008403Y005346D02*
X008107Y005346D01*
X008107Y005446D01*
X008403Y005446D01*
X008403Y005346D01*
X008403Y005356D02*
X008107Y005356D01*
X008107Y005366D02*
X008403Y005366D01*
X008403Y005376D02*
X008107Y005376D01*
X008107Y005386D02*
X008403Y005386D01*
X008403Y005396D02*
X008107Y005396D01*
X008107Y005406D02*
X008403Y005406D01*
X008403Y005416D02*
X008107Y005416D01*
X008107Y005426D02*
X008403Y005426D01*
X008403Y005436D02*
X008107Y005436D01*
X008107Y005446D02*
X008403Y005446D01*
X008403Y005188D02*
X008107Y005188D01*
X008107Y005288D01*
X008403Y005288D01*
X008403Y005188D01*
X008403Y005198D02*
X008107Y005198D01*
X008107Y005208D02*
X008403Y005208D01*
X008403Y005218D02*
X008107Y005218D01*
X008107Y005228D02*
X008403Y005228D01*
X008403Y005238D02*
X008107Y005238D01*
X008107Y005248D02*
X008403Y005248D01*
X008403Y005258D02*
X008107Y005258D01*
X008107Y005268D02*
X008403Y005268D01*
X008403Y005278D02*
X008107Y005278D01*
X008107Y005288D02*
X008403Y005288D01*
X008403Y005031D02*
X008107Y005031D01*
X008107Y005131D01*
X008403Y005131D01*
X008403Y005031D01*
X008403Y005041D02*
X008107Y005041D01*
X008107Y005051D02*
X008403Y005051D01*
X008403Y005061D02*
X008107Y005061D01*
X008107Y005071D02*
X008403Y005071D01*
X008403Y005081D02*
X008107Y005081D01*
X008107Y005091D02*
X008403Y005091D01*
X008403Y005101D02*
X008107Y005101D01*
X008107Y005111D02*
X008403Y005111D01*
X008403Y005121D02*
X008107Y005121D01*
X008107Y005131D02*
X008403Y005131D01*
X008403Y004873D02*
X008107Y004873D01*
X008107Y004973D01*
X008403Y004973D01*
X008403Y004873D01*
X008403Y004883D02*
X008107Y004883D01*
X008107Y004893D02*
X008403Y004893D01*
X008403Y004903D02*
X008107Y004903D01*
X008107Y004913D02*
X008403Y004913D01*
X008403Y004923D02*
X008107Y004923D01*
X008107Y004933D02*
X008403Y004933D01*
X008403Y004943D02*
X008107Y004943D01*
X008107Y004953D02*
X008403Y004953D01*
X008403Y004963D02*
X008107Y004963D01*
X008107Y004973D02*
X008403Y004973D01*
X008403Y004716D02*
X008107Y004716D01*
X008107Y004816D01*
X008403Y004816D01*
X008403Y004716D01*
X008403Y004726D02*
X008107Y004726D01*
X008107Y004736D02*
X008403Y004736D01*
X008403Y004746D02*
X008107Y004746D01*
X008107Y004756D02*
X008403Y004756D01*
X008403Y004766D02*
X008107Y004766D01*
X008107Y004776D02*
X008403Y004776D01*
X008403Y004786D02*
X008107Y004786D01*
X008107Y004796D02*
X008403Y004796D01*
X008403Y004806D02*
X008107Y004806D01*
X008107Y004816D02*
X008403Y004816D01*
X008403Y004559D02*
X008107Y004559D01*
X008107Y004659D01*
X008403Y004659D01*
X008403Y004559D01*
X008403Y004569D02*
X008107Y004569D01*
X008107Y004579D02*
X008403Y004579D01*
X008403Y004589D02*
X008107Y004589D01*
X008107Y004599D02*
X008403Y004599D01*
X008403Y004609D02*
X008107Y004609D01*
X008107Y004619D02*
X008403Y004619D01*
X008403Y004629D02*
X008107Y004629D01*
X008107Y004639D02*
X008403Y004639D01*
X008403Y004649D02*
X008107Y004649D01*
X008107Y004659D02*
X008403Y004659D01*
X008403Y004401D02*
X008107Y004401D01*
X008107Y004501D01*
X008403Y004501D01*
X008403Y004401D01*
X008403Y004411D02*
X008107Y004411D01*
X008107Y004421D02*
X008403Y004421D01*
X008403Y004431D02*
X008107Y004431D01*
X008107Y004441D02*
X008403Y004441D01*
X008403Y004451D02*
X008107Y004451D01*
X008107Y004461D02*
X008403Y004461D01*
X008403Y004471D02*
X008107Y004471D01*
X008107Y004481D02*
X008403Y004481D01*
X008403Y004491D02*
X008107Y004491D01*
X008107Y004501D02*
X008403Y004501D01*
X008403Y004244D02*
X008107Y004244D01*
X008107Y004344D01*
X008403Y004344D01*
X008403Y004244D01*
X008403Y004254D02*
X008107Y004254D01*
X008107Y004264D02*
X008403Y004264D01*
X008403Y004274D02*
X008107Y004274D01*
X008107Y004284D02*
X008403Y004284D01*
X008403Y004294D02*
X008107Y004294D01*
X008107Y004304D02*
X008403Y004304D01*
X008403Y004314D02*
X008107Y004314D01*
X008107Y004324D02*
X008403Y004324D01*
X008403Y004334D02*
X008107Y004334D01*
X008107Y004344D02*
X008403Y004344D01*
X008500Y003850D02*
X008600Y003850D01*
X008500Y003850D02*
X008500Y004146D01*
X008600Y004146D01*
X008600Y003850D01*
X008600Y003860D02*
X008500Y003860D01*
X008500Y003870D02*
X008600Y003870D01*
X008600Y003880D02*
X008500Y003880D01*
X008500Y003890D02*
X008600Y003890D01*
X008600Y003900D02*
X008500Y003900D01*
X008500Y003910D02*
X008600Y003910D01*
X008600Y003920D02*
X008500Y003920D01*
X008500Y003930D02*
X008600Y003930D01*
X008600Y003940D02*
X008500Y003940D01*
X008500Y003950D02*
X008600Y003950D01*
X008600Y003960D02*
X008500Y003960D01*
X008500Y003970D02*
X008600Y003970D01*
X008600Y003980D02*
X008500Y003980D01*
X008500Y003990D02*
X008600Y003990D01*
X008600Y004000D02*
X008500Y004000D01*
X008500Y004010D02*
X008600Y004010D01*
X008600Y004020D02*
X008500Y004020D01*
X008500Y004030D02*
X008600Y004030D01*
X008600Y004040D02*
X008500Y004040D01*
X008500Y004050D02*
X008600Y004050D01*
X008600Y004060D02*
X008500Y004060D01*
X008500Y004070D02*
X008600Y004070D01*
X008600Y004080D02*
X008500Y004080D01*
X008500Y004090D02*
X008600Y004090D01*
X008600Y004100D02*
X008500Y004100D01*
X008500Y004110D02*
X008600Y004110D01*
X008600Y004120D02*
X008500Y004120D01*
X008500Y004130D02*
X008600Y004130D01*
X008600Y004140D02*
X008500Y004140D01*
X008658Y003850D02*
X008758Y003850D01*
X008658Y003850D02*
X008658Y004146D01*
X008758Y004146D01*
X008758Y003850D01*
X008758Y003860D02*
X008658Y003860D01*
X008658Y003870D02*
X008758Y003870D01*
X008758Y003880D02*
X008658Y003880D01*
X008658Y003890D02*
X008758Y003890D01*
X008758Y003900D02*
X008658Y003900D01*
X008658Y003910D02*
X008758Y003910D01*
X008758Y003920D02*
X008658Y003920D01*
X008658Y003930D02*
X008758Y003930D01*
X008758Y003940D02*
X008658Y003940D01*
X008658Y003950D02*
X008758Y003950D01*
X008758Y003960D02*
X008658Y003960D01*
X008658Y003970D02*
X008758Y003970D01*
X008758Y003980D02*
X008658Y003980D01*
X008658Y003990D02*
X008758Y003990D01*
X008758Y004000D02*
X008658Y004000D01*
X008658Y004010D02*
X008758Y004010D01*
X008758Y004020D02*
X008658Y004020D01*
X008658Y004030D02*
X008758Y004030D01*
X008758Y004040D02*
X008658Y004040D01*
X008658Y004050D02*
X008758Y004050D01*
X008758Y004060D02*
X008658Y004060D01*
X008658Y004070D02*
X008758Y004070D01*
X008758Y004080D02*
X008658Y004080D01*
X008658Y004090D02*
X008758Y004090D01*
X008758Y004100D02*
X008658Y004100D01*
X008658Y004110D02*
X008758Y004110D01*
X008758Y004120D02*
X008658Y004120D01*
X008658Y004130D02*
X008758Y004130D01*
X008758Y004140D02*
X008658Y004140D01*
X008815Y003850D02*
X008915Y003850D01*
X008815Y003850D02*
X008815Y004146D01*
X008915Y004146D01*
X008915Y003850D01*
X008915Y003860D02*
X008815Y003860D01*
X008815Y003870D02*
X008915Y003870D01*
X008915Y003880D02*
X008815Y003880D01*
X008815Y003890D02*
X008915Y003890D01*
X008915Y003900D02*
X008815Y003900D01*
X008815Y003910D02*
X008915Y003910D01*
X008915Y003920D02*
X008815Y003920D01*
X008815Y003930D02*
X008915Y003930D01*
X008915Y003940D02*
X008815Y003940D01*
X008815Y003950D02*
X008915Y003950D01*
X008915Y003960D02*
X008815Y003960D01*
X008815Y003970D02*
X008915Y003970D01*
X008915Y003980D02*
X008815Y003980D01*
X008815Y003990D02*
X008915Y003990D01*
X008915Y004000D02*
X008815Y004000D01*
X008815Y004010D02*
X008915Y004010D01*
X008915Y004020D02*
X008815Y004020D01*
X008815Y004030D02*
X008915Y004030D01*
X008915Y004040D02*
X008815Y004040D01*
X008815Y004050D02*
X008915Y004050D01*
X008915Y004060D02*
X008815Y004060D01*
X008815Y004070D02*
X008915Y004070D01*
X008915Y004080D02*
X008815Y004080D01*
X008815Y004090D02*
X008915Y004090D01*
X008915Y004100D02*
X008815Y004100D01*
X008815Y004110D02*
X008915Y004110D01*
X008915Y004120D02*
X008815Y004120D01*
X008815Y004130D02*
X008915Y004130D01*
X008915Y004140D02*
X008815Y004140D01*
X008973Y003850D02*
X009073Y003850D01*
X008973Y003850D02*
X008973Y004146D01*
X009073Y004146D01*
X009073Y003850D01*
X009073Y003860D02*
X008973Y003860D01*
X008973Y003870D02*
X009073Y003870D01*
X009073Y003880D02*
X008973Y003880D01*
X008973Y003890D02*
X009073Y003890D01*
X009073Y003900D02*
X008973Y003900D01*
X008973Y003910D02*
X009073Y003910D01*
X009073Y003920D02*
X008973Y003920D01*
X008973Y003930D02*
X009073Y003930D01*
X009073Y003940D02*
X008973Y003940D01*
X008973Y003950D02*
X009073Y003950D01*
X009073Y003960D02*
X008973Y003960D01*
X008973Y003970D02*
X009073Y003970D01*
X009073Y003980D02*
X008973Y003980D01*
X008973Y003990D02*
X009073Y003990D01*
X009073Y004000D02*
X008973Y004000D01*
X008973Y004010D02*
X009073Y004010D01*
X009073Y004020D02*
X008973Y004020D01*
X008973Y004030D02*
X009073Y004030D01*
X009073Y004040D02*
X008973Y004040D01*
X008973Y004050D02*
X009073Y004050D01*
X009073Y004060D02*
X008973Y004060D01*
X008973Y004070D02*
X009073Y004070D01*
X009073Y004080D02*
X008973Y004080D01*
X008973Y004090D02*
X009073Y004090D01*
X009073Y004100D02*
X008973Y004100D01*
X008973Y004110D02*
X009073Y004110D01*
X009073Y004120D02*
X008973Y004120D01*
X008973Y004130D02*
X009073Y004130D01*
X009073Y004140D02*
X008973Y004140D01*
X009130Y003850D02*
X009230Y003850D01*
X009130Y003850D02*
X009130Y004146D01*
X009230Y004146D01*
X009230Y003850D01*
X009230Y003860D02*
X009130Y003860D01*
X009130Y003870D02*
X009230Y003870D01*
X009230Y003880D02*
X009130Y003880D01*
X009130Y003890D02*
X009230Y003890D01*
X009230Y003900D02*
X009130Y003900D01*
X009130Y003910D02*
X009230Y003910D01*
X009230Y003920D02*
X009130Y003920D01*
X009130Y003930D02*
X009230Y003930D01*
X009230Y003940D02*
X009130Y003940D01*
X009130Y003950D02*
X009230Y003950D01*
X009230Y003960D02*
X009130Y003960D01*
X009130Y003970D02*
X009230Y003970D01*
X009230Y003980D02*
X009130Y003980D01*
X009130Y003990D02*
X009230Y003990D01*
X009230Y004000D02*
X009130Y004000D01*
X009130Y004010D02*
X009230Y004010D01*
X009230Y004020D02*
X009130Y004020D01*
X009130Y004030D02*
X009230Y004030D01*
X009230Y004040D02*
X009130Y004040D01*
X009130Y004050D02*
X009230Y004050D01*
X009230Y004060D02*
X009130Y004060D01*
X009130Y004070D02*
X009230Y004070D01*
X009230Y004080D02*
X009130Y004080D01*
X009130Y004090D02*
X009230Y004090D01*
X009230Y004100D02*
X009130Y004100D01*
X009130Y004110D02*
X009230Y004110D01*
X009230Y004120D02*
X009130Y004120D01*
X009130Y004130D02*
X009230Y004130D01*
X009230Y004140D02*
X009130Y004140D01*
X009288Y003850D02*
X009388Y003850D01*
X009288Y003850D02*
X009288Y004146D01*
X009388Y004146D01*
X009388Y003850D01*
X009388Y003860D02*
X009288Y003860D01*
X009288Y003870D02*
X009388Y003870D01*
X009388Y003880D02*
X009288Y003880D01*
X009288Y003890D02*
X009388Y003890D01*
X009388Y003900D02*
X009288Y003900D01*
X009288Y003910D02*
X009388Y003910D01*
X009388Y003920D02*
X009288Y003920D01*
X009288Y003930D02*
X009388Y003930D01*
X009388Y003940D02*
X009288Y003940D01*
X009288Y003950D02*
X009388Y003950D01*
X009388Y003960D02*
X009288Y003960D01*
X009288Y003970D02*
X009388Y003970D01*
X009388Y003980D02*
X009288Y003980D01*
X009288Y003990D02*
X009388Y003990D01*
X009388Y004000D02*
X009288Y004000D01*
X009288Y004010D02*
X009388Y004010D01*
X009388Y004020D02*
X009288Y004020D01*
X009288Y004030D02*
X009388Y004030D01*
X009388Y004040D02*
X009288Y004040D01*
X009288Y004050D02*
X009388Y004050D01*
X009388Y004060D02*
X009288Y004060D01*
X009288Y004070D02*
X009388Y004070D01*
X009388Y004080D02*
X009288Y004080D01*
X009288Y004090D02*
X009388Y004090D01*
X009388Y004100D02*
X009288Y004100D01*
X009288Y004110D02*
X009388Y004110D01*
X009388Y004120D02*
X009288Y004120D01*
X009288Y004130D02*
X009388Y004130D01*
X009388Y004140D02*
X009288Y004140D01*
X009445Y003850D02*
X009545Y003850D01*
X009445Y003850D02*
X009445Y004146D01*
X009545Y004146D01*
X009545Y003850D01*
X009545Y003860D02*
X009445Y003860D01*
X009445Y003870D02*
X009545Y003870D01*
X009545Y003880D02*
X009445Y003880D01*
X009445Y003890D02*
X009545Y003890D01*
X009545Y003900D02*
X009445Y003900D01*
X009445Y003910D02*
X009545Y003910D01*
X009545Y003920D02*
X009445Y003920D01*
X009445Y003930D02*
X009545Y003930D01*
X009545Y003940D02*
X009445Y003940D01*
X009445Y003950D02*
X009545Y003950D01*
X009545Y003960D02*
X009445Y003960D01*
X009445Y003970D02*
X009545Y003970D01*
X009545Y003980D02*
X009445Y003980D01*
X009445Y003990D02*
X009545Y003990D01*
X009545Y004000D02*
X009445Y004000D01*
X009445Y004010D02*
X009545Y004010D01*
X009545Y004020D02*
X009445Y004020D01*
X009445Y004030D02*
X009545Y004030D01*
X009545Y004040D02*
X009445Y004040D01*
X009445Y004050D02*
X009545Y004050D01*
X009545Y004060D02*
X009445Y004060D01*
X009445Y004070D02*
X009545Y004070D01*
X009545Y004080D02*
X009445Y004080D01*
X009445Y004090D02*
X009545Y004090D01*
X009545Y004100D02*
X009445Y004100D01*
X009445Y004110D02*
X009545Y004110D01*
X009545Y004120D02*
X009445Y004120D01*
X009445Y004130D02*
X009545Y004130D01*
X009545Y004140D02*
X009445Y004140D01*
X009603Y003850D02*
X009703Y003850D01*
X009603Y003850D02*
X009603Y004146D01*
X009703Y004146D01*
X009703Y003850D01*
X009703Y003860D02*
X009603Y003860D01*
X009603Y003870D02*
X009703Y003870D01*
X009703Y003880D02*
X009603Y003880D01*
X009603Y003890D02*
X009703Y003890D01*
X009703Y003900D02*
X009603Y003900D01*
X009603Y003910D02*
X009703Y003910D01*
X009703Y003920D02*
X009603Y003920D01*
X009603Y003930D02*
X009703Y003930D01*
X009703Y003940D02*
X009603Y003940D01*
X009603Y003950D02*
X009703Y003950D01*
X009703Y003960D02*
X009603Y003960D01*
X009603Y003970D02*
X009703Y003970D01*
X009703Y003980D02*
X009603Y003980D01*
X009603Y003990D02*
X009703Y003990D01*
X009703Y004000D02*
X009603Y004000D01*
X009603Y004010D02*
X009703Y004010D01*
X009703Y004020D02*
X009603Y004020D01*
X009603Y004030D02*
X009703Y004030D01*
X009703Y004040D02*
X009603Y004040D01*
X009603Y004050D02*
X009703Y004050D01*
X009703Y004060D02*
X009603Y004060D01*
X009603Y004070D02*
X009703Y004070D01*
X009703Y004080D02*
X009603Y004080D01*
X009603Y004090D02*
X009703Y004090D01*
X009703Y004100D02*
X009603Y004100D01*
X009603Y004110D02*
X009703Y004110D01*
X009703Y004120D02*
X009603Y004120D01*
X009603Y004130D02*
X009703Y004130D01*
X009703Y004140D02*
X009603Y004140D01*
X009760Y003850D02*
X009860Y003850D01*
X009760Y003850D02*
X009760Y004146D01*
X009860Y004146D01*
X009860Y003850D01*
X009860Y003860D02*
X009760Y003860D01*
X009760Y003870D02*
X009860Y003870D01*
X009860Y003880D02*
X009760Y003880D01*
X009760Y003890D02*
X009860Y003890D01*
X009860Y003900D02*
X009760Y003900D01*
X009760Y003910D02*
X009860Y003910D01*
X009860Y003920D02*
X009760Y003920D01*
X009760Y003930D02*
X009860Y003930D01*
X009860Y003940D02*
X009760Y003940D01*
X009760Y003950D02*
X009860Y003950D01*
X009860Y003960D02*
X009760Y003960D01*
X009760Y003970D02*
X009860Y003970D01*
X009860Y003980D02*
X009760Y003980D01*
X009760Y003990D02*
X009860Y003990D01*
X009860Y004000D02*
X009760Y004000D01*
X009760Y004010D02*
X009860Y004010D01*
X009860Y004020D02*
X009760Y004020D01*
X009760Y004030D02*
X009860Y004030D01*
X009860Y004040D02*
X009760Y004040D01*
X009760Y004050D02*
X009860Y004050D01*
X009860Y004060D02*
X009760Y004060D01*
X009760Y004070D02*
X009860Y004070D01*
X009860Y004080D02*
X009760Y004080D01*
X009760Y004090D02*
X009860Y004090D01*
X009860Y004100D02*
X009760Y004100D01*
X009760Y004110D02*
X009860Y004110D01*
X009860Y004120D02*
X009760Y004120D01*
X009760Y004130D02*
X009860Y004130D01*
X009860Y004140D02*
X009760Y004140D01*
X009918Y003850D02*
X010018Y003850D01*
X009918Y003850D02*
X009918Y004146D01*
X010018Y004146D01*
X010018Y003850D01*
X010018Y003860D02*
X009918Y003860D01*
X009918Y003870D02*
X010018Y003870D01*
X010018Y003880D02*
X009918Y003880D01*
X009918Y003890D02*
X010018Y003890D01*
X010018Y003900D02*
X009918Y003900D01*
X009918Y003910D02*
X010018Y003910D01*
X010018Y003920D02*
X009918Y003920D01*
X009918Y003930D02*
X010018Y003930D01*
X010018Y003940D02*
X009918Y003940D01*
X009918Y003950D02*
X010018Y003950D01*
X010018Y003960D02*
X009918Y003960D01*
X009918Y003970D02*
X010018Y003970D01*
X010018Y003980D02*
X009918Y003980D01*
X009918Y003990D02*
X010018Y003990D01*
X010018Y004000D02*
X009918Y004000D01*
X009918Y004010D02*
X010018Y004010D01*
X010018Y004020D02*
X009918Y004020D01*
X009918Y004030D02*
X010018Y004030D01*
X010018Y004040D02*
X009918Y004040D01*
X009918Y004050D02*
X010018Y004050D01*
X010018Y004060D02*
X009918Y004060D01*
X009918Y004070D02*
X010018Y004070D01*
X010018Y004080D02*
X009918Y004080D01*
X009918Y004090D02*
X010018Y004090D01*
X010018Y004100D02*
X009918Y004100D01*
X009918Y004110D02*
X010018Y004110D01*
X010018Y004120D02*
X009918Y004120D01*
X009918Y004130D02*
X010018Y004130D01*
X010018Y004140D02*
X009918Y004140D01*
X010075Y003850D02*
X010175Y003850D01*
X010075Y003850D02*
X010075Y004146D01*
X010175Y004146D01*
X010175Y003850D01*
X010175Y003860D02*
X010075Y003860D01*
X010075Y003870D02*
X010175Y003870D01*
X010175Y003880D02*
X010075Y003880D01*
X010075Y003890D02*
X010175Y003890D01*
X010175Y003900D02*
X010075Y003900D01*
X010075Y003910D02*
X010175Y003910D01*
X010175Y003920D02*
X010075Y003920D01*
X010075Y003930D02*
X010175Y003930D01*
X010175Y003940D02*
X010075Y003940D01*
X010075Y003950D02*
X010175Y003950D01*
X010175Y003960D02*
X010075Y003960D01*
X010075Y003970D02*
X010175Y003970D01*
X010175Y003980D02*
X010075Y003980D01*
X010075Y003990D02*
X010175Y003990D01*
X010175Y004000D02*
X010075Y004000D01*
X010075Y004010D02*
X010175Y004010D01*
X010175Y004020D02*
X010075Y004020D01*
X010075Y004030D02*
X010175Y004030D01*
X010175Y004040D02*
X010075Y004040D01*
X010075Y004050D02*
X010175Y004050D01*
X010175Y004060D02*
X010075Y004060D01*
X010075Y004070D02*
X010175Y004070D01*
X010175Y004080D02*
X010075Y004080D01*
X010075Y004090D02*
X010175Y004090D01*
X010175Y004100D02*
X010075Y004100D01*
X010075Y004110D02*
X010175Y004110D01*
X010175Y004120D02*
X010075Y004120D01*
X010075Y004130D02*
X010175Y004130D01*
X010175Y004140D02*
X010075Y004140D01*
X010232Y003850D02*
X010332Y003850D01*
X010232Y003850D02*
X010232Y004146D01*
X010332Y004146D01*
X010332Y003850D01*
X010332Y003860D02*
X010232Y003860D01*
X010232Y003870D02*
X010332Y003870D01*
X010332Y003880D02*
X010232Y003880D01*
X010232Y003890D02*
X010332Y003890D01*
X010332Y003900D02*
X010232Y003900D01*
X010232Y003910D02*
X010332Y003910D01*
X010332Y003920D02*
X010232Y003920D01*
X010232Y003930D02*
X010332Y003930D01*
X010332Y003940D02*
X010232Y003940D01*
X010232Y003950D02*
X010332Y003950D01*
X010332Y003960D02*
X010232Y003960D01*
X010232Y003970D02*
X010332Y003970D01*
X010332Y003980D02*
X010232Y003980D01*
X010232Y003990D02*
X010332Y003990D01*
X010332Y004000D02*
X010232Y004000D01*
X010232Y004010D02*
X010332Y004010D01*
X010332Y004020D02*
X010232Y004020D01*
X010232Y004030D02*
X010332Y004030D01*
X010332Y004040D02*
X010232Y004040D01*
X010232Y004050D02*
X010332Y004050D01*
X010332Y004060D02*
X010232Y004060D01*
X010232Y004070D02*
X010332Y004070D01*
X010332Y004080D02*
X010232Y004080D01*
X010232Y004090D02*
X010332Y004090D01*
X010332Y004100D02*
X010232Y004100D01*
X010232Y004110D02*
X010332Y004110D01*
X010332Y004120D02*
X010232Y004120D01*
X010232Y004130D02*
X010332Y004130D01*
X010332Y004140D02*
X010232Y004140D01*
X010390Y003850D02*
X010490Y003850D01*
X010390Y003850D02*
X010390Y004146D01*
X010490Y004146D01*
X010490Y003850D01*
X010490Y003860D02*
X010390Y003860D01*
X010390Y003870D02*
X010490Y003870D01*
X010490Y003880D02*
X010390Y003880D01*
X010390Y003890D02*
X010490Y003890D01*
X010490Y003900D02*
X010390Y003900D01*
X010390Y003910D02*
X010490Y003910D01*
X010490Y003920D02*
X010390Y003920D01*
X010390Y003930D02*
X010490Y003930D01*
X010490Y003940D02*
X010390Y003940D01*
X010390Y003950D02*
X010490Y003950D01*
X010490Y003960D02*
X010390Y003960D01*
X010390Y003970D02*
X010490Y003970D01*
X010490Y003980D02*
X010390Y003980D01*
X010390Y003990D02*
X010490Y003990D01*
X010490Y004000D02*
X010390Y004000D01*
X010390Y004010D02*
X010490Y004010D01*
X010490Y004020D02*
X010390Y004020D01*
X010390Y004030D02*
X010490Y004030D01*
X010490Y004040D02*
X010390Y004040D01*
X010390Y004050D02*
X010490Y004050D01*
X010490Y004060D02*
X010390Y004060D01*
X010390Y004070D02*
X010490Y004070D01*
X010490Y004080D02*
X010390Y004080D01*
X010390Y004090D02*
X010490Y004090D01*
X010490Y004100D02*
X010390Y004100D01*
X010390Y004110D02*
X010490Y004110D01*
X010490Y004120D02*
X010390Y004120D01*
X010390Y004130D02*
X010490Y004130D01*
X010490Y004140D02*
X010390Y004140D01*
X010547Y003850D02*
X010647Y003850D01*
X010547Y003850D02*
X010547Y004146D01*
X010647Y004146D01*
X010647Y003850D01*
X010647Y003860D02*
X010547Y003860D01*
X010547Y003870D02*
X010647Y003870D01*
X010647Y003880D02*
X010547Y003880D01*
X010547Y003890D02*
X010647Y003890D01*
X010647Y003900D02*
X010547Y003900D01*
X010547Y003910D02*
X010647Y003910D01*
X010647Y003920D02*
X010547Y003920D01*
X010547Y003930D02*
X010647Y003930D01*
X010647Y003940D02*
X010547Y003940D01*
X010547Y003950D02*
X010647Y003950D01*
X010647Y003960D02*
X010547Y003960D01*
X010547Y003970D02*
X010647Y003970D01*
X010647Y003980D02*
X010547Y003980D01*
X010547Y003990D02*
X010647Y003990D01*
X010647Y004000D02*
X010547Y004000D01*
X010547Y004010D02*
X010647Y004010D01*
X010647Y004020D02*
X010547Y004020D01*
X010547Y004030D02*
X010647Y004030D01*
X010647Y004040D02*
X010547Y004040D01*
X010547Y004050D02*
X010647Y004050D01*
X010647Y004060D02*
X010547Y004060D01*
X010547Y004070D02*
X010647Y004070D01*
X010647Y004080D02*
X010547Y004080D01*
X010547Y004090D02*
X010647Y004090D01*
X010647Y004100D02*
X010547Y004100D01*
X010547Y004110D02*
X010647Y004110D01*
X010647Y004120D02*
X010547Y004120D01*
X010547Y004130D02*
X010647Y004130D01*
X010647Y004140D02*
X010547Y004140D01*
X010705Y003850D02*
X010805Y003850D01*
X010705Y003850D02*
X010705Y004146D01*
X010805Y004146D01*
X010805Y003850D01*
X010805Y003860D02*
X010705Y003860D01*
X010705Y003870D02*
X010805Y003870D01*
X010805Y003880D02*
X010705Y003880D01*
X010705Y003890D02*
X010805Y003890D01*
X010805Y003900D02*
X010705Y003900D01*
X010705Y003910D02*
X010805Y003910D01*
X010805Y003920D02*
X010705Y003920D01*
X010705Y003930D02*
X010805Y003930D01*
X010805Y003940D02*
X010705Y003940D01*
X010705Y003950D02*
X010805Y003950D01*
X010805Y003960D02*
X010705Y003960D01*
X010705Y003970D02*
X010805Y003970D01*
X010805Y003980D02*
X010705Y003980D01*
X010705Y003990D02*
X010805Y003990D01*
X010805Y004000D02*
X010705Y004000D01*
X010705Y004010D02*
X010805Y004010D01*
X010805Y004020D02*
X010705Y004020D01*
X010705Y004030D02*
X010805Y004030D01*
X010805Y004040D02*
X010705Y004040D01*
X010705Y004050D02*
X010805Y004050D01*
X010805Y004060D02*
X010705Y004060D01*
X010705Y004070D02*
X010805Y004070D01*
X010805Y004080D02*
X010705Y004080D01*
X010705Y004090D02*
X010805Y004090D01*
X010805Y004100D02*
X010705Y004100D01*
X010705Y004110D02*
X010805Y004110D01*
X010805Y004120D02*
X010705Y004120D01*
X010705Y004130D02*
X010805Y004130D01*
X010805Y004140D02*
X010705Y004140D01*
X010862Y003850D02*
X010962Y003850D01*
X010862Y003850D02*
X010862Y004146D01*
X010962Y004146D01*
X010962Y003850D01*
X010962Y003860D02*
X010862Y003860D01*
X010862Y003870D02*
X010962Y003870D01*
X010962Y003880D02*
X010862Y003880D01*
X010862Y003890D02*
X010962Y003890D01*
X010962Y003900D02*
X010862Y003900D01*
X010862Y003910D02*
X010962Y003910D01*
X010962Y003920D02*
X010862Y003920D01*
X010862Y003930D02*
X010962Y003930D01*
X010962Y003940D02*
X010862Y003940D01*
X010862Y003950D02*
X010962Y003950D01*
X010962Y003960D02*
X010862Y003960D01*
X010862Y003970D02*
X010962Y003970D01*
X010962Y003980D02*
X010862Y003980D01*
X010862Y003990D02*
X010962Y003990D01*
X010962Y004000D02*
X010862Y004000D01*
X010862Y004010D02*
X010962Y004010D01*
X010962Y004020D02*
X010862Y004020D01*
X010862Y004030D02*
X010962Y004030D01*
X010962Y004040D02*
X010862Y004040D01*
X010862Y004050D02*
X010962Y004050D01*
X010962Y004060D02*
X010862Y004060D01*
X010862Y004070D02*
X010962Y004070D01*
X010962Y004080D02*
X010862Y004080D01*
X010862Y004090D02*
X010962Y004090D01*
X010962Y004100D02*
X010862Y004100D01*
X010862Y004110D02*
X010962Y004110D01*
X010962Y004120D02*
X010862Y004120D01*
X010862Y004130D02*
X010962Y004130D01*
X010962Y004140D02*
X010862Y004140D01*
X011020Y003850D02*
X011120Y003850D01*
X011020Y003850D02*
X011020Y004146D01*
X011120Y004146D01*
X011120Y003850D01*
X011120Y003860D02*
X011020Y003860D01*
X011020Y003870D02*
X011120Y003870D01*
X011120Y003880D02*
X011020Y003880D01*
X011020Y003890D02*
X011120Y003890D01*
X011120Y003900D02*
X011020Y003900D01*
X011020Y003910D02*
X011120Y003910D01*
X011120Y003920D02*
X011020Y003920D01*
X011020Y003930D02*
X011120Y003930D01*
X011120Y003940D02*
X011020Y003940D01*
X011020Y003950D02*
X011120Y003950D01*
X011120Y003960D02*
X011020Y003960D01*
X011020Y003970D02*
X011120Y003970D01*
X011120Y003980D02*
X011020Y003980D01*
X011020Y003990D02*
X011120Y003990D01*
X011120Y004000D02*
X011020Y004000D01*
X011020Y004010D02*
X011120Y004010D01*
X011120Y004020D02*
X011020Y004020D01*
X011020Y004030D02*
X011120Y004030D01*
X011120Y004040D02*
X011020Y004040D01*
X011020Y004050D02*
X011120Y004050D01*
X011120Y004060D02*
X011020Y004060D01*
X011020Y004070D02*
X011120Y004070D01*
X011120Y004080D02*
X011020Y004080D01*
X011020Y004090D02*
X011120Y004090D01*
X011120Y004100D02*
X011020Y004100D01*
X011020Y004110D02*
X011120Y004110D01*
X011120Y004120D02*
X011020Y004120D01*
X011020Y004130D02*
X011120Y004130D01*
X011120Y004140D02*
X011020Y004140D01*
X011217Y004344D02*
X011513Y004344D01*
X011513Y004244D01*
X011217Y004244D01*
X011217Y004344D01*
X011217Y004254D02*
X011513Y004254D01*
X011513Y004264D02*
X011217Y004264D01*
X011217Y004274D02*
X011513Y004274D01*
X011513Y004284D02*
X011217Y004284D01*
X011217Y004294D02*
X011513Y004294D01*
X011513Y004304D02*
X011217Y004304D01*
X011217Y004314D02*
X011513Y004314D01*
X011513Y004324D02*
X011217Y004324D01*
X011217Y004334D02*
X011513Y004334D01*
X011513Y004344D02*
X011217Y004344D01*
X011217Y004501D02*
X011513Y004501D01*
X011513Y004401D01*
X011217Y004401D01*
X011217Y004501D01*
X011217Y004411D02*
X011513Y004411D01*
X011513Y004421D02*
X011217Y004421D01*
X011217Y004431D02*
X011513Y004431D01*
X011513Y004441D02*
X011217Y004441D01*
X011217Y004451D02*
X011513Y004451D01*
X011513Y004461D02*
X011217Y004461D01*
X011217Y004471D02*
X011513Y004471D01*
X011513Y004481D02*
X011217Y004481D01*
X011217Y004491D02*
X011513Y004491D01*
X011513Y004501D02*
X011217Y004501D01*
X011217Y004659D02*
X011513Y004659D01*
X011513Y004559D01*
X011217Y004559D01*
X011217Y004659D01*
X011217Y004569D02*
X011513Y004569D01*
X011513Y004579D02*
X011217Y004579D01*
X011217Y004589D02*
X011513Y004589D01*
X011513Y004599D02*
X011217Y004599D01*
X011217Y004609D02*
X011513Y004609D01*
X011513Y004619D02*
X011217Y004619D01*
X011217Y004629D02*
X011513Y004629D01*
X011513Y004639D02*
X011217Y004639D01*
X011217Y004649D02*
X011513Y004649D01*
X011513Y004659D02*
X011217Y004659D01*
X011217Y004816D02*
X011513Y004816D01*
X011513Y004716D01*
X011217Y004716D01*
X011217Y004816D01*
X011217Y004726D02*
X011513Y004726D01*
X011513Y004736D02*
X011217Y004736D01*
X011217Y004746D02*
X011513Y004746D01*
X011513Y004756D02*
X011217Y004756D01*
X011217Y004766D02*
X011513Y004766D01*
X011513Y004776D02*
X011217Y004776D01*
X011217Y004786D02*
X011513Y004786D01*
X011513Y004796D02*
X011217Y004796D01*
X011217Y004806D02*
X011513Y004806D01*
X011513Y004816D02*
X011217Y004816D01*
X011217Y004973D02*
X011513Y004973D01*
X011513Y004873D01*
X011217Y004873D01*
X011217Y004973D01*
X011217Y004883D02*
X011513Y004883D01*
X011513Y004893D02*
X011217Y004893D01*
X011217Y004903D02*
X011513Y004903D01*
X011513Y004913D02*
X011217Y004913D01*
X011217Y004923D02*
X011513Y004923D01*
X011513Y004933D02*
X011217Y004933D01*
X011217Y004943D02*
X011513Y004943D01*
X011513Y004953D02*
X011217Y004953D01*
X011217Y004963D02*
X011513Y004963D01*
X011513Y004973D02*
X011217Y004973D01*
X011217Y005131D02*
X011513Y005131D01*
X011513Y005031D01*
X011217Y005031D01*
X011217Y005131D01*
X011217Y005041D02*
X011513Y005041D01*
X011513Y005051D02*
X011217Y005051D01*
X011217Y005061D02*
X011513Y005061D01*
X011513Y005071D02*
X011217Y005071D01*
X011217Y005081D02*
X011513Y005081D01*
X011513Y005091D02*
X011217Y005091D01*
X011217Y005101D02*
X011513Y005101D01*
X011513Y005111D02*
X011217Y005111D01*
X011217Y005121D02*
X011513Y005121D01*
X011513Y005131D02*
X011217Y005131D01*
X011217Y005288D02*
X011513Y005288D01*
X011513Y005188D01*
X011217Y005188D01*
X011217Y005288D01*
X011217Y005198D02*
X011513Y005198D01*
X011513Y005208D02*
X011217Y005208D01*
X011217Y005218D02*
X011513Y005218D01*
X011513Y005228D02*
X011217Y005228D01*
X011217Y005238D02*
X011513Y005238D01*
X011513Y005248D02*
X011217Y005248D01*
X011217Y005258D02*
X011513Y005258D01*
X011513Y005268D02*
X011217Y005268D01*
X011217Y005278D02*
X011513Y005278D01*
X011513Y005288D02*
X011217Y005288D01*
X011217Y005446D02*
X011513Y005446D01*
X011513Y005346D01*
X011217Y005346D01*
X011217Y005446D01*
X011217Y005356D02*
X011513Y005356D01*
X011513Y005366D02*
X011217Y005366D01*
X011217Y005376D02*
X011513Y005376D01*
X011513Y005386D02*
X011217Y005386D01*
X011217Y005396D02*
X011513Y005396D01*
X011513Y005406D02*
X011217Y005406D01*
X011217Y005416D02*
X011513Y005416D01*
X011513Y005426D02*
X011217Y005426D01*
X011217Y005436D02*
X011513Y005436D01*
X011513Y005446D02*
X011217Y005446D01*
X011217Y005603D02*
X011513Y005603D01*
X011513Y005503D01*
X011217Y005503D01*
X011217Y005603D01*
X011217Y005513D02*
X011513Y005513D01*
X011513Y005523D02*
X011217Y005523D01*
X011217Y005533D02*
X011513Y005533D01*
X011513Y005543D02*
X011217Y005543D01*
X011217Y005553D02*
X011513Y005553D01*
X011513Y005563D02*
X011217Y005563D01*
X011217Y005573D02*
X011513Y005573D01*
X011513Y005583D02*
X011217Y005583D01*
X011217Y005593D02*
X011513Y005593D01*
X011513Y005603D02*
X011217Y005603D01*
X011217Y005761D02*
X011513Y005761D01*
X011513Y005661D01*
X011217Y005661D01*
X011217Y005761D01*
X011217Y005671D02*
X011513Y005671D01*
X011513Y005681D02*
X011217Y005681D01*
X011217Y005691D02*
X011513Y005691D01*
X011513Y005701D02*
X011217Y005701D01*
X011217Y005711D02*
X011513Y005711D01*
X011513Y005721D02*
X011217Y005721D01*
X011217Y005731D02*
X011513Y005731D01*
X011513Y005741D02*
X011217Y005741D01*
X011217Y005751D02*
X011513Y005751D01*
X011513Y005761D02*
X011217Y005761D01*
X011217Y005918D02*
X011513Y005918D01*
X011513Y005818D01*
X011217Y005818D01*
X011217Y005918D01*
X011217Y005828D02*
X011513Y005828D01*
X011513Y005838D02*
X011217Y005838D01*
X011217Y005848D02*
X011513Y005848D01*
X011513Y005858D02*
X011217Y005858D01*
X011217Y005868D02*
X011513Y005868D01*
X011513Y005878D02*
X011217Y005878D01*
X011217Y005888D02*
X011513Y005888D01*
X011513Y005898D02*
X011217Y005898D01*
X011217Y005908D02*
X011513Y005908D01*
X011513Y005918D02*
X011217Y005918D01*
X011217Y006076D02*
X011513Y006076D01*
X011513Y005976D01*
X011217Y005976D01*
X011217Y006076D01*
X011217Y005986D02*
X011513Y005986D01*
X011513Y005996D02*
X011217Y005996D01*
X011217Y006006D02*
X011513Y006006D01*
X011513Y006016D02*
X011217Y006016D01*
X011217Y006026D02*
X011513Y006026D01*
X011513Y006036D02*
X011217Y006036D01*
X011217Y006046D02*
X011513Y006046D01*
X011513Y006056D02*
X011217Y006056D01*
X011217Y006066D02*
X011513Y006066D01*
X011513Y006076D02*
X011217Y006076D01*
X011217Y006233D02*
X011513Y006233D01*
X011513Y006133D01*
X011217Y006133D01*
X011217Y006233D01*
X011217Y006143D02*
X011513Y006143D01*
X011513Y006153D02*
X011217Y006153D01*
X011217Y006163D02*
X011513Y006163D01*
X011513Y006173D02*
X011217Y006173D01*
X011217Y006183D02*
X011513Y006183D01*
X011513Y006193D02*
X011217Y006193D01*
X011217Y006203D02*
X011513Y006203D01*
X011513Y006213D02*
X011217Y006213D01*
X011217Y006223D02*
X011513Y006223D01*
X011513Y006233D02*
X011217Y006233D01*
X011217Y006391D02*
X011513Y006391D01*
X011513Y006291D01*
X011217Y006291D01*
X011217Y006391D01*
X011217Y006301D02*
X011513Y006301D01*
X011513Y006311D02*
X011217Y006311D01*
X011217Y006321D02*
X011513Y006321D01*
X011513Y006331D02*
X011217Y006331D01*
X011217Y006341D02*
X011513Y006341D01*
X011513Y006351D02*
X011217Y006351D01*
X011217Y006361D02*
X011513Y006361D01*
X011513Y006371D02*
X011217Y006371D01*
X011217Y006381D02*
X011513Y006381D01*
X011513Y006391D02*
X011217Y006391D01*
X011217Y006548D02*
X011513Y006548D01*
X011513Y006448D01*
X011217Y006448D01*
X011217Y006548D01*
X011217Y006458D02*
X011513Y006458D01*
X011513Y006468D02*
X011217Y006468D01*
X011217Y006478D02*
X011513Y006478D01*
X011513Y006488D02*
X011217Y006488D01*
X011217Y006498D02*
X011513Y006498D01*
X011513Y006508D02*
X011217Y006508D01*
X011217Y006518D02*
X011513Y006518D01*
X011513Y006528D02*
X011217Y006528D01*
X011217Y006538D02*
X011513Y006538D01*
X011513Y006548D02*
X011217Y006548D01*
X011217Y006706D02*
X011513Y006706D01*
X011513Y006606D01*
X011217Y006606D01*
X011217Y006706D01*
X011217Y006616D02*
X011513Y006616D01*
X011513Y006626D02*
X011217Y006626D01*
X011217Y006636D02*
X011513Y006636D01*
X011513Y006646D02*
X011217Y006646D01*
X011217Y006656D02*
X011513Y006656D01*
X011513Y006666D02*
X011217Y006666D01*
X011217Y006676D02*
X011513Y006676D01*
X011513Y006686D02*
X011217Y006686D01*
X011217Y006696D02*
X011513Y006696D01*
X011513Y006706D02*
X011217Y006706D01*
X011217Y006863D02*
X011513Y006863D01*
X011513Y006763D01*
X011217Y006763D01*
X011217Y006863D01*
X011217Y006773D02*
X011513Y006773D01*
X011513Y006783D02*
X011217Y006783D01*
X011217Y006793D02*
X011513Y006793D01*
X011513Y006803D02*
X011217Y006803D01*
X011217Y006813D02*
X011513Y006813D01*
X011513Y006823D02*
X011217Y006823D01*
X011217Y006833D02*
X011513Y006833D01*
X011513Y006843D02*
X011217Y006843D01*
X011217Y006853D02*
X011513Y006853D01*
X011513Y006863D02*
X011217Y006863D01*
D30*
X010937Y004426D02*
X008683Y004426D01*
X008683Y006680D01*
X010937Y006680D01*
X010937Y004426D01*
X010937Y004448D02*
X008683Y004448D01*
X008683Y004470D02*
X010937Y004470D01*
X010937Y004492D02*
X008683Y004492D01*
X008683Y004514D02*
X010937Y004514D01*
X010937Y004536D02*
X008683Y004536D01*
X008683Y004558D02*
X010937Y004558D01*
X010937Y004580D02*
X008683Y004580D01*
X008683Y004602D02*
X010937Y004602D01*
X010937Y004624D02*
X008683Y004624D01*
X008683Y004646D02*
X010937Y004646D01*
X010937Y004668D02*
X008683Y004668D01*
X008683Y004690D02*
X010937Y004690D01*
X010937Y004712D02*
X008683Y004712D01*
X008683Y004734D02*
X010937Y004734D01*
X010937Y004756D02*
X008683Y004756D01*
X008683Y004778D02*
X010937Y004778D01*
X010937Y004800D02*
X008683Y004800D01*
X008683Y004822D02*
X010937Y004822D01*
X010937Y004844D02*
X008683Y004844D01*
X008683Y004866D02*
X010937Y004866D01*
X010937Y004888D02*
X008683Y004888D01*
X008683Y004910D02*
X010937Y004910D01*
X010937Y004932D02*
X008683Y004932D01*
X008683Y004954D02*
X010937Y004954D01*
X010937Y004976D02*
X008683Y004976D01*
X008683Y004998D02*
X010937Y004998D01*
X010937Y005020D02*
X008683Y005020D01*
X008683Y005042D02*
X010937Y005042D01*
X010937Y005064D02*
X008683Y005064D01*
X008683Y005086D02*
X010937Y005086D01*
X010937Y005108D02*
X008683Y005108D01*
X008683Y005130D02*
X010937Y005130D01*
X010937Y005152D02*
X008683Y005152D01*
X008683Y005174D02*
X010937Y005174D01*
X010937Y005196D02*
X008683Y005196D01*
X008683Y005218D02*
X010937Y005218D01*
X010937Y005240D02*
X008683Y005240D01*
X008683Y005262D02*
X010937Y005262D01*
X010937Y005284D02*
X008683Y005284D01*
X008683Y005306D02*
X010937Y005306D01*
X010937Y005328D02*
X008683Y005328D01*
X008683Y005350D02*
X010937Y005350D01*
X010937Y005372D02*
X008683Y005372D01*
X008683Y005394D02*
X010937Y005394D01*
X010937Y005416D02*
X008683Y005416D01*
X008683Y005438D02*
X010937Y005438D01*
X010937Y005460D02*
X008683Y005460D01*
X008683Y005482D02*
X010937Y005482D01*
X010937Y005504D02*
X008683Y005504D01*
X008683Y005526D02*
X010937Y005526D01*
X010937Y005548D02*
X008683Y005548D01*
X008683Y005570D02*
X010937Y005570D01*
X010937Y005592D02*
X008683Y005592D01*
X008683Y005614D02*
X010937Y005614D01*
X010937Y005636D02*
X008683Y005636D01*
X008683Y005658D02*
X010937Y005658D01*
X010937Y005680D02*
X008683Y005680D01*
X008683Y005702D02*
X010937Y005702D01*
X010937Y005724D02*
X008683Y005724D01*
X008683Y005746D02*
X010937Y005746D01*
X010937Y005768D02*
X008683Y005768D01*
X008683Y005790D02*
X010937Y005790D01*
X010937Y005812D02*
X008683Y005812D01*
X008683Y005834D02*
X010937Y005834D01*
X010937Y005856D02*
X008683Y005856D01*
X008683Y005878D02*
X010937Y005878D01*
X010937Y005900D02*
X008683Y005900D01*
X008683Y005922D02*
X010937Y005922D01*
X010937Y005944D02*
X008683Y005944D01*
X008683Y005966D02*
X010937Y005966D01*
X010937Y005988D02*
X008683Y005988D01*
X008683Y006010D02*
X010937Y006010D01*
X010937Y006032D02*
X008683Y006032D01*
X008683Y006054D02*
X010937Y006054D01*
X010937Y006076D02*
X008683Y006076D01*
X008683Y006098D02*
X010937Y006098D01*
X010937Y006120D02*
X008683Y006120D01*
X008683Y006142D02*
X010937Y006142D01*
X010937Y006164D02*
X008683Y006164D01*
X008683Y006186D02*
X010937Y006186D01*
X010937Y006208D02*
X008683Y006208D01*
X008683Y006230D02*
X010937Y006230D01*
X010937Y006252D02*
X008683Y006252D01*
X008683Y006274D02*
X010937Y006274D01*
X010937Y006296D02*
X008683Y006296D01*
X008683Y006318D02*
X010937Y006318D01*
X010937Y006340D02*
X008683Y006340D01*
X008683Y006362D02*
X010937Y006362D01*
X010937Y006384D02*
X008683Y006384D01*
X008683Y006406D02*
X010937Y006406D01*
X010937Y006428D02*
X008683Y006428D01*
X008683Y006450D02*
X010937Y006450D01*
X010937Y006472D02*
X008683Y006472D01*
X008683Y006494D02*
X010937Y006494D01*
X010937Y006516D02*
X008683Y006516D01*
X008683Y006538D02*
X010937Y006538D01*
X010937Y006560D02*
X008683Y006560D01*
X008683Y006582D02*
X010937Y006582D01*
X010937Y006604D02*
X008683Y006604D01*
X008683Y006626D02*
X010937Y006626D01*
X010937Y006648D02*
X008683Y006648D01*
X008683Y006670D02*
X010937Y006670D01*
D31*
X015372Y006105D02*
X016503Y007236D01*
X017634Y006105D01*
X016503Y004974D01*
X015372Y006105D01*
X016104Y005373D02*
X016902Y005373D01*
X017301Y005772D02*
X015705Y005772D01*
X015438Y006171D02*
X017568Y006171D01*
X017169Y006570D02*
X015837Y006570D01*
X016236Y006969D02*
X016770Y006969D01*
D32*
X017397Y007212D02*
X017651Y007466D01*
X017725Y007392D01*
X017471Y007138D01*
X017397Y007212D01*
X017446Y007163D02*
X017496Y007163D01*
X017521Y007188D02*
X017421Y007188D01*
X017398Y007213D02*
X017546Y007213D01*
X017571Y007238D02*
X017423Y007238D01*
X017448Y007263D02*
X017596Y007263D01*
X017621Y007288D02*
X017473Y007288D01*
X017498Y007313D02*
X017646Y007313D01*
X017671Y007338D02*
X017523Y007338D01*
X017548Y007363D02*
X017696Y007363D01*
X017721Y007388D02*
X017573Y007388D01*
X017598Y007413D02*
X017704Y007413D01*
X017679Y007438D02*
X017623Y007438D01*
X017648Y007463D02*
X017654Y007463D01*
X017512Y007605D02*
X017258Y007351D01*
X017512Y007605D02*
X017586Y007531D01*
X017332Y007277D01*
X017258Y007351D01*
X017307Y007302D02*
X017357Y007302D01*
X017382Y007327D02*
X017282Y007327D01*
X017259Y007352D02*
X017407Y007352D01*
X017432Y007377D02*
X017284Y007377D01*
X017309Y007402D02*
X017457Y007402D01*
X017482Y007427D02*
X017334Y007427D01*
X017359Y007452D02*
X017507Y007452D01*
X017532Y007477D02*
X017384Y007477D01*
X017409Y007502D02*
X017557Y007502D01*
X017582Y007527D02*
X017434Y007527D01*
X017459Y007552D02*
X017565Y007552D01*
X017540Y007577D02*
X017484Y007577D01*
X017509Y007602D02*
X017515Y007602D01*
X017372Y007744D02*
X017118Y007490D01*
X017372Y007744D02*
X017446Y007670D01*
X017192Y007416D01*
X017118Y007490D01*
X017167Y007441D02*
X017217Y007441D01*
X017242Y007466D02*
X017142Y007466D01*
X017119Y007491D02*
X017267Y007491D01*
X017292Y007516D02*
X017144Y007516D01*
X017169Y007541D02*
X017317Y007541D01*
X017342Y007566D02*
X017194Y007566D01*
X017219Y007591D02*
X017367Y007591D01*
X017392Y007616D02*
X017244Y007616D01*
X017269Y007641D02*
X017417Y007641D01*
X017442Y007666D02*
X017294Y007666D01*
X017319Y007691D02*
X017425Y007691D01*
X017400Y007716D02*
X017344Y007716D01*
X017369Y007741D02*
X017375Y007741D01*
X017233Y007883D02*
X016979Y007629D01*
X017233Y007883D02*
X017307Y007809D01*
X017053Y007555D01*
X016979Y007629D01*
X017028Y007580D02*
X017078Y007580D01*
X017103Y007605D02*
X017003Y007605D01*
X016980Y007630D02*
X017128Y007630D01*
X017153Y007655D02*
X017005Y007655D01*
X017030Y007680D02*
X017178Y007680D01*
X017203Y007705D02*
X017055Y007705D01*
X017080Y007730D02*
X017228Y007730D01*
X017253Y007755D02*
X017105Y007755D01*
X017130Y007780D02*
X017278Y007780D01*
X017303Y007805D02*
X017155Y007805D01*
X017180Y007830D02*
X017286Y007830D01*
X017261Y007855D02*
X017205Y007855D01*
X017230Y007880D02*
X017236Y007880D01*
X017094Y008022D02*
X016840Y007768D01*
X017094Y008022D02*
X017168Y007948D01*
X016914Y007694D01*
X016840Y007768D01*
X016889Y007719D02*
X016939Y007719D01*
X016964Y007744D02*
X016864Y007744D01*
X016841Y007769D02*
X016989Y007769D01*
X017014Y007794D02*
X016866Y007794D01*
X016891Y007819D02*
X017039Y007819D01*
X017064Y007844D02*
X016916Y007844D01*
X016941Y007869D02*
X017089Y007869D01*
X017114Y007894D02*
X016966Y007894D01*
X016991Y007919D02*
X017139Y007919D01*
X017164Y007944D02*
X017016Y007944D01*
X017041Y007969D02*
X017147Y007969D01*
X017122Y007994D02*
X017066Y007994D01*
X017091Y008019D02*
X017097Y008019D01*
X016955Y008162D02*
X016701Y007908D01*
X016955Y008162D02*
X017029Y008088D01*
X016775Y007834D01*
X016701Y007908D01*
X016750Y007859D02*
X016800Y007859D01*
X016825Y007884D02*
X016725Y007884D01*
X016702Y007909D02*
X016850Y007909D01*
X016875Y007934D02*
X016727Y007934D01*
X016752Y007959D02*
X016900Y007959D01*
X016925Y007984D02*
X016777Y007984D01*
X016802Y008009D02*
X016950Y008009D01*
X016975Y008034D02*
X016827Y008034D01*
X016852Y008059D02*
X017000Y008059D01*
X017025Y008084D02*
X016877Y008084D01*
X016902Y008109D02*
X017008Y008109D01*
X016983Y008134D02*
X016927Y008134D01*
X016952Y008159D02*
X016958Y008159D01*
X016816Y008301D02*
X016562Y008047D01*
X016816Y008301D02*
X016890Y008227D01*
X016636Y007973D01*
X016562Y008047D01*
X016611Y007998D02*
X016661Y007998D01*
X016686Y008023D02*
X016586Y008023D01*
X016563Y008048D02*
X016711Y008048D01*
X016736Y008073D02*
X016588Y008073D01*
X016613Y008098D02*
X016761Y008098D01*
X016786Y008123D02*
X016638Y008123D01*
X016663Y008148D02*
X016811Y008148D01*
X016836Y008173D02*
X016688Y008173D01*
X016713Y008198D02*
X016861Y008198D01*
X016886Y008223D02*
X016738Y008223D01*
X016763Y008248D02*
X016869Y008248D01*
X016844Y008273D02*
X016788Y008273D01*
X016813Y008298D02*
X016819Y008298D01*
X016370Y007973D02*
X016116Y008227D01*
X016190Y008301D01*
X016444Y008047D01*
X016370Y007973D01*
X016395Y007998D02*
X016345Y007998D01*
X016320Y008023D02*
X016420Y008023D01*
X016443Y008048D02*
X016295Y008048D01*
X016270Y008073D02*
X016418Y008073D01*
X016393Y008098D02*
X016245Y008098D01*
X016220Y008123D02*
X016368Y008123D01*
X016343Y008148D02*
X016195Y008148D01*
X016170Y008173D02*
X016318Y008173D01*
X016293Y008198D02*
X016145Y008198D01*
X016120Y008223D02*
X016268Y008223D01*
X016243Y008248D02*
X016137Y008248D01*
X016162Y008273D02*
X016218Y008273D01*
X016193Y008298D02*
X016187Y008298D01*
X015977Y008088D02*
X016231Y007834D01*
X015977Y008088D02*
X016051Y008162D01*
X016305Y007908D01*
X016231Y007834D01*
X016256Y007859D02*
X016206Y007859D01*
X016181Y007884D02*
X016281Y007884D01*
X016304Y007909D02*
X016156Y007909D01*
X016131Y007934D02*
X016279Y007934D01*
X016254Y007959D02*
X016106Y007959D01*
X016081Y007984D02*
X016229Y007984D01*
X016204Y008009D02*
X016056Y008009D01*
X016031Y008034D02*
X016179Y008034D01*
X016154Y008059D02*
X016006Y008059D01*
X015981Y008084D02*
X016129Y008084D01*
X016104Y008109D02*
X015998Y008109D01*
X016023Y008134D02*
X016079Y008134D01*
X016054Y008159D02*
X016048Y008159D01*
X015838Y007948D02*
X016092Y007694D01*
X015838Y007948D02*
X015912Y008022D01*
X016166Y007768D01*
X016092Y007694D01*
X016117Y007719D02*
X016067Y007719D01*
X016042Y007744D02*
X016142Y007744D01*
X016165Y007769D02*
X016017Y007769D01*
X015992Y007794D02*
X016140Y007794D01*
X016115Y007819D02*
X015967Y007819D01*
X015942Y007844D02*
X016090Y007844D01*
X016065Y007869D02*
X015917Y007869D01*
X015892Y007894D02*
X016040Y007894D01*
X016015Y007919D02*
X015867Y007919D01*
X015842Y007944D02*
X015990Y007944D01*
X015965Y007969D02*
X015859Y007969D01*
X015884Y007994D02*
X015940Y007994D01*
X015915Y008019D02*
X015909Y008019D01*
X015699Y007809D02*
X015953Y007555D01*
X015699Y007809D02*
X015773Y007883D01*
X016027Y007629D01*
X015953Y007555D01*
X015978Y007580D02*
X015928Y007580D01*
X015903Y007605D02*
X016003Y007605D01*
X016026Y007630D02*
X015878Y007630D01*
X015853Y007655D02*
X016001Y007655D01*
X015976Y007680D02*
X015828Y007680D01*
X015803Y007705D02*
X015951Y007705D01*
X015926Y007730D02*
X015778Y007730D01*
X015753Y007755D02*
X015901Y007755D01*
X015876Y007780D02*
X015728Y007780D01*
X015703Y007805D02*
X015851Y007805D01*
X015826Y007830D02*
X015720Y007830D01*
X015745Y007855D02*
X015801Y007855D01*
X015776Y007880D02*
X015770Y007880D01*
X015559Y007670D02*
X015813Y007416D01*
X015559Y007670D02*
X015633Y007744D01*
X015887Y007490D01*
X015813Y007416D01*
X015838Y007441D02*
X015788Y007441D01*
X015763Y007466D02*
X015863Y007466D01*
X015886Y007491D02*
X015738Y007491D01*
X015713Y007516D02*
X015861Y007516D01*
X015836Y007541D02*
X015688Y007541D01*
X015663Y007566D02*
X015811Y007566D01*
X015786Y007591D02*
X015638Y007591D01*
X015613Y007616D02*
X015761Y007616D01*
X015736Y007641D02*
X015588Y007641D01*
X015563Y007666D02*
X015711Y007666D01*
X015686Y007691D02*
X015580Y007691D01*
X015605Y007716D02*
X015661Y007716D01*
X015636Y007741D02*
X015630Y007741D01*
X015420Y007531D02*
X015674Y007277D01*
X015420Y007531D02*
X015494Y007605D01*
X015748Y007351D01*
X015674Y007277D01*
X015699Y007302D02*
X015649Y007302D01*
X015624Y007327D02*
X015724Y007327D01*
X015747Y007352D02*
X015599Y007352D01*
X015574Y007377D02*
X015722Y007377D01*
X015697Y007402D02*
X015549Y007402D01*
X015524Y007427D02*
X015672Y007427D01*
X015647Y007452D02*
X015499Y007452D01*
X015474Y007477D02*
X015622Y007477D01*
X015597Y007502D02*
X015449Y007502D01*
X015424Y007527D02*
X015572Y007527D01*
X015547Y007552D02*
X015441Y007552D01*
X015466Y007577D02*
X015522Y007577D01*
X015497Y007602D02*
X015491Y007602D01*
X015281Y007392D02*
X015535Y007138D01*
X015281Y007392D02*
X015355Y007466D01*
X015609Y007212D01*
X015535Y007138D01*
X015560Y007163D02*
X015510Y007163D01*
X015485Y007188D02*
X015585Y007188D01*
X015608Y007213D02*
X015460Y007213D01*
X015435Y007238D02*
X015583Y007238D01*
X015558Y007263D02*
X015410Y007263D01*
X015385Y007288D02*
X015533Y007288D01*
X015508Y007313D02*
X015360Y007313D01*
X015335Y007338D02*
X015483Y007338D01*
X015458Y007363D02*
X015310Y007363D01*
X015285Y007388D02*
X015433Y007388D01*
X015408Y007413D02*
X015302Y007413D01*
X015327Y007438D02*
X015383Y007438D01*
X015358Y007463D02*
X015352Y007463D01*
X015142Y007252D02*
X015396Y006998D01*
X015142Y007252D02*
X015216Y007326D01*
X015470Y007072D01*
X015396Y006998D01*
X015421Y007023D02*
X015371Y007023D01*
X015346Y007048D02*
X015446Y007048D01*
X015469Y007073D02*
X015321Y007073D01*
X015296Y007098D02*
X015444Y007098D01*
X015419Y007123D02*
X015271Y007123D01*
X015246Y007148D02*
X015394Y007148D01*
X015369Y007173D02*
X015221Y007173D01*
X015196Y007198D02*
X015344Y007198D01*
X015319Y007223D02*
X015171Y007223D01*
X015146Y007248D02*
X015294Y007248D01*
X015269Y007273D02*
X015163Y007273D01*
X015188Y007298D02*
X015244Y007298D01*
X015219Y007323D02*
X015213Y007323D01*
X015003Y007113D02*
X015257Y006859D01*
X015003Y007113D02*
X015077Y007187D01*
X015331Y006933D01*
X015257Y006859D01*
X015282Y006884D02*
X015232Y006884D01*
X015207Y006909D02*
X015307Y006909D01*
X015330Y006934D02*
X015182Y006934D01*
X015157Y006959D02*
X015305Y006959D01*
X015280Y006984D02*
X015132Y006984D01*
X015107Y007009D02*
X015255Y007009D01*
X015230Y007034D02*
X015082Y007034D01*
X015057Y007059D02*
X015205Y007059D01*
X015180Y007084D02*
X015032Y007084D01*
X015007Y007109D02*
X015155Y007109D01*
X015130Y007134D02*
X015024Y007134D01*
X015049Y007159D02*
X015105Y007159D01*
X015080Y007184D02*
X015074Y007184D01*
X014863Y006974D02*
X015117Y006720D01*
X014863Y006974D02*
X014937Y007048D01*
X015191Y006794D01*
X015117Y006720D01*
X015142Y006745D02*
X015092Y006745D01*
X015067Y006770D02*
X015167Y006770D01*
X015190Y006795D02*
X015042Y006795D01*
X015017Y006820D02*
X015165Y006820D01*
X015140Y006845D02*
X014992Y006845D01*
X014967Y006870D02*
X015115Y006870D01*
X015090Y006895D02*
X014942Y006895D01*
X014917Y006920D02*
X015065Y006920D01*
X015040Y006945D02*
X014892Y006945D01*
X014867Y006970D02*
X015015Y006970D01*
X014990Y006995D02*
X014884Y006995D01*
X014909Y007020D02*
X014965Y007020D01*
X014940Y007045D02*
X014934Y007045D01*
X014724Y006835D02*
X014978Y006581D01*
X014724Y006835D02*
X014798Y006909D01*
X015052Y006655D01*
X014978Y006581D01*
X015003Y006606D02*
X014953Y006606D01*
X014928Y006631D02*
X015028Y006631D01*
X015051Y006656D02*
X014903Y006656D01*
X014878Y006681D02*
X015026Y006681D01*
X015001Y006706D02*
X014853Y006706D01*
X014828Y006731D02*
X014976Y006731D01*
X014951Y006756D02*
X014803Y006756D01*
X014778Y006781D02*
X014926Y006781D01*
X014901Y006806D02*
X014753Y006806D01*
X014728Y006831D02*
X014876Y006831D01*
X014851Y006856D02*
X014745Y006856D01*
X014770Y006881D02*
X014826Y006881D01*
X014801Y006906D02*
X014795Y006906D01*
X014585Y006696D02*
X014839Y006442D01*
X014585Y006696D02*
X014659Y006770D01*
X014913Y006516D01*
X014839Y006442D01*
X014864Y006467D02*
X014814Y006467D01*
X014789Y006492D02*
X014889Y006492D01*
X014912Y006517D02*
X014764Y006517D01*
X014739Y006542D02*
X014887Y006542D01*
X014862Y006567D02*
X014714Y006567D01*
X014689Y006592D02*
X014837Y006592D01*
X014812Y006617D02*
X014664Y006617D01*
X014639Y006642D02*
X014787Y006642D01*
X014762Y006667D02*
X014614Y006667D01*
X014589Y006692D02*
X014737Y006692D01*
X014712Y006717D02*
X014606Y006717D01*
X014631Y006742D02*
X014687Y006742D01*
X014662Y006767D02*
X014656Y006767D01*
X014446Y006556D02*
X014700Y006302D01*
X014446Y006556D02*
X014520Y006630D01*
X014774Y006376D01*
X014700Y006302D01*
X014725Y006327D02*
X014675Y006327D01*
X014650Y006352D02*
X014750Y006352D01*
X014773Y006377D02*
X014625Y006377D01*
X014600Y006402D02*
X014748Y006402D01*
X014723Y006427D02*
X014575Y006427D01*
X014550Y006452D02*
X014698Y006452D01*
X014673Y006477D02*
X014525Y006477D01*
X014500Y006502D02*
X014648Y006502D01*
X014623Y006527D02*
X014475Y006527D01*
X014450Y006552D02*
X014598Y006552D01*
X014573Y006577D02*
X014467Y006577D01*
X014492Y006602D02*
X014548Y006602D01*
X014523Y006627D02*
X014517Y006627D01*
X014307Y006417D02*
X014561Y006163D01*
X014307Y006417D02*
X014381Y006491D01*
X014635Y006237D01*
X014561Y006163D01*
X014586Y006188D02*
X014536Y006188D01*
X014511Y006213D02*
X014611Y006213D01*
X014634Y006238D02*
X014486Y006238D01*
X014461Y006263D02*
X014609Y006263D01*
X014584Y006288D02*
X014436Y006288D01*
X014411Y006313D02*
X014559Y006313D01*
X014534Y006338D02*
X014386Y006338D01*
X014361Y006363D02*
X014509Y006363D01*
X014484Y006388D02*
X014336Y006388D01*
X014311Y006413D02*
X014459Y006413D01*
X014434Y006438D02*
X014328Y006438D01*
X014353Y006463D02*
X014409Y006463D01*
X014384Y006488D02*
X014378Y006488D01*
X014635Y005972D02*
X014381Y005718D01*
X014307Y005792D01*
X014561Y006046D01*
X014635Y005972D01*
X014406Y005743D02*
X014356Y005743D01*
X014331Y005768D02*
X014431Y005768D01*
X014456Y005793D02*
X014308Y005793D01*
X014333Y005818D02*
X014481Y005818D01*
X014506Y005843D02*
X014358Y005843D01*
X014383Y005868D02*
X014531Y005868D01*
X014556Y005893D02*
X014408Y005893D01*
X014433Y005918D02*
X014581Y005918D01*
X014606Y005943D02*
X014458Y005943D01*
X014483Y005968D02*
X014631Y005968D01*
X014614Y005993D02*
X014508Y005993D01*
X014533Y006018D02*
X014589Y006018D01*
X014564Y006043D02*
X014558Y006043D01*
X014774Y005833D02*
X014520Y005579D01*
X014446Y005653D01*
X014700Y005907D01*
X014774Y005833D01*
X014545Y005604D02*
X014495Y005604D01*
X014470Y005629D02*
X014570Y005629D01*
X014595Y005654D02*
X014447Y005654D01*
X014472Y005679D02*
X014620Y005679D01*
X014645Y005704D02*
X014497Y005704D01*
X014522Y005729D02*
X014670Y005729D01*
X014695Y005754D02*
X014547Y005754D01*
X014572Y005779D02*
X014720Y005779D01*
X014745Y005804D02*
X014597Y005804D01*
X014622Y005829D02*
X014770Y005829D01*
X014753Y005854D02*
X014647Y005854D01*
X014672Y005879D02*
X014728Y005879D01*
X014703Y005904D02*
X014697Y005904D01*
X014913Y005693D02*
X014659Y005439D01*
X014585Y005513D01*
X014839Y005767D01*
X014913Y005693D01*
X014684Y005464D02*
X014634Y005464D01*
X014609Y005489D02*
X014709Y005489D01*
X014734Y005514D02*
X014586Y005514D01*
X014611Y005539D02*
X014759Y005539D01*
X014784Y005564D02*
X014636Y005564D01*
X014661Y005589D02*
X014809Y005589D01*
X014834Y005614D02*
X014686Y005614D01*
X014711Y005639D02*
X014859Y005639D01*
X014884Y005664D02*
X014736Y005664D01*
X014761Y005689D02*
X014909Y005689D01*
X014892Y005714D02*
X014786Y005714D01*
X014811Y005739D02*
X014867Y005739D01*
X014842Y005764D02*
X014836Y005764D01*
X015052Y005554D02*
X014798Y005300D01*
X014724Y005374D01*
X014978Y005628D01*
X015052Y005554D01*
X014823Y005325D02*
X014773Y005325D01*
X014748Y005350D02*
X014848Y005350D01*
X014873Y005375D02*
X014725Y005375D01*
X014750Y005400D02*
X014898Y005400D01*
X014923Y005425D02*
X014775Y005425D01*
X014800Y005450D02*
X014948Y005450D01*
X014973Y005475D02*
X014825Y005475D01*
X014850Y005500D02*
X014998Y005500D01*
X015023Y005525D02*
X014875Y005525D01*
X014900Y005550D02*
X015048Y005550D01*
X015031Y005575D02*
X014925Y005575D01*
X014950Y005600D02*
X015006Y005600D01*
X014981Y005625D02*
X014975Y005625D01*
X015191Y005415D02*
X014937Y005161D01*
X014863Y005235D01*
X015117Y005489D01*
X015191Y005415D01*
X014962Y005186D02*
X014912Y005186D01*
X014887Y005211D02*
X014987Y005211D01*
X015012Y005236D02*
X014864Y005236D01*
X014889Y005261D02*
X015037Y005261D01*
X015062Y005286D02*
X014914Y005286D01*
X014939Y005311D02*
X015087Y005311D01*
X015112Y005336D02*
X014964Y005336D01*
X014989Y005361D02*
X015137Y005361D01*
X015162Y005386D02*
X015014Y005386D01*
X015039Y005411D02*
X015187Y005411D01*
X015170Y005436D02*
X015064Y005436D01*
X015089Y005461D02*
X015145Y005461D01*
X015120Y005486D02*
X015114Y005486D01*
X015331Y005276D02*
X015077Y005022D01*
X015003Y005096D01*
X015257Y005350D01*
X015331Y005276D01*
X015102Y005047D02*
X015052Y005047D01*
X015027Y005072D02*
X015127Y005072D01*
X015152Y005097D02*
X015004Y005097D01*
X015029Y005122D02*
X015177Y005122D01*
X015202Y005147D02*
X015054Y005147D01*
X015079Y005172D02*
X015227Y005172D01*
X015252Y005197D02*
X015104Y005197D01*
X015129Y005222D02*
X015277Y005222D01*
X015302Y005247D02*
X015154Y005247D01*
X015179Y005272D02*
X015327Y005272D01*
X015310Y005297D02*
X015204Y005297D01*
X015229Y005322D02*
X015285Y005322D01*
X015260Y005347D02*
X015254Y005347D01*
X015470Y005137D02*
X015216Y004883D01*
X015142Y004957D01*
X015396Y005211D01*
X015470Y005137D01*
X015241Y004908D02*
X015191Y004908D01*
X015166Y004933D02*
X015266Y004933D01*
X015291Y004958D02*
X015143Y004958D01*
X015168Y004983D02*
X015316Y004983D01*
X015341Y005008D02*
X015193Y005008D01*
X015218Y005033D02*
X015366Y005033D01*
X015391Y005058D02*
X015243Y005058D01*
X015268Y005083D02*
X015416Y005083D01*
X015441Y005108D02*
X015293Y005108D01*
X015318Y005133D02*
X015466Y005133D01*
X015449Y005158D02*
X015343Y005158D01*
X015368Y005183D02*
X015424Y005183D01*
X015399Y005208D02*
X015393Y005208D01*
X015609Y004997D02*
X015355Y004743D01*
X015281Y004817D01*
X015535Y005071D01*
X015609Y004997D01*
X015380Y004768D02*
X015330Y004768D01*
X015305Y004793D02*
X015405Y004793D01*
X015430Y004818D02*
X015282Y004818D01*
X015307Y004843D02*
X015455Y004843D01*
X015480Y004868D02*
X015332Y004868D01*
X015357Y004893D02*
X015505Y004893D01*
X015530Y004918D02*
X015382Y004918D01*
X015407Y004943D02*
X015555Y004943D01*
X015580Y004968D02*
X015432Y004968D01*
X015457Y004993D02*
X015605Y004993D01*
X015588Y005018D02*
X015482Y005018D01*
X015507Y005043D02*
X015563Y005043D01*
X015538Y005068D02*
X015532Y005068D01*
X015748Y004858D02*
X015494Y004604D01*
X015420Y004678D01*
X015674Y004932D01*
X015748Y004858D01*
X015519Y004629D02*
X015469Y004629D01*
X015444Y004654D02*
X015544Y004654D01*
X015569Y004679D02*
X015421Y004679D01*
X015446Y004704D02*
X015594Y004704D01*
X015619Y004729D02*
X015471Y004729D01*
X015496Y004754D02*
X015644Y004754D01*
X015669Y004779D02*
X015521Y004779D01*
X015546Y004804D02*
X015694Y004804D01*
X015719Y004829D02*
X015571Y004829D01*
X015596Y004854D02*
X015744Y004854D01*
X015727Y004879D02*
X015621Y004879D01*
X015646Y004904D02*
X015702Y004904D01*
X015677Y004929D02*
X015671Y004929D01*
X015887Y004719D02*
X015633Y004465D01*
X015559Y004539D01*
X015813Y004793D01*
X015887Y004719D01*
X015658Y004490D02*
X015608Y004490D01*
X015583Y004515D02*
X015683Y004515D01*
X015708Y004540D02*
X015560Y004540D01*
X015585Y004565D02*
X015733Y004565D01*
X015758Y004590D02*
X015610Y004590D01*
X015635Y004615D02*
X015783Y004615D01*
X015808Y004640D02*
X015660Y004640D01*
X015685Y004665D02*
X015833Y004665D01*
X015858Y004690D02*
X015710Y004690D01*
X015735Y004715D02*
X015883Y004715D01*
X015866Y004740D02*
X015760Y004740D01*
X015785Y004765D02*
X015841Y004765D01*
X015816Y004790D02*
X015810Y004790D01*
X016027Y004580D02*
X015773Y004326D01*
X015699Y004400D01*
X015953Y004654D01*
X016027Y004580D01*
X015798Y004351D02*
X015748Y004351D01*
X015723Y004376D02*
X015823Y004376D01*
X015848Y004401D02*
X015700Y004401D01*
X015725Y004426D02*
X015873Y004426D01*
X015898Y004451D02*
X015750Y004451D01*
X015775Y004476D02*
X015923Y004476D01*
X015948Y004501D02*
X015800Y004501D01*
X015825Y004526D02*
X015973Y004526D01*
X015998Y004551D02*
X015850Y004551D01*
X015875Y004576D02*
X016023Y004576D01*
X016006Y004601D02*
X015900Y004601D01*
X015925Y004626D02*
X015981Y004626D01*
X015956Y004651D02*
X015950Y004651D01*
X016166Y004441D02*
X015912Y004187D01*
X015838Y004261D01*
X016092Y004515D01*
X016166Y004441D01*
X015937Y004212D02*
X015887Y004212D01*
X015862Y004237D02*
X015962Y004237D01*
X015987Y004262D02*
X015839Y004262D01*
X015864Y004287D02*
X016012Y004287D01*
X016037Y004312D02*
X015889Y004312D01*
X015914Y004337D02*
X016062Y004337D01*
X016087Y004362D02*
X015939Y004362D01*
X015964Y004387D02*
X016112Y004387D01*
X016137Y004412D02*
X015989Y004412D01*
X016014Y004437D02*
X016162Y004437D01*
X016145Y004462D02*
X016039Y004462D01*
X016064Y004487D02*
X016120Y004487D01*
X016095Y004512D02*
X016089Y004512D01*
X016305Y004302D02*
X016051Y004048D01*
X015977Y004122D01*
X016231Y004376D01*
X016305Y004302D01*
X016076Y004073D02*
X016026Y004073D01*
X016001Y004098D02*
X016101Y004098D01*
X016126Y004123D02*
X015978Y004123D01*
X016003Y004148D02*
X016151Y004148D01*
X016176Y004173D02*
X016028Y004173D01*
X016053Y004198D02*
X016201Y004198D01*
X016226Y004223D02*
X016078Y004223D01*
X016103Y004248D02*
X016251Y004248D01*
X016276Y004273D02*
X016128Y004273D01*
X016153Y004298D02*
X016301Y004298D01*
X016284Y004323D02*
X016178Y004323D01*
X016203Y004348D02*
X016259Y004348D01*
X016234Y004373D02*
X016228Y004373D01*
X016444Y004162D02*
X016190Y003908D01*
X016116Y003982D01*
X016370Y004236D01*
X016444Y004162D01*
X016215Y003933D02*
X016165Y003933D01*
X016140Y003958D02*
X016240Y003958D01*
X016265Y003983D02*
X016117Y003983D01*
X016142Y004008D02*
X016290Y004008D01*
X016315Y004033D02*
X016167Y004033D01*
X016192Y004058D02*
X016340Y004058D01*
X016365Y004083D02*
X016217Y004083D01*
X016242Y004108D02*
X016390Y004108D01*
X016415Y004133D02*
X016267Y004133D01*
X016292Y004158D02*
X016440Y004158D01*
X016423Y004183D02*
X016317Y004183D01*
X016342Y004208D02*
X016398Y004208D01*
X016373Y004233D02*
X016367Y004233D01*
X016636Y004236D02*
X016890Y003982D01*
X016816Y003908D01*
X016562Y004162D01*
X016636Y004236D01*
X016791Y003933D02*
X016841Y003933D01*
X016866Y003958D02*
X016766Y003958D01*
X016741Y003983D02*
X016889Y003983D01*
X016864Y004008D02*
X016716Y004008D01*
X016691Y004033D02*
X016839Y004033D01*
X016814Y004058D02*
X016666Y004058D01*
X016641Y004083D02*
X016789Y004083D01*
X016764Y004108D02*
X016616Y004108D01*
X016591Y004133D02*
X016739Y004133D01*
X016714Y004158D02*
X016566Y004158D01*
X016583Y004183D02*
X016689Y004183D01*
X016664Y004208D02*
X016608Y004208D01*
X016633Y004233D02*
X016639Y004233D01*
X016775Y004376D02*
X017029Y004122D01*
X016955Y004048D01*
X016701Y004302D01*
X016775Y004376D01*
X016930Y004073D02*
X016980Y004073D01*
X017005Y004098D02*
X016905Y004098D01*
X016880Y004123D02*
X017028Y004123D01*
X017003Y004148D02*
X016855Y004148D01*
X016830Y004173D02*
X016978Y004173D01*
X016953Y004198D02*
X016805Y004198D01*
X016780Y004223D02*
X016928Y004223D01*
X016903Y004248D02*
X016755Y004248D01*
X016730Y004273D02*
X016878Y004273D01*
X016853Y004298D02*
X016705Y004298D01*
X016722Y004323D02*
X016828Y004323D01*
X016803Y004348D02*
X016747Y004348D01*
X016772Y004373D02*
X016778Y004373D01*
X016914Y004515D02*
X017168Y004261D01*
X017094Y004187D01*
X016840Y004441D01*
X016914Y004515D01*
X017069Y004212D02*
X017119Y004212D01*
X017144Y004237D02*
X017044Y004237D01*
X017019Y004262D02*
X017167Y004262D01*
X017142Y004287D02*
X016994Y004287D01*
X016969Y004312D02*
X017117Y004312D01*
X017092Y004337D02*
X016944Y004337D01*
X016919Y004362D02*
X017067Y004362D01*
X017042Y004387D02*
X016894Y004387D01*
X016869Y004412D02*
X017017Y004412D01*
X016992Y004437D02*
X016844Y004437D01*
X016861Y004462D02*
X016967Y004462D01*
X016942Y004487D02*
X016886Y004487D01*
X016911Y004512D02*
X016917Y004512D01*
X017053Y004654D02*
X017307Y004400D01*
X017233Y004326D01*
X016979Y004580D01*
X017053Y004654D01*
X017208Y004351D02*
X017258Y004351D01*
X017283Y004376D02*
X017183Y004376D01*
X017158Y004401D02*
X017306Y004401D01*
X017281Y004426D02*
X017133Y004426D01*
X017108Y004451D02*
X017256Y004451D01*
X017231Y004476D02*
X017083Y004476D01*
X017058Y004501D02*
X017206Y004501D01*
X017181Y004526D02*
X017033Y004526D01*
X017008Y004551D02*
X017156Y004551D01*
X017131Y004576D02*
X016983Y004576D01*
X017000Y004601D02*
X017106Y004601D01*
X017081Y004626D02*
X017025Y004626D01*
X017050Y004651D02*
X017056Y004651D01*
X017192Y004793D02*
X017446Y004539D01*
X017372Y004465D01*
X017118Y004719D01*
X017192Y004793D01*
X017347Y004490D02*
X017397Y004490D01*
X017422Y004515D02*
X017322Y004515D01*
X017297Y004540D02*
X017445Y004540D01*
X017420Y004565D02*
X017272Y004565D01*
X017247Y004590D02*
X017395Y004590D01*
X017370Y004615D02*
X017222Y004615D01*
X017197Y004640D02*
X017345Y004640D01*
X017320Y004665D02*
X017172Y004665D01*
X017147Y004690D02*
X017295Y004690D01*
X017270Y004715D02*
X017122Y004715D01*
X017139Y004740D02*
X017245Y004740D01*
X017220Y004765D02*
X017164Y004765D01*
X017189Y004790D02*
X017195Y004790D01*
X017332Y004932D02*
X017586Y004678D01*
X017512Y004604D01*
X017258Y004858D01*
X017332Y004932D01*
X017487Y004629D02*
X017537Y004629D01*
X017562Y004654D02*
X017462Y004654D01*
X017437Y004679D02*
X017585Y004679D01*
X017560Y004704D02*
X017412Y004704D01*
X017387Y004729D02*
X017535Y004729D01*
X017510Y004754D02*
X017362Y004754D01*
X017337Y004779D02*
X017485Y004779D01*
X017460Y004804D02*
X017312Y004804D01*
X017287Y004829D02*
X017435Y004829D01*
X017410Y004854D02*
X017262Y004854D01*
X017279Y004879D02*
X017385Y004879D01*
X017360Y004904D02*
X017304Y004904D01*
X017329Y004929D02*
X017335Y004929D01*
X017471Y005071D02*
X017725Y004817D01*
X017651Y004743D01*
X017397Y004997D01*
X017471Y005071D01*
X017626Y004768D02*
X017676Y004768D01*
X017701Y004793D02*
X017601Y004793D01*
X017576Y004818D02*
X017724Y004818D01*
X017699Y004843D02*
X017551Y004843D01*
X017526Y004868D02*
X017674Y004868D01*
X017649Y004893D02*
X017501Y004893D01*
X017476Y004918D02*
X017624Y004918D01*
X017599Y004943D02*
X017451Y004943D01*
X017426Y004968D02*
X017574Y004968D01*
X017549Y004993D02*
X017401Y004993D01*
X017418Y005018D02*
X017524Y005018D01*
X017499Y005043D02*
X017443Y005043D01*
X017468Y005068D02*
X017474Y005068D01*
X017610Y005211D02*
X017864Y004957D01*
X017790Y004883D01*
X017536Y005137D01*
X017610Y005211D01*
X017765Y004908D02*
X017815Y004908D01*
X017840Y004933D02*
X017740Y004933D01*
X017715Y004958D02*
X017863Y004958D01*
X017838Y004983D02*
X017690Y004983D01*
X017665Y005008D02*
X017813Y005008D01*
X017788Y005033D02*
X017640Y005033D01*
X017615Y005058D02*
X017763Y005058D01*
X017738Y005083D02*
X017590Y005083D01*
X017565Y005108D02*
X017713Y005108D01*
X017688Y005133D02*
X017540Y005133D01*
X017557Y005158D02*
X017663Y005158D01*
X017638Y005183D02*
X017582Y005183D01*
X017607Y005208D02*
X017613Y005208D01*
X017749Y005350D02*
X018003Y005096D01*
X017929Y005022D01*
X017675Y005276D01*
X017749Y005350D01*
X017904Y005047D02*
X017954Y005047D01*
X017979Y005072D02*
X017879Y005072D01*
X017854Y005097D02*
X018002Y005097D01*
X017977Y005122D02*
X017829Y005122D01*
X017804Y005147D02*
X017952Y005147D01*
X017927Y005172D02*
X017779Y005172D01*
X017754Y005197D02*
X017902Y005197D01*
X017877Y005222D02*
X017729Y005222D01*
X017704Y005247D02*
X017852Y005247D01*
X017827Y005272D02*
X017679Y005272D01*
X017696Y005297D02*
X017802Y005297D01*
X017777Y005322D02*
X017721Y005322D01*
X017746Y005347D02*
X017752Y005347D01*
X017888Y005489D02*
X018142Y005235D01*
X018068Y005161D01*
X017814Y005415D01*
X017888Y005489D01*
X018043Y005186D02*
X018093Y005186D01*
X018118Y005211D02*
X018018Y005211D01*
X017993Y005236D02*
X018141Y005236D01*
X018116Y005261D02*
X017968Y005261D01*
X017943Y005286D02*
X018091Y005286D01*
X018066Y005311D02*
X017918Y005311D01*
X017893Y005336D02*
X018041Y005336D01*
X018016Y005361D02*
X017868Y005361D01*
X017843Y005386D02*
X017991Y005386D01*
X017966Y005411D02*
X017818Y005411D01*
X017835Y005436D02*
X017941Y005436D01*
X017916Y005461D02*
X017860Y005461D01*
X017885Y005486D02*
X017891Y005486D01*
X018028Y005628D02*
X018282Y005374D01*
X018208Y005300D01*
X017954Y005554D01*
X018028Y005628D01*
X018183Y005325D02*
X018233Y005325D01*
X018258Y005350D02*
X018158Y005350D01*
X018133Y005375D02*
X018281Y005375D01*
X018256Y005400D02*
X018108Y005400D01*
X018083Y005425D02*
X018231Y005425D01*
X018206Y005450D02*
X018058Y005450D01*
X018033Y005475D02*
X018181Y005475D01*
X018156Y005500D02*
X018008Y005500D01*
X017983Y005525D02*
X018131Y005525D01*
X018106Y005550D02*
X017958Y005550D01*
X017975Y005575D02*
X018081Y005575D01*
X018056Y005600D02*
X018000Y005600D01*
X018025Y005625D02*
X018031Y005625D01*
X018167Y005767D02*
X018421Y005513D01*
X018347Y005439D01*
X018093Y005693D01*
X018167Y005767D01*
X018322Y005464D02*
X018372Y005464D01*
X018397Y005489D02*
X018297Y005489D01*
X018272Y005514D02*
X018420Y005514D01*
X018395Y005539D02*
X018247Y005539D01*
X018222Y005564D02*
X018370Y005564D01*
X018345Y005589D02*
X018197Y005589D01*
X018172Y005614D02*
X018320Y005614D01*
X018295Y005639D02*
X018147Y005639D01*
X018122Y005664D02*
X018270Y005664D01*
X018245Y005689D02*
X018097Y005689D01*
X018114Y005714D02*
X018220Y005714D01*
X018195Y005739D02*
X018139Y005739D01*
X018164Y005764D02*
X018170Y005764D01*
X018306Y005907D02*
X018560Y005653D01*
X018486Y005579D01*
X018232Y005833D01*
X018306Y005907D01*
X018461Y005604D02*
X018511Y005604D01*
X018536Y005629D02*
X018436Y005629D01*
X018411Y005654D02*
X018559Y005654D01*
X018534Y005679D02*
X018386Y005679D01*
X018361Y005704D02*
X018509Y005704D01*
X018484Y005729D02*
X018336Y005729D01*
X018311Y005754D02*
X018459Y005754D01*
X018434Y005779D02*
X018286Y005779D01*
X018261Y005804D02*
X018409Y005804D01*
X018384Y005829D02*
X018236Y005829D01*
X018253Y005854D02*
X018359Y005854D01*
X018334Y005879D02*
X018278Y005879D01*
X018303Y005904D02*
X018309Y005904D01*
X018445Y006046D02*
X018699Y005792D01*
X018625Y005718D01*
X018371Y005972D01*
X018445Y006046D01*
X018600Y005743D02*
X018650Y005743D01*
X018675Y005768D02*
X018575Y005768D01*
X018550Y005793D02*
X018698Y005793D01*
X018673Y005818D02*
X018525Y005818D01*
X018500Y005843D02*
X018648Y005843D01*
X018623Y005868D02*
X018475Y005868D01*
X018450Y005893D02*
X018598Y005893D01*
X018573Y005918D02*
X018425Y005918D01*
X018400Y005943D02*
X018548Y005943D01*
X018523Y005968D02*
X018375Y005968D01*
X018392Y005993D02*
X018498Y005993D01*
X018473Y006018D02*
X018417Y006018D01*
X018442Y006043D02*
X018448Y006043D01*
X018371Y006237D02*
X018625Y006491D01*
X018699Y006417D01*
X018445Y006163D01*
X018371Y006237D01*
X018420Y006188D02*
X018470Y006188D01*
X018495Y006213D02*
X018395Y006213D01*
X018372Y006238D02*
X018520Y006238D01*
X018545Y006263D02*
X018397Y006263D01*
X018422Y006288D02*
X018570Y006288D01*
X018595Y006313D02*
X018447Y006313D01*
X018472Y006338D02*
X018620Y006338D01*
X018645Y006363D02*
X018497Y006363D01*
X018522Y006388D02*
X018670Y006388D01*
X018695Y006413D02*
X018547Y006413D01*
X018572Y006438D02*
X018678Y006438D01*
X018653Y006463D02*
X018597Y006463D01*
X018622Y006488D02*
X018628Y006488D01*
X018486Y006630D02*
X018232Y006376D01*
X018486Y006630D02*
X018560Y006556D01*
X018306Y006302D01*
X018232Y006376D01*
X018281Y006327D02*
X018331Y006327D01*
X018356Y006352D02*
X018256Y006352D01*
X018233Y006377D02*
X018381Y006377D01*
X018406Y006402D02*
X018258Y006402D01*
X018283Y006427D02*
X018431Y006427D01*
X018456Y006452D02*
X018308Y006452D01*
X018333Y006477D02*
X018481Y006477D01*
X018506Y006502D02*
X018358Y006502D01*
X018383Y006527D02*
X018531Y006527D01*
X018556Y006552D02*
X018408Y006552D01*
X018433Y006577D02*
X018539Y006577D01*
X018514Y006602D02*
X018458Y006602D01*
X018483Y006627D02*
X018489Y006627D01*
X018347Y006770D02*
X018093Y006516D01*
X018347Y006770D02*
X018421Y006696D01*
X018167Y006442D01*
X018093Y006516D01*
X018142Y006467D02*
X018192Y006467D01*
X018217Y006492D02*
X018117Y006492D01*
X018094Y006517D02*
X018242Y006517D01*
X018267Y006542D02*
X018119Y006542D01*
X018144Y006567D02*
X018292Y006567D01*
X018317Y006592D02*
X018169Y006592D01*
X018194Y006617D02*
X018342Y006617D01*
X018367Y006642D02*
X018219Y006642D01*
X018244Y006667D02*
X018392Y006667D01*
X018417Y006692D02*
X018269Y006692D01*
X018294Y006717D02*
X018400Y006717D01*
X018375Y006742D02*
X018319Y006742D01*
X018344Y006767D02*
X018350Y006767D01*
X018208Y006909D02*
X017954Y006655D01*
X018208Y006909D02*
X018282Y006835D01*
X018028Y006581D01*
X017954Y006655D01*
X018003Y006606D02*
X018053Y006606D01*
X018078Y006631D02*
X017978Y006631D01*
X017955Y006656D02*
X018103Y006656D01*
X018128Y006681D02*
X017980Y006681D01*
X018005Y006706D02*
X018153Y006706D01*
X018178Y006731D02*
X018030Y006731D01*
X018055Y006756D02*
X018203Y006756D01*
X018228Y006781D02*
X018080Y006781D01*
X018105Y006806D02*
X018253Y006806D01*
X018278Y006831D02*
X018130Y006831D01*
X018155Y006856D02*
X018261Y006856D01*
X018236Y006881D02*
X018180Y006881D01*
X018205Y006906D02*
X018211Y006906D01*
X018068Y007048D02*
X017814Y006794D01*
X018068Y007048D02*
X018142Y006974D01*
X017888Y006720D01*
X017814Y006794D01*
X017863Y006745D02*
X017913Y006745D01*
X017938Y006770D02*
X017838Y006770D01*
X017815Y006795D02*
X017963Y006795D01*
X017988Y006820D02*
X017840Y006820D01*
X017865Y006845D02*
X018013Y006845D01*
X018038Y006870D02*
X017890Y006870D01*
X017915Y006895D02*
X018063Y006895D01*
X018088Y006920D02*
X017940Y006920D01*
X017965Y006945D02*
X018113Y006945D01*
X018138Y006970D02*
X017990Y006970D01*
X018015Y006995D02*
X018121Y006995D01*
X018096Y007020D02*
X018040Y007020D01*
X018065Y007045D02*
X018071Y007045D01*
X017929Y007187D02*
X017675Y006933D01*
X017929Y007187D02*
X018003Y007113D01*
X017749Y006859D01*
X017675Y006933D01*
X017724Y006884D02*
X017774Y006884D01*
X017799Y006909D02*
X017699Y006909D01*
X017676Y006934D02*
X017824Y006934D01*
X017849Y006959D02*
X017701Y006959D01*
X017726Y006984D02*
X017874Y006984D01*
X017899Y007009D02*
X017751Y007009D01*
X017776Y007034D02*
X017924Y007034D01*
X017949Y007059D02*
X017801Y007059D01*
X017826Y007084D02*
X017974Y007084D01*
X017999Y007109D02*
X017851Y007109D01*
X017876Y007134D02*
X017982Y007134D01*
X017957Y007159D02*
X017901Y007159D01*
X017926Y007184D02*
X017932Y007184D01*
X017790Y007326D02*
X017536Y007072D01*
X017790Y007326D02*
X017864Y007252D01*
X017610Y006998D01*
X017536Y007072D01*
X017585Y007023D02*
X017635Y007023D01*
X017660Y007048D02*
X017560Y007048D01*
X017537Y007073D02*
X017685Y007073D01*
X017710Y007098D02*
X017562Y007098D01*
X017587Y007123D02*
X017735Y007123D01*
X017760Y007148D02*
X017612Y007148D01*
X017637Y007173D02*
X017785Y007173D01*
X017810Y007198D02*
X017662Y007198D01*
X017687Y007223D02*
X017835Y007223D01*
X017860Y007248D02*
X017712Y007248D01*
X017737Y007273D02*
X017843Y007273D01*
X017818Y007298D02*
X017762Y007298D01*
X017787Y007323D02*
X017793Y007323D01*
D33*
X010007Y008742D03*
M02*
