G75*
G70*
%OFA0B0*%
%FSLAX24Y24*%
%IPPOS*%
%LPD*%
%AMOC8*
5,1,8,0,0,1.08239X$1,22.5*
%
%ADD10C,0.0325*%
%ADD11C,0.0266*%
%ADD12C,0.0496*%
%ADD13C,0.0258*%
%ADD14C,0.0297*%
%ADD15C,0.0376*%
%ADD16C,0.0337*%
%ADD17C,0.0059*%
%ADD18C,0.0416*%
D10*
X005991Y007089D03*
D11*
X005991Y007443D03*
D12*
X002975Y007933D03*
X002897Y007933D03*
X002751Y007933D03*
X002621Y007933D03*
X002550Y007933D03*
X002550Y010496D03*
X002621Y010496D03*
X002751Y010496D03*
X002897Y010496D03*
X002975Y010496D03*
D13*
X009062Y008231D03*
X009062Y007876D03*
X010597Y007443D03*
X011070Y007502D03*
X011503Y007404D03*
X014062Y007049D03*
X014338Y006813D03*
X015617Y006912D03*
X016503Y007719D03*
X017271Y007030D03*
X017704Y007935D03*
X019712Y007502D03*
X020125Y007404D03*
X020440Y007286D03*
X018078Y006105D03*
X019554Y004668D03*
X018156Y003427D03*
X018708Y003034D03*
X019456Y002797D03*
X018786Y001656D03*
X019456Y001420D03*
X018432Y001144D03*
X017763Y001183D03*
X017172Y001656D03*
X016306Y002089D03*
X016109Y002483D03*
X015361Y002797D03*
X014849Y002837D03*
X013353Y002837D03*
X012842Y002837D03*
X011818Y002994D03*
X010755Y003270D03*
X010755Y003624D03*
X009298Y003624D03*
X008275Y003742D03*
X007448Y004175D03*
X007723Y004412D03*
X007015Y004451D03*
X007015Y004805D03*
X007527Y004845D03*
X007015Y005160D03*
X005125Y005868D03*
X003038Y006301D03*
X007192Y003762D03*
X005086Y003152D03*
X004771Y003349D03*
X005086Y002719D03*
X004653Y001695D03*
X006503Y001734D03*
X007290Y001892D03*
X007645Y001892D03*
X009259Y002207D03*
X009633Y002109D03*
X010440Y001734D03*
X010440Y001341D03*
X012330Y001459D03*
X012851Y001764D03*
X013353Y001734D03*
X014851Y001733D03*
X015361Y001734D03*
X017330Y003073D03*
X016542Y004530D03*
X015086Y004648D03*
X014653Y004727D03*
X014259Y005475D03*
X013629Y005750D03*
X012605Y005553D03*
X012290Y005435D03*
X011857Y005475D03*
X012290Y005790D03*
X012094Y004412D03*
D14*
X011739Y004077D03*
X007763Y005829D03*
X009180Y007483D03*
X008314Y007797D03*
X007408Y007797D03*
X005440Y008506D03*
X004534Y007916D03*
X009554Y008231D03*
X010007Y008231D03*
X010007Y008742D03*
X010873Y008231D03*
X012369Y008231D03*
X013531Y009195D03*
X013511Y010671D03*
X007566Y010790D03*
X003983Y004294D03*
X003845Y002246D03*
X004259Y002246D03*
X004968Y001931D03*
D15*
X011897Y007168D03*
X011857Y010435D03*
X005755Y009687D03*
D16*
X010912Y009687D03*
D17*
X002273Y007733D02*
X002273Y001117D01*
X002617Y000773D01*
X019680Y000773D01*
X020733Y001825D01*
X020733Y009911D01*
X019680Y010964D01*
X002617Y010964D01*
X002487Y010834D01*
X002818Y010834D01*
X002824Y010831D01*
X002830Y010834D01*
X003043Y010834D01*
X003167Y010782D01*
X003262Y010688D01*
X003313Y010563D01*
X003313Y010429D01*
X003262Y010305D01*
X003167Y010210D01*
X003043Y010159D01*
X002830Y010159D01*
X002824Y010161D01*
X002818Y010159D01*
X002483Y010159D01*
X002359Y010210D01*
X002273Y010296D01*
X002273Y008134D01*
X002359Y008219D01*
X002483Y008271D01*
X002818Y008271D01*
X002824Y008269D01*
X002830Y008271D01*
X003043Y008271D01*
X003167Y008219D01*
X003262Y008125D01*
X003313Y008000D01*
X003313Y007866D01*
X003262Y007742D01*
X003167Y007647D01*
X003043Y007596D01*
X002830Y007596D01*
X002824Y007598D01*
X002818Y007596D01*
X002483Y007596D01*
X002359Y007647D01*
X002273Y007733D01*
X002273Y007690D02*
X002316Y007690D01*
X002273Y007633D02*
X002394Y007633D01*
X002273Y007575D02*
X005764Y007575D01*
X005759Y007567D02*
X005739Y007520D01*
X005729Y007469D01*
X005729Y007445D01*
X005989Y007445D01*
X005989Y007441D01*
X005729Y007441D01*
X005729Y007417D01*
X005739Y007367D01*
X005759Y007319D01*
X005787Y007276D01*
X005804Y007259D01*
X005777Y007232D01*
X005739Y007139D01*
X005739Y007039D01*
X005777Y006946D01*
X005848Y006875D01*
X005941Y006837D01*
X006041Y006837D01*
X006134Y006875D01*
X006205Y006946D01*
X006243Y007039D01*
X006243Y007139D01*
X006205Y007232D01*
X006178Y007259D01*
X006195Y007276D01*
X006224Y007319D01*
X006244Y007367D01*
X006254Y007417D01*
X006254Y007441D01*
X005993Y007441D01*
X005993Y007445D01*
X006254Y007445D01*
X006254Y007469D01*
X006244Y007520D01*
X006224Y007567D01*
X006195Y007610D01*
X006158Y007647D01*
X006115Y007676D01*
X006068Y007696D01*
X006017Y007706D01*
X005993Y007706D01*
X005993Y007445D01*
X005989Y007445D01*
X005989Y007706D01*
X005965Y007706D01*
X005915Y007696D01*
X005867Y007676D01*
X005824Y007647D01*
X005787Y007610D01*
X005759Y007567D01*
X005738Y007518D02*
X002273Y007518D01*
X002273Y007460D02*
X005729Y007460D01*
X005732Y007402D02*
X002273Y007402D01*
X002273Y007345D02*
X005748Y007345D01*
X005780Y007287D02*
X002273Y007287D01*
X002273Y007230D02*
X005777Y007230D01*
X005753Y007172D02*
X002273Y007172D01*
X002273Y007115D02*
X005739Y007115D01*
X005739Y007057D02*
X002273Y007057D01*
X002273Y007000D02*
X005755Y007000D01*
X005781Y006942D02*
X002273Y006942D01*
X002273Y006884D02*
X005839Y006884D01*
X006143Y006884D02*
X014119Y006884D01*
X014119Y006904D02*
X014119Y006723D01*
X014247Y006595D01*
X014428Y006595D01*
X014556Y006723D01*
X014556Y006904D01*
X014428Y007032D01*
X014247Y007032D01*
X014119Y006904D01*
X014157Y006942D02*
X012064Y006942D01*
X012054Y006932D02*
X012132Y007010D01*
X012174Y007112D01*
X012174Y007223D01*
X012132Y007325D01*
X012054Y007403D01*
X011952Y007445D01*
X011841Y007445D01*
X011739Y007403D01*
X011661Y007325D01*
X011619Y007223D01*
X011619Y007112D01*
X011661Y007010D01*
X011739Y006932D01*
X011841Y006890D01*
X011952Y006890D01*
X012054Y006932D01*
X012121Y007000D02*
X014215Y007000D01*
X014119Y006827D02*
X002273Y006827D01*
X002273Y006769D02*
X014119Y006769D01*
X014130Y006712D02*
X002273Y006712D01*
X002273Y006654D02*
X014187Y006654D01*
X014245Y006597D02*
X002273Y006597D01*
X002273Y006539D02*
X020733Y006539D01*
X020733Y006482D02*
X002273Y006482D01*
X002273Y006424D02*
X020733Y006424D01*
X020733Y006366D02*
X002273Y006366D01*
X002273Y006309D02*
X020733Y006309D01*
X020733Y006251D02*
X002273Y006251D01*
X002273Y006194D02*
X020733Y006194D01*
X020733Y006136D02*
X002273Y006136D01*
X002273Y006079D02*
X020733Y006079D01*
X020733Y006021D02*
X002273Y006021D01*
X002273Y005964D02*
X013533Y005964D01*
X013538Y005969D02*
X013410Y005841D01*
X013410Y005660D01*
X013538Y005532D01*
X013719Y005532D01*
X013848Y005660D01*
X013848Y005841D01*
X013719Y005969D01*
X013538Y005969D01*
X013476Y005906D02*
X002273Y005906D01*
X002273Y005848D02*
X013418Y005848D01*
X013410Y005791D02*
X002273Y005791D01*
X002273Y005733D02*
X012476Y005733D01*
X012515Y005772D02*
X012389Y005646D01*
X012381Y005654D01*
X012200Y005654D01*
X012072Y005526D01*
X012072Y005345D01*
X012200Y005217D01*
X012381Y005217D01*
X012507Y005343D01*
X012515Y005335D01*
X012696Y005335D01*
X012824Y005463D01*
X012824Y005644D01*
X012696Y005772D01*
X012515Y005772D01*
X012419Y005676D02*
X002273Y005676D01*
X002273Y005618D02*
X012164Y005618D01*
X012107Y005561D02*
X002273Y005561D01*
X002273Y005503D02*
X012072Y005503D01*
X012072Y005446D02*
X002273Y005446D01*
X002273Y005388D02*
X012072Y005388D01*
X012086Y005330D02*
X007153Y005330D01*
X007105Y005378D02*
X006924Y005378D01*
X006796Y005250D01*
X006796Y005069D01*
X006883Y004983D01*
X006796Y004896D01*
X006796Y004715D01*
X006883Y004628D01*
X006796Y004542D01*
X006796Y004360D01*
X006924Y004232D01*
X007105Y004232D01*
X007233Y004360D01*
X007233Y004542D01*
X007147Y004628D01*
X007233Y004715D01*
X007233Y004896D01*
X007147Y004983D01*
X007233Y005069D01*
X007233Y005250D01*
X007105Y005378D01*
X007211Y005273D02*
X012144Y005273D01*
X012437Y005273D02*
X020733Y005273D01*
X020733Y005330D02*
X012495Y005330D01*
X012749Y005388D02*
X020733Y005388D01*
X020733Y005446D02*
X012807Y005446D01*
X012824Y005503D02*
X020733Y005503D01*
X020733Y005561D02*
X013749Y005561D01*
X013806Y005618D02*
X020733Y005618D01*
X020733Y005676D02*
X013848Y005676D01*
X013848Y005733D02*
X020733Y005733D01*
X020733Y005791D02*
X013848Y005791D01*
X013840Y005848D02*
X020733Y005848D01*
X020733Y005906D02*
X013782Y005906D01*
X013725Y005964D02*
X020733Y005964D01*
X020733Y006597D02*
X014430Y006597D01*
X014488Y006654D02*
X020733Y006654D01*
X020733Y006712D02*
X014545Y006712D01*
X014556Y006769D02*
X020733Y006769D01*
X020733Y006827D02*
X014556Y006827D01*
X014556Y006884D02*
X020733Y006884D01*
X020733Y006942D02*
X014518Y006942D01*
X014460Y007000D02*
X020733Y007000D01*
X020733Y007057D02*
X012151Y007057D01*
X012174Y007115D02*
X020302Y007115D01*
X020349Y007067D02*
X020530Y007067D01*
X020659Y007195D01*
X020659Y007376D01*
X020530Y007504D01*
X020349Y007504D01*
X020342Y007496D01*
X020216Y007622D01*
X020034Y007622D01*
X019906Y007494D01*
X019906Y007313D01*
X020034Y007185D01*
X020216Y007185D01*
X020223Y007193D01*
X020349Y007067D01*
X020244Y007172D02*
X012174Y007172D01*
X012171Y007230D02*
X019990Y007230D01*
X019932Y007287D02*
X012148Y007287D01*
X012112Y007345D02*
X019906Y007345D01*
X019906Y007402D02*
X012054Y007402D01*
X011739Y007402D02*
X011279Y007402D01*
X011288Y007412D02*
X011160Y007284D01*
X010979Y007284D01*
X010851Y007412D01*
X010851Y007593D01*
X010979Y007721D01*
X011160Y007721D01*
X011288Y007593D01*
X011288Y007412D01*
X011288Y007460D02*
X019906Y007460D01*
X019930Y007518D02*
X016611Y007518D01*
X016593Y007500D02*
X016722Y007628D01*
X016722Y007809D01*
X016593Y007937D01*
X016412Y007937D01*
X016284Y007809D01*
X016284Y007628D01*
X016412Y007500D01*
X016593Y007500D01*
X016668Y007575D02*
X019987Y007575D01*
X020263Y007575D02*
X020733Y007575D01*
X020733Y007518D02*
X020320Y007518D01*
X020575Y007460D02*
X020733Y007460D01*
X020733Y007402D02*
X020632Y007402D01*
X020659Y007345D02*
X020733Y007345D01*
X020733Y007287D02*
X020659Y007287D01*
X020659Y007230D02*
X020733Y007230D01*
X020733Y007172D02*
X020636Y007172D01*
X020578Y007115D02*
X020733Y007115D01*
X020733Y007633D02*
X016722Y007633D01*
X016722Y007690D02*
X020733Y007690D01*
X020733Y007748D02*
X016722Y007748D01*
X016722Y007805D02*
X020733Y007805D01*
X020733Y007863D02*
X016668Y007863D01*
X016610Y007920D02*
X020733Y007920D01*
X020733Y007978D02*
X009269Y007978D01*
X009281Y007967D02*
X009153Y008095D01*
X008971Y008095D01*
X008843Y007967D01*
X008843Y007786D01*
X008971Y007658D01*
X009153Y007658D01*
X009281Y007786D01*
X009281Y007967D01*
X009281Y007920D02*
X016396Y007920D01*
X016338Y007863D02*
X009281Y007863D01*
X009281Y007805D02*
X016284Y007805D01*
X016284Y007748D02*
X009243Y007748D01*
X009185Y007690D02*
X010949Y007690D01*
X010891Y007633D02*
X010717Y007633D01*
X010688Y007662D02*
X010507Y007662D01*
X010379Y007534D01*
X010379Y007353D01*
X010507Y007225D01*
X010688Y007225D01*
X010816Y007353D01*
X010816Y007534D01*
X010688Y007662D01*
X010775Y007575D02*
X010851Y007575D01*
X010851Y007518D02*
X010816Y007518D01*
X010816Y007460D02*
X010851Y007460D01*
X010860Y007402D02*
X010816Y007402D01*
X010808Y007345D02*
X010918Y007345D01*
X010976Y007287D02*
X010751Y007287D01*
X010693Y007230D02*
X011622Y007230D01*
X011619Y007172D02*
X006229Y007172D01*
X006243Y007115D02*
X011619Y007115D01*
X011642Y007057D02*
X006243Y007057D01*
X006227Y007000D02*
X011672Y007000D01*
X011730Y006942D02*
X006201Y006942D01*
X006206Y007230D02*
X010502Y007230D01*
X010444Y007287D02*
X006203Y007287D01*
X006235Y007345D02*
X010387Y007345D01*
X010379Y007402D02*
X006251Y007402D01*
X006254Y007460D02*
X010379Y007460D01*
X010379Y007518D02*
X006244Y007518D01*
X006219Y007575D02*
X008199Y007575D01*
X008215Y007559D02*
X008413Y007559D01*
X008552Y007699D01*
X008552Y007896D01*
X008413Y008036D01*
X008215Y008036D01*
X008076Y007896D01*
X008076Y007699D01*
X008215Y007559D01*
X008142Y007633D02*
X006173Y007633D01*
X006081Y007690D02*
X008084Y007690D01*
X008076Y007748D02*
X003264Y007748D01*
X003288Y007805D02*
X008076Y007805D01*
X008076Y007863D02*
X003312Y007863D01*
X003313Y007920D02*
X008100Y007920D01*
X008158Y007978D02*
X003313Y007978D01*
X003298Y008036D02*
X008215Y008036D01*
X008413Y008036D02*
X008912Y008036D01*
X008970Y008093D02*
X003275Y008093D01*
X003235Y008151D02*
X009316Y008151D01*
X009316Y008132D02*
X009455Y007992D01*
X009653Y007992D01*
X009792Y008132D01*
X009792Y008329D01*
X009653Y008469D01*
X009455Y008469D01*
X009316Y008329D01*
X009316Y008132D01*
X009355Y008093D02*
X009154Y008093D01*
X009212Y008036D02*
X009412Y008036D01*
X009696Y008036D02*
X020733Y008036D01*
X020733Y008093D02*
X009754Y008093D01*
X009792Y008151D02*
X020733Y008151D01*
X020733Y008208D02*
X009792Y008208D01*
X009792Y008266D02*
X020733Y008266D01*
X020733Y008323D02*
X009792Y008323D01*
X009741Y008381D02*
X020733Y008381D01*
X020733Y008438D02*
X009683Y008438D01*
X009425Y008438D02*
X002273Y008438D01*
X002273Y008381D02*
X009368Y008381D01*
X009316Y008323D02*
X002273Y008323D01*
X002273Y008266D02*
X002471Y008266D01*
X002348Y008208D02*
X002273Y008208D01*
X002273Y008151D02*
X002290Y008151D01*
X002273Y008496D02*
X020733Y008496D01*
X020733Y008554D02*
X002273Y008554D01*
X002273Y008611D02*
X020733Y008611D01*
X020733Y008669D02*
X002273Y008669D01*
X002273Y008726D02*
X020733Y008726D01*
X020733Y008784D02*
X004927Y008784D01*
X004978Y008805D02*
X005062Y008889D01*
X005107Y008998D01*
X005107Y009116D01*
X005062Y009226D01*
X004978Y009309D01*
X004869Y009355D01*
X004751Y009355D01*
X004642Y009309D01*
X004558Y009226D01*
X004513Y009116D01*
X004513Y008998D01*
X004558Y008889D01*
X004642Y008805D01*
X004751Y008760D01*
X004869Y008760D01*
X004978Y008805D01*
X005015Y008841D02*
X020733Y008841D01*
X020733Y008899D02*
X005066Y008899D01*
X005090Y008956D02*
X020733Y008956D01*
X020733Y009014D02*
X013686Y009014D01*
X013629Y008957D02*
X013769Y009096D01*
X013769Y009294D01*
X013629Y009433D01*
X013432Y009433D01*
X013292Y009294D01*
X013292Y009096D01*
X013432Y008957D01*
X013629Y008957D01*
X013744Y009072D02*
X020733Y009072D01*
X020733Y009129D02*
X013769Y009129D01*
X013769Y009187D02*
X020733Y009187D01*
X020733Y009244D02*
X013769Y009244D01*
X013761Y009302D02*
X020733Y009302D01*
X020733Y009359D02*
X013703Y009359D01*
X013646Y009417D02*
X020733Y009417D01*
X020733Y009474D02*
X011064Y009474D01*
X011059Y009469D02*
X011131Y009541D01*
X011170Y009636D01*
X011170Y009739D01*
X011131Y009833D01*
X011059Y009906D01*
X010964Y009945D01*
X010861Y009945D01*
X010766Y009906D01*
X010694Y009833D01*
X010654Y009739D01*
X010654Y009636D01*
X010694Y009541D01*
X010766Y009469D01*
X010861Y009429D01*
X010964Y009429D01*
X011059Y009469D01*
X011122Y009532D02*
X020733Y009532D01*
X020733Y009590D02*
X011151Y009590D01*
X011170Y009647D02*
X020733Y009647D01*
X020733Y009705D02*
X011170Y009705D01*
X011161Y009762D02*
X020733Y009762D01*
X020733Y009820D02*
X011137Y009820D01*
X011087Y009877D02*
X020733Y009877D01*
X020709Y009935D02*
X010989Y009935D01*
X010836Y009935D02*
X005883Y009935D01*
X005912Y009923D02*
X005810Y009965D01*
X005700Y009965D01*
X005598Y009923D01*
X005520Y009845D01*
X005477Y009742D01*
X005477Y009632D01*
X005520Y009530D01*
X005598Y009452D01*
X005700Y009410D01*
X005810Y009410D01*
X005912Y009452D01*
X005990Y009530D01*
X006033Y009632D01*
X006033Y009742D01*
X005990Y009845D01*
X005912Y009923D01*
X005957Y009877D02*
X010738Y009877D01*
X010688Y009820D02*
X006001Y009820D01*
X006024Y009762D02*
X010664Y009762D01*
X010654Y009705D02*
X006033Y009705D01*
X006033Y009647D02*
X010654Y009647D01*
X010674Y009590D02*
X006015Y009590D01*
X005991Y009532D02*
X010703Y009532D01*
X010760Y009474D02*
X005935Y009474D01*
X005828Y009417D02*
X013415Y009417D01*
X013358Y009359D02*
X002273Y009359D01*
X002273Y009302D02*
X004634Y009302D01*
X004576Y009244D02*
X002273Y009244D01*
X002273Y009187D02*
X004542Y009187D01*
X004518Y009129D02*
X002273Y009129D01*
X002273Y009072D02*
X004513Y009072D01*
X004513Y009014D02*
X002273Y009014D01*
X002273Y008956D02*
X004530Y008956D01*
X004554Y008899D02*
X002273Y008899D01*
X002273Y008841D02*
X004606Y008841D01*
X004693Y008784D02*
X002273Y008784D01*
X002273Y009417D02*
X005682Y009417D01*
X005575Y009474D02*
X002273Y009474D01*
X002273Y009532D02*
X005519Y009532D01*
X005495Y009590D02*
X002273Y009590D01*
X002273Y009647D02*
X005477Y009647D01*
X005477Y009705D02*
X002273Y009705D01*
X002273Y009762D02*
X005485Y009762D01*
X005509Y009820D02*
X002273Y009820D01*
X002273Y009877D02*
X005552Y009877D01*
X005627Y009935D02*
X002273Y009935D01*
X002273Y009992D02*
X020651Y009992D01*
X020594Y010050D02*
X002273Y010050D01*
X002273Y010108D02*
X020536Y010108D01*
X020479Y010165D02*
X003058Y010165D01*
X003179Y010223D02*
X020421Y010223D01*
X020364Y010280D02*
X003237Y010280D01*
X003275Y010338D02*
X020306Y010338D01*
X020249Y010395D02*
X003299Y010395D01*
X003313Y010453D02*
X020191Y010453D01*
X020133Y010510D02*
X003313Y010510D01*
X003311Y010568D02*
X020076Y010568D01*
X020018Y010626D02*
X003287Y010626D01*
X003263Y010683D02*
X019961Y010683D01*
X019903Y010741D02*
X003208Y010741D01*
X003129Y010798D02*
X019846Y010798D01*
X019788Y010856D02*
X002509Y010856D01*
X002567Y010913D02*
X019731Y010913D01*
X016284Y007690D02*
X011191Y007690D01*
X011249Y007633D02*
X016284Y007633D01*
X016337Y007575D02*
X011288Y007575D01*
X011288Y007518D02*
X016395Y007518D01*
X013375Y009014D02*
X005107Y009014D01*
X005107Y009072D02*
X013317Y009072D01*
X013292Y009129D02*
X005102Y009129D01*
X005078Y009187D02*
X013292Y009187D01*
X013292Y009244D02*
X005044Y009244D01*
X004986Y009302D02*
X013300Y009302D01*
X010478Y007633D02*
X008486Y007633D01*
X008544Y007690D02*
X008939Y007690D01*
X008881Y007748D02*
X008552Y007748D01*
X008552Y007805D02*
X008843Y007805D01*
X008843Y007863D02*
X008552Y007863D01*
X008528Y007920D02*
X008843Y007920D01*
X008855Y007978D02*
X008470Y007978D01*
X008429Y007575D02*
X010420Y007575D01*
X011164Y007287D02*
X011646Y007287D01*
X011681Y007345D02*
X011222Y007345D01*
X009316Y008208D02*
X003178Y008208D01*
X003055Y008266D02*
X009316Y008266D01*
X005993Y007690D02*
X005989Y007690D01*
X005989Y007633D02*
X005993Y007633D01*
X005989Y007575D02*
X005993Y007575D01*
X005989Y007518D02*
X005993Y007518D01*
X005989Y007460D02*
X005993Y007460D01*
X005902Y007690D02*
X003210Y007690D01*
X003132Y007633D02*
X005809Y007633D01*
X006876Y005330D02*
X002273Y005330D01*
X002273Y005273D02*
X006819Y005273D01*
X006796Y005215D02*
X002273Y005215D01*
X002273Y005158D02*
X006796Y005158D01*
X006796Y005100D02*
X002273Y005100D01*
X002273Y005043D02*
X006823Y005043D01*
X006880Y004985D02*
X002273Y004985D01*
X002273Y004928D02*
X006828Y004928D01*
X006796Y004870D02*
X002273Y004870D01*
X002273Y004812D02*
X006796Y004812D01*
X006796Y004755D02*
X002273Y004755D01*
X002273Y004697D02*
X006814Y004697D01*
X006871Y004640D02*
X002273Y004640D01*
X002273Y004582D02*
X006837Y004582D01*
X006796Y004525D02*
X004089Y004525D01*
X004082Y004532D02*
X003885Y004532D01*
X003745Y004392D01*
X003745Y004195D01*
X003885Y004055D01*
X004082Y004055D01*
X004222Y004195D01*
X004222Y004392D01*
X004082Y004532D01*
X004147Y004467D02*
X006796Y004467D01*
X006796Y004410D02*
X004204Y004410D01*
X004222Y004352D02*
X006805Y004352D01*
X006862Y004294D02*
X004222Y004294D01*
X004222Y004237D02*
X006920Y004237D01*
X007110Y004237D02*
X007229Y004237D01*
X007229Y004266D02*
X007229Y004085D01*
X007357Y003957D01*
X007538Y003957D01*
X007666Y004085D01*
X007666Y004193D01*
X007814Y004193D01*
X007942Y004321D01*
X007942Y004502D01*
X007814Y004630D01*
X007633Y004630D01*
X007505Y004502D01*
X007505Y004394D01*
X007357Y004394D01*
X007229Y004266D01*
X007258Y004294D02*
X007167Y004294D01*
X007225Y004352D02*
X007315Y004352D01*
X007233Y004410D02*
X007505Y004410D01*
X007505Y004467D02*
X007233Y004467D01*
X007233Y004525D02*
X007527Y004525D01*
X007585Y004582D02*
X007193Y004582D01*
X007158Y004640D02*
X007422Y004640D01*
X007436Y004626D02*
X007308Y004754D01*
X007308Y004935D01*
X007436Y005063D01*
X007617Y005063D01*
X007745Y004935D01*
X007745Y004754D01*
X007617Y004626D01*
X007436Y004626D01*
X007365Y004697D02*
X007216Y004697D01*
X007233Y004755D02*
X007308Y004755D01*
X007308Y004812D02*
X007233Y004812D01*
X007233Y004870D02*
X007308Y004870D01*
X007308Y004928D02*
X007202Y004928D01*
X007149Y004985D02*
X007358Y004985D01*
X007415Y005043D02*
X007207Y005043D01*
X007233Y005100D02*
X020733Y005100D01*
X020733Y005043D02*
X007638Y005043D01*
X007695Y004985D02*
X020733Y004985D01*
X020733Y004928D02*
X014761Y004928D01*
X014743Y004945D02*
X014562Y004945D01*
X014434Y004817D01*
X014434Y004636D01*
X014562Y004508D01*
X014743Y004508D01*
X014867Y004632D01*
X014867Y004557D01*
X014995Y004429D01*
X015176Y004429D01*
X015304Y004557D01*
X015304Y004738D01*
X015176Y004866D01*
X014995Y004866D01*
X014871Y004743D01*
X014871Y004817D01*
X014743Y004945D01*
X014818Y004870D02*
X020733Y004870D01*
X020733Y004812D02*
X015230Y004812D01*
X015288Y004755D02*
X020733Y004755D01*
X020733Y004697D02*
X015304Y004697D01*
X015304Y004640D02*
X020733Y004640D01*
X020733Y004582D02*
X015304Y004582D01*
X015272Y004525D02*
X020733Y004525D01*
X020733Y004467D02*
X015214Y004467D01*
X014957Y004467D02*
X007942Y004467D01*
X007942Y004410D02*
X020733Y004410D01*
X020733Y004352D02*
X007942Y004352D01*
X007915Y004294D02*
X011620Y004294D01*
X011640Y004315D02*
X011501Y004176D01*
X011501Y003978D01*
X011640Y003839D01*
X011838Y003839D01*
X011977Y003978D01*
X011977Y004176D01*
X011838Y004315D01*
X011640Y004315D01*
X011562Y004237D02*
X007858Y004237D01*
X007666Y004179D02*
X011505Y004179D01*
X011501Y004122D02*
X007666Y004122D01*
X007646Y004064D02*
X011501Y004064D01*
X011501Y004007D02*
X007588Y004007D01*
X007307Y004007D02*
X002273Y004007D01*
X002273Y004064D02*
X003876Y004064D01*
X003818Y004122D02*
X002273Y004122D01*
X002273Y004179D02*
X003760Y004179D01*
X003745Y004237D02*
X002273Y004237D01*
X002273Y004294D02*
X003745Y004294D01*
X003745Y004352D02*
X002273Y004352D01*
X002273Y004410D02*
X003762Y004410D01*
X003820Y004467D02*
X002273Y004467D01*
X002273Y004525D02*
X003877Y004525D01*
X004206Y004179D02*
X007229Y004179D01*
X007229Y004122D02*
X004149Y004122D01*
X004091Y004064D02*
X007250Y004064D01*
X008056Y003833D02*
X008056Y003652D01*
X008184Y003524D01*
X008365Y003524D01*
X008493Y003652D01*
X008493Y003833D01*
X008365Y003961D01*
X008184Y003961D01*
X008056Y003833D01*
X008057Y003834D02*
X002273Y003834D01*
X002273Y003776D02*
X008056Y003776D01*
X008056Y003719D02*
X002273Y003719D01*
X002273Y003661D02*
X008056Y003661D01*
X008104Y003604D02*
X002273Y003604D01*
X002273Y003546D02*
X004659Y003546D01*
X004680Y003567D02*
X004552Y003439D01*
X004552Y003258D01*
X004680Y003130D01*
X004861Y003130D01*
X004867Y003136D01*
X004867Y003061D01*
X004993Y002935D01*
X004867Y002809D01*
X004867Y002628D01*
X004995Y002500D01*
X005176Y002500D01*
X005304Y002628D01*
X005304Y002809D01*
X005178Y002935D01*
X005304Y003061D01*
X005304Y003242D01*
X005176Y003370D01*
X004995Y003370D01*
X004989Y003365D01*
X004989Y003439D01*
X004861Y003567D01*
X004680Y003567D01*
X004602Y003489D02*
X002273Y003489D01*
X002273Y003431D02*
X004552Y003431D01*
X004552Y003374D02*
X002273Y003374D01*
X002273Y003316D02*
X004552Y003316D01*
X004552Y003258D02*
X002273Y003258D01*
X002273Y003201D02*
X004609Y003201D01*
X004667Y003143D02*
X002273Y003143D01*
X002273Y003086D02*
X004867Y003086D01*
X004900Y003028D02*
X002273Y003028D01*
X002273Y002971D02*
X004958Y002971D01*
X004971Y002913D02*
X002273Y002913D01*
X002273Y002856D02*
X004913Y002856D01*
X004867Y002798D02*
X002273Y002798D01*
X002273Y002740D02*
X004867Y002740D01*
X004867Y002683D02*
X002273Y002683D01*
X002273Y002625D02*
X004870Y002625D01*
X004927Y002568D02*
X002273Y002568D01*
X002273Y002510D02*
X004985Y002510D01*
X005186Y002510D02*
X015891Y002510D01*
X015891Y002453D02*
X003976Y002453D01*
X003944Y002485D02*
X003747Y002485D01*
X003607Y002345D01*
X003607Y002148D01*
X003747Y002008D01*
X003944Y002008D01*
X004084Y002148D01*
X004084Y002345D01*
X003944Y002485D01*
X004034Y002395D02*
X009138Y002395D01*
X009168Y002426D02*
X009040Y002297D01*
X009040Y002116D01*
X009168Y001988D01*
X009349Y001988D01*
X009477Y002116D01*
X009477Y002297D01*
X009349Y002426D01*
X009168Y002426D01*
X009080Y002338D02*
X004084Y002338D01*
X004084Y002280D02*
X009040Y002280D01*
X009040Y002222D02*
X004084Y002222D01*
X004084Y002165D02*
X004864Y002165D01*
X004869Y002170D02*
X004729Y002030D01*
X004729Y001914D01*
X004562Y001914D01*
X004434Y001786D01*
X004434Y001605D01*
X004562Y001477D01*
X004743Y001477D01*
X004871Y001605D01*
X004871Y001693D01*
X005066Y001693D01*
X005206Y001833D01*
X005206Y002030D01*
X005066Y002170D01*
X004869Y002170D01*
X004807Y002107D02*
X004044Y002107D01*
X003986Y002050D02*
X004749Y002050D01*
X004729Y001992D02*
X002273Y001992D01*
X002273Y001935D02*
X004729Y001935D01*
X004525Y001877D02*
X002273Y001877D01*
X002273Y001820D02*
X004468Y001820D01*
X004434Y001762D02*
X002273Y001762D01*
X002273Y001704D02*
X004434Y001704D01*
X004434Y001647D02*
X002273Y001647D01*
X002273Y001589D02*
X004449Y001589D01*
X004507Y001532D02*
X002273Y001532D01*
X002273Y001474D02*
X010264Y001474D01*
X010221Y001431D02*
X010221Y001250D01*
X010349Y001122D01*
X010530Y001122D01*
X010659Y001250D01*
X010659Y001431D01*
X010552Y001538D01*
X010659Y001644D01*
X010659Y001825D01*
X010530Y001953D01*
X010349Y001953D01*
X010221Y001825D01*
X010221Y001644D01*
X010328Y001538D01*
X010221Y001431D01*
X010221Y001417D02*
X002273Y001417D01*
X002273Y001359D02*
X010221Y001359D01*
X010221Y001302D02*
X002273Y001302D01*
X002273Y001244D02*
X010228Y001244D01*
X010285Y001186D02*
X002273Y001186D01*
X002273Y001129D02*
X010343Y001129D01*
X010537Y001129D02*
X018214Y001129D01*
X018214Y001186D02*
X010595Y001186D01*
X010652Y001244D02*
X012235Y001244D01*
X012239Y001240D02*
X012420Y001240D01*
X012548Y001368D01*
X012548Y001549D01*
X012420Y001677D01*
X012239Y001677D01*
X012111Y001549D01*
X012111Y001368D01*
X012239Y001240D01*
X012178Y001302D02*
X010659Y001302D01*
X010659Y001359D02*
X012120Y001359D01*
X012111Y001417D02*
X010659Y001417D01*
X010616Y001474D02*
X012111Y001474D01*
X012111Y001532D02*
X010558Y001532D01*
X010604Y001589D02*
X012151Y001589D01*
X012209Y001647D02*
X010659Y001647D01*
X010659Y001704D02*
X012633Y001704D01*
X012633Y001673D02*
X012761Y001545D01*
X012942Y001545D01*
X013070Y001673D01*
X013070Y001855D01*
X012942Y001983D01*
X012761Y001983D01*
X012633Y001855D01*
X012633Y001673D01*
X012659Y001647D02*
X012451Y001647D01*
X012508Y001589D02*
X012717Y001589D01*
X012548Y001532D02*
X013247Y001532D01*
X013263Y001516D02*
X013135Y001644D01*
X013135Y001825D01*
X013263Y001953D01*
X013444Y001953D01*
X013572Y001825D01*
X013572Y001644D01*
X013444Y001516D01*
X013263Y001516D01*
X013189Y001589D02*
X012986Y001589D01*
X013043Y001647D02*
X013135Y001647D01*
X013135Y001704D02*
X013070Y001704D01*
X013070Y001762D02*
X013135Y001762D01*
X013135Y001820D02*
X013070Y001820D01*
X013047Y001877D02*
X013187Y001877D01*
X013244Y001935D02*
X012990Y001935D01*
X012713Y001935D02*
X010549Y001935D01*
X010606Y001877D02*
X012655Y001877D01*
X012633Y001820D02*
X010659Y001820D01*
X010659Y001762D02*
X012633Y001762D01*
X012548Y001474D02*
X017045Y001474D01*
X017082Y001437D02*
X017263Y001437D01*
X017391Y001565D01*
X017391Y001746D01*
X017263Y001874D01*
X017082Y001874D01*
X016954Y001746D01*
X016954Y001565D01*
X017082Y001437D01*
X016987Y001532D02*
X015468Y001532D01*
X015452Y001516D02*
X015271Y001516D01*
X015143Y001644D01*
X015143Y001825D01*
X015271Y001953D01*
X015452Y001953D01*
X015580Y001825D01*
X015580Y001644D01*
X015452Y001516D01*
X015525Y001589D02*
X016954Y001589D01*
X016954Y001647D02*
X015580Y001647D01*
X015580Y001704D02*
X016954Y001704D01*
X016969Y001762D02*
X015580Y001762D01*
X015580Y001820D02*
X017027Y001820D01*
X017318Y001820D02*
X018641Y001820D01*
X018696Y001874D02*
X018568Y001746D01*
X018568Y001565D01*
X018696Y001437D01*
X018877Y001437D01*
X019005Y001565D01*
X019005Y001746D01*
X018877Y001874D01*
X018696Y001874D01*
X018584Y001762D02*
X017375Y001762D01*
X017391Y001704D02*
X018568Y001704D01*
X018568Y001647D02*
X017391Y001647D01*
X017391Y001589D02*
X018568Y001589D01*
X018601Y001532D02*
X017357Y001532D01*
X017300Y001474D02*
X018659Y001474D01*
X018526Y001359D02*
X020266Y001359D01*
X020209Y001302D02*
X018584Y001302D01*
X018641Y001244D02*
X020151Y001244D01*
X020094Y001186D02*
X018651Y001186D01*
X018651Y001234D02*
X018523Y001363D01*
X018342Y001363D01*
X018214Y001234D01*
X018214Y001053D01*
X018342Y000925D01*
X018523Y000925D01*
X018651Y001053D01*
X018651Y001234D01*
X018651Y001129D02*
X020036Y001129D01*
X019979Y001071D02*
X018651Y001071D01*
X018611Y001014D02*
X019921Y001014D01*
X019864Y000956D02*
X018554Y000956D01*
X018311Y000956D02*
X002434Y000956D01*
X002491Y000899D02*
X019806Y000899D01*
X019748Y000841D02*
X002549Y000841D01*
X002606Y000784D02*
X019691Y000784D01*
X020324Y001417D02*
X012548Y001417D01*
X012539Y001359D02*
X018338Y001359D01*
X018281Y001302D02*
X012482Y001302D01*
X012424Y001244D02*
X018223Y001244D01*
X018214Y001071D02*
X002319Y001071D01*
X002376Y001014D02*
X018253Y001014D01*
X018914Y001474D02*
X020382Y001474D01*
X020439Y001532D02*
X018972Y001532D01*
X019005Y001589D02*
X020497Y001589D01*
X020554Y001647D02*
X019005Y001647D01*
X019005Y001704D02*
X020612Y001704D01*
X020669Y001762D02*
X018989Y001762D01*
X018932Y001820D02*
X020727Y001820D01*
X020733Y001877D02*
X016404Y001877D01*
X016397Y001870D02*
X016525Y001998D01*
X016525Y002179D01*
X016397Y002307D01*
X016243Y002307D01*
X016328Y002392D01*
X016328Y002573D01*
X016200Y002701D01*
X016019Y002701D01*
X015891Y002573D01*
X015891Y002392D01*
X016019Y002264D01*
X016172Y002264D01*
X016088Y002179D01*
X016088Y001998D01*
X016216Y001870D01*
X016397Y001870D01*
X016461Y001935D02*
X020733Y001935D01*
X020733Y001992D02*
X016519Y001992D01*
X016525Y002050D02*
X020733Y002050D01*
X020733Y002107D02*
X016525Y002107D01*
X016525Y002165D02*
X020733Y002165D01*
X020733Y002222D02*
X016482Y002222D01*
X016424Y002280D02*
X020733Y002280D01*
X020733Y002338D02*
X016273Y002338D01*
X016328Y002395D02*
X020733Y002395D01*
X020733Y002453D02*
X016328Y002453D01*
X016328Y002510D02*
X020733Y002510D01*
X020733Y002568D02*
X016328Y002568D01*
X016276Y002625D02*
X019319Y002625D01*
X019365Y002579D02*
X019546Y002579D01*
X019674Y002707D01*
X019674Y002888D01*
X019546Y003016D01*
X019365Y003016D01*
X019237Y002888D01*
X019237Y002707D01*
X019365Y002579D01*
X019261Y002683D02*
X016218Y002683D01*
X016001Y002683D02*
X015556Y002683D01*
X015580Y002707D02*
X015452Y002579D01*
X015271Y002579D01*
X015143Y002707D01*
X015143Y002888D01*
X015271Y003016D01*
X015452Y003016D01*
X015580Y002888D01*
X015580Y002707D01*
X015580Y002740D02*
X019237Y002740D01*
X019237Y002798D02*
X015580Y002798D01*
X015580Y002856D02*
X018577Y002856D01*
X018617Y002815D02*
X018798Y002815D01*
X018926Y002943D01*
X018926Y003124D01*
X018798Y003252D01*
X018617Y003252D01*
X018489Y003124D01*
X018489Y002943D01*
X018617Y002815D01*
X018519Y002913D02*
X015555Y002913D01*
X015497Y002971D02*
X018489Y002971D01*
X018489Y003028D02*
X013471Y003028D01*
X013444Y003055D02*
X013572Y002927D01*
X013572Y002746D01*
X013444Y002618D01*
X013263Y002618D01*
X013135Y002746D01*
X013135Y002927D01*
X013263Y003055D01*
X013444Y003055D01*
X013529Y002971D02*
X015225Y002971D01*
X015168Y002913D02*
X013572Y002913D01*
X013572Y002856D02*
X015143Y002856D01*
X015143Y002798D02*
X013572Y002798D01*
X013566Y002740D02*
X015143Y002740D01*
X015167Y002683D02*
X013509Y002683D01*
X013451Y002625D02*
X015224Y002625D01*
X015498Y002625D02*
X015943Y002625D01*
X015891Y002568D02*
X005244Y002568D01*
X005301Y002625D02*
X012744Y002625D01*
X012751Y002618D02*
X012932Y002618D01*
X013060Y002746D01*
X013060Y002927D01*
X012932Y003055D01*
X012751Y003055D01*
X012623Y002927D01*
X012623Y002746D01*
X012751Y002618D01*
X012686Y002683D02*
X005304Y002683D01*
X005304Y002740D02*
X012629Y002740D01*
X012623Y002798D02*
X005304Y002798D01*
X005258Y002856D02*
X012623Y002856D01*
X012623Y002913D02*
X005200Y002913D01*
X005214Y002971D02*
X012666Y002971D01*
X012724Y003028D02*
X005271Y003028D01*
X005304Y003086D02*
X010630Y003086D01*
X010664Y003051D02*
X010845Y003051D01*
X010974Y003179D01*
X010974Y003360D01*
X010887Y003447D01*
X010974Y003534D01*
X010974Y003715D01*
X010845Y003843D01*
X010664Y003843D01*
X010536Y003715D01*
X010536Y003534D01*
X010623Y003447D01*
X010536Y003360D01*
X010536Y003179D01*
X010664Y003051D01*
X010572Y003143D02*
X005304Y003143D01*
X005304Y003201D02*
X010536Y003201D01*
X010536Y003258D02*
X005288Y003258D01*
X005231Y003316D02*
X010536Y003316D01*
X010549Y003374D02*
X004989Y003374D01*
X004989Y003431D02*
X009182Y003431D01*
X009208Y003406D02*
X009389Y003406D01*
X009517Y003534D01*
X009517Y003715D01*
X009389Y003843D01*
X009208Y003843D01*
X009080Y003715D01*
X009080Y003534D01*
X009208Y003406D01*
X009125Y003489D02*
X004940Y003489D01*
X004882Y003546D02*
X008162Y003546D01*
X008388Y003546D02*
X009080Y003546D01*
X009080Y003604D02*
X008445Y003604D01*
X008493Y003661D02*
X009080Y003661D01*
X009084Y003719D02*
X008493Y003719D01*
X008493Y003776D02*
X009141Y003776D01*
X009199Y003834D02*
X008492Y003834D01*
X008434Y003892D02*
X011588Y003892D01*
X011530Y003949D02*
X008377Y003949D01*
X008172Y003949D02*
X002273Y003949D01*
X002273Y003892D02*
X008115Y003892D01*
X007919Y004525D02*
X014545Y004525D01*
X014488Y004582D02*
X007862Y004582D01*
X007688Y004697D02*
X014434Y004697D01*
X014434Y004640D02*
X007631Y004640D01*
X007745Y004755D02*
X014434Y004755D01*
X014434Y004812D02*
X007745Y004812D01*
X007745Y004870D02*
X014487Y004870D01*
X014544Y004928D02*
X007745Y004928D01*
X007233Y005158D02*
X020733Y005158D01*
X020733Y005215D02*
X007233Y005215D01*
X009398Y003834D02*
X010656Y003834D01*
X010598Y003776D02*
X009455Y003776D01*
X009513Y003719D02*
X010540Y003719D01*
X010536Y003661D02*
X009517Y003661D01*
X009517Y003604D02*
X010536Y003604D01*
X010536Y003546D02*
X009517Y003546D01*
X009472Y003489D02*
X010581Y003489D01*
X010607Y003431D02*
X009414Y003431D01*
X010903Y003431D02*
X017938Y003431D01*
X017938Y003374D02*
X010960Y003374D01*
X010974Y003316D02*
X017959Y003316D01*
X017938Y003337D02*
X018066Y003209D01*
X018247Y003209D01*
X018375Y003337D01*
X018375Y003518D01*
X018247Y003646D01*
X018066Y003646D01*
X017938Y003518D01*
X017938Y003337D01*
X018016Y003258D02*
X010974Y003258D01*
X010974Y003201D02*
X018566Y003201D01*
X018508Y003143D02*
X010937Y003143D01*
X010880Y003086D02*
X018489Y003086D01*
X018297Y003258D02*
X020733Y003258D01*
X020733Y003201D02*
X018850Y003201D01*
X018907Y003143D02*
X020733Y003143D01*
X020733Y003086D02*
X018926Y003086D01*
X018926Y003028D02*
X020733Y003028D01*
X020733Y002971D02*
X019592Y002971D01*
X019649Y002913D02*
X020733Y002913D01*
X020733Y002856D02*
X019674Y002856D01*
X019674Y002798D02*
X020733Y002798D01*
X020733Y002740D02*
X019674Y002740D01*
X019650Y002683D02*
X020733Y002683D01*
X020733Y002625D02*
X019593Y002625D01*
X019237Y002856D02*
X018839Y002856D01*
X018896Y002913D02*
X019262Y002913D01*
X019320Y002971D02*
X018926Y002971D01*
X018354Y003316D02*
X020733Y003316D01*
X020733Y003374D02*
X018375Y003374D01*
X018375Y003431D02*
X020733Y003431D01*
X020733Y003489D02*
X018375Y003489D01*
X018347Y003546D02*
X020733Y003546D01*
X020733Y003604D02*
X018289Y003604D01*
X018024Y003604D02*
X010974Y003604D01*
X010974Y003661D02*
X020733Y003661D01*
X020733Y003719D02*
X010969Y003719D01*
X010912Y003776D02*
X020733Y003776D01*
X020733Y003834D02*
X010854Y003834D01*
X010974Y003546D02*
X017966Y003546D01*
X017938Y003489D02*
X010928Y003489D01*
X011891Y003892D02*
X020733Y003892D01*
X020733Y003949D02*
X011948Y003949D01*
X011977Y004007D02*
X020733Y004007D01*
X020733Y004064D02*
X011977Y004064D01*
X011977Y004122D02*
X020733Y004122D01*
X020733Y004179D02*
X011974Y004179D01*
X011916Y004237D02*
X020733Y004237D01*
X020733Y004294D02*
X011859Y004294D01*
X012824Y005561D02*
X013509Y005561D01*
X013452Y005618D02*
X012824Y005618D01*
X012792Y005676D02*
X013410Y005676D01*
X013410Y005733D02*
X012734Y005733D01*
X014871Y004812D02*
X014941Y004812D01*
X014884Y004755D02*
X014871Y004755D01*
X014867Y004582D02*
X014817Y004582D01*
X014760Y004525D02*
X014900Y004525D01*
X013236Y003028D02*
X012959Y003028D01*
X013017Y002971D02*
X013178Y002971D01*
X013135Y002913D02*
X013060Y002913D01*
X013060Y002856D02*
X013135Y002856D01*
X013135Y002798D02*
X013060Y002798D01*
X013054Y002740D02*
X013141Y002740D01*
X013198Y002683D02*
X012997Y002683D01*
X012939Y002625D02*
X013256Y002625D01*
X013462Y001935D02*
X015252Y001935D01*
X015195Y001877D02*
X013520Y001877D01*
X013572Y001820D02*
X015143Y001820D01*
X015143Y001762D02*
X013572Y001762D01*
X013572Y001704D02*
X015143Y001704D01*
X015143Y001647D02*
X013572Y001647D01*
X013517Y001589D02*
X015197Y001589D01*
X015255Y001532D02*
X013460Y001532D01*
X015470Y001935D02*
X016151Y001935D01*
X016094Y001992D02*
X009353Y001992D01*
X009411Y002050D02*
X016088Y002050D01*
X016088Y002107D02*
X009468Y002107D01*
X009477Y002165D02*
X016088Y002165D01*
X016131Y002222D02*
X009477Y002222D01*
X009477Y002280D02*
X016003Y002280D01*
X015945Y002338D02*
X009437Y002338D01*
X009380Y002395D02*
X015891Y002395D01*
X016209Y001877D02*
X015528Y001877D01*
X010331Y001935D02*
X007863Y001935D01*
X007863Y001983D02*
X007735Y002111D01*
X007554Y002111D01*
X007468Y002024D01*
X007381Y002111D01*
X007200Y002111D01*
X007072Y001983D01*
X007072Y001801D01*
X007200Y001673D01*
X007381Y001673D01*
X007468Y001760D01*
X007554Y001673D01*
X007735Y001673D01*
X007863Y001801D01*
X007863Y001983D01*
X007854Y001992D02*
X009164Y001992D01*
X009107Y002050D02*
X007796Y002050D01*
X007738Y002107D02*
X009049Y002107D01*
X009040Y002165D02*
X005071Y002165D01*
X005128Y002107D02*
X007197Y002107D01*
X007139Y002050D02*
X005186Y002050D01*
X005206Y001992D02*
X007082Y001992D01*
X007072Y001935D02*
X006612Y001935D01*
X006593Y001953D02*
X006412Y001953D01*
X006284Y001825D01*
X006284Y001644D01*
X006412Y001516D01*
X006593Y001516D01*
X006722Y001644D01*
X006722Y001825D01*
X006593Y001953D01*
X006669Y001877D02*
X007072Y001877D01*
X007072Y001820D02*
X006722Y001820D01*
X006722Y001762D02*
X007111Y001762D01*
X007169Y001704D02*
X006722Y001704D01*
X006722Y001647D02*
X010221Y001647D01*
X010221Y001704D02*
X007766Y001704D01*
X007824Y001762D02*
X010221Y001762D01*
X010221Y001820D02*
X007863Y001820D01*
X007863Y001877D02*
X010274Y001877D01*
X010276Y001589D02*
X006667Y001589D01*
X006609Y001532D02*
X010322Y001532D01*
X007523Y001704D02*
X007412Y001704D01*
X007442Y002050D02*
X007493Y002050D01*
X007551Y002107D02*
X007384Y002107D01*
X006394Y001935D02*
X005206Y001935D01*
X005206Y001877D02*
X006337Y001877D01*
X006284Y001820D02*
X005193Y001820D01*
X005135Y001762D02*
X006284Y001762D01*
X006284Y001704D02*
X005078Y001704D01*
X004871Y001647D02*
X006284Y001647D01*
X006339Y001589D02*
X004856Y001589D01*
X004798Y001532D02*
X006396Y001532D01*
X003705Y002050D02*
X002273Y002050D01*
X002273Y002107D02*
X003647Y002107D01*
X003607Y002165D02*
X002273Y002165D01*
X002273Y002222D02*
X003607Y002222D01*
X003607Y002280D02*
X002273Y002280D01*
X002273Y002338D02*
X003607Y002338D01*
X003657Y002395D02*
X002273Y002395D01*
X002273Y002453D02*
X003715Y002453D01*
X002468Y010165D02*
X002273Y010165D01*
X002273Y010223D02*
X002346Y010223D01*
X002289Y010280D02*
X002273Y010280D01*
D18*
X004810Y009727D03*
X004810Y009057D03*
M02*
