%
M48
M72
T01C0.0118
T02C0.0126
T03C0.0157
T04C0.0185
T05C0.0197
T06C0.0236
T07C0.0276
T08C0.0331
%
T01
X4653Y1695
X5086Y2719
X5086Y3152
X4771Y3349
X7192Y3762
X7448Y4175
X7723Y4412
X7015Y4451
X7015Y4805
X7527Y4845
X7015Y5160
X5125Y5868
X3038Y6301
X8275Y3742
X9298Y3624
X10755Y3624
X10755Y3270
X11818Y2994
X12842Y2837
X13353Y2837
X14849Y2837
X15361Y2797
X16109Y2483
X16306Y2089
X17172Y1656
X17763Y1183
X18432Y1144
X18786Y1656
X19456Y1420
X19456Y2797
X18708Y3034
X18156Y3427
X17330Y3073
X16542Y4530
X15086Y4648
X14653Y4727
X14259Y5475
X13629Y5750
X12605Y5553
X12290Y5435
X11857Y5475
X12290Y5790
X14338Y6813
X14062Y7049
X15617Y6912
X16503Y7719
X17271Y7030
X17704Y7935
X19712Y7502
X20125Y7404
X20440Y7286
X18078Y6105
X19554Y4668
X15361Y1734
X14851Y1733
X13353Y1734
X12851Y1764
X12330Y1459
X10440Y1341
X10440Y1734
X9633Y2109
X9259Y2207
X7645Y1892
X7290Y1892
X6503Y1734
X12094Y4412
X11503Y7404
X11070Y7502
X10597Y7443
X9062Y7876
X9062Y8231
T02
X5991Y7443
T03
X3845Y2246
X4259Y2246
X4968Y1931
X3983Y4294
X7763Y5829
X9180Y7483
X8314Y7797
X7408Y7797
X5440Y8506
X4534Y7916
X9554Y8231
X10007Y8231
X10007Y8742
X10873Y8231
X12369Y8231
X13531Y9195
X13511Y10671
X7566Y10790
X11739Y4077
T04
X5991Y7089
T05
X10912Y9687
T06
X11857Y10435
X11897Y7168
X5755Y9687
T07
X4810Y9727
X4810Y9057
T08
X2975Y7933
X2897Y7933
X2751Y7933
X2621Y7933
X2550Y7933
X2550Y10496
X2621Y10496
X2751Y10496
X2897Y10496
X2975Y10496
M30
